M48
;GenerationSoftware,Autodesk,EAGLE,9.6.2*%
;CreationDate,2020-09-05T00:14:32Z*%
FMAT,2
ICI,OFF
METRIC,TZ,000.000
T7C0.203
T6C0.300
T5C0.350
T4C0.500
T3C1.000
T2C1.016
T1C3.300
%
G90
M71
T1
X25500Y54000
X2500Y54000
T2
X7493Y40894
X2413Y34290
X4953Y34290
X7493Y34290
X2460Y31000
X5000Y31000
X7540Y31000
X2810Y1810
X2810Y4350
X2810Y6890
X2873Y12984
X2810Y9430
X2873Y15524
X4953Y37592
X2413Y37592
X7493Y37592
X2413Y40894
X4953Y40894
T3
X13065Y54420
X20685Y54420
X15605Y54420
X18145Y54420
T4
X17129Y46165
X14335Y48324
X23352Y52515
X16240Y46927
X17129Y44260
X19796Y42482
X24114Y44768
T5
X14200Y34700
X19900Y34700
X18300Y30300
T6
X18517Y39252
X12497Y23774
X11354Y27051
X14000Y27750
X23000Y20250
X22250Y3250
X11430Y28499
X13250Y18500
X21000Y36750
X15000Y32500
X18500Y36000
X24079Y41758
X20498Y41758
X10500Y18500
X25500Y17500
X12750Y17750
X17250Y27750
X14000Y15250
X12750Y41250
X10250Y36750
X9250Y37750
X25500Y13750
X9500Y45000
X25500Y10500
X6500Y20750
X25500Y11500
X19126Y23012
X19888Y24384
X20041Y14478
X20041Y18440
X19964Y38252
X27000Y15000
X1250Y25750
T7
X24965Y29480
X26235Y29480
X25600Y30115
X24965Y33925
X26235Y22397
X24965Y21127
X26235Y21127
X25600Y21762
X26235Y35195
X24965Y35195
X25600Y34560
X24965Y22397
X24965Y30750
X26235Y33925
X24965Y27127
X26235Y27127
X24965Y25857
X26235Y25857
X25600Y26492
X26235Y30750
M30