G04 EAGLE Gerber RS-274X export*
G75*
%MOMM*%
%FSLAX34Y34*%
%LPD*%
%INBottom Copper*%
%IPPOS*%
%AMOC8*
5,1,8,0,0,1.08239X$1,22.5*%
G01*
%ADD10C,1.524000*%
%ADD11C,1.930400*%
%ADD12C,0.711200*%
%ADD13C,0.152400*%
%ADD14C,0.706400*%
%ADD15C,0.756400*%
%ADD16C,0.906400*%
%ADD17C,0.254000*%

G36*
X125756Y184332D02*
X125756Y184332D01*
X125808Y184333D01*
X125876Y184358D01*
X125946Y184373D01*
X125990Y184400D01*
X126039Y184418D01*
X126095Y184463D01*
X126157Y184500D01*
X126191Y184539D01*
X126231Y184572D01*
X126270Y184632D01*
X126317Y184686D01*
X126336Y184735D01*
X126364Y184779D01*
X126382Y184848D01*
X126409Y184915D01*
X126417Y184986D01*
X126425Y185017D01*
X126423Y185040D01*
X126427Y185081D01*
X126427Y186208D01*
X127352Y188440D01*
X128974Y190062D01*
X129027Y190136D01*
X129087Y190206D01*
X129099Y190236D01*
X129118Y190262D01*
X129145Y190349D01*
X129179Y190434D01*
X129183Y190475D01*
X129190Y190497D01*
X129189Y190529D01*
X129197Y190601D01*
X129197Y368436D01*
X129194Y368456D01*
X129196Y368475D01*
X129174Y368577D01*
X129158Y368679D01*
X129148Y368696D01*
X129144Y368716D01*
X129091Y368805D01*
X129042Y368896D01*
X129028Y368910D01*
X129018Y368927D01*
X128939Y368994D01*
X128864Y369066D01*
X128846Y369074D01*
X128831Y369087D01*
X128735Y369126D01*
X128641Y369169D01*
X128621Y369171D01*
X128603Y369179D01*
X128436Y369197D01*
X109334Y369197D01*
X109314Y369194D01*
X109295Y369196D01*
X109193Y369174D01*
X109091Y369158D01*
X109074Y369148D01*
X109054Y369144D01*
X108965Y369091D01*
X108874Y369042D01*
X108860Y369028D01*
X108843Y369018D01*
X108776Y368939D01*
X108704Y368864D01*
X108696Y368846D01*
X108683Y368831D01*
X108644Y368735D01*
X108601Y368641D01*
X108599Y368621D01*
X108591Y368603D01*
X108573Y368436D01*
X108573Y366292D01*
X107648Y364060D01*
X105940Y362352D01*
X103708Y361427D01*
X101292Y361427D01*
X99060Y362352D01*
X97352Y364060D01*
X96427Y366292D01*
X96427Y368587D01*
X96413Y368677D01*
X96405Y368768D01*
X96393Y368797D01*
X96388Y368829D01*
X96345Y368910D01*
X96309Y368994D01*
X96283Y369026D01*
X96272Y369047D01*
X96249Y369069D01*
X96204Y369125D01*
X94125Y371204D01*
X94051Y371257D01*
X93982Y371317D01*
X93951Y371329D01*
X93925Y371348D01*
X93838Y371375D01*
X93753Y371409D01*
X93712Y371413D01*
X93690Y371420D01*
X93658Y371419D01*
X93587Y371427D01*
X91292Y371427D01*
X89060Y372352D01*
X87352Y374060D01*
X86427Y376292D01*
X86427Y376682D01*
X86424Y376702D01*
X86426Y376721D01*
X86404Y376823D01*
X86388Y376925D01*
X86378Y376942D01*
X86374Y376962D01*
X86321Y377051D01*
X86272Y377142D01*
X86258Y377156D01*
X86248Y377173D01*
X86169Y377240D01*
X86094Y377311D01*
X86076Y377320D01*
X86061Y377333D01*
X85965Y377372D01*
X85871Y377415D01*
X85851Y377417D01*
X85833Y377425D01*
X85666Y377443D01*
X75692Y377443D01*
X75672Y377440D01*
X75653Y377442D01*
X75551Y377420D01*
X75449Y377403D01*
X75432Y377394D01*
X75412Y377390D01*
X75323Y377337D01*
X75232Y377288D01*
X75218Y377274D01*
X75201Y377264D01*
X75134Y377185D01*
X75063Y377110D01*
X75054Y377092D01*
X75041Y377077D01*
X75003Y376981D01*
X74959Y376887D01*
X74957Y376867D01*
X74949Y376849D01*
X74931Y376682D01*
X74931Y375919D01*
X74929Y375919D01*
X74929Y376682D01*
X74926Y376702D01*
X74928Y376721D01*
X74906Y376823D01*
X74889Y376925D01*
X74880Y376942D01*
X74876Y376962D01*
X74823Y377051D01*
X74774Y377142D01*
X74760Y377156D01*
X74750Y377173D01*
X74671Y377240D01*
X74596Y377311D01*
X74578Y377320D01*
X74563Y377333D01*
X74467Y377372D01*
X74373Y377415D01*
X74353Y377417D01*
X74335Y377425D01*
X74168Y377443D01*
X64769Y377443D01*
X64769Y384340D01*
X65019Y385919D01*
X65514Y387440D01*
X66240Y388865D01*
X66696Y389494D01*
X67180Y390159D01*
X68311Y391290D01*
X68466Y391403D01*
X68575Y391505D01*
X68698Y391620D01*
X68698Y391621D01*
X68797Y391777D01*
X68868Y391889D01*
X68869Y391889D01*
X68929Y392074D01*
X68967Y392191D01*
X68967Y392192D01*
X68978Y392363D01*
X68987Y392508D01*
X68987Y392509D01*
X68962Y392642D01*
X68928Y392821D01*
X68873Y392937D01*
X68793Y393109D01*
X68792Y393109D01*
X68695Y393228D01*
X68590Y393354D01*
X68590Y393355D01*
X68589Y393355D01*
X68466Y393457D01*
X68311Y393570D01*
X67180Y394701D01*
X66240Y395995D01*
X65514Y397420D01*
X65019Y398941D01*
X64769Y400520D01*
X64769Y406401D01*
X72391Y406401D01*
X72391Y383700D01*
X72406Y383582D01*
X72413Y383463D01*
X72426Y383425D01*
X72431Y383384D01*
X72474Y383274D01*
X72511Y383161D01*
X72533Y383126D01*
X72548Y383089D01*
X72618Y382993D01*
X72681Y382892D01*
X72711Y382864D01*
X72734Y382831D01*
X72826Y382756D01*
X72913Y382674D01*
X72948Y382654D01*
X72979Y382629D01*
X73087Y382578D01*
X73191Y382520D01*
X73231Y382510D01*
X73267Y382493D01*
X73384Y382471D01*
X73499Y382441D01*
X73560Y382437D01*
X73580Y382433D01*
X73600Y382435D01*
X73660Y382431D01*
X76200Y382431D01*
X76318Y382446D01*
X76437Y382453D01*
X76475Y382466D01*
X76515Y382471D01*
X76626Y382514D01*
X76739Y382551D01*
X76774Y382573D01*
X76811Y382588D01*
X76907Y382658D01*
X77008Y382721D01*
X77036Y382751D01*
X77069Y382774D01*
X77144Y382866D01*
X77226Y382953D01*
X77246Y382988D01*
X77271Y383019D01*
X77322Y383127D01*
X77380Y383231D01*
X77390Y383271D01*
X77407Y383307D01*
X77429Y383424D01*
X77459Y383539D01*
X77463Y383600D01*
X77467Y383620D01*
X77465Y383640D01*
X77469Y383700D01*
X77469Y406401D01*
X85091Y406401D01*
X85091Y400520D01*
X84841Y398941D01*
X84346Y397420D01*
X83620Y395995D01*
X82680Y394701D01*
X81549Y393570D01*
X81394Y393457D01*
X81256Y393327D01*
X81162Y393240D01*
X81162Y393239D01*
X81072Y393097D01*
X80992Y392971D01*
X80991Y392971D01*
X80943Y392821D01*
X80893Y392669D01*
X80893Y392668D01*
X80884Y392523D01*
X80873Y392351D01*
X80914Y392134D01*
X80932Y392039D01*
X80932Y392038D01*
X81019Y391854D01*
X81067Y391751D01*
X81068Y391751D01*
X81194Y391598D01*
X81270Y391506D01*
X81270Y391505D01*
X81271Y391505D01*
X81394Y391403D01*
X81549Y391290D01*
X82680Y390159D01*
X83620Y388865D01*
X84346Y387440D01*
X84841Y385919D01*
X85091Y384340D01*
X85091Y383700D01*
X85106Y383582D01*
X85113Y383463D01*
X85126Y383425D01*
X85131Y383384D01*
X85174Y383274D01*
X85211Y383161D01*
X85233Y383126D01*
X85248Y383089D01*
X85317Y382993D01*
X85381Y382892D01*
X85411Y382864D01*
X85434Y382831D01*
X85526Y382756D01*
X85613Y382674D01*
X85648Y382654D01*
X85679Y382629D01*
X85787Y382578D01*
X85891Y382520D01*
X85931Y382510D01*
X85967Y382493D01*
X86084Y382471D01*
X86199Y382441D01*
X86259Y382437D01*
X86279Y382433D01*
X86300Y382435D01*
X86360Y382431D01*
X88317Y382431D01*
X88415Y382443D01*
X88514Y382446D01*
X88572Y382463D01*
X88632Y382471D01*
X88724Y382507D01*
X88820Y382535D01*
X88872Y382565D01*
X88928Y382588D01*
X88947Y382601D01*
X91292Y383573D01*
X93708Y383573D01*
X96036Y382609D01*
X96037Y382608D01*
X96128Y382568D01*
X96215Y382520D01*
X96273Y382505D01*
X96329Y382481D01*
X96427Y382466D01*
X96522Y382441D01*
X96622Y382435D01*
X96643Y382431D01*
X96655Y382433D01*
X96683Y382431D01*
X102928Y382431D01*
X103046Y382446D01*
X103165Y382453D01*
X103203Y382466D01*
X103244Y382471D01*
X103354Y382514D01*
X103467Y382551D01*
X103502Y382573D01*
X103539Y382588D01*
X103635Y382658D01*
X103736Y382721D01*
X103764Y382751D01*
X103797Y382774D01*
X103873Y382866D01*
X103954Y382953D01*
X103974Y382988D01*
X103999Y383019D01*
X104050Y383127D01*
X104108Y383231D01*
X104118Y383271D01*
X104135Y383307D01*
X104157Y383424D01*
X104187Y383539D01*
X104191Y383600D01*
X104195Y383620D01*
X104193Y383640D01*
X104197Y383700D01*
X104197Y385606D01*
X104185Y385704D01*
X104182Y385803D01*
X104165Y385862D01*
X104157Y385922D01*
X104121Y386014D01*
X104093Y386109D01*
X104063Y386161D01*
X104040Y386217D01*
X103982Y386297D01*
X103932Y386383D01*
X103866Y386458D01*
X103854Y386475D01*
X103844Y386483D01*
X103826Y386504D01*
X94004Y396326D01*
X91697Y398632D01*
X91697Y444189D01*
X91685Y444287D01*
X91682Y444386D01*
X91665Y444444D01*
X91657Y444504D01*
X91621Y444596D01*
X91593Y444692D01*
X91563Y444744D01*
X91540Y444800D01*
X91482Y444880D01*
X91432Y444965D01*
X91366Y445041D01*
X91354Y445057D01*
X91344Y445065D01*
X91326Y445086D01*
X89852Y446560D01*
X88927Y448792D01*
X88927Y451208D01*
X89852Y453440D01*
X91560Y455148D01*
X93792Y456073D01*
X96208Y456073D01*
X98440Y455148D01*
X100148Y453440D01*
X100267Y453152D01*
X100302Y453091D01*
X100328Y453027D01*
X100380Y452954D01*
X100425Y452876D01*
X100474Y452826D01*
X100514Y452769D01*
X100584Y452712D01*
X100646Y452648D01*
X100706Y452611D01*
X100759Y452567D01*
X100841Y452528D01*
X100917Y452481D01*
X100984Y452461D01*
X101047Y452431D01*
X101135Y452414D01*
X101221Y452388D01*
X101291Y452384D01*
X101360Y452371D01*
X101449Y452377D01*
X101539Y452373D01*
X101607Y452387D01*
X101677Y452391D01*
X101762Y452419D01*
X101850Y452437D01*
X101913Y452468D01*
X101979Y452489D01*
X102055Y452537D01*
X102136Y452577D01*
X102189Y452622D01*
X102248Y452659D01*
X102310Y452725D01*
X102378Y452783D01*
X102418Y452840D01*
X102466Y452891D01*
X102509Y452969D01*
X102561Y453043D01*
X102586Y453108D01*
X102620Y453169D01*
X102642Y453256D01*
X102674Y453340D01*
X102682Y453410D01*
X102699Y453477D01*
X102709Y453638D01*
X102709Y520378D01*
X119512Y537181D01*
X119530Y537204D01*
X119552Y537224D01*
X119627Y537330D01*
X119707Y537432D01*
X119719Y537459D01*
X119736Y537484D01*
X119782Y537605D01*
X119833Y537724D01*
X119838Y537753D01*
X119848Y537781D01*
X119863Y537910D01*
X119883Y538038D01*
X119880Y538068D01*
X119884Y538097D01*
X119865Y538226D01*
X119853Y538355D01*
X119843Y538383D01*
X119839Y538412D01*
X119787Y538564D01*
X118457Y541775D01*
X118457Y546625D01*
X120313Y551107D01*
X123743Y554537D01*
X126618Y555727D01*
X126679Y555762D01*
X126744Y555788D01*
X126817Y555840D01*
X126895Y555885D01*
X126945Y555933D01*
X127001Y555974D01*
X127059Y556044D01*
X127123Y556106D01*
X127160Y556166D01*
X127204Y556219D01*
X127242Y556301D01*
X127289Y556377D01*
X127310Y556444D01*
X127340Y556507D01*
X127356Y556595D01*
X127383Y556681D01*
X127386Y556751D01*
X127399Y556820D01*
X127394Y556909D01*
X127398Y556999D01*
X127384Y557067D01*
X127380Y557137D01*
X127352Y557222D01*
X127334Y557310D01*
X127303Y557373D01*
X127282Y557439D01*
X127234Y557515D01*
X127194Y557596D01*
X127149Y557649D01*
X127111Y557708D01*
X127046Y557770D01*
X126988Y557838D01*
X126931Y557878D01*
X126880Y557926D01*
X126801Y557969D01*
X126728Y558021D01*
X126662Y558046D01*
X126601Y558080D01*
X126514Y558102D01*
X126430Y558134D01*
X126361Y558142D01*
X126293Y558159D01*
X126133Y558169D01*
X45400Y558169D01*
X45282Y558154D01*
X45163Y558147D01*
X45125Y558134D01*
X45084Y558129D01*
X44974Y558086D01*
X44861Y558049D01*
X44826Y558027D01*
X44789Y558012D01*
X44693Y557943D01*
X44592Y557879D01*
X44564Y557849D01*
X44531Y557826D01*
X44456Y557734D01*
X44374Y557647D01*
X44354Y557612D01*
X44329Y557581D01*
X44278Y557473D01*
X44220Y557369D01*
X44210Y557329D01*
X44193Y557293D01*
X44171Y557176D01*
X44141Y557061D01*
X44137Y557001D01*
X44133Y556981D01*
X44135Y556960D01*
X44131Y556900D01*
X44131Y550460D01*
X44132Y550451D01*
X44131Y550441D01*
X44152Y550293D01*
X44171Y550144D01*
X44174Y550136D01*
X44175Y550127D01*
X44227Y549974D01*
X46581Y544293D01*
X46581Y535707D01*
X44227Y530026D01*
X44225Y530017D01*
X44220Y530009D01*
X44183Y529864D01*
X44143Y529719D01*
X44143Y529710D01*
X44141Y529701D01*
X44131Y529540D01*
X44131Y427221D01*
X44137Y427172D01*
X44135Y427122D01*
X44157Y427015D01*
X44171Y426905D01*
X44189Y426859D01*
X44199Y426811D01*
X44247Y426712D01*
X44288Y426610D01*
X44317Y426570D01*
X44339Y426525D01*
X44410Y426441D01*
X44474Y426352D01*
X44513Y426321D01*
X44545Y426283D01*
X44635Y426220D01*
X44719Y426150D01*
X44764Y426128D01*
X44805Y426100D01*
X44908Y426061D01*
X45007Y426014D01*
X45056Y426005D01*
X45102Y425987D01*
X45212Y425975D01*
X45320Y425954D01*
X45369Y425957D01*
X45418Y425952D01*
X45527Y425967D01*
X45637Y425974D01*
X45684Y425989D01*
X45733Y425996D01*
X45886Y426048D01*
X47509Y426721D01*
X51551Y426721D01*
X55286Y425174D01*
X58144Y422316D01*
X59691Y418581D01*
X59691Y399299D01*
X58144Y395564D01*
X55907Y393327D01*
X55834Y393233D01*
X55755Y393144D01*
X55737Y393108D01*
X55712Y393076D01*
X55665Y392967D01*
X55611Y392861D01*
X55602Y392822D01*
X55586Y392784D01*
X55567Y392667D01*
X55541Y392551D01*
X55542Y392510D01*
X55536Y392470D01*
X55547Y392351D01*
X55551Y392233D01*
X55562Y392194D01*
X55566Y392154D01*
X55606Y392042D01*
X55639Y391927D01*
X55660Y391892D01*
X55673Y391854D01*
X55740Y391756D01*
X55801Y391653D01*
X55840Y391608D01*
X55852Y391591D01*
X55867Y391578D01*
X55907Y391532D01*
X58144Y389296D01*
X59691Y385561D01*
X59691Y366279D01*
X58144Y362544D01*
X55548Y359948D01*
X55536Y359932D01*
X55521Y359920D01*
X55464Y359832D01*
X55404Y359749D01*
X55398Y359730D01*
X55388Y359713D01*
X55362Y359612D01*
X55332Y359513D01*
X55332Y359494D01*
X55327Y359474D01*
X55336Y359371D01*
X55338Y359268D01*
X55345Y359249D01*
X55347Y359229D01*
X55387Y359134D01*
X55423Y359037D01*
X55435Y359021D01*
X55443Y359003D01*
X55548Y358872D01*
X58144Y356276D01*
X59691Y352541D01*
X59691Y333259D01*
X58144Y329524D01*
X55843Y327223D01*
X55831Y327207D01*
X55816Y327195D01*
X55759Y327107D01*
X55699Y327024D01*
X55693Y327005D01*
X55683Y326988D01*
X55657Y326887D01*
X55627Y326788D01*
X55627Y326769D01*
X55622Y326749D01*
X55631Y326646D01*
X55633Y326543D01*
X55640Y326524D01*
X55642Y326504D01*
X55682Y326409D01*
X55718Y326312D01*
X55730Y326296D01*
X55738Y326278D01*
X55843Y326147D01*
X58614Y323376D01*
X60161Y319641D01*
X60161Y300359D01*
X58614Y296624D01*
X55756Y293766D01*
X52021Y292219D01*
X47979Y292219D01*
X44355Y293720D01*
X44311Y293731D01*
X44269Y293750D01*
X44192Y293759D01*
X44116Y293776D01*
X44070Y293772D01*
X44025Y293777D01*
X43948Y293761D01*
X43871Y293753D01*
X43829Y293735D01*
X43784Y293725D01*
X43717Y293685D01*
X43646Y293653D01*
X43612Y293622D01*
X43573Y293599D01*
X43522Y293540D01*
X43465Y293487D01*
X43443Y293447D01*
X43413Y293412D01*
X43384Y293340D01*
X43347Y293271D01*
X43338Y293226D01*
X43321Y293184D01*
X43306Y293048D01*
X43303Y293029D01*
X43304Y293024D01*
X43303Y293017D01*
X43303Y266683D01*
X43317Y266593D01*
X43325Y266502D01*
X43337Y266473D01*
X43342Y266441D01*
X43385Y266360D01*
X43421Y266276D01*
X43447Y266244D01*
X43458Y266223D01*
X43481Y266201D01*
X43526Y266145D01*
X125128Y184543D01*
X125186Y184501D01*
X125238Y184452D01*
X125285Y184430D01*
X125327Y184399D01*
X125396Y184378D01*
X125461Y184348D01*
X125513Y184342D01*
X125563Y184327D01*
X125634Y184329D01*
X125705Y184321D01*
X125756Y184332D01*
G37*
G36*
X215907Y140817D02*
X215907Y140817D01*
X215998Y140825D01*
X216027Y140837D01*
X216059Y140842D01*
X216140Y140885D01*
X216224Y140921D01*
X216256Y140947D01*
X216277Y140958D01*
X216299Y140981D01*
X216355Y141026D01*
X248704Y173375D01*
X248757Y173449D01*
X248817Y173518D01*
X248829Y173549D01*
X248848Y173575D01*
X248875Y173662D01*
X248909Y173747D01*
X248913Y173788D01*
X248920Y173810D01*
X248919Y173842D01*
X248927Y173913D01*
X248927Y176208D01*
X249852Y178440D01*
X251560Y180148D01*
X253792Y181073D01*
X256208Y181073D01*
X258145Y180270D01*
X258189Y180260D01*
X258231Y180241D01*
X258308Y180232D01*
X258384Y180214D01*
X258430Y180219D01*
X258475Y180214D01*
X258552Y180230D01*
X258629Y180237D01*
X258671Y180256D01*
X258716Y180266D01*
X258783Y180306D01*
X258854Y180337D01*
X258888Y180368D01*
X258927Y180392D01*
X258978Y180451D01*
X259035Y180504D01*
X259057Y180544D01*
X259087Y180579D01*
X259116Y180651D01*
X259153Y180719D01*
X259162Y180764D01*
X259179Y180807D01*
X259194Y180943D01*
X259197Y180961D01*
X259196Y180966D01*
X259197Y180974D01*
X259197Y188317D01*
X259183Y188407D01*
X259175Y188498D01*
X259163Y188527D01*
X259158Y188559D01*
X259115Y188640D01*
X259079Y188724D01*
X259053Y188756D01*
X259042Y188777D01*
X259019Y188799D01*
X258974Y188855D01*
X214197Y233632D01*
X214197Y361526D01*
X214190Y361571D01*
X214192Y361617D01*
X214170Y361692D01*
X214158Y361769D01*
X214136Y361809D01*
X214123Y361854D01*
X214079Y361918D01*
X214042Y361986D01*
X214009Y362018D01*
X213983Y362056D01*
X213921Y362102D01*
X213864Y362156D01*
X213822Y362175D01*
X213786Y362202D01*
X213712Y362227D01*
X213641Y362259D01*
X213595Y362264D01*
X213552Y362279D01*
X213474Y362278D01*
X213397Y362286D01*
X213352Y362277D01*
X213306Y362276D01*
X213174Y362238D01*
X213156Y362234D01*
X213152Y362232D01*
X213145Y362230D01*
X211208Y361427D01*
X208792Y361427D01*
X206560Y362352D01*
X204938Y363974D01*
X204864Y364027D01*
X204794Y364087D01*
X204764Y364099D01*
X204738Y364118D01*
X204651Y364145D01*
X204566Y364179D01*
X204525Y364183D01*
X204503Y364190D01*
X204471Y364189D01*
X204399Y364197D01*
X190974Y364197D01*
X190929Y364190D01*
X190883Y364192D01*
X190808Y364170D01*
X190731Y364158D01*
X190691Y364136D01*
X190646Y364123D01*
X190582Y364079D01*
X190514Y364042D01*
X190482Y364009D01*
X190444Y363983D01*
X190398Y363921D01*
X190344Y363864D01*
X190325Y363822D01*
X190298Y363786D01*
X190273Y363712D01*
X190241Y363641D01*
X190236Y363595D01*
X190221Y363552D01*
X190222Y363474D01*
X190214Y363397D01*
X190223Y363352D01*
X190224Y363306D01*
X190262Y363174D01*
X190266Y363156D01*
X190268Y363152D01*
X190270Y363145D01*
X191073Y361208D01*
X191073Y358792D01*
X190148Y356560D01*
X188440Y354852D01*
X186208Y353927D01*
X183913Y353927D01*
X183823Y353913D01*
X183732Y353905D01*
X183703Y353893D01*
X183671Y353888D01*
X183590Y353845D01*
X183506Y353809D01*
X183474Y353783D01*
X183453Y353772D01*
X183431Y353749D01*
X183375Y353704D01*
X156296Y326625D01*
X156243Y326551D01*
X156183Y326482D01*
X156171Y326451D01*
X156152Y326425D01*
X156125Y326338D01*
X156091Y326253D01*
X156087Y326212D01*
X156080Y326190D01*
X156081Y326158D01*
X156073Y326087D01*
X156073Y323792D01*
X155148Y321560D01*
X153440Y319852D01*
X151208Y318927D01*
X148792Y318927D01*
X146560Y319852D01*
X144852Y321560D01*
X143927Y323792D01*
X143927Y326208D01*
X144852Y328440D01*
X146560Y330148D01*
X148792Y331073D01*
X151087Y331073D01*
X151177Y331087D01*
X151268Y331095D01*
X151297Y331107D01*
X151329Y331112D01*
X151410Y331155D01*
X151494Y331191D01*
X151526Y331217D01*
X151547Y331228D01*
X151569Y331251D01*
X151625Y331296D01*
X178704Y358375D01*
X178757Y358449D01*
X178817Y358518D01*
X178829Y358549D01*
X178848Y358575D01*
X178875Y358662D01*
X178909Y358747D01*
X178913Y358788D01*
X178920Y358810D01*
X178919Y358842D01*
X178927Y358913D01*
X178927Y361208D01*
X179730Y363145D01*
X179740Y363189D01*
X179759Y363231D01*
X179768Y363308D01*
X179786Y363384D01*
X179781Y363430D01*
X179786Y363475D01*
X179770Y363552D01*
X179763Y363629D01*
X179744Y363671D01*
X179734Y363716D01*
X179694Y363783D01*
X179663Y363854D01*
X179632Y363888D01*
X179608Y363927D01*
X179549Y363978D01*
X179496Y364035D01*
X179456Y364057D01*
X179421Y364087D01*
X179349Y364116D01*
X179281Y364153D01*
X179236Y364162D01*
X179193Y364179D01*
X179057Y364194D01*
X179039Y364197D01*
X179034Y364196D01*
X179026Y364197D01*
X136564Y364197D01*
X136544Y364194D01*
X136525Y364196D01*
X136423Y364174D01*
X136321Y364158D01*
X136304Y364148D01*
X136284Y364144D01*
X136195Y364091D01*
X136104Y364042D01*
X136090Y364028D01*
X136073Y364018D01*
X136006Y363939D01*
X135934Y363864D01*
X135926Y363846D01*
X135913Y363831D01*
X135874Y363735D01*
X135831Y363641D01*
X135829Y363621D01*
X135821Y363603D01*
X135803Y363436D01*
X135803Y283474D01*
X135810Y283429D01*
X135808Y283383D01*
X135830Y283308D01*
X135842Y283231D01*
X135864Y283191D01*
X135877Y283146D01*
X135921Y283082D01*
X135958Y283014D01*
X135991Y282982D01*
X136017Y282944D01*
X136079Y282898D01*
X136136Y282844D01*
X136178Y282825D01*
X136214Y282798D01*
X136288Y282773D01*
X136359Y282741D01*
X136405Y282736D01*
X136448Y282721D01*
X136526Y282722D01*
X136603Y282714D01*
X136648Y282723D01*
X136694Y282724D01*
X136826Y282762D01*
X136844Y282766D01*
X136848Y282768D01*
X136855Y282770D01*
X138727Y283546D01*
X138827Y283607D01*
X138927Y283667D01*
X138931Y283672D01*
X138936Y283676D01*
X139011Y283765D01*
X139087Y283854D01*
X139089Y283860D01*
X139093Y283865D01*
X139135Y283973D01*
X139179Y284083D01*
X139180Y284090D01*
X139181Y284095D01*
X139182Y284113D01*
X139197Y284249D01*
X139197Y286368D01*
X141132Y288303D01*
X176368Y288303D01*
X183303Y281368D01*
X183303Y254183D01*
X183317Y254093D01*
X183325Y254002D01*
X183337Y253973D01*
X183342Y253941D01*
X183385Y253860D01*
X183421Y253776D01*
X183447Y253744D01*
X183458Y253723D01*
X183481Y253701D01*
X183526Y253645D01*
X228375Y208796D01*
X228449Y208743D01*
X228518Y208683D01*
X228549Y208671D01*
X228575Y208652D01*
X228662Y208625D01*
X228747Y208591D01*
X228788Y208587D01*
X228810Y208580D01*
X228842Y208581D01*
X228913Y208573D01*
X231208Y208573D01*
X233440Y207648D01*
X235148Y205940D01*
X236073Y203708D01*
X236073Y201292D01*
X235148Y199060D01*
X233440Y197352D01*
X231208Y196427D01*
X228792Y196427D01*
X226560Y197352D01*
X224852Y199060D01*
X223927Y201292D01*
X223927Y203587D01*
X223913Y203677D01*
X223905Y203768D01*
X223893Y203797D01*
X223888Y203829D01*
X223845Y203910D01*
X223809Y203994D01*
X223783Y204026D01*
X223772Y204047D01*
X223749Y204069D01*
X223704Y204125D01*
X178855Y248974D01*
X176697Y251132D01*
X176697Y271526D01*
X176690Y271571D01*
X176692Y271617D01*
X176670Y271692D01*
X176658Y271769D01*
X176636Y271809D01*
X176623Y271854D01*
X176579Y271918D01*
X176542Y271986D01*
X176509Y272018D01*
X176483Y272056D01*
X176421Y272102D01*
X176364Y272156D01*
X176322Y272175D01*
X176286Y272202D01*
X176212Y272227D01*
X176141Y272259D01*
X176095Y272264D01*
X176052Y272279D01*
X175974Y272278D01*
X175897Y272286D01*
X175852Y272277D01*
X175806Y272276D01*
X175674Y272238D01*
X175656Y272234D01*
X175652Y272232D01*
X175645Y272230D01*
X173708Y271427D01*
X171413Y271427D01*
X171323Y271413D01*
X171232Y271405D01*
X171203Y271393D01*
X171171Y271388D01*
X171090Y271345D01*
X171006Y271309D01*
X170974Y271283D01*
X170953Y271272D01*
X170947Y271266D01*
X170946Y271265D01*
X170930Y271248D01*
X170875Y271204D01*
X143526Y243855D01*
X143473Y243781D01*
X143413Y243712D01*
X143401Y243681D01*
X143382Y243655D01*
X143355Y243568D01*
X143321Y243483D01*
X143317Y243442D01*
X143310Y243420D01*
X143311Y243388D01*
X143303Y243317D01*
X143303Y158101D01*
X143317Y158011D01*
X143325Y157920D01*
X143337Y157890D01*
X143342Y157858D01*
X143385Y157777D01*
X143421Y157693D01*
X143447Y157661D01*
X143458Y157641D01*
X143481Y157618D01*
X143526Y157562D01*
X145148Y155940D01*
X146073Y153708D01*
X146073Y151292D01*
X145148Y149060D01*
X143440Y147352D01*
X141208Y146427D01*
X138792Y146427D01*
X136560Y147352D01*
X134852Y149060D01*
X133927Y151292D01*
X133927Y153708D01*
X134852Y155940D01*
X136474Y157562D01*
X136527Y157636D01*
X136587Y157706D01*
X136599Y157736D01*
X136618Y157762D01*
X136645Y157849D01*
X136679Y157934D01*
X136683Y157975D01*
X136690Y157997D01*
X136689Y158029D01*
X136697Y158101D01*
X136697Y179026D01*
X136690Y179071D01*
X136692Y179117D01*
X136670Y179192D01*
X136658Y179269D01*
X136636Y179309D01*
X136623Y179354D01*
X136579Y179418D01*
X136542Y179486D01*
X136509Y179518D01*
X136483Y179556D01*
X136420Y179602D01*
X136364Y179656D01*
X136322Y179675D01*
X136286Y179702D01*
X136212Y179727D01*
X136141Y179759D01*
X136095Y179764D01*
X136052Y179779D01*
X135974Y179778D01*
X135897Y179786D01*
X135852Y179777D01*
X135806Y179776D01*
X135674Y179738D01*
X135656Y179734D01*
X135652Y179732D01*
X135645Y179730D01*
X134043Y179066D01*
X133943Y179004D01*
X133843Y178944D01*
X133839Y178940D01*
X133834Y178936D01*
X133759Y178847D01*
X133683Y178757D01*
X133681Y178752D01*
X133677Y178747D01*
X133635Y178639D01*
X133591Y178529D01*
X133590Y178522D01*
X133589Y178517D01*
X133588Y178499D01*
X133573Y178363D01*
X133573Y176292D01*
X132648Y174060D01*
X130940Y172352D01*
X128708Y171427D01*
X126292Y171427D01*
X124060Y172352D01*
X122352Y174060D01*
X121427Y176292D01*
X121427Y178587D01*
X121413Y178677D01*
X121405Y178768D01*
X121393Y178797D01*
X121388Y178829D01*
X121345Y178910D01*
X121309Y178994D01*
X121283Y179026D01*
X121272Y179047D01*
X121249Y179069D01*
X121204Y179125D01*
X111623Y188706D01*
X111544Y188763D01*
X111469Y188825D01*
X111445Y188834D01*
X111423Y188850D01*
X111330Y188878D01*
X111240Y188913D01*
X111213Y188914D01*
X111188Y188922D01*
X111091Y188919D01*
X110994Y188924D01*
X110969Y188916D01*
X110942Y188916D01*
X110851Y188882D01*
X110758Y188855D01*
X110736Y188840D01*
X110711Y188831D01*
X110635Y188770D01*
X110555Y188715D01*
X110540Y188694D01*
X110519Y188677D01*
X110467Y188596D01*
X110409Y188517D01*
X110401Y188493D01*
X110386Y188471D01*
X110363Y188376D01*
X110333Y188284D01*
X110333Y188257D01*
X110326Y188232D01*
X110334Y188135D01*
X110335Y188038D01*
X110344Y188006D01*
X110346Y187987D01*
X110358Y187957D01*
X110382Y187876D01*
X111073Y186208D01*
X111073Y183792D01*
X110148Y181560D01*
X108440Y179852D01*
X106208Y178927D01*
X103792Y178927D01*
X101560Y179852D01*
X99852Y181560D01*
X98927Y183792D01*
X98927Y186087D01*
X98913Y186177D01*
X98905Y186268D01*
X98893Y186297D01*
X98888Y186329D01*
X98845Y186410D01*
X98809Y186494D01*
X98783Y186526D01*
X98772Y186547D01*
X98749Y186569D01*
X98704Y186625D01*
X77102Y208227D01*
X77044Y208269D01*
X76992Y208318D01*
X76945Y208340D01*
X76903Y208371D01*
X76834Y208392D01*
X76769Y208422D01*
X76717Y208428D01*
X76667Y208443D01*
X76596Y208441D01*
X76525Y208449D01*
X76474Y208438D01*
X76422Y208437D01*
X76354Y208412D01*
X76284Y208397D01*
X76239Y208370D01*
X76191Y208352D01*
X76135Y208307D01*
X76073Y208270D01*
X76039Y208231D01*
X75999Y208198D01*
X75960Y208138D01*
X75913Y208084D01*
X75894Y208035D01*
X75866Y207991D01*
X75848Y207922D01*
X75821Y207855D01*
X75813Y207784D01*
X75805Y207753D01*
X75807Y207730D01*
X75803Y207689D01*
X75803Y141564D01*
X75806Y141544D01*
X75804Y141525D01*
X75826Y141423D01*
X75842Y141321D01*
X75852Y141304D01*
X75856Y141284D01*
X75909Y141195D01*
X75958Y141104D01*
X75972Y141090D01*
X75982Y141073D01*
X76061Y141006D01*
X76136Y140934D01*
X76154Y140926D01*
X76169Y140913D01*
X76265Y140874D01*
X76359Y140831D01*
X76379Y140829D01*
X76397Y140821D01*
X76564Y140803D01*
X215817Y140803D01*
X215907Y140817D01*
G37*
G36*
X10153Y39246D02*
X10153Y39246D01*
X10199Y39244D01*
X10274Y39266D01*
X10351Y39279D01*
X10391Y39300D01*
X10435Y39313D01*
X10499Y39357D01*
X10568Y39394D01*
X10600Y39427D01*
X10637Y39453D01*
X10684Y39515D01*
X10737Y39572D01*
X10757Y39614D01*
X10784Y39650D01*
X10808Y39724D01*
X10841Y39795D01*
X10846Y39841D01*
X10860Y39884D01*
X10860Y39962D01*
X10868Y40039D01*
X10858Y40084D01*
X10858Y40130D01*
X10820Y40262D01*
X10816Y40280D01*
X10813Y40284D01*
X10811Y40291D01*
X10319Y41479D01*
X10319Y45521D01*
X11866Y49256D01*
X14724Y52114D01*
X18459Y53661D01*
X37741Y53661D01*
X41476Y52114D01*
X42898Y50692D01*
X42956Y50650D01*
X43008Y50600D01*
X43055Y50579D01*
X43097Y50548D01*
X43166Y50527D01*
X43231Y50497D01*
X43283Y50491D01*
X43333Y50476D01*
X43404Y50478D01*
X43475Y50470D01*
X43526Y50481D01*
X43578Y50482D01*
X43646Y50507D01*
X43716Y50522D01*
X43761Y50549D01*
X43809Y50567D01*
X43865Y50611D01*
X43927Y50648D01*
X43961Y50688D01*
X44001Y50720D01*
X44040Y50781D01*
X44087Y50835D01*
X44106Y50883D01*
X44134Y50927D01*
X44152Y50997D01*
X44179Y51063D01*
X44187Y51135D01*
X44195Y51166D01*
X44193Y51189D01*
X44197Y51230D01*
X44197Y61170D01*
X44186Y61241D01*
X44184Y61312D01*
X44166Y61361D01*
X44158Y61413D01*
X44124Y61476D01*
X44099Y61543D01*
X44067Y61584D01*
X44042Y61630D01*
X43990Y61679D01*
X43946Y61735D01*
X43902Y61764D01*
X43864Y61800D01*
X43799Y61830D01*
X43739Y61868D01*
X43688Y61881D01*
X43641Y61903D01*
X43570Y61911D01*
X43500Y61929D01*
X43448Y61924D01*
X43397Y61930D01*
X43326Y61915D01*
X43255Y61909D01*
X43207Y61889D01*
X43156Y61878D01*
X43095Y61841D01*
X43029Y61813D01*
X42973Y61768D01*
X42945Y61752D01*
X42930Y61734D01*
X42898Y61708D01*
X41476Y60286D01*
X37741Y58739D01*
X18459Y58739D01*
X14724Y60286D01*
X11866Y63144D01*
X10319Y66879D01*
X10319Y70921D01*
X11866Y74656D01*
X14724Y77514D01*
X18459Y79061D01*
X37741Y79061D01*
X41476Y77514D01*
X42898Y76092D01*
X42956Y76050D01*
X43008Y76000D01*
X43055Y75979D01*
X43097Y75948D01*
X43166Y75927D01*
X43231Y75897D01*
X43283Y75891D01*
X43333Y75876D01*
X43404Y75878D01*
X43475Y75870D01*
X43526Y75881D01*
X43578Y75882D01*
X43646Y75907D01*
X43716Y75922D01*
X43761Y75949D01*
X43809Y75967D01*
X43865Y76011D01*
X43927Y76048D01*
X43961Y76088D01*
X44001Y76120D01*
X44040Y76181D01*
X44087Y76235D01*
X44106Y76283D01*
X44134Y76327D01*
X44152Y76397D01*
X44179Y76463D01*
X44187Y76535D01*
X44195Y76566D01*
X44193Y76589D01*
X44197Y76630D01*
X44197Y86570D01*
X44186Y86641D01*
X44184Y86712D01*
X44166Y86761D01*
X44158Y86813D01*
X44124Y86876D01*
X44099Y86943D01*
X44067Y86984D01*
X44042Y87030D01*
X43991Y87079D01*
X43946Y87135D01*
X43902Y87164D01*
X43864Y87200D01*
X43799Y87230D01*
X43739Y87268D01*
X43688Y87281D01*
X43641Y87303D01*
X43570Y87311D01*
X43500Y87329D01*
X43448Y87324D01*
X43397Y87330D01*
X43326Y87315D01*
X43255Y87309D01*
X43207Y87289D01*
X43156Y87278D01*
X43095Y87241D01*
X43029Y87213D01*
X42973Y87168D01*
X42945Y87152D01*
X42930Y87134D01*
X42898Y87108D01*
X42339Y86550D01*
X41045Y85610D01*
X39620Y84884D01*
X38099Y84389D01*
X36520Y84139D01*
X29623Y84139D01*
X29623Y93538D01*
X29620Y93558D01*
X29622Y93577D01*
X29600Y93679D01*
X29583Y93781D01*
X29574Y93798D01*
X29570Y93818D01*
X29517Y93907D01*
X29468Y93998D01*
X29454Y94012D01*
X29444Y94029D01*
X29365Y94096D01*
X29290Y94167D01*
X29272Y94176D01*
X29257Y94189D01*
X29161Y94227D01*
X29067Y94271D01*
X29047Y94273D01*
X29029Y94281D01*
X28862Y94299D01*
X28099Y94299D01*
X28099Y94301D01*
X28862Y94301D01*
X28882Y94304D01*
X28901Y94302D01*
X29003Y94324D01*
X29105Y94341D01*
X29122Y94350D01*
X29142Y94354D01*
X29231Y94407D01*
X29322Y94456D01*
X29336Y94470D01*
X29353Y94480D01*
X29420Y94559D01*
X29491Y94634D01*
X29500Y94652D01*
X29513Y94667D01*
X29552Y94763D01*
X29595Y94857D01*
X29597Y94877D01*
X29605Y94895D01*
X29623Y95062D01*
X29623Y104461D01*
X36520Y104461D01*
X38099Y104211D01*
X39620Y103716D01*
X41045Y102990D01*
X42339Y102050D01*
X42898Y101492D01*
X42956Y101450D01*
X43008Y101400D01*
X43055Y101379D01*
X43097Y101348D01*
X43166Y101327D01*
X43231Y101297D01*
X43283Y101291D01*
X43333Y101276D01*
X43404Y101278D01*
X43475Y101270D01*
X43526Y101281D01*
X43578Y101282D01*
X43646Y101307D01*
X43716Y101322D01*
X43761Y101349D01*
X43809Y101367D01*
X43865Y101411D01*
X43927Y101448D01*
X43961Y101488D01*
X44001Y101520D01*
X44040Y101581D01*
X44087Y101635D01*
X44106Y101683D01*
X44134Y101727D01*
X44152Y101797D01*
X44179Y101863D01*
X44187Y101935D01*
X44195Y101966D01*
X44193Y101989D01*
X44197Y102030D01*
X44197Y121488D01*
X44195Y121500D01*
X44197Y121512D01*
X44175Y121621D01*
X44158Y121731D01*
X44152Y121741D01*
X44150Y121753D01*
X44094Y121850D01*
X44042Y121948D01*
X44034Y121956D01*
X44028Y121967D01*
X43945Y122041D01*
X43864Y122117D01*
X43853Y122123D01*
X43844Y122130D01*
X43742Y122174D01*
X43641Y122221D01*
X43629Y122222D01*
X43618Y122227D01*
X43507Y122236D01*
X43397Y122248D01*
X43385Y122246D01*
X43373Y122247D01*
X43265Y122220D01*
X43156Y122196D01*
X43146Y122190D01*
X43134Y122187D01*
X42989Y122104D01*
X41675Y121150D01*
X40250Y120424D01*
X38729Y119929D01*
X37150Y119679D01*
X30253Y119679D01*
X30253Y129078D01*
X30251Y129093D01*
X30252Y129106D01*
X30251Y129110D01*
X30252Y129117D01*
X30230Y129219D01*
X30213Y129321D01*
X30204Y129338D01*
X30200Y129358D01*
X30147Y129447D01*
X30098Y129538D01*
X30084Y129552D01*
X30074Y129569D01*
X29995Y129636D01*
X29920Y129707D01*
X29902Y129716D01*
X29887Y129729D01*
X29791Y129767D01*
X29697Y129811D01*
X29677Y129813D01*
X29659Y129821D01*
X29492Y129839D01*
X28729Y129839D01*
X28729Y129841D01*
X29492Y129841D01*
X29512Y129844D01*
X29531Y129842D01*
X29633Y129864D01*
X29735Y129881D01*
X29752Y129890D01*
X29772Y129894D01*
X29861Y129947D01*
X29952Y129996D01*
X29966Y130010D01*
X29983Y130020D01*
X30050Y130099D01*
X30121Y130174D01*
X30130Y130192D01*
X30143Y130207D01*
X30182Y130303D01*
X30225Y130397D01*
X30227Y130417D01*
X30235Y130435D01*
X30253Y130602D01*
X30253Y140001D01*
X37150Y140001D01*
X38729Y139751D01*
X40250Y139256D01*
X41675Y138530D01*
X42989Y137576D01*
X42999Y137571D01*
X43008Y137563D01*
X43022Y137556D01*
X43028Y137550D01*
X43070Y137534D01*
X43108Y137516D01*
X43208Y137466D01*
X43220Y137464D01*
X43231Y137459D01*
X43341Y137447D01*
X43452Y137431D01*
X43464Y137433D01*
X43475Y137432D01*
X43584Y137455D01*
X43694Y137476D01*
X43704Y137481D01*
X43716Y137484D01*
X43812Y137541D01*
X43909Y137595D01*
X43917Y137604D01*
X43927Y137610D01*
X43999Y137695D01*
X44074Y137777D01*
X44079Y137788D01*
X44087Y137797D01*
X44129Y137901D01*
X44173Y138002D01*
X44174Y138014D01*
X44179Y138025D01*
X44197Y138192D01*
X44197Y146880D01*
X44186Y146951D01*
X44184Y147022D01*
X44166Y147071D01*
X44158Y147123D01*
X44124Y147186D01*
X44099Y147253D01*
X44067Y147294D01*
X44042Y147340D01*
X43990Y147389D01*
X43946Y147445D01*
X43902Y147474D01*
X43864Y147510D01*
X43799Y147540D01*
X43739Y147578D01*
X43688Y147591D01*
X43641Y147613D01*
X43570Y147621D01*
X43500Y147639D01*
X43448Y147634D01*
X43397Y147640D01*
X43326Y147625D01*
X43255Y147619D01*
X43207Y147599D01*
X43156Y147588D01*
X43095Y147551D01*
X43029Y147523D01*
X42973Y147478D01*
X42945Y147462D01*
X42930Y147444D01*
X42898Y147418D01*
X42106Y146626D01*
X38371Y145079D01*
X19089Y145079D01*
X15354Y146626D01*
X12496Y149484D01*
X10949Y153219D01*
X10949Y157261D01*
X12496Y160996D01*
X15354Y163854D01*
X19089Y165401D01*
X38371Y165401D01*
X42106Y163854D01*
X42898Y163062D01*
X42956Y163020D01*
X43008Y162970D01*
X43055Y162949D01*
X43097Y162918D01*
X43166Y162897D01*
X43231Y162867D01*
X43283Y162861D01*
X43333Y162846D01*
X43404Y162848D01*
X43475Y162840D01*
X43526Y162851D01*
X43578Y162852D01*
X43646Y162877D01*
X43716Y162892D01*
X43761Y162919D01*
X43809Y162937D01*
X43865Y162981D01*
X43927Y163018D01*
X43961Y163058D01*
X44001Y163090D01*
X44040Y163151D01*
X44087Y163205D01*
X44106Y163253D01*
X44134Y163297D01*
X44152Y163367D01*
X44179Y163433D01*
X44187Y163505D01*
X44195Y163536D01*
X44193Y163559D01*
X44197Y163600D01*
X44197Y220817D01*
X44183Y220907D01*
X44175Y220998D01*
X44163Y221027D01*
X44158Y221059D01*
X44115Y221140D01*
X44079Y221224D01*
X44053Y221256D01*
X44042Y221277D01*
X44019Y221299D01*
X43974Y221355D01*
X14125Y251204D01*
X14051Y251257D01*
X13982Y251317D01*
X13951Y251329D01*
X13925Y251348D01*
X13838Y251375D01*
X13753Y251409D01*
X13712Y251413D01*
X13690Y251420D01*
X13658Y251419D01*
X13587Y251427D01*
X11292Y251427D01*
X9060Y252352D01*
X7352Y254060D01*
X6545Y256007D01*
X6494Y256090D01*
X6448Y256176D01*
X6430Y256194D01*
X6416Y256216D01*
X6340Y256278D01*
X6270Y256345D01*
X6246Y256356D01*
X6226Y256373D01*
X6135Y256408D01*
X6047Y256449D01*
X6021Y256452D01*
X5997Y256461D01*
X5899Y256465D01*
X5803Y256476D01*
X5777Y256471D01*
X5751Y256472D01*
X5657Y256445D01*
X5562Y256424D01*
X5540Y256410D01*
X5515Y256403D01*
X5435Y256348D01*
X5351Y256298D01*
X5334Y256278D01*
X5313Y256263D01*
X5254Y256185D01*
X5191Y256111D01*
X5181Y256086D01*
X5166Y256065D01*
X5136Y255973D01*
X5099Y255883D01*
X5096Y255850D01*
X5090Y255832D01*
X5090Y255799D01*
X5081Y255716D01*
X5081Y40000D01*
X5084Y39980D01*
X5082Y39961D01*
X5104Y39859D01*
X5120Y39757D01*
X5130Y39740D01*
X5134Y39720D01*
X5187Y39631D01*
X5236Y39540D01*
X5250Y39526D01*
X5260Y39509D01*
X5339Y39442D01*
X5414Y39371D01*
X5432Y39362D01*
X5447Y39349D01*
X5543Y39310D01*
X5637Y39267D01*
X5657Y39265D01*
X5675Y39257D01*
X5842Y39239D01*
X10108Y39239D01*
X10153Y39246D01*
G37*
G36*
X110806Y376544D02*
X110806Y376544D01*
X110804Y376525D01*
X110826Y376423D01*
X110842Y376321D01*
X110852Y376304D01*
X110856Y376284D01*
X110909Y376195D01*
X110958Y376104D01*
X110972Y376090D01*
X110982Y376073D01*
X111061Y376006D01*
X111136Y375934D01*
X111154Y375926D01*
X111169Y375913D01*
X111265Y375874D01*
X111359Y375831D01*
X111379Y375829D01*
X111397Y375821D01*
X111564Y375803D01*
X168317Y375803D01*
X168407Y375817D01*
X168498Y375825D01*
X168527Y375837D01*
X168559Y375842D01*
X168640Y375885D01*
X168724Y375921D01*
X168756Y375947D01*
X168777Y375958D01*
X168799Y375981D01*
X168855Y376026D01*
X171132Y378303D01*
X207689Y378303D01*
X207759Y378314D01*
X207831Y378316D01*
X207880Y378334D01*
X207931Y378342D01*
X207995Y378376D01*
X208062Y378401D01*
X208103Y378433D01*
X208149Y378458D01*
X208198Y378509D01*
X208254Y378554D01*
X208282Y378598D01*
X208318Y378636D01*
X208348Y378701D01*
X208387Y378761D01*
X208400Y378812D01*
X208422Y378859D01*
X208430Y378930D01*
X208447Y379000D01*
X208443Y379052D01*
X208449Y379103D01*
X208434Y379174D01*
X208428Y379245D01*
X208408Y379293D01*
X208397Y379344D01*
X208360Y379405D01*
X208332Y379471D01*
X208287Y379527D01*
X208270Y379555D01*
X208253Y379570D01*
X208227Y379602D01*
X203232Y384598D01*
X179004Y408826D01*
X178925Y408886D01*
X178853Y408954D01*
X178800Y408983D01*
X178752Y409020D01*
X178661Y409060D01*
X178575Y409108D01*
X178516Y409123D01*
X178461Y409147D01*
X178363Y409162D01*
X178267Y409187D01*
X178167Y409193D01*
X178146Y409197D01*
X178134Y409195D01*
X178106Y409197D01*
X133311Y409197D01*
X133213Y409185D01*
X133114Y409182D01*
X133056Y409165D01*
X132996Y409157D01*
X132904Y409121D01*
X132808Y409093D01*
X132756Y409063D01*
X132700Y409040D01*
X132620Y408982D01*
X132535Y408932D01*
X132459Y408866D01*
X132443Y408854D01*
X132435Y408844D01*
X132414Y408826D01*
X130940Y407352D01*
X128708Y406427D01*
X126292Y406427D01*
X124060Y407352D01*
X122352Y409060D01*
X121427Y411292D01*
X121427Y413708D01*
X122352Y415940D01*
X124060Y417648D01*
X126429Y418630D01*
X126472Y418654D01*
X126519Y418671D01*
X126610Y418733D01*
X126706Y418787D01*
X126741Y418822D01*
X126782Y418850D01*
X126855Y418932D01*
X126934Y419008D01*
X126960Y419051D01*
X126993Y419088D01*
X127043Y419186D01*
X127100Y419280D01*
X127115Y419327D01*
X127137Y419371D01*
X127162Y419479D01*
X127194Y419583D01*
X127196Y419633D01*
X127207Y419682D01*
X127204Y419791D01*
X127209Y419901D01*
X127199Y419950D01*
X127197Y420000D01*
X127167Y420105D01*
X127145Y420213D01*
X127123Y420257D01*
X127109Y420305D01*
X127053Y420400D01*
X127005Y420498D01*
X126973Y420536D01*
X126947Y420579D01*
X126841Y420700D01*
X126468Y421073D01*
X102709Y444832D01*
X102709Y446362D01*
X102701Y446431D01*
X102702Y446501D01*
X102681Y446588D01*
X102669Y446678D01*
X102644Y446743D01*
X102627Y446810D01*
X102585Y446890D01*
X102552Y446973D01*
X102511Y447030D01*
X102479Y447092D01*
X102418Y447158D01*
X102366Y447231D01*
X102312Y447275D01*
X102265Y447327D01*
X102190Y447376D01*
X102121Y447433D01*
X102057Y447463D01*
X101999Y447502D01*
X101914Y447531D01*
X101833Y447569D01*
X101764Y447582D01*
X101698Y447605D01*
X101609Y447612D01*
X101521Y447629D01*
X101451Y447624D01*
X101381Y447630D01*
X101293Y447615D01*
X101203Y447609D01*
X101137Y447587D01*
X101068Y447576D01*
X100986Y447539D01*
X100901Y447511D01*
X100842Y447474D01*
X100778Y447445D01*
X100708Y447389D01*
X100632Y447341D01*
X100584Y447290D01*
X100530Y447246D01*
X100475Y447175D01*
X100414Y447109D01*
X100380Y447048D01*
X100338Y446992D01*
X100267Y446848D01*
X100148Y446560D01*
X98674Y445086D01*
X98614Y445008D01*
X98546Y444936D01*
X98517Y444883D01*
X98480Y444835D01*
X98440Y444744D01*
X98392Y444657D01*
X98377Y444599D01*
X98353Y444543D01*
X98338Y444445D01*
X98313Y444350D01*
X98307Y444249D01*
X98303Y444229D01*
X98305Y444217D01*
X98303Y444189D01*
X98303Y401894D01*
X98315Y401796D01*
X98318Y401697D01*
X98335Y401638D01*
X98343Y401578D01*
X98379Y401486D01*
X98407Y401391D01*
X98437Y401339D01*
X98460Y401283D01*
X98518Y401202D01*
X98568Y401117D01*
X98634Y401042D01*
X98646Y401025D01*
X98656Y401017D01*
X98674Y400996D01*
X110803Y388868D01*
X110803Y376564D01*
X110806Y376544D01*
G37*
%LPC*%
G36*
X76923Y311523D02*
X76923Y311523D01*
X76923Y324417D01*
X76910Y324495D01*
X76907Y324575D01*
X76891Y324616D01*
X76883Y324660D01*
X76846Y324730D01*
X76817Y324804D01*
X76789Y324838D01*
X76768Y324877D01*
X76711Y324932D01*
X76660Y324993D01*
X76622Y325016D01*
X76590Y325047D01*
X76518Y325080D01*
X76453Y325120D01*
X76453Y341377D01*
X85091Y341377D01*
X85091Y334480D01*
X84841Y332901D01*
X84346Y331380D01*
X83620Y329955D01*
X82680Y328661D01*
X81549Y327530D01*
X81146Y327237D01*
X81135Y327225D01*
X81121Y327218D01*
X81048Y327138D01*
X80973Y327062D01*
X80966Y327047D01*
X80955Y327036D01*
X80912Y326937D01*
X80864Y326841D01*
X80862Y326825D01*
X80856Y326810D01*
X80846Y326703D01*
X80832Y326597D01*
X80835Y326581D01*
X80834Y326566D01*
X80859Y326461D01*
X80880Y326356D01*
X80887Y326342D01*
X80891Y326326D01*
X80948Y326236D01*
X81001Y326142D01*
X81013Y326131D01*
X81022Y326118D01*
X81146Y326005D01*
X82019Y325370D01*
X83150Y324239D01*
X84090Y322945D01*
X84816Y321520D01*
X85311Y319999D01*
X85561Y318420D01*
X85561Y311523D01*
X76923Y311523D01*
G37*
%LPD*%
%LPC*%
G36*
X65239Y311523D02*
X65239Y311523D01*
X65239Y318420D01*
X65489Y319999D01*
X65984Y321520D01*
X66710Y322945D01*
X67650Y324239D01*
X68781Y325370D01*
X69184Y325663D01*
X69195Y325675D01*
X69209Y325682D01*
X69282Y325762D01*
X69357Y325838D01*
X69364Y325853D01*
X69375Y325864D01*
X69418Y325963D01*
X69466Y326059D01*
X69468Y326075D01*
X69474Y326090D01*
X69484Y326197D01*
X69498Y326303D01*
X69495Y326319D01*
X69496Y326334D01*
X69471Y326439D01*
X69450Y326544D01*
X69443Y326558D01*
X69439Y326574D01*
X69382Y326664D01*
X69329Y326758D01*
X69317Y326769D01*
X69308Y326782D01*
X69184Y326895D01*
X68311Y327530D01*
X67180Y328661D01*
X66240Y329955D01*
X65514Y331380D01*
X65019Y332901D01*
X64769Y334480D01*
X64769Y341377D01*
X73407Y341377D01*
X73407Y328483D01*
X73408Y328476D01*
X73408Y328474D01*
X73409Y328467D01*
X73420Y328405D01*
X73423Y328325D01*
X73439Y328284D01*
X73447Y328240D01*
X73484Y328170D01*
X73513Y328096D01*
X73541Y328062D01*
X73562Y328023D01*
X73619Y327968D01*
X73670Y327907D01*
X73708Y327884D01*
X73740Y327853D01*
X73812Y327820D01*
X73877Y327780D01*
X73877Y311523D01*
X65239Y311523D01*
G37*
%LPD*%
%LPC*%
G36*
X76453Y344423D02*
X76453Y344423D01*
X76453Y374397D01*
X85091Y374397D01*
X85091Y367500D01*
X84841Y365921D01*
X84346Y364400D01*
X83620Y362975D01*
X82680Y361681D01*
X81549Y360550D01*
X80828Y360026D01*
X80817Y360015D01*
X80803Y360007D01*
X80731Y359927D01*
X80655Y359851D01*
X80648Y359837D01*
X80637Y359825D01*
X80594Y359727D01*
X80547Y359630D01*
X80545Y359614D01*
X80538Y359600D01*
X80529Y359493D01*
X80515Y359386D01*
X80518Y359371D01*
X80516Y359355D01*
X80541Y359250D01*
X80562Y359145D01*
X80570Y359131D01*
X80574Y359116D01*
X80631Y359025D01*
X80684Y358931D01*
X80696Y358921D01*
X80704Y358907D01*
X80828Y358794D01*
X81549Y358270D01*
X82680Y357139D01*
X83620Y355845D01*
X84346Y354420D01*
X84841Y352899D01*
X85091Y351320D01*
X85091Y344423D01*
X76453Y344423D01*
G37*
%LPD*%
%LPC*%
G36*
X64769Y344423D02*
X64769Y344423D01*
X64769Y351320D01*
X65019Y352899D01*
X65514Y354420D01*
X66240Y355845D01*
X67180Y357139D01*
X68311Y358270D01*
X69032Y358794D01*
X69043Y358806D01*
X69057Y358813D01*
X69129Y358893D01*
X69205Y358969D01*
X69212Y358983D01*
X69223Y358995D01*
X69266Y359093D01*
X69313Y359190D01*
X69315Y359206D01*
X69322Y359220D01*
X69331Y359327D01*
X69345Y359434D01*
X69342Y359449D01*
X69344Y359465D01*
X69319Y359570D01*
X69298Y359675D01*
X69290Y359689D01*
X69286Y359704D01*
X69229Y359796D01*
X69176Y359889D01*
X69164Y359899D01*
X69156Y359913D01*
X69032Y360026D01*
X68311Y360550D01*
X67180Y361681D01*
X66240Y362975D01*
X65514Y364400D01*
X65019Y365921D01*
X64769Y367500D01*
X64769Y374397D01*
X73407Y374397D01*
X73407Y344423D01*
X64769Y344423D01*
G37*
%LPD*%
%LPC*%
G36*
X11064Y131363D02*
X11064Y131363D01*
X11199Y132219D01*
X11694Y133740D01*
X12420Y135165D01*
X13360Y136459D01*
X14491Y137590D01*
X15785Y138530D01*
X17210Y139256D01*
X18731Y139751D01*
X20310Y140001D01*
X27207Y140001D01*
X27207Y131363D01*
X11064Y131363D01*
G37*
%LPD*%
%LPC*%
G36*
X10434Y95823D02*
X10434Y95823D01*
X10569Y96679D01*
X11064Y98200D01*
X11790Y99625D01*
X12730Y100919D01*
X13861Y102050D01*
X15155Y102990D01*
X16580Y103716D01*
X18101Y104211D01*
X19680Y104461D01*
X26577Y104461D01*
X26577Y95823D01*
X10434Y95823D01*
G37*
%LPD*%
%LPC*%
G36*
X76923Y308477D02*
X76923Y308477D01*
X85561Y308477D01*
X85561Y301580D01*
X85311Y300001D01*
X84816Y298480D01*
X84090Y297055D01*
X83150Y295761D01*
X82019Y294630D01*
X80725Y293690D01*
X79300Y292964D01*
X77779Y292469D01*
X76923Y292334D01*
X76923Y308477D01*
G37*
%LPD*%
%LPC*%
G36*
X73021Y292469D02*
X73021Y292469D01*
X71500Y292964D01*
X70075Y293690D01*
X68781Y294630D01*
X67650Y295761D01*
X66710Y297055D01*
X65984Y298480D01*
X65489Y300001D01*
X65239Y301580D01*
X65239Y308477D01*
X73877Y308477D01*
X73877Y292334D01*
X73021Y292469D01*
G37*
%LPD*%
%LPC*%
G36*
X20310Y119679D02*
X20310Y119679D01*
X18731Y119929D01*
X17210Y120424D01*
X15785Y121150D01*
X14491Y122090D01*
X13360Y123221D01*
X12420Y124515D01*
X11694Y125940D01*
X11199Y127461D01*
X11064Y128317D01*
X27207Y128317D01*
X27207Y119679D01*
X20310Y119679D01*
G37*
%LPD*%
%LPC*%
G36*
X19680Y84139D02*
X19680Y84139D01*
X18101Y84389D01*
X16580Y84884D01*
X15155Y85610D01*
X13861Y86550D01*
X12730Y87681D01*
X11790Y88975D01*
X11064Y90400D01*
X10569Y91921D01*
X10434Y92777D01*
X26577Y92777D01*
X26577Y84139D01*
X19680Y84139D01*
G37*
%LPD*%
%LPC*%
G36*
X77469Y411479D02*
X77469Y411479D01*
X77469Y426419D01*
X78830Y425976D01*
X80255Y425250D01*
X81549Y424310D01*
X82680Y423179D01*
X83620Y421885D01*
X84346Y420460D01*
X84841Y418939D01*
X85091Y417360D01*
X85091Y411479D01*
X77469Y411479D01*
G37*
%LPD*%
%LPC*%
G36*
X64769Y411479D02*
X64769Y411479D01*
X64769Y417360D01*
X65019Y418939D01*
X65514Y420460D01*
X66240Y421885D01*
X67180Y423179D01*
X68311Y424310D01*
X69605Y425250D01*
X71030Y425976D01*
X72391Y426419D01*
X72391Y411479D01*
X64769Y411479D01*
G37*
%LPD*%
%LPC*%
G36*
X74929Y408939D02*
X74929Y408939D01*
X74929Y408941D01*
X74931Y408941D01*
X74931Y408939D01*
X74929Y408939D01*
G37*
%LPD*%
%LPC*%
G36*
X74929Y342899D02*
X74929Y342899D01*
X74929Y342901D01*
X74931Y342901D01*
X74931Y342899D01*
X74929Y342899D01*
G37*
%LPD*%
%LPC*%
G36*
X75399Y309999D02*
X75399Y309999D01*
X75399Y310001D01*
X75401Y310001D01*
X75401Y309999D01*
X75399Y309999D01*
G37*
%LPD*%
D10*
X35720Y18100D02*
X20480Y18100D01*
X20480Y43500D02*
X35720Y43500D01*
X35720Y68900D02*
X20480Y68900D01*
X20480Y94300D02*
X35720Y94300D01*
D11*
X130650Y544200D03*
X156050Y544200D03*
X181450Y544200D03*
X206850Y544200D03*
D10*
X36350Y129840D02*
X21110Y129840D01*
X21110Y155240D02*
X36350Y155240D01*
D12*
X249650Y271270D03*
X262350Y271270D03*
X249650Y258570D03*
X262350Y258570D03*
X256000Y264920D03*
X262350Y339250D03*
X249650Y339250D03*
X262350Y351950D03*
X249650Y351950D03*
X256000Y345600D03*
X249650Y307500D03*
X262350Y307500D03*
X249650Y294800D03*
X262350Y294800D03*
X256000Y301150D03*
X249650Y223970D03*
X262350Y223970D03*
X249650Y211270D03*
X262350Y211270D03*
X256000Y217620D03*
D10*
X24130Y368300D02*
X24130Y383540D01*
X49530Y383540D02*
X49530Y368300D01*
X74930Y368300D02*
X74930Y383540D01*
X24130Y401320D02*
X24130Y416560D01*
X49530Y416560D02*
X49530Y401320D01*
X74930Y401320D02*
X74930Y416560D01*
X24130Y350520D02*
X24130Y335280D01*
X49530Y335280D02*
X49530Y350520D01*
X74930Y350520D02*
X74930Y335280D01*
X24600Y317620D02*
X24600Y302380D01*
X50000Y302380D02*
X50000Y317620D01*
X75400Y317620D02*
X75400Y302380D01*
D13*
X200406Y220980D02*
X200406Y195072D01*
X200406Y184404D01*
X200406Y220980D02*
X191262Y230124D01*
X198882Y243840D02*
X236982Y205740D01*
X236982Y199644D01*
X232410Y195072D01*
X200406Y195072D01*
X200406Y184404D02*
X200406Y144780D01*
X199644Y382524D02*
X189644Y392524D01*
X185166Y392524D01*
X124968Y259842D02*
X124968Y237744D01*
X107061Y277749D02*
X75438Y309372D01*
X107061Y277749D02*
X113919Y270891D01*
X124968Y259842D01*
X75438Y309372D02*
X75400Y310000D01*
X113919Y270891D02*
X113538Y270510D01*
X107061Y277749D02*
X114300Y284988D01*
X75400Y310000D02*
X74676Y310896D01*
D14*
X200406Y184404D03*
X191262Y230124D03*
X198882Y243840D03*
X200406Y144780D03*
X199644Y382524D03*
X185166Y392524D03*
X124968Y237744D03*
X113538Y270510D03*
X114300Y284988D03*
D15*
X183000Y303000D03*
X199000Y347000D03*
X142000Y347000D03*
D14*
X140000Y277500D03*
D13*
X180000Y252500D02*
X230000Y202500D01*
X180000Y252500D02*
X180000Y280000D01*
X175000Y285000D01*
X142500Y285000D01*
X142500Y277500D01*
X140000Y277500D01*
D14*
X230000Y202500D03*
D13*
X39953Y30047D02*
X28194Y18288D01*
X39953Y30047D02*
X41148Y31242D01*
X28194Y18288D02*
X28100Y18100D01*
X40000Y30000D02*
X42500Y32500D01*
X222500Y32500D01*
X40000Y30000D02*
X39953Y30047D01*
D14*
X222500Y32500D03*
D16*
X171290Y442600D03*
D17*
X126840Y442600D01*
X117950Y451490D01*
X117950Y497210D01*
X156050Y535310D01*
X156050Y544200D01*
D16*
X197960Y424820D03*
D17*
X130650Y542930D02*
X130650Y544200D01*
X130650Y542930D02*
X106520Y518800D01*
X106520Y446410D01*
X130650Y422280D01*
X195420Y422280D01*
X197960Y424820D01*
D16*
X171290Y461650D03*
D17*
X167480Y457840D02*
X130650Y457840D01*
X167480Y457840D02*
X171290Y461650D01*
X128110Y493400D02*
X178910Y544200D01*
X181450Y544200D01*
X128110Y460380D02*
X130650Y457840D01*
X128110Y460380D02*
X128110Y493400D01*
D16*
X143350Y483240D03*
X233520Y525150D03*
D17*
X162400Y502290D02*
X143350Y483240D01*
X162400Y502290D02*
X192880Y502290D01*
X215740Y525150D01*
X233520Y525150D01*
D13*
X233934Y524256D01*
X132500Y367500D02*
X132500Y185000D01*
X132500Y367500D02*
X210000Y367500D01*
D14*
X132500Y185000D03*
X210000Y367500D03*
D16*
X162400Y469270D03*
D17*
X162400Y471810D01*
X164940Y474350D01*
X182720Y474350D01*
X211930Y503560D01*
X248760Y503560D01*
X250030Y502290D01*
X250030Y451490D01*
X246220Y447680D01*
X241140Y447680D01*
D16*
X241140Y447680D03*
D13*
X185000Y360000D02*
X150000Y325000D01*
D14*
X150000Y325000D03*
X185000Y360000D03*
D13*
X204978Y417576D02*
X240792Y417576D01*
D14*
X240792Y417576D03*
X204978Y417576D03*
D13*
X35000Y255000D02*
X105000Y185000D01*
X35000Y255000D02*
X35000Y330000D01*
X25000Y340000D01*
X25000Y342500D01*
X24130Y342900D01*
D14*
X105000Y185000D03*
D13*
X47500Y232500D02*
X12500Y267500D01*
X12500Y365000D01*
X22500Y375000D01*
X24130Y375920D01*
X255000Y175000D02*
X217500Y137500D01*
X72500Y137500D01*
X72500Y210000D01*
X50000Y232500D01*
X47500Y232500D01*
D14*
X255000Y175000D03*
D13*
X127500Y177500D02*
X40000Y265000D01*
X40000Y330000D01*
X35000Y335000D01*
X35000Y397500D01*
X25000Y407500D01*
X24130Y408940D01*
D14*
X127500Y177500D03*
D13*
X140000Y245000D02*
X172500Y277500D01*
X140000Y245000D02*
X140000Y152500D01*
D14*
X172500Y277500D03*
X140000Y152500D03*
D13*
X270000Y150000D02*
X270000Y310000D01*
X222500Y357500D01*
X222500Y370000D01*
X180000Y412500D01*
X127500Y412500D01*
D14*
X270000Y150000D03*
X127500Y412500D03*
D13*
X92500Y377500D02*
X102500Y367500D01*
D14*
X102500Y367500D03*
X92500Y377500D03*
D13*
X262500Y145000D02*
X255000Y137500D01*
X262500Y145000D02*
X262500Y190000D01*
X217500Y235000D01*
X217500Y370000D01*
X212500Y375000D01*
X172500Y375000D01*
X170000Y372500D01*
X107500Y372500D01*
X107500Y387500D01*
X95000Y400000D01*
X95000Y450000D01*
D14*
X255000Y137500D03*
X95000Y450000D03*
D13*
X197500Y105000D02*
X255000Y105000D01*
X197500Y105000D02*
X197500Y115000D01*
X180000Y132500D01*
X65000Y132500D01*
X65000Y207500D01*
D14*
X255000Y105000D03*
X65000Y207500D03*
D13*
X255000Y115000D02*
X270000Y100000D01*
X270000Y52500D01*
X260000Y42500D01*
X47500Y42500D01*
X47500Y222500D01*
X12500Y257500D01*
D14*
X255000Y115000D03*
X12500Y257500D03*
M02*
