G04 EAGLE Gerber RS-274X export*
G75*
%MOMM*%
%FSLAX34Y34*%
%LPD*%
%INTop Copper*%
%IPPOS*%
%AMOC8*
5,1,8,0,0,1.08239X$1,22.5*%
G01*
%ADD10C,1.524000*%
%ADD11R,1.000000X1.100000*%
%ADD12C,0.198000*%
%ADD13R,4.000000X4.000000*%
%ADD14R,1.600200X0.508000*%
%ADD15R,0.609600X0.889000*%
%ADD16R,1.701800X1.803400*%
%ADD17R,0.475000X0.250000*%
%ADD18R,0.250000X0.375000*%
%ADD19R,1.500000X1.300000*%
%ADD20R,1.300000X1.500000*%
%ADD21R,1.300000X1.900000*%
%ADD22R,1.500000X1.200000*%
%ADD23C,1.930400*%
%ADD24R,1.350000X0.800000*%
%ADD25C,0.127000*%
%ADD26C,0.711200*%
%ADD27R,1.761200X0.850800*%
%ADD28R,1.761200X3.150800*%
%ADD29R,1.000000X0.900000*%
%ADD30R,2.540000X1.270000*%
%ADD31C,0.152400*%
%ADD32C,0.706400*%
%ADD33C,0.756400*%
%ADD34C,0.254000*%
%ADD35C,0.906400*%
%ADD36C,0.160000*%

G36*
X218456Y59242D02*
X218456Y59242D01*
X218475Y59240D01*
X218577Y59262D01*
X218679Y59279D01*
X218696Y59288D01*
X218716Y59292D01*
X218805Y59345D01*
X218896Y59394D01*
X218910Y59408D01*
X218927Y59418D01*
X218994Y59497D01*
X219066Y59572D01*
X219074Y59590D01*
X219087Y59605D01*
X219126Y59701D01*
X219169Y59795D01*
X219171Y59815D01*
X219179Y59833D01*
X219197Y60000D01*
X219197Y130000D01*
X219194Y130020D01*
X219196Y130039D01*
X219174Y130141D01*
X219158Y130243D01*
X219148Y130260D01*
X219144Y130280D01*
X219091Y130369D01*
X219042Y130460D01*
X219028Y130474D01*
X219018Y130491D01*
X218939Y130558D01*
X218864Y130630D01*
X218846Y130638D01*
X218831Y130651D01*
X218735Y130690D01*
X218641Y130733D01*
X218621Y130735D01*
X218603Y130743D01*
X218436Y130761D01*
X123247Y130761D01*
X123157Y130747D01*
X123066Y130739D01*
X123037Y130727D01*
X123005Y130722D01*
X122924Y130679D01*
X122840Y130643D01*
X122808Y130617D01*
X122787Y130606D01*
X122765Y130583D01*
X122709Y130538D01*
X89462Y97291D01*
X89409Y97217D01*
X89349Y97148D01*
X89337Y97117D01*
X89318Y97091D01*
X89291Y97004D01*
X89257Y96919D01*
X89253Y96878D01*
X89246Y96856D01*
X89247Y96824D01*
X89239Y96753D01*
X89239Y60000D01*
X89242Y59980D01*
X89240Y59961D01*
X89262Y59859D01*
X89279Y59757D01*
X89288Y59740D01*
X89292Y59720D01*
X89345Y59631D01*
X89394Y59540D01*
X89408Y59526D01*
X89418Y59509D01*
X89497Y59442D01*
X89572Y59371D01*
X89590Y59362D01*
X89605Y59349D01*
X89701Y59310D01*
X89795Y59267D01*
X89815Y59265D01*
X89833Y59257D01*
X90000Y59239D01*
X218436Y59239D01*
X218456Y59242D01*
G37*
G36*
X147058Y451626D02*
X147058Y451626D01*
X147177Y451633D01*
X147215Y451646D01*
X147256Y451651D01*
X147366Y451694D01*
X147479Y451731D01*
X147514Y451753D01*
X147551Y451768D01*
X147647Y451837D01*
X147748Y451901D01*
X147776Y451931D01*
X147809Y451954D01*
X147885Y452046D01*
X147966Y452133D01*
X147986Y452168D01*
X148011Y452199D01*
X148062Y452307D01*
X148120Y452411D01*
X148130Y452451D01*
X148147Y452487D01*
X148169Y452604D01*
X148199Y452719D01*
X148203Y452779D01*
X148207Y452799D01*
X148205Y452820D01*
X148209Y452880D01*
X148209Y454384D01*
X148255Y454555D01*
X148269Y454659D01*
X148292Y454763D01*
X148291Y454816D01*
X148298Y454870D01*
X148286Y454975D01*
X148283Y455080D01*
X148268Y455132D01*
X148262Y455186D01*
X148224Y455284D01*
X148209Y455334D01*
X148209Y472720D01*
X148194Y472838D01*
X148187Y472957D01*
X148174Y472995D01*
X148169Y473036D01*
X148126Y473146D01*
X148089Y473259D01*
X148067Y473294D01*
X148052Y473331D01*
X147983Y473427D01*
X147919Y473528D01*
X147889Y473556D01*
X147866Y473589D01*
X147774Y473665D01*
X147687Y473746D01*
X147652Y473766D01*
X147621Y473791D01*
X147513Y473842D01*
X147409Y473900D01*
X147369Y473910D01*
X147333Y473927D01*
X147216Y473949D01*
X147101Y473979D01*
X147041Y473983D01*
X147021Y473987D01*
X147000Y473985D01*
X146940Y473989D01*
X144672Y473989D01*
X142865Y475796D01*
X142787Y475856D01*
X142715Y475924D01*
X142662Y475953D01*
X142614Y475990D01*
X142523Y476030D01*
X142436Y476078D01*
X142378Y476093D01*
X142322Y476117D01*
X142224Y476132D01*
X142128Y476157D01*
X142028Y476163D01*
X142008Y476167D01*
X141996Y476165D01*
X141968Y476167D01*
X141943Y476167D01*
X139344Y477244D01*
X137354Y479234D01*
X136277Y481833D01*
X136277Y484647D01*
X137354Y487246D01*
X139455Y489347D01*
X139519Y489430D01*
X139591Y489508D01*
X139617Y489556D01*
X139650Y489598D01*
X139692Y489695D01*
X139742Y489788D01*
X139755Y489841D01*
X139776Y489890D01*
X139793Y489995D01*
X139818Y490097D01*
X139817Y490151D01*
X139826Y490204D01*
X139816Y490310D01*
X139815Y490415D01*
X139798Y490499D01*
X139796Y490521D01*
X139791Y490536D01*
X139783Y490573D01*
X139659Y491036D01*
X139659Y495331D01*
X147161Y495331D01*
X147161Y489957D01*
X147173Y489859D01*
X147176Y489760D01*
X147193Y489702D01*
X147201Y489642D01*
X147237Y489550D01*
X147265Y489455D01*
X147295Y489402D01*
X147318Y489346D01*
X147376Y489266D01*
X147426Y489181D01*
X147493Y489105D01*
X147505Y489089D01*
X147514Y489081D01*
X147533Y489060D01*
X149346Y487246D01*
X150423Y484647D01*
X150423Y482880D01*
X150438Y482762D01*
X150445Y482643D01*
X150458Y482605D01*
X150463Y482564D01*
X150506Y482454D01*
X150543Y482341D01*
X150565Y482306D01*
X150580Y482269D01*
X150649Y482173D01*
X150713Y482072D01*
X150743Y482044D01*
X150766Y482011D01*
X150858Y481935D01*
X150945Y481854D01*
X150980Y481834D01*
X151011Y481809D01*
X151119Y481758D01*
X151223Y481700D01*
X151263Y481690D01*
X151299Y481673D01*
X151416Y481651D01*
X151531Y481621D01*
X151591Y481617D01*
X151611Y481613D01*
X151632Y481615D01*
X151692Y481611D01*
X155051Y481611D01*
X155089Y481601D01*
X155189Y481595D01*
X155209Y481591D01*
X155221Y481593D01*
X155249Y481591D01*
X156793Y481591D01*
X156888Y481576D01*
X157004Y481550D01*
X157045Y481551D01*
X157085Y481545D01*
X157203Y481556D01*
X157322Y481559D01*
X157361Y481571D01*
X157401Y481574D01*
X157513Y481615D01*
X157628Y481648D01*
X157663Y481668D01*
X157701Y481682D01*
X157799Y481749D01*
X157902Y481809D01*
X157947Y481849D01*
X157964Y481861D01*
X157977Y481876D01*
X158023Y481916D01*
X158948Y482841D01*
X163703Y482841D01*
X163711Y482837D01*
X163763Y482824D01*
X163813Y482802D01*
X163917Y482786D01*
X164020Y482760D01*
X164074Y482761D01*
X164127Y482753D01*
X164232Y482762D01*
X164338Y482763D01*
X164422Y482780D01*
X164443Y482782D01*
X164458Y482788D01*
X164496Y482795D01*
X164666Y482841D01*
X166170Y482841D01*
X166288Y482856D01*
X166407Y482863D01*
X166445Y482876D01*
X166486Y482881D01*
X166596Y482924D01*
X166709Y482961D01*
X166744Y482983D01*
X166781Y482998D01*
X166877Y483067D01*
X166978Y483131D01*
X167006Y483161D01*
X167039Y483184D01*
X167115Y483276D01*
X167196Y483363D01*
X167216Y483398D01*
X167241Y483429D01*
X167292Y483537D01*
X167350Y483641D01*
X167360Y483681D01*
X167377Y483717D01*
X167399Y483834D01*
X167429Y483949D01*
X167433Y484009D01*
X167437Y484029D01*
X167435Y484050D01*
X167439Y484110D01*
X167439Y486290D01*
X167424Y486408D01*
X167417Y486527D01*
X167404Y486565D01*
X167399Y486606D01*
X167356Y486716D01*
X167319Y486829D01*
X167297Y486864D01*
X167282Y486901D01*
X167213Y486997D01*
X167149Y487098D01*
X167119Y487126D01*
X167096Y487159D01*
X167004Y487235D01*
X166917Y487316D01*
X166882Y487336D01*
X166851Y487361D01*
X166743Y487412D01*
X166639Y487470D01*
X166599Y487480D01*
X166563Y487497D01*
X166446Y487519D01*
X166331Y487549D01*
X166271Y487553D01*
X166251Y487557D01*
X166230Y487555D01*
X166170Y487559D01*
X160916Y487559D01*
X160269Y487732D01*
X159690Y488067D01*
X159151Y488605D01*
X159068Y488670D01*
X158990Y488742D01*
X158943Y488767D01*
X158900Y488800D01*
X158803Y488842D01*
X158710Y488892D01*
X158658Y488905D01*
X158608Y488927D01*
X158504Y488943D01*
X158401Y488969D01*
X158348Y488968D01*
X158294Y488977D01*
X158189Y488967D01*
X158083Y488966D01*
X157999Y488949D01*
X157978Y488947D01*
X157963Y488942D01*
X157925Y488934D01*
X157534Y488829D01*
X152239Y488829D01*
X152239Y495331D01*
X159741Y495331D01*
X159741Y495330D01*
X159756Y495212D01*
X159763Y495093D01*
X159776Y495055D01*
X159781Y495015D01*
X159824Y494904D01*
X159861Y494791D01*
X159883Y494756D01*
X159898Y494719D01*
X159967Y494623D01*
X160031Y494522D01*
X160061Y494494D01*
X160084Y494461D01*
X160176Y494386D01*
X160263Y494304D01*
X160298Y494284D01*
X160329Y494259D01*
X160437Y494208D01*
X160541Y494150D01*
X160581Y494140D01*
X160617Y494123D01*
X160734Y494101D01*
X160849Y494071D01*
X160909Y494067D01*
X160929Y494063D01*
X160950Y494065D01*
X161010Y494061D01*
X167480Y494061D01*
X167598Y494076D01*
X167717Y494083D01*
X167755Y494096D01*
X167795Y494101D01*
X167906Y494144D01*
X168019Y494181D01*
X168054Y494203D01*
X168091Y494218D01*
X168187Y494288D01*
X168288Y494351D01*
X168316Y494381D01*
X168348Y494405D01*
X168424Y494496D01*
X168506Y494583D01*
X168525Y494618D01*
X168551Y494649D01*
X168602Y494757D01*
X168659Y494861D01*
X168670Y494901D01*
X168687Y494937D01*
X168709Y495054D01*
X168739Y495169D01*
X168743Y495230D01*
X168747Y495250D01*
X168745Y495270D01*
X168749Y495330D01*
X168749Y497870D01*
X168734Y497988D01*
X168727Y498107D01*
X168714Y498145D01*
X168709Y498185D01*
X168666Y498296D01*
X168629Y498409D01*
X168607Y498444D01*
X168592Y498481D01*
X168522Y498577D01*
X168459Y498678D01*
X168429Y498706D01*
X168405Y498738D01*
X168314Y498814D01*
X168227Y498896D01*
X168192Y498915D01*
X168160Y498941D01*
X168053Y498992D01*
X167949Y499049D01*
X167909Y499060D01*
X167873Y499077D01*
X167756Y499099D01*
X167641Y499129D01*
X167580Y499133D01*
X167560Y499137D01*
X167540Y499135D01*
X167480Y499139D01*
X158709Y499139D01*
X158709Y499140D01*
X158694Y499258D01*
X158687Y499377D01*
X158674Y499415D01*
X158669Y499455D01*
X158626Y499566D01*
X158589Y499679D01*
X158567Y499713D01*
X158552Y499751D01*
X158483Y499847D01*
X158419Y499948D01*
X158389Y499976D01*
X158366Y500008D01*
X158274Y500084D01*
X158187Y500166D01*
X158152Y500186D01*
X158121Y500211D01*
X158013Y500262D01*
X157909Y500319D01*
X157869Y500330D01*
X157833Y500347D01*
X157716Y500369D01*
X157601Y500399D01*
X157541Y500403D01*
X157521Y500407D01*
X157500Y500405D01*
X157440Y500409D01*
X150970Y500409D01*
X150852Y500394D01*
X150733Y500387D01*
X150695Y500374D01*
X150655Y500369D01*
X150544Y500325D01*
X150431Y500289D01*
X150396Y500267D01*
X150359Y500252D01*
X150263Y500182D01*
X150162Y500119D01*
X150134Y500089D01*
X150102Y500065D01*
X150026Y499974D01*
X149944Y499887D01*
X149925Y499852D01*
X149899Y499820D01*
X149848Y499713D01*
X149791Y499609D01*
X149780Y499569D01*
X149763Y499533D01*
X149741Y499416D01*
X149711Y499301D01*
X149707Y499240D01*
X149703Y499220D01*
X149705Y499200D01*
X149701Y499140D01*
X149701Y497869D01*
X149699Y497869D01*
X149699Y499140D01*
X149684Y499258D01*
X149677Y499377D01*
X149664Y499415D01*
X149659Y499455D01*
X149615Y499566D01*
X149579Y499679D01*
X149557Y499714D01*
X149542Y499751D01*
X149472Y499847D01*
X149409Y499948D01*
X149379Y499976D01*
X149355Y500008D01*
X149264Y500084D01*
X149177Y500166D01*
X149142Y500185D01*
X149110Y500211D01*
X149003Y500262D01*
X148899Y500319D01*
X148859Y500330D01*
X148823Y500347D01*
X148706Y500369D01*
X148591Y500399D01*
X148530Y500403D01*
X148510Y500407D01*
X148490Y500405D01*
X148430Y500409D01*
X139659Y500409D01*
X139659Y504704D01*
X139832Y505351D01*
X140167Y505930D01*
X140709Y506472D01*
X140782Y506567D01*
X140861Y506656D01*
X140880Y506692D01*
X140904Y506724D01*
X140952Y506833D01*
X141006Y506939D01*
X141015Y506978D01*
X141031Y507016D01*
X141049Y507134D01*
X141075Y507249D01*
X141074Y507290D01*
X141081Y507330D01*
X141069Y507448D01*
X141066Y507567D01*
X141054Y507606D01*
X141051Y507646D01*
X141010Y507758D01*
X140977Y507873D01*
X140957Y507908D01*
X140943Y507946D01*
X140876Y508044D01*
X140816Y508147D01*
X140776Y508192D01*
X140765Y508209D01*
X140749Y508222D01*
X140709Y508267D01*
X139659Y509318D01*
X139659Y520996D01*
X139647Y521094D01*
X139644Y521193D01*
X139627Y521251D01*
X139619Y521311D01*
X139583Y521403D01*
X139555Y521499D01*
X139525Y521551D01*
X139502Y521607D01*
X139444Y521687D01*
X139394Y521772D01*
X139328Y521848D01*
X139316Y521864D01*
X139306Y521872D01*
X139288Y521893D01*
X129545Y531636D01*
X129467Y531696D01*
X129395Y531764D01*
X129342Y531793D01*
X129294Y531830D01*
X129203Y531870D01*
X129116Y531918D01*
X129058Y531933D01*
X129002Y531957D01*
X128904Y531972D01*
X128808Y531997D01*
X128708Y532003D01*
X128688Y532007D01*
X128676Y532005D01*
X128648Y532007D01*
X128225Y532007D01*
X123743Y533863D01*
X120313Y537293D01*
X118457Y541775D01*
X118457Y546625D01*
X120313Y551107D01*
X123743Y554537D01*
X126618Y555727D01*
X126679Y555762D01*
X126744Y555788D01*
X126817Y555840D01*
X126895Y555885D01*
X126945Y555934D01*
X127001Y555974D01*
X127059Y556044D01*
X127123Y556106D01*
X127160Y556166D01*
X127204Y556219D01*
X127242Y556301D01*
X127289Y556377D01*
X127310Y556444D01*
X127340Y556507D01*
X127356Y556595D01*
X127383Y556681D01*
X127386Y556751D01*
X127399Y556820D01*
X127394Y556909D01*
X127398Y556999D01*
X127384Y557067D01*
X127380Y557137D01*
X127352Y557222D01*
X127334Y557310D01*
X127303Y557373D01*
X127282Y557439D01*
X127234Y557515D01*
X127194Y557596D01*
X127149Y557649D01*
X127111Y557708D01*
X127046Y557770D01*
X126988Y557838D01*
X126931Y557878D01*
X126880Y557926D01*
X126801Y557969D01*
X126728Y558021D01*
X126662Y558046D01*
X126601Y558080D01*
X126514Y558102D01*
X126430Y558134D01*
X126361Y558142D01*
X126293Y558159D01*
X126133Y558169D01*
X45400Y558169D01*
X45282Y558154D01*
X45163Y558147D01*
X45125Y558134D01*
X45084Y558129D01*
X44974Y558086D01*
X44861Y558049D01*
X44826Y558027D01*
X44789Y558012D01*
X44693Y557943D01*
X44592Y557879D01*
X44564Y557849D01*
X44531Y557826D01*
X44456Y557734D01*
X44374Y557647D01*
X44354Y557612D01*
X44329Y557581D01*
X44278Y557473D01*
X44220Y557369D01*
X44210Y557329D01*
X44193Y557293D01*
X44171Y557176D01*
X44141Y557061D01*
X44137Y557001D01*
X44133Y556981D01*
X44135Y556960D01*
X44131Y556900D01*
X44131Y550460D01*
X44132Y550451D01*
X44131Y550441D01*
X44152Y550293D01*
X44171Y550144D01*
X44174Y550136D01*
X44175Y550127D01*
X44227Y549974D01*
X46581Y544293D01*
X46581Y535707D01*
X44227Y530026D01*
X44225Y530017D01*
X44220Y530009D01*
X44183Y529864D01*
X44143Y529719D01*
X44143Y529710D01*
X44141Y529701D01*
X44131Y529540D01*
X44131Y514572D01*
X44146Y514454D01*
X44153Y514335D01*
X44166Y514297D01*
X44171Y514256D01*
X44214Y514146D01*
X44251Y514033D01*
X44273Y513998D01*
X44288Y513961D01*
X44358Y513865D01*
X44421Y513764D01*
X44451Y513736D01*
X44474Y513703D01*
X44566Y513627D01*
X44653Y513546D01*
X44688Y513526D01*
X44719Y513501D01*
X44827Y513450D01*
X44931Y513392D01*
X44971Y513382D01*
X45007Y513365D01*
X45124Y513343D01*
X45239Y513313D01*
X45300Y513309D01*
X45320Y513305D01*
X45340Y513307D01*
X45400Y513303D01*
X68868Y513303D01*
X80996Y501174D01*
X81075Y501114D01*
X81147Y501046D01*
X81200Y501017D01*
X81248Y500980D01*
X81339Y500940D01*
X81425Y500892D01*
X81484Y500877D01*
X81539Y500853D01*
X81637Y500838D01*
X81733Y500813D01*
X81833Y500807D01*
X81854Y500803D01*
X81866Y500805D01*
X81894Y500803D01*
X86710Y500803D01*
X86828Y500818D01*
X86947Y500825D01*
X86985Y500838D01*
X87026Y500843D01*
X87136Y500886D01*
X87249Y500923D01*
X87284Y500945D01*
X87321Y500960D01*
X87417Y501029D01*
X87518Y501093D01*
X87546Y501123D01*
X87579Y501146D01*
X87655Y501238D01*
X87736Y501325D01*
X87756Y501360D01*
X87781Y501391D01*
X87832Y501499D01*
X87890Y501603D01*
X87900Y501643D01*
X87917Y501679D01*
X87939Y501796D01*
X87969Y501911D01*
X87973Y501971D01*
X87977Y501991D01*
X87975Y502012D01*
X87979Y502072D01*
X87979Y507371D01*
X95750Y507371D01*
X95868Y507386D01*
X95987Y507393D01*
X96025Y507406D01*
X96065Y507411D01*
X96176Y507454D01*
X96289Y507491D01*
X96324Y507513D01*
X96361Y507528D01*
X96457Y507598D01*
X96558Y507661D01*
X96586Y507691D01*
X96618Y507715D01*
X96694Y507806D01*
X96776Y507893D01*
X96795Y507928D01*
X96821Y507959D01*
X96872Y508067D01*
X96929Y508171D01*
X96940Y508211D01*
X96957Y508247D01*
X96979Y508364D01*
X97009Y508479D01*
X97013Y508540D01*
X97017Y508560D01*
X97015Y508580D01*
X97019Y508640D01*
X97019Y509911D01*
X98290Y509911D01*
X98408Y509926D01*
X98527Y509933D01*
X98565Y509946D01*
X98605Y509951D01*
X98716Y509995D01*
X98829Y510031D01*
X98864Y510053D01*
X98901Y510068D01*
X98997Y510138D01*
X99098Y510201D01*
X99126Y510231D01*
X99158Y510255D01*
X99234Y510346D01*
X99316Y510433D01*
X99335Y510468D01*
X99361Y510500D01*
X99412Y510607D01*
X99469Y510711D01*
X99480Y510751D01*
X99497Y510787D01*
X99519Y510904D01*
X99549Y511019D01*
X99553Y511080D01*
X99557Y511100D01*
X99555Y511120D01*
X99559Y511180D01*
X99559Y519951D01*
X103854Y519951D01*
X104501Y519778D01*
X105080Y519443D01*
X105622Y518901D01*
X105717Y518828D01*
X105806Y518749D01*
X105842Y518730D01*
X105874Y518706D01*
X105983Y518658D01*
X106089Y518604D01*
X106128Y518595D01*
X106166Y518579D01*
X106284Y518561D01*
X106399Y518535D01*
X106440Y518536D01*
X106480Y518529D01*
X106598Y518541D01*
X106717Y518544D01*
X106756Y518556D01*
X106796Y518559D01*
X106908Y518600D01*
X107023Y518633D01*
X107058Y518653D01*
X107096Y518667D01*
X107194Y518734D01*
X107297Y518794D01*
X107342Y518834D01*
X107359Y518845D01*
X107372Y518861D01*
X107417Y518901D01*
X108468Y519951D01*
X123572Y519951D01*
X125061Y518462D01*
X125061Y501120D01*
X125076Y501002D01*
X125083Y500883D01*
X125096Y500845D01*
X125101Y500804D01*
X125144Y500694D01*
X125181Y500581D01*
X125203Y500546D01*
X125218Y500509D01*
X125287Y500413D01*
X125351Y500312D01*
X125381Y500284D01*
X125404Y500251D01*
X125496Y500175D01*
X125583Y500094D01*
X125618Y500074D01*
X125649Y500049D01*
X125757Y499998D01*
X125861Y499940D01*
X125901Y499930D01*
X125937Y499913D01*
X126054Y499891D01*
X126169Y499861D01*
X126229Y499857D01*
X126249Y499853D01*
X126270Y499855D01*
X126330Y499851D01*
X131412Y499851D01*
X132901Y498362D01*
X132901Y478014D01*
X132913Y477916D01*
X132916Y477817D01*
X132933Y477759D01*
X132941Y477699D01*
X132977Y477607D01*
X133005Y477511D01*
X133035Y477459D01*
X133058Y477403D01*
X133116Y477323D01*
X133166Y477238D01*
X133232Y477162D01*
X133244Y477146D01*
X133254Y477138D01*
X133272Y477117D01*
X138271Y472118D01*
X138271Y458674D01*
X138283Y458576D01*
X138286Y458477D01*
X138303Y458419D01*
X138311Y458359D01*
X138347Y458267D01*
X138375Y458171D01*
X138405Y458119D01*
X138428Y458063D01*
X138486Y457983D01*
X138536Y457898D01*
X138602Y457822D01*
X138614Y457806D01*
X138624Y457798D01*
X138642Y457777D01*
X144437Y451982D01*
X144515Y451922D01*
X144587Y451854D01*
X144640Y451825D01*
X144688Y451788D01*
X144779Y451748D01*
X144866Y451700D01*
X144924Y451685D01*
X144980Y451661D01*
X145078Y451646D01*
X145174Y451621D01*
X145274Y451615D01*
X145294Y451611D01*
X145306Y451613D01*
X145334Y451611D01*
X146940Y451611D01*
X147058Y451626D01*
G37*
G36*
X188046Y382446D02*
X188046Y382446D01*
X188165Y382453D01*
X188203Y382466D01*
X188244Y382471D01*
X188354Y382514D01*
X188467Y382551D01*
X188502Y382573D01*
X188539Y382588D01*
X188635Y382658D01*
X188736Y382721D01*
X188764Y382751D01*
X188797Y382774D01*
X188873Y382866D01*
X188954Y382953D01*
X188974Y382988D01*
X188999Y383019D01*
X189050Y383127D01*
X189108Y383231D01*
X189118Y383271D01*
X189135Y383307D01*
X189157Y383424D01*
X189187Y383539D01*
X189191Y383600D01*
X189195Y383620D01*
X189193Y383640D01*
X189197Y383700D01*
X189197Y383964D01*
X189185Y384062D01*
X189182Y384161D01*
X189165Y384220D01*
X189157Y384280D01*
X189121Y384372D01*
X189093Y384467D01*
X189063Y384519D01*
X189040Y384575D01*
X188982Y384655D01*
X188932Y384741D01*
X188866Y384816D01*
X188854Y384833D01*
X188844Y384841D01*
X188826Y384862D01*
X188721Y384966D01*
X188721Y387702D01*
X188826Y387806D01*
X188886Y387885D01*
X188954Y387957D01*
X188983Y388010D01*
X189020Y388058D01*
X189060Y388149D01*
X189108Y388235D01*
X189123Y388294D01*
X189147Y388349D01*
X189162Y388447D01*
X189187Y388543D01*
X189193Y388643D01*
X189197Y388664D01*
X189195Y388676D01*
X189197Y388704D01*
X189197Y388868D01*
X191132Y390803D01*
X191296Y390803D01*
X191394Y390815D01*
X191493Y390818D01*
X191552Y390835D01*
X191612Y390843D01*
X191704Y390879D01*
X191799Y390907D01*
X191851Y390937D01*
X191907Y390960D01*
X191987Y391018D01*
X192073Y391068D01*
X192148Y391134D01*
X192165Y391146D01*
X192173Y391156D01*
X192194Y391174D01*
X228578Y427558D01*
X228638Y427637D01*
X228706Y427709D01*
X228735Y427762D01*
X228772Y427810D01*
X228812Y427901D01*
X228860Y427987D01*
X228875Y428046D01*
X228899Y428101D01*
X228914Y428199D01*
X228939Y428295D01*
X228945Y428395D01*
X228949Y428416D01*
X228947Y428428D01*
X228949Y428456D01*
X228949Y430159D01*
X228933Y430284D01*
X228924Y430409D01*
X228914Y430441D01*
X228909Y430474D01*
X228863Y430592D01*
X228823Y430711D01*
X228805Y430739D01*
X228792Y430770D01*
X228718Y430872D01*
X228650Y430977D01*
X228625Y431000D01*
X228606Y431028D01*
X228509Y431108D01*
X228416Y431193D01*
X228387Y431209D01*
X228361Y431230D01*
X228247Y431284D01*
X228136Y431343D01*
X228103Y431352D01*
X228073Y431366D01*
X227950Y431389D01*
X227827Y431420D01*
X227794Y431419D01*
X227761Y431426D01*
X227635Y431418D01*
X227509Y431417D01*
X227461Y431407D01*
X227443Y431406D01*
X227423Y431399D01*
X227351Y431385D01*
X226995Y431289D01*
X222699Y431289D01*
X222699Y438791D01*
X227680Y438791D01*
X227798Y438806D01*
X227917Y438813D01*
X227955Y438826D01*
X227996Y438831D01*
X228106Y438874D01*
X228219Y438911D01*
X228254Y438933D01*
X228291Y438948D01*
X228387Y439018D01*
X228488Y439081D01*
X228516Y439111D01*
X228549Y439135D01*
X228625Y439226D01*
X228706Y439313D01*
X228726Y439348D01*
X228751Y439379D01*
X228802Y439487D01*
X228860Y439591D01*
X228870Y439631D01*
X228887Y439667D01*
X228909Y439784D01*
X228939Y439899D01*
X228943Y439960D01*
X228947Y439980D01*
X228945Y440000D01*
X228949Y440060D01*
X228949Y440992D01*
X229659Y441702D01*
X229744Y441812D01*
X229833Y441919D01*
X229842Y441938D01*
X229854Y441954D01*
X229909Y442081D01*
X229969Y442207D01*
X229972Y442227D01*
X229981Y442246D01*
X230002Y442384D01*
X230028Y442519D01*
X230027Y442540D01*
X230030Y442560D01*
X230030Y442563D01*
X230041Y442560D01*
X230077Y442543D01*
X230194Y442521D01*
X230309Y442491D01*
X230369Y442487D01*
X230389Y442483D01*
X230410Y442485D01*
X230470Y442481D01*
X233739Y442481D01*
X233788Y442487D01*
X233838Y442485D01*
X233945Y442507D01*
X234054Y442521D01*
X234100Y442539D01*
X234149Y442549D01*
X234248Y442597D01*
X234350Y442638D01*
X234390Y442667D01*
X234435Y442689D01*
X234518Y442760D01*
X234607Y442824D01*
X234639Y442863D01*
X234677Y442895D01*
X234740Y442985D01*
X234810Y443069D01*
X234831Y443114D01*
X234860Y443155D01*
X234899Y443258D01*
X234946Y443357D01*
X234955Y443406D01*
X234972Y443452D01*
X234985Y443562D01*
X235005Y443669D01*
X235002Y443719D01*
X235008Y443768D01*
X234992Y443877D01*
X234986Y443987D01*
X234970Y444034D01*
X234963Y444083D01*
X234911Y444236D01*
X234067Y446273D01*
X234067Y449087D01*
X234911Y451124D01*
X234924Y451172D01*
X234946Y451217D01*
X234966Y451325D01*
X234995Y451431D01*
X234996Y451481D01*
X235005Y451530D01*
X234998Y451639D01*
X235000Y451749D01*
X234989Y451797D01*
X234986Y451847D01*
X234952Y451951D01*
X234926Y452058D01*
X234903Y452102D01*
X234888Y452149D01*
X234829Y452242D01*
X234777Y452339D01*
X234744Y452376D01*
X234717Y452418D01*
X234637Y452493D01*
X234563Y452575D01*
X234522Y452602D01*
X234486Y452636D01*
X234390Y452689D01*
X234298Y452749D01*
X234251Y452766D01*
X234207Y452790D01*
X234101Y452817D01*
X233997Y452853D01*
X233947Y452857D01*
X233899Y452869D01*
X233739Y452879D01*
X232978Y452879D01*
X231119Y454738D01*
X231041Y454798D01*
X230969Y454866D01*
X230916Y454895D01*
X230868Y454932D01*
X230777Y454972D01*
X230690Y455020D01*
X230632Y455035D01*
X230576Y455059D01*
X230478Y455074D01*
X230383Y455099D01*
X230283Y455105D01*
X230262Y455109D01*
X230250Y455107D01*
X230222Y455109D01*
X216828Y455109D01*
X215339Y456598D01*
X215339Y466702D01*
X216828Y468191D01*
X230220Y468191D01*
X230338Y468206D01*
X230457Y468213D01*
X230495Y468226D01*
X230536Y468231D01*
X230646Y468274D01*
X230759Y468311D01*
X230794Y468333D01*
X230831Y468348D01*
X230927Y468417D01*
X231028Y468481D01*
X231056Y468511D01*
X231089Y468534D01*
X231165Y468626D01*
X231246Y468713D01*
X231266Y468748D01*
X231291Y468779D01*
X231342Y468887D01*
X231400Y468991D01*
X231410Y469031D01*
X231427Y469067D01*
X231449Y469184D01*
X231479Y469299D01*
X231483Y469359D01*
X231487Y469379D01*
X231485Y469400D01*
X231489Y469460D01*
X231489Y471472D01*
X232978Y472961D01*
X234896Y472961D01*
X235034Y472978D01*
X235172Y472991D01*
X235191Y472998D01*
X235211Y473001D01*
X235341Y473052D01*
X235471Y473099D01*
X235488Y473110D01*
X235507Y473118D01*
X235620Y473199D01*
X235735Y473277D01*
X235748Y473293D01*
X235764Y473304D01*
X235853Y473412D01*
X235945Y473516D01*
X235954Y473534D01*
X235967Y473549D01*
X236026Y473675D01*
X236090Y473799D01*
X236094Y473819D01*
X236103Y473837D01*
X236129Y473974D01*
X236159Y474109D01*
X236159Y474130D01*
X236163Y474149D01*
X236154Y474288D01*
X236150Y474427D01*
X236144Y474447D01*
X236143Y474467D01*
X236100Y474599D01*
X236061Y474733D01*
X236051Y474750D01*
X236045Y474769D01*
X235970Y474887D01*
X235900Y475007D01*
X235881Y475028D01*
X235875Y475038D01*
X235860Y475052D01*
X235793Y475127D01*
X234243Y476678D01*
X234165Y476738D01*
X234093Y476806D01*
X234040Y476835D01*
X233992Y476872D01*
X233901Y476912D01*
X233814Y476960D01*
X233756Y476975D01*
X233700Y476999D01*
X233602Y477014D01*
X233506Y477039D01*
X233406Y477045D01*
X233386Y477049D01*
X233374Y477047D01*
X233346Y477049D01*
X228278Y477049D01*
X228180Y477037D01*
X228081Y477034D01*
X228023Y477017D01*
X227963Y477009D01*
X227871Y476973D01*
X227775Y476945D01*
X227723Y476915D01*
X227667Y476892D01*
X227587Y476834D01*
X227501Y476784D01*
X227426Y476718D01*
X227410Y476706D01*
X227402Y476696D01*
X227381Y476678D01*
X226442Y475739D01*
X211338Y475739D01*
X210287Y476789D01*
X210193Y476862D01*
X210104Y476941D01*
X210068Y476959D01*
X210036Y476984D01*
X209927Y477032D01*
X209821Y477086D01*
X209782Y477095D01*
X209744Y477111D01*
X209627Y477129D01*
X209511Y477155D01*
X209470Y477154D01*
X209430Y477160D01*
X209312Y477149D01*
X209193Y477146D01*
X209154Y477134D01*
X209114Y477131D01*
X209002Y477090D01*
X208887Y477057D01*
X208852Y477037D01*
X208814Y477023D01*
X208716Y476956D01*
X208613Y476896D01*
X208568Y476856D01*
X208551Y476844D01*
X208538Y476829D01*
X208492Y476789D01*
X207442Y475739D01*
X204310Y475739D01*
X204192Y475724D01*
X204073Y475717D01*
X204035Y475704D01*
X203994Y475699D01*
X203884Y475656D01*
X203771Y475619D01*
X203736Y475597D01*
X203699Y475582D01*
X203603Y475513D01*
X203502Y475449D01*
X203474Y475419D01*
X203441Y475396D01*
X203365Y475304D01*
X203284Y475217D01*
X203264Y475182D01*
X203239Y475151D01*
X203188Y475043D01*
X203130Y474939D01*
X203120Y474899D01*
X203103Y474863D01*
X203081Y474746D01*
X203051Y474631D01*
X203047Y474571D01*
X203043Y474551D01*
X203045Y474530D01*
X203041Y474470D01*
X203041Y469460D01*
X203056Y469342D01*
X203063Y469223D01*
X203076Y469185D01*
X203081Y469144D01*
X203124Y469034D01*
X203161Y468921D01*
X203183Y468886D01*
X203198Y468849D01*
X203267Y468753D01*
X203331Y468652D01*
X203361Y468624D01*
X203384Y468591D01*
X203476Y468515D01*
X203563Y468434D01*
X203598Y468414D01*
X203629Y468389D01*
X203737Y468338D01*
X203841Y468280D01*
X203881Y468270D01*
X203917Y468253D01*
X204034Y468231D01*
X204149Y468201D01*
X204209Y468197D01*
X204229Y468193D01*
X204250Y468195D01*
X204310Y468191D01*
X207032Y468191D01*
X208521Y466702D01*
X208521Y456598D01*
X207032Y455109D01*
X201144Y455109D01*
X201046Y455097D01*
X200947Y455094D01*
X200889Y455077D01*
X200829Y455069D01*
X200737Y455033D01*
X200641Y455005D01*
X200589Y454975D01*
X200533Y454952D01*
X200453Y454894D01*
X200367Y454844D01*
X200292Y454778D01*
X200276Y454766D01*
X200268Y454756D01*
X200247Y454737D01*
X199498Y453989D01*
X196954Y453989D01*
X196817Y453972D01*
X196678Y453959D01*
X196659Y453952D01*
X196639Y453949D01*
X196510Y453898D01*
X196379Y453851D01*
X196362Y453840D01*
X196343Y453832D01*
X196231Y453751D01*
X196115Y453673D01*
X196102Y453657D01*
X196086Y453646D01*
X195997Y453538D01*
X195905Y453434D01*
X195896Y453416D01*
X195883Y453401D01*
X195824Y453275D01*
X195760Y453151D01*
X195756Y453131D01*
X195747Y453113D01*
X195721Y452977D01*
X195691Y452841D01*
X195691Y452820D01*
X195687Y452801D01*
X195696Y452662D01*
X195700Y452523D01*
X195706Y452503D01*
X195707Y452483D01*
X195750Y452351D01*
X195789Y452217D01*
X195799Y452200D01*
X195805Y452181D01*
X195880Y452063D01*
X195950Y451943D01*
X195969Y451922D01*
X195975Y451912D01*
X195990Y451898D01*
X196057Y451823D01*
X196137Y451742D01*
X196215Y451682D01*
X196287Y451614D01*
X196340Y451585D01*
X196388Y451548D01*
X196479Y451508D01*
X196566Y451460D01*
X196624Y451445D01*
X196680Y451421D01*
X196778Y451406D01*
X196873Y451381D01*
X196974Y451375D01*
X196994Y451371D01*
X197006Y451373D01*
X197034Y451371D01*
X208712Y451371D01*
X209763Y450321D01*
X209857Y450248D01*
X209946Y450169D01*
X209982Y450150D01*
X210014Y450126D01*
X210123Y450078D01*
X210229Y450024D01*
X210268Y450015D01*
X210306Y449999D01*
X210423Y449981D01*
X210539Y449955D01*
X210580Y449956D01*
X210620Y449949D01*
X210738Y449961D01*
X210857Y449964D01*
X210896Y449976D01*
X210936Y449979D01*
X211048Y450020D01*
X211163Y450053D01*
X211198Y450073D01*
X211236Y450087D01*
X211334Y450154D01*
X211437Y450214D01*
X211482Y450254D01*
X211499Y450265D01*
X211512Y450281D01*
X211558Y450321D01*
X212100Y450863D01*
X212679Y451198D01*
X213326Y451371D01*
X217621Y451371D01*
X217621Y442600D01*
X217636Y442482D01*
X217643Y442363D01*
X217656Y442325D01*
X217661Y442285D01*
X217704Y442174D01*
X217741Y442061D01*
X217763Y442026D01*
X217778Y441989D01*
X217848Y441893D01*
X217911Y441792D01*
X217941Y441764D01*
X217965Y441732D01*
X218056Y441656D01*
X218143Y441574D01*
X218178Y441555D01*
X218209Y441529D01*
X218317Y441478D01*
X218421Y441421D01*
X218461Y441410D01*
X218497Y441393D01*
X218614Y441371D01*
X218729Y441341D01*
X218790Y441337D01*
X218810Y441333D01*
X218830Y441335D01*
X218890Y441331D01*
X220161Y441331D01*
X220161Y441329D01*
X218890Y441329D01*
X218772Y441314D01*
X218653Y441307D01*
X218615Y441294D01*
X218575Y441289D01*
X218464Y441245D01*
X218351Y441209D01*
X218316Y441187D01*
X218279Y441172D01*
X218183Y441102D01*
X218082Y441039D01*
X218054Y441009D01*
X218021Y440985D01*
X217946Y440894D01*
X217864Y440807D01*
X217844Y440772D01*
X217819Y440740D01*
X217768Y440633D01*
X217710Y440529D01*
X217700Y440489D01*
X217683Y440453D01*
X217661Y440336D01*
X217631Y440221D01*
X217627Y440160D01*
X217623Y440140D01*
X217625Y440120D01*
X217621Y440060D01*
X217621Y431289D01*
X213326Y431289D01*
X212679Y431462D01*
X212100Y431797D01*
X211558Y432339D01*
X211463Y432412D01*
X211374Y432491D01*
X211338Y432510D01*
X211306Y432534D01*
X211197Y432582D01*
X211091Y432636D01*
X211052Y432645D01*
X211014Y432661D01*
X210896Y432679D01*
X210781Y432705D01*
X210740Y432704D01*
X210700Y432711D01*
X210582Y432699D01*
X210463Y432696D01*
X210424Y432684D01*
X210384Y432681D01*
X210272Y432640D01*
X210157Y432607D01*
X210122Y432587D01*
X210084Y432573D01*
X209986Y432506D01*
X209883Y432446D01*
X209838Y432406D01*
X209821Y432395D01*
X209808Y432379D01*
X209763Y432339D01*
X208712Y431289D01*
X204557Y431289D01*
X204419Y431272D01*
X204281Y431259D01*
X204262Y431252D01*
X204242Y431249D01*
X204112Y431198D01*
X203982Y431151D01*
X203965Y431140D01*
X203946Y431132D01*
X203834Y431051D01*
X203719Y430973D01*
X203705Y430957D01*
X203689Y430946D01*
X203600Y430838D01*
X203508Y430734D01*
X203499Y430716D01*
X203486Y430701D01*
X203427Y430575D01*
X203363Y430451D01*
X203359Y430431D01*
X203350Y430413D01*
X203324Y430277D01*
X203294Y430141D01*
X203294Y430120D01*
X203291Y430101D01*
X203299Y429962D01*
X203303Y429823D01*
X203309Y429803D01*
X203310Y429783D01*
X203353Y429651D01*
X203392Y429517D01*
X203402Y429500D01*
X203408Y429481D01*
X203483Y429363D01*
X203553Y429243D01*
X203572Y429222D01*
X203579Y429212D01*
X203593Y429198D01*
X203660Y429122D01*
X203956Y428826D01*
X205033Y426227D01*
X205033Y424918D01*
X205048Y424800D01*
X205055Y424681D01*
X205068Y424643D01*
X205073Y424602D01*
X205116Y424492D01*
X205153Y424379D01*
X205175Y424344D01*
X205190Y424307D01*
X205259Y424211D01*
X205323Y424110D01*
X205353Y424082D01*
X205376Y424049D01*
X205468Y423973D01*
X205555Y423892D01*
X205590Y423872D01*
X205621Y423847D01*
X205729Y423796D01*
X205833Y423738D01*
X205873Y423728D01*
X205909Y423711D01*
X206026Y423689D01*
X206141Y423659D01*
X206165Y423657D01*
X208418Y422724D01*
X210126Y421016D01*
X211051Y418784D01*
X211051Y416368D01*
X210126Y414136D01*
X208418Y412428D01*
X206186Y411503D01*
X203770Y411503D01*
X201538Y412428D01*
X200064Y413902D01*
X199986Y413962D01*
X199914Y414030D01*
X199861Y414059D01*
X199813Y414096D01*
X199722Y414136D01*
X199635Y414184D01*
X199577Y414199D01*
X199521Y414223D01*
X199423Y414238D01*
X199328Y414263D01*
X199228Y414269D01*
X199207Y414273D01*
X199195Y414271D01*
X199167Y414273D01*
X176940Y414273D01*
X172744Y418470D01*
X172649Y418543D01*
X172560Y418621D01*
X172524Y418640D01*
X172492Y418664D01*
X172383Y418712D01*
X172277Y418766D01*
X172238Y418775D01*
X172201Y418791D01*
X172083Y418810D01*
X171967Y418836D01*
X171927Y418834D01*
X171886Y418841D01*
X171768Y418829D01*
X171649Y418826D01*
X171610Y418815D01*
X171570Y418811D01*
X171458Y418771D01*
X171343Y418737D01*
X171309Y418717D01*
X171271Y418703D01*
X171172Y418636D01*
X171070Y418576D01*
X171024Y418536D01*
X171007Y418525D01*
X170994Y418509D01*
X170949Y418470D01*
X170432Y417953D01*
X170273Y417793D01*
X170212Y417715D01*
X170144Y417643D01*
X170115Y417590D01*
X170078Y417542D01*
X170038Y417451D01*
X169990Y417364D01*
X169975Y417306D01*
X169951Y417250D01*
X169936Y417152D01*
X169911Y417057D01*
X169905Y416956D01*
X169901Y416936D01*
X169903Y416924D01*
X169901Y416896D01*
X169901Y409218D01*
X168412Y407729D01*
X151308Y407729D01*
X150409Y408628D01*
X150331Y408688D01*
X150259Y408756D01*
X150206Y408785D01*
X150158Y408822D01*
X150067Y408862D01*
X149980Y408910D01*
X149922Y408925D01*
X149866Y408949D01*
X149768Y408964D01*
X149673Y408989D01*
X149572Y408995D01*
X149552Y408999D01*
X149540Y408997D01*
X149512Y408999D01*
X139876Y408999D01*
X139778Y408987D01*
X139679Y408984D01*
X139620Y408967D01*
X139560Y408959D01*
X139468Y408923D01*
X139373Y408895D01*
X139321Y408865D01*
X139265Y408842D01*
X139185Y408784D01*
X139099Y408734D01*
X139024Y408668D01*
X139007Y408656D01*
X138999Y408646D01*
X138978Y408628D01*
X137598Y407247D01*
X137513Y407138D01*
X137424Y407031D01*
X137416Y407012D01*
X137403Y406996D01*
X137348Y406869D01*
X137289Y406743D01*
X137285Y406723D01*
X137277Y406704D01*
X137255Y406566D01*
X137229Y406430D01*
X137230Y406410D01*
X137227Y406390D01*
X137240Y406251D01*
X137249Y406113D01*
X137255Y406094D01*
X137257Y406074D01*
X137304Y405942D01*
X137347Y405811D01*
X137358Y405793D01*
X137365Y405774D01*
X137443Y405659D01*
X137517Y405542D01*
X137532Y405528D01*
X137543Y405511D01*
X137647Y405419D01*
X137749Y405324D01*
X137766Y405314D01*
X137782Y405301D01*
X137906Y405237D01*
X138027Y405170D01*
X138047Y405165D01*
X138065Y405156D01*
X138201Y405126D01*
X138271Y405108D01*
X138271Y399079D01*
X129956Y399079D01*
X129858Y399067D01*
X129758Y399064D01*
X129700Y399047D01*
X129640Y399039D01*
X129548Y399003D01*
X129453Y398975D01*
X129401Y398945D01*
X129344Y398922D01*
X129264Y398864D01*
X129179Y398814D01*
X129104Y398747D01*
X129087Y398735D01*
X129079Y398726D01*
X129058Y398707D01*
X114948Y384598D01*
X114863Y384488D01*
X114774Y384381D01*
X114766Y384362D01*
X114753Y384346D01*
X114698Y384218D01*
X114639Y384093D01*
X114635Y384073D01*
X114627Y384054D01*
X114605Y383916D01*
X114579Y383781D01*
X114580Y383760D01*
X114577Y383740D01*
X114590Y383601D01*
X114599Y383463D01*
X114605Y383444D01*
X114607Y383424D01*
X114654Y383292D01*
X114697Y383161D01*
X114708Y383143D01*
X114715Y383124D01*
X114793Y383009D01*
X114867Y382892D01*
X114882Y382878D01*
X114893Y382861D01*
X114997Y382769D01*
X115099Y382674D01*
X115116Y382664D01*
X115132Y382651D01*
X115255Y382588D01*
X115377Y382520D01*
X115397Y382515D01*
X115415Y382506D01*
X115551Y382476D01*
X115685Y382441D01*
X115713Y382439D01*
X115725Y382437D01*
X115746Y382437D01*
X115846Y382431D01*
X187928Y382431D01*
X188046Y382446D01*
G37*
G36*
X249527Y472155D02*
X249527Y472155D01*
X249665Y472163D01*
X249684Y472169D01*
X249704Y472171D01*
X249835Y472218D01*
X249967Y472261D01*
X249985Y472272D01*
X250004Y472279D01*
X250118Y472357D01*
X250236Y472431D01*
X250250Y472446D01*
X250267Y472457D01*
X250359Y472562D01*
X250454Y472663D01*
X250464Y472681D01*
X250477Y472696D01*
X250540Y472820D01*
X250608Y472941D01*
X250613Y472961D01*
X250622Y472979D01*
X250652Y473115D01*
X250687Y473249D01*
X250689Y473277D01*
X250692Y473289D01*
X250691Y473310D01*
X250697Y473410D01*
X250697Y508408D01*
X250685Y508506D01*
X250682Y508605D01*
X250665Y508663D01*
X250657Y508723D01*
X250621Y508815D01*
X250593Y508911D01*
X250563Y508963D01*
X250540Y509019D01*
X250482Y509099D01*
X250432Y509184D01*
X250366Y509260D01*
X250354Y509276D01*
X250344Y509284D01*
X250326Y509305D01*
X247553Y512078D01*
X247475Y512138D01*
X247403Y512206D01*
X247350Y512235D01*
X247302Y512272D01*
X247211Y512312D01*
X247124Y512360D01*
X247066Y512375D01*
X247010Y512399D01*
X246912Y512414D01*
X246816Y512439D01*
X246716Y512445D01*
X246696Y512449D01*
X246684Y512447D01*
X246656Y512449D01*
X240832Y512449D01*
X235575Y517706D01*
X235497Y517766D01*
X235425Y517834D01*
X235372Y517863D01*
X235324Y517900D01*
X235233Y517940D01*
X235146Y517988D01*
X235088Y518003D01*
X235032Y518027D01*
X234934Y518042D01*
X234838Y518067D01*
X234738Y518073D01*
X234718Y518077D01*
X234706Y518075D01*
X234678Y518077D01*
X232113Y518077D01*
X229514Y519154D01*
X228827Y519840D01*
X228718Y519925D01*
X228611Y520014D01*
X228592Y520023D01*
X228576Y520035D01*
X228448Y520090D01*
X228323Y520150D01*
X228303Y520153D01*
X228284Y520161D01*
X228146Y520183D01*
X228010Y520209D01*
X227990Y520208D01*
X227970Y520211D01*
X227831Y520198D01*
X227693Y520190D01*
X227674Y520183D01*
X227654Y520182D01*
X227523Y520134D01*
X227391Y520092D01*
X227373Y520081D01*
X227354Y520074D01*
X227240Y519996D01*
X227122Y519921D01*
X227108Y519907D01*
X227091Y519895D01*
X226999Y519791D01*
X226904Y519690D01*
X226894Y519672D01*
X226881Y519657D01*
X226818Y519533D01*
X226750Y519411D01*
X226745Y519392D01*
X226736Y519374D01*
X226706Y519238D01*
X226671Y519103D01*
X226669Y519075D01*
X226666Y519063D01*
X226667Y519043D01*
X226661Y518943D01*
X226661Y514989D01*
X220159Y514989D01*
X220159Y522491D01*
X224454Y522491D01*
X224849Y522385D01*
X224974Y522368D01*
X225098Y522344D01*
X225131Y522346D01*
X225165Y522342D01*
X225290Y522356D01*
X225415Y522364D01*
X225447Y522374D01*
X225481Y522378D01*
X225598Y522423D01*
X225717Y522462D01*
X225746Y522480D01*
X225777Y522492D01*
X225880Y522565D01*
X225986Y522632D01*
X226009Y522657D01*
X226037Y522676D01*
X226118Y522772D01*
X226204Y522864D01*
X226220Y522893D01*
X226242Y522919D01*
X226297Y523032D01*
X226358Y523142D01*
X226366Y523175D01*
X226381Y523205D01*
X226406Y523329D01*
X226437Y523450D01*
X226440Y523499D01*
X226444Y523517D01*
X226443Y523539D01*
X226447Y523611D01*
X226447Y526557D01*
X227524Y529156D01*
X229514Y531146D01*
X232113Y532223D01*
X232963Y532223D01*
X233012Y532229D01*
X233062Y532227D01*
X233169Y532249D01*
X233279Y532263D01*
X233325Y532281D01*
X233373Y532291D01*
X233472Y532339D01*
X233574Y532380D01*
X233615Y532409D01*
X233659Y532431D01*
X233743Y532502D01*
X233832Y532566D01*
X233863Y532605D01*
X233901Y532637D01*
X233964Y532727D01*
X234034Y532811D01*
X234056Y532856D01*
X234084Y532897D01*
X234123Y533000D01*
X234170Y533099D01*
X234179Y533148D01*
X234197Y533194D01*
X234209Y533304D01*
X234230Y533411D01*
X234227Y533461D01*
X234232Y533510D01*
X234217Y533619D01*
X234210Y533729D01*
X234195Y533776D01*
X234188Y533825D01*
X234136Y533978D01*
X233419Y535707D01*
X233419Y544293D01*
X236705Y552224D01*
X240483Y556003D01*
X240568Y556112D01*
X240657Y556219D01*
X240665Y556238D01*
X240678Y556254D01*
X240733Y556382D01*
X240792Y556507D01*
X240796Y556527D01*
X240804Y556546D01*
X240826Y556684D01*
X240852Y556820D01*
X240851Y556840D01*
X240854Y556860D01*
X240841Y556999D01*
X240832Y557137D01*
X240826Y557156D01*
X240824Y557176D01*
X240777Y557308D01*
X240734Y557439D01*
X240723Y557457D01*
X240716Y557476D01*
X240638Y557591D01*
X240564Y557708D01*
X240549Y557722D01*
X240538Y557739D01*
X240434Y557831D01*
X240332Y557926D01*
X240315Y557936D01*
X240299Y557949D01*
X240176Y558012D01*
X240054Y558080D01*
X240034Y558085D01*
X240016Y558094D01*
X239880Y558124D01*
X239746Y558159D01*
X239718Y558161D01*
X239706Y558164D01*
X239685Y558163D01*
X239585Y558169D01*
X211367Y558169D01*
X211298Y558161D01*
X211228Y558162D01*
X211141Y558141D01*
X211052Y558129D01*
X210987Y558104D01*
X210919Y558087D01*
X210839Y558045D01*
X210756Y558012D01*
X210700Y557971D01*
X210638Y557939D01*
X210571Y557878D01*
X210499Y557826D01*
X210454Y557772D01*
X210403Y557725D01*
X210353Y557650D01*
X210296Y557581D01*
X210266Y557517D01*
X210228Y557459D01*
X210199Y557374D01*
X210160Y557293D01*
X210147Y557224D01*
X210125Y557158D01*
X210117Y557069D01*
X210101Y556981D01*
X210105Y556911D01*
X210099Y556841D01*
X210115Y556753D01*
X210120Y556663D01*
X210142Y556597D01*
X210154Y556528D01*
X210191Y556446D01*
X210218Y556361D01*
X210256Y556302D01*
X210284Y556238D01*
X210340Y556168D01*
X210389Y556092D01*
X210439Y556044D01*
X210483Y555990D01*
X210555Y555935D01*
X210620Y555874D01*
X210681Y555840D01*
X210737Y555798D01*
X210882Y555727D01*
X213757Y554537D01*
X217187Y551107D01*
X219043Y546625D01*
X219043Y541775D01*
X217187Y537293D01*
X213757Y533863D01*
X209275Y532007D01*
X204425Y532007D01*
X204186Y532106D01*
X204177Y532109D01*
X204170Y532113D01*
X204131Y532123D01*
X204093Y532141D01*
X203985Y532161D01*
X203879Y532190D01*
X203869Y532190D01*
X203862Y532192D01*
X203805Y532196D01*
X203780Y532200D01*
X203756Y532199D01*
X203701Y532202D01*
X203700Y532202D01*
X203635Y532194D01*
X203561Y532195D01*
X203513Y532184D01*
X203463Y532181D01*
X203421Y532167D01*
X203384Y532162D01*
X203324Y532138D01*
X203252Y532121D01*
X203208Y532098D01*
X203161Y532083D01*
X203124Y532059D01*
X203089Y532045D01*
X203036Y532007D01*
X202971Y531972D01*
X202934Y531939D01*
X202892Y531912D01*
X202862Y531881D01*
X202831Y531859D01*
X202789Y531807D01*
X202735Y531758D01*
X202708Y531717D01*
X202674Y531681D01*
X202653Y531644D01*
X202629Y531614D01*
X202600Y531553D01*
X202561Y531493D01*
X202544Y531446D01*
X202520Y531402D01*
X202510Y531362D01*
X202493Y531326D01*
X202480Y531259D01*
X202457Y531192D01*
X202453Y531142D01*
X202441Y531094D01*
X202437Y531033D01*
X202433Y531014D01*
X202435Y530994D01*
X202431Y530934D01*
X202431Y523760D01*
X202446Y523642D01*
X202453Y523523D01*
X202466Y523485D01*
X202471Y523444D01*
X202514Y523334D01*
X202551Y523221D01*
X202573Y523186D01*
X202588Y523149D01*
X202658Y523052D01*
X202721Y522952D01*
X202751Y522924D01*
X202774Y522891D01*
X202866Y522815D01*
X202953Y522734D01*
X202988Y522714D01*
X203019Y522689D01*
X203127Y522638D01*
X203231Y522580D01*
X203271Y522570D01*
X203307Y522553D01*
X203424Y522531D01*
X203539Y522501D01*
X203599Y522497D01*
X203619Y522493D01*
X203640Y522495D01*
X203700Y522491D01*
X206172Y522491D01*
X207223Y521441D01*
X207317Y521368D01*
X207406Y521289D01*
X207442Y521270D01*
X207474Y521246D01*
X207583Y521198D01*
X207689Y521144D01*
X207728Y521135D01*
X207766Y521119D01*
X207883Y521101D01*
X207999Y521075D01*
X208040Y521076D01*
X208080Y521069D01*
X208198Y521081D01*
X208317Y521084D01*
X208356Y521096D01*
X208396Y521099D01*
X208508Y521140D01*
X208623Y521173D01*
X208658Y521193D01*
X208696Y521207D01*
X208794Y521274D01*
X208897Y521334D01*
X208942Y521374D01*
X208959Y521385D01*
X208972Y521401D01*
X209018Y521441D01*
X209560Y521983D01*
X210139Y522318D01*
X210786Y522491D01*
X215081Y522491D01*
X215081Y513720D01*
X215096Y513602D01*
X215103Y513483D01*
X215116Y513445D01*
X215121Y513405D01*
X215164Y513294D01*
X215201Y513181D01*
X215223Y513146D01*
X215238Y513109D01*
X215308Y513013D01*
X215371Y512912D01*
X215401Y512884D01*
X215425Y512852D01*
X215516Y512776D01*
X215603Y512694D01*
X215638Y512675D01*
X215669Y512649D01*
X215777Y512598D01*
X215881Y512541D01*
X215921Y512530D01*
X215957Y512513D01*
X216074Y512491D01*
X216189Y512461D01*
X216250Y512457D01*
X216270Y512453D01*
X216290Y512455D01*
X216350Y512451D01*
X217621Y512451D01*
X217621Y512449D01*
X216350Y512449D01*
X216232Y512434D01*
X216113Y512427D01*
X216075Y512414D01*
X216035Y512409D01*
X215924Y512365D01*
X215811Y512329D01*
X215776Y512307D01*
X215739Y512292D01*
X215643Y512222D01*
X215542Y512159D01*
X215514Y512129D01*
X215481Y512105D01*
X215406Y512014D01*
X215324Y511927D01*
X215304Y511892D01*
X215279Y511860D01*
X215228Y511753D01*
X215170Y511649D01*
X215160Y511609D01*
X215143Y511573D01*
X215121Y511456D01*
X215091Y511341D01*
X215087Y511280D01*
X215083Y511260D01*
X215085Y511240D01*
X215081Y511180D01*
X215081Y502409D01*
X210786Y502409D01*
X210139Y502582D01*
X209560Y502917D01*
X209018Y503459D01*
X208923Y503532D01*
X208834Y503611D01*
X208798Y503630D01*
X208766Y503654D01*
X208657Y503702D01*
X208551Y503756D01*
X208512Y503765D01*
X208474Y503781D01*
X208356Y503799D01*
X208241Y503825D01*
X208200Y503824D01*
X208160Y503831D01*
X208042Y503819D01*
X207923Y503816D01*
X207884Y503804D01*
X207844Y503801D01*
X207732Y503760D01*
X207617Y503727D01*
X207582Y503707D01*
X207544Y503693D01*
X207446Y503626D01*
X207343Y503566D01*
X207298Y503526D01*
X207281Y503515D01*
X207268Y503499D01*
X207223Y503459D01*
X206172Y502409D01*
X191954Y502409D01*
X191856Y502397D01*
X191757Y502394D01*
X191699Y502377D01*
X191639Y502369D01*
X191547Y502333D01*
X191451Y502305D01*
X191399Y502275D01*
X191343Y502252D01*
X191263Y502194D01*
X191178Y502144D01*
X191102Y502078D01*
X191086Y502066D01*
X191078Y502056D01*
X191057Y502038D01*
X185632Y496613D01*
X185572Y496535D01*
X185504Y496463D01*
X185475Y496410D01*
X185438Y496362D01*
X185398Y496271D01*
X185350Y496184D01*
X185335Y496126D01*
X185311Y496070D01*
X185296Y495972D01*
X185271Y495876D01*
X185265Y495776D01*
X185261Y495756D01*
X185263Y495744D01*
X185261Y495716D01*
X185261Y488012D01*
X182657Y485408D01*
X181007Y483757D01*
X180921Y483648D01*
X180833Y483541D01*
X180824Y483522D01*
X180812Y483506D01*
X180756Y483378D01*
X180697Y483253D01*
X180693Y483233D01*
X180685Y483214D01*
X180663Y483076D01*
X180637Y482940D01*
X180639Y482920D01*
X180636Y482900D01*
X180649Y482761D01*
X180657Y482623D01*
X180663Y482604D01*
X180665Y482584D01*
X180713Y482452D01*
X180755Y482321D01*
X180766Y482303D01*
X180773Y482284D01*
X180851Y482169D01*
X180925Y482052D01*
X180940Y482038D01*
X180952Y482021D01*
X181056Y481929D01*
X181157Y481834D01*
X181175Y481824D01*
X181190Y481811D01*
X181314Y481747D01*
X181436Y481680D01*
X181455Y481675D01*
X181473Y481666D01*
X181609Y481636D01*
X181743Y481601D01*
X181772Y481599D01*
X181783Y481596D01*
X181804Y481597D01*
X181904Y481591D01*
X183106Y481591D01*
X183106Y477880D01*
X183121Y477762D01*
X183128Y477643D01*
X183140Y477605D01*
X183145Y477564D01*
X183189Y477454D01*
X183226Y477341D01*
X183248Y477306D01*
X183262Y477269D01*
X183332Y477173D01*
X183396Y477072D01*
X183426Y477044D01*
X183449Y477011D01*
X183541Y476935D01*
X183628Y476854D01*
X183663Y476834D01*
X183694Y476809D01*
X183802Y476758D01*
X183906Y476700D01*
X183945Y476690D01*
X183982Y476673D01*
X184099Y476651D01*
X184214Y476621D01*
X184274Y476617D01*
X184294Y476613D01*
X184295Y476613D01*
X184315Y476615D01*
X184375Y476611D01*
X184493Y476626D01*
X184612Y476633D01*
X184650Y476646D01*
X184691Y476651D01*
X184801Y476694D01*
X184915Y476731D01*
X184949Y476753D01*
X184986Y476768D01*
X185083Y476837D01*
X185183Y476901D01*
X185211Y476931D01*
X185244Y476954D01*
X185320Y477046D01*
X185401Y477133D01*
X185421Y477168D01*
X185447Y477199D01*
X185497Y477307D01*
X185555Y477411D01*
X185565Y477451D01*
X185582Y477487D01*
X185604Y477604D01*
X185634Y477719D01*
X185638Y477779D01*
X185642Y477799D01*
X185641Y477820D01*
X185644Y477880D01*
X185644Y481591D01*
X187084Y481591D01*
X187731Y481418D01*
X188310Y481083D01*
X188682Y480711D01*
X188792Y480625D01*
X188899Y480537D01*
X188918Y480528D01*
X188934Y480516D01*
X189062Y480460D01*
X189187Y480401D01*
X189207Y480397D01*
X189226Y480389D01*
X189364Y480367D01*
X189500Y480341D01*
X189520Y480343D01*
X189540Y480339D01*
X189679Y480353D01*
X189817Y480361D01*
X189836Y480367D01*
X189856Y480369D01*
X189987Y480416D01*
X190119Y480459D01*
X190137Y480470D01*
X190156Y480477D01*
X190270Y480555D01*
X190388Y480629D01*
X190402Y480644D01*
X190419Y480655D01*
X190511Y480760D01*
X190606Y480861D01*
X190616Y480879D01*
X190629Y480894D01*
X190693Y481018D01*
X190760Y481139D01*
X190765Y481159D01*
X190774Y481177D01*
X190804Y481313D01*
X190839Y481447D01*
X190841Y481475D01*
X190844Y481487D01*
X190843Y481508D01*
X190849Y481608D01*
X190849Y494332D01*
X192338Y495821D01*
X207442Y495821D01*
X208492Y494771D01*
X208587Y494698D01*
X208676Y494619D01*
X208712Y494600D01*
X208744Y494576D01*
X208853Y494528D01*
X208959Y494474D01*
X208998Y494465D01*
X209036Y494449D01*
X209153Y494431D01*
X209269Y494405D01*
X209310Y494406D01*
X209350Y494400D01*
X209468Y494411D01*
X209587Y494414D01*
X209626Y494426D01*
X209666Y494429D01*
X209779Y494470D01*
X209893Y494503D01*
X209927Y494523D01*
X209966Y494537D01*
X210064Y494604D01*
X210167Y494664D01*
X210212Y494704D01*
X210229Y494716D01*
X210242Y494731D01*
X210287Y494771D01*
X211338Y495821D01*
X226442Y495821D01*
X227931Y494332D01*
X227931Y485940D01*
X227946Y485822D01*
X227953Y485703D01*
X227966Y485665D01*
X227971Y485624D01*
X228014Y485514D01*
X228051Y485401D01*
X228073Y485366D01*
X228088Y485329D01*
X228157Y485233D01*
X228221Y485132D01*
X228251Y485104D01*
X228274Y485071D01*
X228366Y484995D01*
X228453Y484914D01*
X228488Y484894D01*
X228519Y484869D01*
X228627Y484818D01*
X228731Y484760D01*
X228771Y484750D01*
X228807Y484733D01*
X228924Y484711D01*
X229039Y484681D01*
X229099Y484677D01*
X229119Y484673D01*
X229140Y484675D01*
X229200Y484671D01*
X237028Y484671D01*
X244341Y477358D01*
X244341Y474230D01*
X244356Y474112D01*
X244363Y473993D01*
X244376Y473955D01*
X244381Y473914D01*
X244424Y473804D01*
X244461Y473691D01*
X244483Y473656D01*
X244498Y473619D01*
X244567Y473523D01*
X244631Y473422D01*
X244661Y473394D01*
X244684Y473361D01*
X244776Y473285D01*
X244863Y473204D01*
X244898Y473184D01*
X244929Y473159D01*
X245037Y473108D01*
X245141Y473050D01*
X245181Y473040D01*
X245217Y473023D01*
X245334Y473001D01*
X245449Y472971D01*
X245509Y472967D01*
X245529Y472963D01*
X245550Y472965D01*
X245610Y472961D01*
X248082Y472961D01*
X248531Y472513D01*
X248640Y472428D01*
X248747Y472339D01*
X248766Y472330D01*
X248782Y472318D01*
X248910Y472262D01*
X249035Y472203D01*
X249055Y472199D01*
X249074Y472191D01*
X249212Y472169D01*
X249348Y472143D01*
X249368Y472145D01*
X249388Y472141D01*
X249527Y472155D01*
G37*
G36*
X269472Y249242D02*
X269472Y249242D01*
X269491Y249240D01*
X269593Y249262D01*
X269695Y249279D01*
X269712Y249288D01*
X269732Y249292D01*
X269821Y249345D01*
X269912Y249394D01*
X269926Y249408D01*
X269943Y249418D01*
X270010Y249497D01*
X270082Y249572D01*
X270090Y249590D01*
X270103Y249605D01*
X270142Y249701D01*
X270185Y249795D01*
X270187Y249815D01*
X270195Y249833D01*
X270213Y250000D01*
X270213Y280000D01*
X270210Y280020D01*
X270212Y280039D01*
X270190Y280141D01*
X270174Y280243D01*
X270164Y280260D01*
X270160Y280280D01*
X270107Y280369D01*
X270058Y280460D01*
X270044Y280474D01*
X270034Y280491D01*
X269955Y280558D01*
X269880Y280630D01*
X269862Y280638D01*
X269847Y280651D01*
X269751Y280690D01*
X269657Y280733D01*
X269637Y280735D01*
X269619Y280743D01*
X269452Y280761D01*
X214000Y280761D01*
X213980Y280758D01*
X213961Y280760D01*
X213859Y280738D01*
X213757Y280722D01*
X213740Y280712D01*
X213720Y280708D01*
X213631Y280655D01*
X213540Y280606D01*
X213526Y280592D01*
X213509Y280582D01*
X213442Y280503D01*
X213371Y280428D01*
X213362Y280410D01*
X213349Y280395D01*
X213310Y280299D01*
X213267Y280205D01*
X213265Y280185D01*
X213257Y280167D01*
X213239Y280000D01*
X213239Y250000D01*
X213242Y249980D01*
X213240Y249961D01*
X213262Y249859D01*
X213279Y249757D01*
X213288Y249740D01*
X213292Y249720D01*
X213345Y249631D01*
X213394Y249540D01*
X213408Y249526D01*
X213418Y249509D01*
X213497Y249442D01*
X213572Y249371D01*
X213590Y249362D01*
X213605Y249349D01*
X213701Y249310D01*
X213795Y249267D01*
X213815Y249265D01*
X213833Y249257D01*
X214000Y249239D01*
X269452Y249239D01*
X269472Y249242D01*
G37*
G36*
X270020Y331242D02*
X270020Y331242D01*
X270039Y331240D01*
X270141Y331262D01*
X270243Y331279D01*
X270260Y331288D01*
X270280Y331292D01*
X270369Y331345D01*
X270460Y331394D01*
X270474Y331408D01*
X270491Y331418D01*
X270558Y331497D01*
X270630Y331572D01*
X270638Y331590D01*
X270651Y331605D01*
X270690Y331701D01*
X270733Y331795D01*
X270735Y331815D01*
X270743Y331833D01*
X270761Y332000D01*
X270761Y360000D01*
X270758Y360020D01*
X270760Y360039D01*
X270738Y360141D01*
X270722Y360243D01*
X270712Y360260D01*
X270708Y360280D01*
X270655Y360369D01*
X270606Y360460D01*
X270592Y360474D01*
X270582Y360491D01*
X270503Y360558D01*
X270428Y360630D01*
X270410Y360638D01*
X270395Y360651D01*
X270299Y360690D01*
X270205Y360733D01*
X270185Y360735D01*
X270167Y360743D01*
X270000Y360761D01*
X213000Y360761D01*
X212980Y360758D01*
X212961Y360760D01*
X212859Y360738D01*
X212757Y360722D01*
X212740Y360712D01*
X212720Y360708D01*
X212631Y360655D01*
X212540Y360606D01*
X212526Y360592D01*
X212509Y360582D01*
X212442Y360503D01*
X212371Y360428D01*
X212362Y360410D01*
X212349Y360395D01*
X212310Y360299D01*
X212267Y360205D01*
X212265Y360185D01*
X212257Y360167D01*
X212239Y360000D01*
X212239Y332000D01*
X212242Y331980D01*
X212240Y331961D01*
X212262Y331859D01*
X212279Y331757D01*
X212288Y331740D01*
X212292Y331720D01*
X212345Y331631D01*
X212394Y331540D01*
X212408Y331526D01*
X212418Y331509D01*
X212497Y331442D01*
X212572Y331371D01*
X212590Y331362D01*
X212605Y331349D01*
X212701Y331310D01*
X212795Y331267D01*
X212815Y331265D01*
X212833Y331257D01*
X213000Y331239D01*
X270000Y331239D01*
X270020Y331242D01*
G37*
G36*
X269472Y204242D02*
X269472Y204242D01*
X269491Y204240D01*
X269593Y204262D01*
X269695Y204279D01*
X269712Y204288D01*
X269732Y204292D01*
X269821Y204345D01*
X269912Y204394D01*
X269926Y204408D01*
X269943Y204418D01*
X270010Y204497D01*
X270082Y204572D01*
X270090Y204590D01*
X270103Y204605D01*
X270142Y204701D01*
X270185Y204795D01*
X270187Y204815D01*
X270195Y204833D01*
X270213Y205000D01*
X270213Y230548D01*
X270199Y230638D01*
X270191Y230729D01*
X270179Y230759D01*
X270174Y230791D01*
X270131Y230871D01*
X270095Y230955D01*
X270069Y230988D01*
X270058Y231008D01*
X270035Y231030D01*
X269990Y231086D01*
X269538Y231538D01*
X269464Y231592D01*
X269395Y231651D01*
X269365Y231663D01*
X269339Y231682D01*
X269252Y231709D01*
X269167Y231743D01*
X269126Y231747D01*
X269104Y231754D01*
X269071Y231753D01*
X269000Y231761D01*
X246315Y231761D01*
X234538Y243538D01*
X234464Y243591D01*
X234395Y243651D01*
X234365Y243663D01*
X234339Y243682D01*
X234252Y243709D01*
X234167Y243743D01*
X234126Y243747D01*
X234103Y243754D01*
X234071Y243753D01*
X234000Y243761D01*
X214000Y243761D01*
X213980Y243758D01*
X213961Y243760D01*
X213859Y243738D01*
X213757Y243722D01*
X213740Y243712D01*
X213720Y243708D01*
X213631Y243655D01*
X213540Y243606D01*
X213526Y243592D01*
X213509Y243582D01*
X213442Y243503D01*
X213371Y243428D01*
X213362Y243410D01*
X213349Y243395D01*
X213310Y243299D01*
X213267Y243205D01*
X213265Y243185D01*
X213257Y243167D01*
X213239Y243000D01*
X213239Y226000D01*
X213254Y225910D01*
X213261Y225819D01*
X213273Y225789D01*
X213279Y225757D01*
X213321Y225677D01*
X213357Y225593D01*
X213383Y225561D01*
X213394Y225540D01*
X213417Y225518D01*
X213462Y225462D01*
X230128Y208796D01*
X230202Y208743D01*
X230271Y208683D01*
X230301Y208671D01*
X230327Y208652D01*
X230414Y208625D01*
X230499Y208591D01*
X230540Y208587D01*
X230563Y208580D01*
X230595Y208581D01*
X230666Y208573D01*
X231208Y208573D01*
X233440Y207648D01*
X235148Y205940D01*
X235658Y204709D01*
X235720Y204609D01*
X235780Y204509D01*
X235785Y204505D01*
X235788Y204500D01*
X235877Y204425D01*
X235967Y204349D01*
X235973Y204347D01*
X235977Y204343D01*
X236085Y204301D01*
X236195Y204257D01*
X236202Y204256D01*
X236207Y204255D01*
X236225Y204254D01*
X236362Y204239D01*
X269452Y204239D01*
X269472Y204242D01*
G37*
G36*
X247259Y288250D02*
X247259Y288250D01*
X247331Y288252D01*
X247380Y288270D01*
X247431Y288279D01*
X247494Y288312D01*
X247562Y288337D01*
X247602Y288369D01*
X247648Y288394D01*
X247698Y288446D01*
X247754Y288490D01*
X247782Y288534D01*
X247818Y288572D01*
X247848Y288637D01*
X247887Y288697D01*
X247899Y288748D01*
X247921Y288795D01*
X247929Y288866D01*
X247947Y288936D01*
X247943Y288988D01*
X247948Y289039D01*
X247933Y289110D01*
X247928Y289181D01*
X247907Y289229D01*
X247896Y289280D01*
X247859Y289341D01*
X247831Y289407D01*
X247786Y289463D01*
X247770Y289491D01*
X247752Y289506D01*
X247726Y289538D01*
X244569Y292695D01*
X244569Y296905D01*
X247545Y299881D01*
X250158Y299881D01*
X250178Y299884D01*
X250197Y299882D01*
X250299Y299904D01*
X250401Y299920D01*
X250418Y299930D01*
X250438Y299934D01*
X250527Y299987D01*
X250618Y300036D01*
X250632Y300050D01*
X250649Y300060D01*
X250716Y300139D01*
X250788Y300214D01*
X250796Y300232D01*
X250809Y300247D01*
X250848Y300343D01*
X250891Y300437D01*
X250893Y300457D01*
X250901Y300475D01*
X250919Y300642D01*
X250919Y301658D01*
X250916Y301678D01*
X250918Y301697D01*
X250896Y301799D01*
X250880Y301901D01*
X250870Y301918D01*
X250866Y301938D01*
X250813Y302027D01*
X250764Y302118D01*
X250750Y302132D01*
X250740Y302149D01*
X250661Y302216D01*
X250586Y302288D01*
X250568Y302296D01*
X250553Y302309D01*
X250457Y302348D01*
X250363Y302391D01*
X250343Y302393D01*
X250325Y302401D01*
X250158Y302419D01*
X247545Y302419D01*
X244569Y305395D01*
X244569Y309605D01*
X247545Y312581D01*
X251755Y312581D01*
X254731Y309605D01*
X254731Y306992D01*
X254734Y306972D01*
X254732Y306953D01*
X254754Y306851D01*
X254770Y306749D01*
X254780Y306732D01*
X254784Y306712D01*
X254837Y306623D01*
X254886Y306532D01*
X254900Y306518D01*
X254910Y306501D01*
X254989Y306434D01*
X255064Y306362D01*
X255082Y306354D01*
X255097Y306341D01*
X255193Y306302D01*
X255287Y306259D01*
X255307Y306257D01*
X255325Y306249D01*
X255492Y306231D01*
X256508Y306231D01*
X256528Y306234D01*
X256547Y306232D01*
X256649Y306254D01*
X256751Y306270D01*
X256768Y306280D01*
X256788Y306284D01*
X256877Y306337D01*
X256968Y306386D01*
X256982Y306400D01*
X256999Y306410D01*
X257066Y306489D01*
X257138Y306564D01*
X257146Y306582D01*
X257159Y306597D01*
X257198Y306693D01*
X257241Y306787D01*
X257243Y306807D01*
X257251Y306825D01*
X257269Y306992D01*
X257269Y309605D01*
X260245Y312581D01*
X264455Y312581D01*
X267431Y309605D01*
X267431Y305395D01*
X264455Y302419D01*
X261842Y302419D01*
X261822Y302416D01*
X261803Y302418D01*
X261701Y302396D01*
X261599Y302380D01*
X261582Y302370D01*
X261562Y302366D01*
X261473Y302313D01*
X261382Y302264D01*
X261368Y302250D01*
X261351Y302240D01*
X261284Y302161D01*
X261212Y302086D01*
X261204Y302068D01*
X261191Y302053D01*
X261152Y301957D01*
X261109Y301863D01*
X261107Y301843D01*
X261099Y301825D01*
X261081Y301658D01*
X261081Y300642D01*
X261084Y300622D01*
X261082Y300603D01*
X261104Y300501D01*
X261120Y300399D01*
X261130Y300382D01*
X261134Y300362D01*
X261187Y300273D01*
X261236Y300182D01*
X261250Y300168D01*
X261260Y300151D01*
X261339Y300084D01*
X261414Y300012D01*
X261432Y300004D01*
X261447Y299991D01*
X261543Y299952D01*
X261637Y299909D01*
X261657Y299907D01*
X261675Y299899D01*
X261842Y299881D01*
X264455Y299881D01*
X267431Y296905D01*
X267431Y292695D01*
X264274Y289538D01*
X264232Y289480D01*
X264182Y289428D01*
X264160Y289381D01*
X264130Y289339D01*
X264109Y289270D01*
X264079Y289205D01*
X264073Y289153D01*
X264058Y289103D01*
X264059Y289032D01*
X264052Y288961D01*
X264063Y288910D01*
X264064Y288858D01*
X264089Y288790D01*
X264104Y288720D01*
X264131Y288676D01*
X264148Y288627D01*
X264193Y288571D01*
X264230Y288509D01*
X264270Y288475D01*
X264302Y288435D01*
X264362Y288396D01*
X264417Y288349D01*
X264465Y288330D01*
X264509Y288302D01*
X264579Y288284D01*
X264645Y288257D01*
X264716Y288249D01*
X264748Y288241D01*
X264771Y288243D01*
X264812Y288239D01*
X270000Y288239D01*
X270020Y288242D01*
X270039Y288240D01*
X270141Y288262D01*
X270243Y288279D01*
X270260Y288288D01*
X270280Y288292D01*
X270369Y288345D01*
X270460Y288394D01*
X270474Y288408D01*
X270491Y288418D01*
X270558Y288497D01*
X270630Y288572D01*
X270638Y288590D01*
X270651Y288605D01*
X270690Y288701D01*
X270733Y288795D01*
X270735Y288815D01*
X270743Y288833D01*
X270761Y289000D01*
X270761Y315000D01*
X270758Y315020D01*
X270760Y315039D01*
X270738Y315141D01*
X270722Y315243D01*
X270712Y315260D01*
X270708Y315280D01*
X270655Y315369D01*
X270606Y315460D01*
X270592Y315474D01*
X270582Y315491D01*
X270503Y315558D01*
X270428Y315630D01*
X270410Y315638D01*
X270395Y315651D01*
X270299Y315690D01*
X270205Y315733D01*
X270185Y315735D01*
X270167Y315743D01*
X270000Y315761D01*
X240315Y315761D01*
X229538Y326538D01*
X229464Y326591D01*
X229395Y326651D01*
X229365Y326663D01*
X229339Y326682D01*
X229252Y326709D01*
X229167Y326743D01*
X229126Y326747D01*
X229103Y326754D01*
X229071Y326753D01*
X229000Y326761D01*
X214000Y326761D01*
X213910Y326747D01*
X213819Y326739D01*
X213789Y326727D01*
X213757Y326722D01*
X213677Y326679D01*
X213593Y326643D01*
X213561Y326617D01*
X213540Y326606D01*
X213518Y326583D01*
X213462Y326538D01*
X212462Y325538D01*
X212409Y325464D01*
X212349Y325395D01*
X212337Y325365D01*
X212318Y325339D01*
X212291Y325252D01*
X212257Y325167D01*
X212253Y325126D01*
X212246Y325103D01*
X212247Y325071D01*
X212239Y325000D01*
X212239Y308000D01*
X212240Y307993D01*
X212240Y307992D01*
X212241Y307986D01*
X212254Y307910D01*
X212261Y307819D01*
X212273Y307789D01*
X212279Y307757D01*
X212321Y307677D01*
X212357Y307593D01*
X212383Y307561D01*
X212394Y307540D01*
X212417Y307518D01*
X212462Y307462D01*
X231462Y288462D01*
X231536Y288409D01*
X231605Y288349D01*
X231635Y288337D01*
X231661Y288318D01*
X231748Y288291D01*
X231833Y288257D01*
X231874Y288253D01*
X231897Y288246D01*
X231929Y288247D01*
X232000Y288239D01*
X247188Y288239D01*
X247259Y288250D01*
G37*
G36*
X91889Y430920D02*
X91889Y430920D01*
X92027Y430929D01*
X92046Y430935D01*
X92066Y430937D01*
X92198Y430984D01*
X92329Y431027D01*
X92347Y431038D01*
X92366Y431045D01*
X92481Y431123D01*
X92598Y431197D01*
X92612Y431212D01*
X92629Y431223D01*
X92721Y431327D01*
X92816Y431429D01*
X92826Y431446D01*
X92839Y431462D01*
X92903Y431586D01*
X92970Y431707D01*
X92975Y431727D01*
X92984Y431745D01*
X93014Y431880D01*
X93049Y432015D01*
X93051Y432043D01*
X93054Y432055D01*
X93053Y432076D01*
X93059Y432176D01*
X93059Y432441D01*
X100830Y432441D01*
X100948Y432456D01*
X101067Y432463D01*
X101105Y432476D01*
X101145Y432481D01*
X101256Y432524D01*
X101369Y432561D01*
X101404Y432583D01*
X101441Y432598D01*
X101537Y432668D01*
X101638Y432731D01*
X101666Y432761D01*
X101698Y432785D01*
X101774Y432876D01*
X101856Y432963D01*
X101875Y432998D01*
X101901Y433029D01*
X101952Y433137D01*
X102009Y433241D01*
X102020Y433281D01*
X102037Y433317D01*
X102059Y433434D01*
X102089Y433549D01*
X102093Y433610D01*
X102097Y433630D01*
X102095Y433650D01*
X102099Y433710D01*
X102099Y434981D01*
X103370Y434981D01*
X103488Y434996D01*
X103607Y435003D01*
X103645Y435016D01*
X103685Y435021D01*
X103796Y435065D01*
X103909Y435101D01*
X103944Y435123D01*
X103981Y435138D01*
X104077Y435208D01*
X104178Y435271D01*
X104206Y435301D01*
X104238Y435325D01*
X104314Y435416D01*
X104396Y435503D01*
X104415Y435538D01*
X104441Y435570D01*
X104492Y435677D01*
X104549Y435781D01*
X104560Y435821D01*
X104577Y435857D01*
X104599Y435974D01*
X104629Y436089D01*
X104633Y436150D01*
X104637Y436170D01*
X104635Y436190D01*
X104639Y436250D01*
X104639Y445021D01*
X108934Y445021D01*
X109581Y444848D01*
X110160Y444513D01*
X110702Y443971D01*
X110797Y443898D01*
X110886Y443819D01*
X110922Y443800D01*
X110954Y443776D01*
X111063Y443728D01*
X111169Y443674D01*
X111208Y443665D01*
X111246Y443649D01*
X111364Y443631D01*
X111479Y443605D01*
X111520Y443606D01*
X111560Y443599D01*
X111678Y443611D01*
X111797Y443614D01*
X111836Y443626D01*
X111876Y443629D01*
X111988Y443670D01*
X112103Y443703D01*
X112138Y443723D01*
X112176Y443737D01*
X112274Y443804D01*
X112377Y443864D01*
X112422Y443904D01*
X112439Y443915D01*
X112452Y443931D01*
X112497Y443971D01*
X113548Y445021D01*
X113550Y445021D01*
X113668Y445036D01*
X113787Y445043D01*
X113825Y445056D01*
X113866Y445061D01*
X113976Y445104D01*
X114089Y445141D01*
X114124Y445163D01*
X114161Y445178D01*
X114257Y445247D01*
X114358Y445311D01*
X114386Y445341D01*
X114419Y445364D01*
X114495Y445456D01*
X114576Y445543D01*
X114596Y445578D01*
X114621Y445609D01*
X114672Y445717D01*
X114730Y445821D01*
X114740Y445861D01*
X114757Y445897D01*
X114779Y446014D01*
X114809Y446129D01*
X114813Y446189D01*
X114817Y446209D01*
X114815Y446230D01*
X114819Y446290D01*
X114819Y466362D01*
X116308Y467851D01*
X128696Y467851D01*
X128833Y467868D01*
X128972Y467881D01*
X128991Y467888D01*
X129011Y467891D01*
X129140Y467942D01*
X129271Y467989D01*
X129288Y468000D01*
X129307Y468008D01*
X129420Y468089D01*
X129535Y468167D01*
X129548Y468183D01*
X129564Y468194D01*
X129653Y468302D01*
X129745Y468406D01*
X129754Y468424D01*
X129767Y468439D01*
X129826Y468565D01*
X129890Y468689D01*
X129894Y468709D01*
X129903Y468727D01*
X129929Y468863D01*
X129959Y468999D01*
X129959Y469020D01*
X129963Y469039D01*
X129954Y469178D01*
X129950Y469317D01*
X129944Y469337D01*
X129943Y469357D01*
X129900Y469489D01*
X129861Y469623D01*
X129851Y469640D01*
X129845Y469659D01*
X129770Y469777D01*
X129700Y469897D01*
X129681Y469918D01*
X129675Y469928D01*
X129660Y469942D01*
X129593Y470017D01*
X124213Y475398D01*
X124135Y475458D01*
X124063Y475526D01*
X124010Y475555D01*
X123962Y475592D01*
X123871Y475632D01*
X123784Y475680D01*
X123726Y475695D01*
X123670Y475719D01*
X123572Y475734D01*
X123476Y475759D01*
X123376Y475765D01*
X123356Y475769D01*
X123344Y475767D01*
X123316Y475769D01*
X116308Y475769D01*
X114819Y477258D01*
X114819Y490936D01*
X114807Y491034D01*
X114804Y491133D01*
X114787Y491191D01*
X114779Y491251D01*
X114743Y491343D01*
X114715Y491439D01*
X114685Y491491D01*
X114662Y491547D01*
X114604Y491627D01*
X114554Y491712D01*
X114488Y491788D01*
X114476Y491804D01*
X114466Y491812D01*
X114448Y491833D01*
X112209Y494072D01*
X112209Y498600D01*
X112194Y498718D01*
X112187Y498837D01*
X112174Y498875D01*
X112169Y498916D01*
X112126Y499026D01*
X112089Y499139D01*
X112067Y499174D01*
X112052Y499211D01*
X111983Y499307D01*
X111919Y499408D01*
X111889Y499436D01*
X111866Y499469D01*
X111774Y499545D01*
X111687Y499626D01*
X111652Y499646D01*
X111621Y499671D01*
X111513Y499722D01*
X111409Y499780D01*
X111369Y499790D01*
X111333Y499807D01*
X111216Y499829D01*
X111101Y499859D01*
X111041Y499863D01*
X111021Y499867D01*
X111000Y499865D01*
X110940Y499869D01*
X108468Y499869D01*
X107417Y500919D01*
X107323Y500992D01*
X107234Y501071D01*
X107198Y501090D01*
X107166Y501114D01*
X107057Y501162D01*
X106951Y501216D01*
X106912Y501225D01*
X106874Y501241D01*
X106757Y501259D01*
X106641Y501285D01*
X106600Y501284D01*
X106560Y501291D01*
X106442Y501279D01*
X106323Y501276D01*
X106284Y501264D01*
X106244Y501261D01*
X106132Y501220D01*
X106017Y501187D01*
X105982Y501167D01*
X105944Y501153D01*
X105846Y501086D01*
X105743Y501026D01*
X105698Y500986D01*
X105681Y500975D01*
X105668Y500959D01*
X105622Y500919D01*
X105080Y500377D01*
X104501Y500042D01*
X103854Y499869D01*
X99572Y499869D01*
X99454Y499854D01*
X99335Y499847D01*
X99297Y499834D01*
X99256Y499829D01*
X99146Y499786D01*
X99033Y499749D01*
X98998Y499727D01*
X98961Y499712D01*
X98865Y499643D01*
X98764Y499579D01*
X98736Y499549D01*
X98703Y499526D01*
X98627Y499434D01*
X98546Y499347D01*
X98526Y499312D01*
X98501Y499281D01*
X98450Y499173D01*
X98392Y499069D01*
X98382Y499029D01*
X98365Y498993D01*
X98343Y498876D01*
X98313Y498761D01*
X98309Y498701D01*
X98305Y498681D01*
X98307Y498660D01*
X98303Y498600D01*
X98303Y455811D01*
X98315Y455713D01*
X98318Y455614D01*
X98335Y455556D01*
X98343Y455496D01*
X98379Y455404D01*
X98407Y455308D01*
X98437Y455256D01*
X98460Y455200D01*
X98518Y455120D01*
X98568Y455035D01*
X98634Y454959D01*
X98646Y454943D01*
X98656Y454935D01*
X98674Y454914D01*
X100148Y453440D01*
X101073Y451208D01*
X101073Y448792D01*
X100148Y446560D01*
X99933Y446344D01*
X99872Y446266D01*
X99804Y446194D01*
X99775Y446141D01*
X99738Y446093D01*
X99698Y446002D01*
X99650Y445916D01*
X99635Y445857D01*
X99611Y445801D01*
X99596Y445703D01*
X99571Y445608D01*
X99565Y445508D01*
X99561Y445487D01*
X99563Y445475D01*
X99561Y445447D01*
X99561Y437519D01*
X93059Y437519D01*
X93059Y442814D01*
X93113Y443014D01*
X93118Y443050D01*
X93129Y443084D01*
X93139Y443207D01*
X93156Y443329D01*
X93152Y443365D01*
X93155Y443401D01*
X93134Y443523D01*
X93119Y443645D01*
X93106Y443679D01*
X93100Y443715D01*
X93050Y443827D01*
X93006Y443942D01*
X92985Y443972D01*
X92970Y444005D01*
X92893Y444101D01*
X92821Y444201D01*
X92794Y444225D01*
X92771Y444253D01*
X92673Y444327D01*
X92579Y444407D01*
X92546Y444423D01*
X92517Y444444D01*
X92372Y444515D01*
X91560Y444852D01*
X90469Y445942D01*
X90360Y446027D01*
X90253Y446116D01*
X90234Y446125D01*
X90218Y446137D01*
X90091Y446193D01*
X89965Y446252D01*
X89945Y446256D01*
X89926Y446264D01*
X89788Y446286D01*
X89652Y446312D01*
X89632Y446310D01*
X89612Y446314D01*
X89473Y446300D01*
X89335Y446292D01*
X89316Y446286D01*
X89296Y446284D01*
X89164Y446237D01*
X89033Y446194D01*
X89015Y446183D01*
X88996Y446176D01*
X88881Y446098D01*
X88764Y446024D01*
X88750Y446009D01*
X88733Y445998D01*
X88641Y445893D01*
X88546Y445792D01*
X88536Y445774D01*
X88523Y445759D01*
X88459Y445635D01*
X88392Y445514D01*
X88387Y445494D01*
X88378Y445476D01*
X88348Y445340D01*
X88313Y445206D01*
X88311Y445178D01*
X88308Y445166D01*
X88309Y445145D01*
X88303Y445045D01*
X88303Y434394D01*
X88315Y434296D01*
X88318Y434197D01*
X88335Y434138D01*
X88343Y434078D01*
X88379Y433986D01*
X88407Y433891D01*
X88437Y433839D01*
X88460Y433783D01*
X88518Y433703D01*
X88568Y433617D01*
X88634Y433542D01*
X88646Y433525D01*
X88656Y433517D01*
X88674Y433496D01*
X90893Y431278D01*
X91003Y431193D01*
X91109Y431104D01*
X91128Y431096D01*
X91144Y431083D01*
X91272Y431028D01*
X91397Y430969D01*
X91417Y430965D01*
X91436Y430957D01*
X91574Y430935D01*
X91710Y430909D01*
X91730Y430910D01*
X91750Y430907D01*
X91889Y430920D01*
G37*
G36*
X219832Y382443D02*
X219832Y382443D01*
X219931Y382446D01*
X219990Y382463D01*
X220050Y382471D01*
X220142Y382507D01*
X220237Y382535D01*
X220289Y382565D01*
X220345Y382588D01*
X220425Y382646D01*
X220511Y382696D01*
X220586Y382762D01*
X220603Y382774D01*
X220611Y382784D01*
X220632Y382803D01*
X258062Y420233D01*
X258147Y420342D01*
X258236Y420449D01*
X258244Y420468D01*
X258257Y420484D01*
X258312Y420612D01*
X258371Y420737D01*
X258375Y420757D01*
X258383Y420776D01*
X258405Y420914D01*
X258431Y421050D01*
X258430Y421070D01*
X258433Y421090D01*
X258420Y421229D01*
X258411Y421367D01*
X258405Y421386D01*
X258403Y421406D01*
X258356Y421538D01*
X258313Y421669D01*
X258302Y421687D01*
X258295Y421706D01*
X258217Y421821D01*
X258143Y421938D01*
X258128Y421952D01*
X258117Y421969D01*
X258013Y422061D01*
X257911Y422156D01*
X257894Y422166D01*
X257878Y422179D01*
X257755Y422242D01*
X257633Y422310D01*
X257613Y422315D01*
X257595Y422324D01*
X257459Y422354D01*
X257325Y422389D01*
X257297Y422391D01*
X257285Y422394D01*
X257264Y422393D01*
X257164Y422399D01*
X250812Y422399D01*
X250714Y422387D01*
X250615Y422384D01*
X250556Y422367D01*
X250496Y422359D01*
X250404Y422323D01*
X250309Y422295D01*
X250257Y422265D01*
X250201Y422242D01*
X250121Y422184D01*
X250035Y422134D01*
X249960Y422068D01*
X249943Y422056D01*
X249935Y422046D01*
X249914Y422028D01*
X247236Y419350D01*
X247176Y419271D01*
X247108Y419199D01*
X247079Y419146D01*
X247042Y419098D01*
X247002Y419007D01*
X246954Y418921D01*
X246939Y418862D01*
X246915Y418807D01*
X246900Y418709D01*
X246875Y418613D01*
X246869Y418513D01*
X246865Y418492D01*
X246867Y418480D01*
X246865Y418452D01*
X246865Y416368D01*
X245940Y414136D01*
X244232Y412428D01*
X242000Y411503D01*
X239584Y411503D01*
X237352Y412428D01*
X235644Y414136D01*
X234719Y416368D01*
X234719Y418784D01*
X235490Y420644D01*
X235503Y420692D01*
X235524Y420737D01*
X235545Y420845D01*
X235574Y420951D01*
X235575Y421001D01*
X235584Y421050D01*
X235577Y421159D01*
X235579Y421269D01*
X235567Y421317D01*
X235564Y421367D01*
X235530Y421471D01*
X235505Y421578D01*
X235481Y421622D01*
X235466Y421669D01*
X235407Y421762D01*
X235356Y421859D01*
X235323Y421896D01*
X235296Y421938D01*
X235216Y422013D01*
X235142Y422095D01*
X235101Y422122D01*
X235064Y422156D01*
X234968Y422209D01*
X234876Y422269D01*
X234829Y422286D01*
X234786Y422310D01*
X234680Y422337D01*
X234576Y422373D01*
X234526Y422377D01*
X234478Y422389D01*
X234317Y422399D01*
X233286Y422399D01*
X233188Y422387D01*
X233089Y422384D01*
X233030Y422367D01*
X232970Y422359D01*
X232878Y422323D01*
X232783Y422295D01*
X232731Y422265D01*
X232675Y422242D01*
X232595Y422184D01*
X232509Y422134D01*
X232434Y422068D01*
X232417Y422056D01*
X232409Y422046D01*
X232388Y422028D01*
X196519Y386159D01*
X196174Y385814D01*
X196114Y385735D01*
X196046Y385663D01*
X196017Y385610D01*
X195980Y385562D01*
X195940Y385471D01*
X195892Y385385D01*
X195877Y385326D01*
X195853Y385271D01*
X195838Y385173D01*
X195813Y385077D01*
X195807Y384977D01*
X195803Y384956D01*
X195805Y384944D01*
X195803Y384916D01*
X195803Y383700D01*
X195818Y383582D01*
X195825Y383463D01*
X195838Y383425D01*
X195843Y383384D01*
X195886Y383274D01*
X195923Y383161D01*
X195945Y383126D01*
X195960Y383089D01*
X196029Y382993D01*
X196093Y382892D01*
X196123Y382864D01*
X196146Y382831D01*
X196238Y382756D01*
X196325Y382674D01*
X196360Y382654D01*
X196391Y382629D01*
X196499Y382578D01*
X196603Y382520D01*
X196643Y382510D01*
X196679Y382493D01*
X196796Y382471D01*
X196911Y382441D01*
X196971Y382437D01*
X196991Y382433D01*
X197012Y382435D01*
X197072Y382431D01*
X219734Y382431D01*
X219832Y382443D01*
G37*
G36*
X76318Y382446D02*
X76318Y382446D01*
X76437Y382453D01*
X76475Y382466D01*
X76515Y382471D01*
X76626Y382514D01*
X76739Y382551D01*
X76774Y382573D01*
X76811Y382588D01*
X76907Y382658D01*
X77008Y382721D01*
X77036Y382751D01*
X77069Y382774D01*
X77144Y382866D01*
X77226Y382953D01*
X77246Y382988D01*
X77271Y383019D01*
X77322Y383127D01*
X77380Y383231D01*
X77390Y383271D01*
X77407Y383307D01*
X77429Y383424D01*
X77459Y383539D01*
X77463Y383600D01*
X77467Y383620D01*
X77465Y383640D01*
X77469Y383700D01*
X77469Y406401D01*
X85091Y406401D01*
X85091Y400520D01*
X84841Y398941D01*
X84346Y397420D01*
X83620Y395995D01*
X82680Y394701D01*
X81549Y393570D01*
X81394Y393457D01*
X81265Y393335D01*
X81162Y393240D01*
X81162Y393239D01*
X81072Y393098D01*
X80992Y392971D01*
X80991Y392971D01*
X80943Y392822D01*
X80893Y392669D01*
X80893Y392668D01*
X80882Y392495D01*
X80873Y392351D01*
X80918Y392112D01*
X80932Y392039D01*
X80932Y392038D01*
X81019Y391855D01*
X81067Y391751D01*
X81068Y391751D01*
X81194Y391598D01*
X81270Y391506D01*
X81270Y391505D01*
X81271Y391505D01*
X81394Y391403D01*
X81549Y391290D01*
X82680Y390159D01*
X83620Y388865D01*
X84346Y387440D01*
X84841Y385919D01*
X85091Y384340D01*
X85091Y383700D01*
X85106Y383582D01*
X85113Y383463D01*
X85126Y383425D01*
X85131Y383384D01*
X85174Y383274D01*
X85211Y383161D01*
X85233Y383126D01*
X85248Y383089D01*
X85317Y382993D01*
X85381Y382892D01*
X85411Y382864D01*
X85434Y382831D01*
X85526Y382756D01*
X85613Y382674D01*
X85648Y382654D01*
X85679Y382629D01*
X85787Y382578D01*
X85891Y382520D01*
X85931Y382510D01*
X85967Y382493D01*
X86084Y382471D01*
X86199Y382441D01*
X86259Y382437D01*
X86279Y382433D01*
X86300Y382435D01*
X86360Y382431D01*
X87928Y382431D01*
X88046Y382446D01*
X88165Y382453D01*
X88203Y382466D01*
X88244Y382471D01*
X88354Y382514D01*
X88467Y382551D01*
X88502Y382573D01*
X88539Y382588D01*
X88635Y382658D01*
X88736Y382721D01*
X88764Y382751D01*
X88797Y382774D01*
X88873Y382866D01*
X88954Y382953D01*
X88974Y382988D01*
X88999Y383019D01*
X89050Y383127D01*
X89108Y383231D01*
X89118Y383271D01*
X89135Y383307D01*
X89157Y383424D01*
X89187Y383539D01*
X89191Y383600D01*
X89195Y383620D01*
X89193Y383640D01*
X89197Y383700D01*
X89197Y418106D01*
X89185Y418204D01*
X89182Y418303D01*
X89165Y418362D01*
X89157Y418422D01*
X89121Y418514D01*
X89093Y418609D01*
X89063Y418661D01*
X89040Y418717D01*
X88982Y418797D01*
X88932Y418883D01*
X88866Y418958D01*
X88854Y418975D01*
X88844Y418983D01*
X88826Y419004D01*
X86630Y421199D01*
X86614Y421212D01*
X86601Y421227D01*
X86489Y421309D01*
X86379Y421394D01*
X86360Y421402D01*
X86344Y421414D01*
X86215Y421465D01*
X86087Y421521D01*
X86067Y421524D01*
X86049Y421531D01*
X85911Y421549D01*
X85773Y421570D01*
X85753Y421569D01*
X85733Y421571D01*
X85595Y421554D01*
X85456Y421541D01*
X85437Y421534D01*
X85418Y421531D01*
X85288Y421480D01*
X85157Y421433D01*
X85140Y421422D01*
X85122Y421415D01*
X85009Y421333D01*
X84894Y421254D01*
X84880Y421240D01*
X84864Y421228D01*
X84776Y421121D01*
X84683Y421016D01*
X84674Y420998D01*
X84661Y420983D01*
X84602Y420857D01*
X84539Y420733D01*
X84534Y420713D01*
X84526Y420695D01*
X84499Y420558D01*
X84469Y420423D01*
X84469Y420403D01*
X84466Y420383D01*
X84474Y420244D01*
X84479Y420105D01*
X84484Y420085D01*
X84485Y420066D01*
X84525Y419910D01*
X84841Y418939D01*
X85091Y417360D01*
X85091Y411479D01*
X77469Y411479D01*
X77469Y426419D01*
X78280Y426155D01*
X78299Y426152D01*
X78318Y426144D01*
X78455Y426122D01*
X78592Y426096D01*
X78612Y426097D01*
X78632Y426094D01*
X78770Y426107D01*
X78909Y426116D01*
X78928Y426122D01*
X78948Y426124D01*
X79079Y426171D01*
X79212Y426214D01*
X79229Y426224D01*
X79248Y426231D01*
X79363Y426310D01*
X79480Y426384D01*
X79494Y426399D01*
X79511Y426410D01*
X79603Y426514D01*
X79698Y426616D01*
X79708Y426633D01*
X79721Y426648D01*
X79785Y426773D01*
X79852Y426894D01*
X79857Y426914D01*
X79866Y426931D01*
X79896Y427068D01*
X79931Y427202D01*
X79931Y427222D01*
X79935Y427242D01*
X79931Y427381D01*
X79931Y427520D01*
X79926Y427540D01*
X79926Y427560D01*
X79887Y427693D01*
X79852Y427828D01*
X79843Y427846D01*
X79837Y427865D01*
X79766Y427985D01*
X79700Y428107D01*
X79686Y428122D01*
X79676Y428139D01*
X79569Y428260D01*
X79004Y428826D01*
X76697Y431132D01*
X76697Y442500D01*
X76682Y442618D01*
X76675Y442737D01*
X76662Y442775D01*
X76657Y442816D01*
X76614Y442926D01*
X76577Y443039D01*
X76555Y443074D01*
X76540Y443111D01*
X76471Y443207D01*
X76407Y443308D01*
X76377Y443336D01*
X76354Y443369D01*
X76262Y443444D01*
X76175Y443526D01*
X76140Y443546D01*
X76109Y443571D01*
X76001Y443622D01*
X75897Y443680D01*
X75857Y443690D01*
X75821Y443707D01*
X75704Y443729D01*
X75589Y443759D01*
X75529Y443763D01*
X75509Y443767D01*
X75488Y443765D01*
X75428Y443769D01*
X74572Y443769D01*
X74454Y443754D01*
X74335Y443747D01*
X74297Y443734D01*
X74256Y443729D01*
X74146Y443686D01*
X74033Y443649D01*
X73998Y443627D01*
X73961Y443612D01*
X73865Y443543D01*
X73764Y443479D01*
X73736Y443449D01*
X73703Y443426D01*
X73627Y443334D01*
X73546Y443247D01*
X73526Y443212D01*
X73501Y443181D01*
X73450Y443073D01*
X73392Y442969D01*
X73382Y442929D01*
X73365Y442893D01*
X73343Y442776D01*
X73313Y442661D01*
X73309Y442601D01*
X73305Y442581D01*
X73307Y442560D01*
X73303Y442500D01*
X73303Y428632D01*
X72763Y428092D01*
X72702Y428014D01*
X72634Y427941D01*
X72605Y427888D01*
X72568Y427841D01*
X72528Y427750D01*
X72480Y427663D01*
X72465Y427604D01*
X72441Y427549D01*
X72426Y427451D01*
X72401Y427355D01*
X72395Y427255D01*
X72391Y427235D01*
X72393Y427222D01*
X72391Y427194D01*
X72391Y410210D01*
X72406Y410092D01*
X72413Y409973D01*
X72426Y409935D01*
X72431Y409895D01*
X72474Y409784D01*
X72511Y409671D01*
X72533Y409637D01*
X72548Y409599D01*
X72618Y409503D01*
X72681Y409402D01*
X72711Y409374D01*
X72734Y409342D01*
X72826Y409266D01*
X72913Y409184D01*
X72948Y409165D01*
X72979Y409139D01*
X73087Y409088D01*
X73191Y409031D01*
X73231Y409020D01*
X73267Y409003D01*
X73384Y408981D01*
X73499Y408951D01*
X73560Y408947D01*
X73580Y408943D01*
X73600Y408945D01*
X73660Y408941D01*
X74931Y408941D01*
X74931Y408939D01*
X73660Y408939D01*
X73542Y408924D01*
X73423Y408917D01*
X73385Y408904D01*
X73344Y408899D01*
X73234Y408855D01*
X73121Y408819D01*
X73086Y408797D01*
X73049Y408782D01*
X72953Y408712D01*
X72852Y408649D01*
X72824Y408619D01*
X72791Y408595D01*
X72716Y408504D01*
X72634Y408417D01*
X72614Y408382D01*
X72589Y408350D01*
X72538Y408243D01*
X72480Y408138D01*
X72470Y408099D01*
X72453Y408063D01*
X72431Y407946D01*
X72401Y407831D01*
X72397Y407770D01*
X72393Y407750D01*
X72395Y407730D01*
X72391Y407670D01*
X72391Y383700D01*
X72406Y383582D01*
X72413Y383463D01*
X72426Y383425D01*
X72431Y383384D01*
X72474Y383274D01*
X72511Y383161D01*
X72533Y383126D01*
X72548Y383089D01*
X72618Y382993D01*
X72681Y382892D01*
X72711Y382864D01*
X72734Y382831D01*
X72826Y382756D01*
X72913Y382674D01*
X72948Y382654D01*
X72979Y382629D01*
X73087Y382578D01*
X73191Y382520D01*
X73231Y382510D01*
X73267Y382493D01*
X73384Y382471D01*
X73499Y382441D01*
X73560Y382437D01*
X73580Y382433D01*
X73600Y382435D01*
X73660Y382431D01*
X76200Y382431D01*
X76318Y382446D01*
G37*
%LPC*%
G36*
X159023Y94673D02*
X159023Y94673D01*
X159023Y115691D01*
X177834Y115691D01*
X178481Y115518D01*
X179060Y115183D01*
X179533Y114710D01*
X179868Y114131D01*
X180041Y113484D01*
X180041Y94673D01*
X159023Y94673D01*
G37*
%LPD*%
%LPC*%
G36*
X134959Y94673D02*
X134959Y94673D01*
X134959Y113484D01*
X135132Y114131D01*
X135467Y114710D01*
X135940Y115183D01*
X136519Y115518D01*
X137166Y115691D01*
X155977Y115691D01*
X155977Y94673D01*
X134959Y94673D01*
G37*
%LPD*%
%LPC*%
G36*
X159023Y70609D02*
X159023Y70609D01*
X159023Y91627D01*
X180041Y91627D01*
X180041Y72816D01*
X179868Y72169D01*
X179533Y71590D01*
X179060Y71117D01*
X178481Y70782D01*
X177834Y70609D01*
X159023Y70609D01*
G37*
%LPD*%
%LPC*%
G36*
X137166Y70609D02*
X137166Y70609D01*
X136519Y70782D01*
X135940Y71117D01*
X135467Y71590D01*
X135132Y72169D01*
X134959Y72816D01*
X134959Y91627D01*
X155977Y91627D01*
X155977Y70609D01*
X137166Y70609D01*
G37*
%LPD*%
%LPC*%
G36*
X247545Y253489D02*
X247545Y253489D01*
X244569Y256465D01*
X244569Y260675D01*
X247545Y263651D01*
X250158Y263651D01*
X250178Y263654D01*
X250197Y263652D01*
X250299Y263674D01*
X250401Y263690D01*
X250418Y263700D01*
X250438Y263704D01*
X250527Y263757D01*
X250618Y263806D01*
X250632Y263820D01*
X250649Y263830D01*
X250716Y263909D01*
X250788Y263984D01*
X250796Y264002D01*
X250809Y264017D01*
X250848Y264113D01*
X250891Y264207D01*
X250893Y264227D01*
X250901Y264245D01*
X250919Y264412D01*
X250919Y265428D01*
X250916Y265448D01*
X250918Y265467D01*
X250896Y265569D01*
X250880Y265671D01*
X250870Y265688D01*
X250866Y265708D01*
X250813Y265797D01*
X250764Y265888D01*
X250750Y265902D01*
X250740Y265919D01*
X250661Y265986D01*
X250586Y266058D01*
X250568Y266066D01*
X250553Y266079D01*
X250457Y266118D01*
X250363Y266161D01*
X250343Y266163D01*
X250325Y266171D01*
X250158Y266189D01*
X247545Y266189D01*
X244569Y269165D01*
X244569Y273375D01*
X247545Y276351D01*
X251755Y276351D01*
X254731Y273375D01*
X254731Y270762D01*
X254734Y270742D01*
X254732Y270723D01*
X254754Y270621D01*
X254770Y270519D01*
X254780Y270502D01*
X254784Y270482D01*
X254837Y270393D01*
X254886Y270302D01*
X254900Y270288D01*
X254910Y270271D01*
X254989Y270204D01*
X255064Y270132D01*
X255082Y270124D01*
X255097Y270111D01*
X255193Y270072D01*
X255287Y270029D01*
X255307Y270027D01*
X255325Y270019D01*
X255492Y270001D01*
X256508Y270001D01*
X256528Y270004D01*
X256547Y270002D01*
X256649Y270024D01*
X256751Y270040D01*
X256768Y270050D01*
X256788Y270054D01*
X256877Y270107D01*
X256968Y270156D01*
X256982Y270170D01*
X256999Y270180D01*
X257066Y270259D01*
X257138Y270334D01*
X257146Y270352D01*
X257159Y270367D01*
X257198Y270463D01*
X257241Y270557D01*
X257243Y270577D01*
X257251Y270595D01*
X257269Y270762D01*
X257269Y273375D01*
X260245Y276351D01*
X264455Y276351D01*
X267431Y273375D01*
X267431Y269165D01*
X264455Y266189D01*
X261842Y266189D01*
X261822Y266186D01*
X261803Y266188D01*
X261701Y266166D01*
X261599Y266150D01*
X261582Y266140D01*
X261562Y266136D01*
X261473Y266083D01*
X261382Y266034D01*
X261368Y266020D01*
X261351Y266010D01*
X261284Y265931D01*
X261212Y265856D01*
X261204Y265838D01*
X261191Y265823D01*
X261152Y265727D01*
X261109Y265633D01*
X261107Y265613D01*
X261099Y265595D01*
X261081Y265428D01*
X261081Y264412D01*
X261084Y264392D01*
X261082Y264373D01*
X261104Y264271D01*
X261120Y264169D01*
X261130Y264152D01*
X261134Y264132D01*
X261187Y264043D01*
X261236Y263952D01*
X261250Y263938D01*
X261260Y263921D01*
X261339Y263854D01*
X261414Y263782D01*
X261432Y263774D01*
X261447Y263761D01*
X261543Y263722D01*
X261637Y263679D01*
X261657Y263677D01*
X261675Y263669D01*
X261842Y263651D01*
X264455Y263651D01*
X267431Y260675D01*
X267431Y256465D01*
X264455Y253489D01*
X260245Y253489D01*
X257269Y256465D01*
X257269Y259078D01*
X257266Y259098D01*
X257268Y259117D01*
X257246Y259219D01*
X257230Y259321D01*
X257220Y259338D01*
X257216Y259358D01*
X257163Y259447D01*
X257114Y259538D01*
X257100Y259552D01*
X257090Y259569D01*
X257011Y259636D01*
X256936Y259708D01*
X256918Y259716D01*
X256903Y259729D01*
X256807Y259768D01*
X256713Y259811D01*
X256693Y259813D01*
X256675Y259821D01*
X256508Y259839D01*
X255492Y259839D01*
X255472Y259836D01*
X255453Y259838D01*
X255351Y259816D01*
X255249Y259800D01*
X255232Y259790D01*
X255212Y259786D01*
X255123Y259733D01*
X255032Y259684D01*
X255018Y259670D01*
X255001Y259660D01*
X254934Y259581D01*
X254862Y259506D01*
X254854Y259488D01*
X254841Y259473D01*
X254802Y259377D01*
X254759Y259283D01*
X254757Y259263D01*
X254749Y259245D01*
X254731Y259078D01*
X254731Y256465D01*
X251755Y253489D01*
X247545Y253489D01*
G37*
%LPD*%
%LPC*%
G36*
X247545Y334169D02*
X247545Y334169D01*
X244569Y337145D01*
X244569Y341355D01*
X247545Y344331D01*
X250158Y344331D01*
X250178Y344334D01*
X250197Y344332D01*
X250299Y344354D01*
X250401Y344370D01*
X250418Y344380D01*
X250438Y344384D01*
X250527Y344437D01*
X250618Y344486D01*
X250632Y344500D01*
X250649Y344510D01*
X250716Y344589D01*
X250788Y344664D01*
X250796Y344682D01*
X250809Y344697D01*
X250848Y344793D01*
X250891Y344887D01*
X250893Y344907D01*
X250901Y344925D01*
X250919Y345092D01*
X250919Y346108D01*
X250916Y346128D01*
X250918Y346147D01*
X250896Y346249D01*
X250880Y346351D01*
X250870Y346368D01*
X250866Y346388D01*
X250813Y346477D01*
X250764Y346568D01*
X250750Y346582D01*
X250740Y346599D01*
X250661Y346666D01*
X250586Y346738D01*
X250568Y346746D01*
X250553Y346759D01*
X250457Y346798D01*
X250363Y346841D01*
X250343Y346843D01*
X250325Y346851D01*
X250158Y346869D01*
X247545Y346869D01*
X244569Y349845D01*
X244569Y354055D01*
X247545Y357031D01*
X251755Y357031D01*
X254731Y354055D01*
X254731Y351442D01*
X254734Y351422D01*
X254732Y351403D01*
X254754Y351301D01*
X254770Y351199D01*
X254780Y351182D01*
X254784Y351162D01*
X254837Y351073D01*
X254886Y350982D01*
X254900Y350968D01*
X254910Y350951D01*
X254989Y350884D01*
X255064Y350812D01*
X255082Y350804D01*
X255097Y350791D01*
X255193Y350752D01*
X255287Y350709D01*
X255307Y350707D01*
X255325Y350699D01*
X255492Y350681D01*
X256508Y350681D01*
X256528Y350684D01*
X256547Y350682D01*
X256649Y350704D01*
X256751Y350720D01*
X256768Y350730D01*
X256788Y350734D01*
X256877Y350787D01*
X256968Y350836D01*
X256982Y350850D01*
X256999Y350860D01*
X257066Y350939D01*
X257138Y351014D01*
X257146Y351032D01*
X257159Y351047D01*
X257198Y351143D01*
X257241Y351237D01*
X257243Y351257D01*
X257251Y351275D01*
X257269Y351442D01*
X257269Y354055D01*
X260245Y357031D01*
X264455Y357031D01*
X267431Y354055D01*
X267431Y349845D01*
X264455Y346869D01*
X261842Y346869D01*
X261822Y346866D01*
X261803Y346868D01*
X261701Y346846D01*
X261599Y346830D01*
X261582Y346820D01*
X261562Y346816D01*
X261473Y346763D01*
X261382Y346714D01*
X261368Y346700D01*
X261351Y346690D01*
X261284Y346611D01*
X261212Y346536D01*
X261204Y346518D01*
X261191Y346503D01*
X261152Y346407D01*
X261109Y346313D01*
X261107Y346293D01*
X261099Y346275D01*
X261081Y346108D01*
X261081Y345092D01*
X261084Y345072D01*
X261082Y345053D01*
X261104Y344951D01*
X261120Y344849D01*
X261130Y344832D01*
X261134Y344812D01*
X261187Y344723D01*
X261236Y344632D01*
X261250Y344618D01*
X261260Y344601D01*
X261339Y344534D01*
X261414Y344462D01*
X261432Y344454D01*
X261447Y344441D01*
X261543Y344402D01*
X261637Y344359D01*
X261657Y344357D01*
X261675Y344349D01*
X261842Y344331D01*
X264455Y344331D01*
X267431Y341355D01*
X267431Y337145D01*
X264455Y334169D01*
X260245Y334169D01*
X257269Y337145D01*
X257269Y339758D01*
X257266Y339778D01*
X257268Y339797D01*
X257246Y339899D01*
X257230Y340001D01*
X257220Y340018D01*
X257216Y340038D01*
X257163Y340127D01*
X257114Y340218D01*
X257100Y340232D01*
X257090Y340249D01*
X257011Y340316D01*
X256936Y340388D01*
X256918Y340396D01*
X256903Y340409D01*
X256807Y340448D01*
X256713Y340491D01*
X256693Y340493D01*
X256675Y340501D01*
X256508Y340519D01*
X255492Y340519D01*
X255472Y340516D01*
X255453Y340518D01*
X255351Y340496D01*
X255249Y340480D01*
X255232Y340470D01*
X255212Y340466D01*
X255123Y340413D01*
X255032Y340364D01*
X255018Y340350D01*
X255001Y340340D01*
X254934Y340261D01*
X254862Y340186D01*
X254854Y340168D01*
X254841Y340153D01*
X254802Y340057D01*
X254759Y339963D01*
X254757Y339943D01*
X254749Y339925D01*
X254731Y339758D01*
X254731Y337145D01*
X251755Y334169D01*
X247545Y334169D01*
G37*
%LPD*%
%LPC*%
G36*
X247545Y206189D02*
X247545Y206189D01*
X244569Y209165D01*
X244569Y213375D01*
X247545Y216351D01*
X250158Y216351D01*
X250178Y216354D01*
X250197Y216352D01*
X250299Y216374D01*
X250401Y216390D01*
X250418Y216400D01*
X250438Y216404D01*
X250527Y216457D01*
X250618Y216506D01*
X250632Y216520D01*
X250649Y216530D01*
X250716Y216609D01*
X250788Y216684D01*
X250796Y216702D01*
X250809Y216717D01*
X250848Y216813D01*
X250891Y216907D01*
X250893Y216927D01*
X250901Y216945D01*
X250919Y217112D01*
X250919Y218128D01*
X250916Y218148D01*
X250918Y218167D01*
X250896Y218269D01*
X250880Y218371D01*
X250870Y218388D01*
X250866Y218408D01*
X250813Y218497D01*
X250764Y218588D01*
X250750Y218602D01*
X250740Y218619D01*
X250661Y218686D01*
X250586Y218758D01*
X250568Y218766D01*
X250553Y218779D01*
X250457Y218818D01*
X250363Y218861D01*
X250343Y218863D01*
X250325Y218871D01*
X250158Y218889D01*
X247545Y218889D01*
X244569Y221865D01*
X244569Y226075D01*
X247545Y229051D01*
X251755Y229051D01*
X254731Y226075D01*
X254731Y223462D01*
X254734Y223442D01*
X254732Y223423D01*
X254754Y223321D01*
X254770Y223219D01*
X254780Y223202D01*
X254784Y223182D01*
X254837Y223093D01*
X254886Y223002D01*
X254900Y222988D01*
X254910Y222971D01*
X254989Y222904D01*
X255064Y222832D01*
X255082Y222824D01*
X255097Y222811D01*
X255193Y222772D01*
X255287Y222729D01*
X255307Y222727D01*
X255325Y222719D01*
X255492Y222701D01*
X256508Y222701D01*
X256528Y222704D01*
X256547Y222702D01*
X256649Y222724D01*
X256751Y222740D01*
X256768Y222750D01*
X256788Y222754D01*
X256877Y222807D01*
X256968Y222856D01*
X256982Y222870D01*
X256999Y222880D01*
X257066Y222959D01*
X257138Y223034D01*
X257146Y223052D01*
X257159Y223067D01*
X257198Y223163D01*
X257241Y223257D01*
X257243Y223277D01*
X257251Y223295D01*
X257269Y223462D01*
X257269Y226075D01*
X260245Y229051D01*
X264455Y229051D01*
X267431Y226075D01*
X267431Y221865D01*
X264455Y218889D01*
X261842Y218889D01*
X261822Y218886D01*
X261803Y218888D01*
X261701Y218866D01*
X261599Y218850D01*
X261582Y218840D01*
X261562Y218836D01*
X261473Y218783D01*
X261382Y218734D01*
X261368Y218720D01*
X261351Y218710D01*
X261284Y218631D01*
X261212Y218556D01*
X261204Y218538D01*
X261191Y218523D01*
X261152Y218427D01*
X261109Y218333D01*
X261107Y218313D01*
X261099Y218295D01*
X261081Y218128D01*
X261081Y217112D01*
X261084Y217092D01*
X261082Y217073D01*
X261104Y216971D01*
X261120Y216869D01*
X261130Y216852D01*
X261134Y216832D01*
X261187Y216743D01*
X261236Y216652D01*
X261250Y216638D01*
X261260Y216621D01*
X261339Y216554D01*
X261414Y216482D01*
X261432Y216474D01*
X261447Y216461D01*
X261543Y216422D01*
X261637Y216379D01*
X261657Y216377D01*
X261675Y216369D01*
X261842Y216351D01*
X264455Y216351D01*
X267431Y213375D01*
X267431Y209165D01*
X264455Y206189D01*
X260245Y206189D01*
X257269Y209165D01*
X257269Y211778D01*
X257266Y211798D01*
X257268Y211817D01*
X257246Y211919D01*
X257230Y212021D01*
X257220Y212038D01*
X257216Y212058D01*
X257163Y212147D01*
X257114Y212238D01*
X257100Y212252D01*
X257090Y212269D01*
X257011Y212336D01*
X256936Y212408D01*
X256918Y212416D01*
X256903Y212429D01*
X256807Y212468D01*
X256713Y212511D01*
X256693Y212513D01*
X256675Y212521D01*
X256508Y212539D01*
X255492Y212539D01*
X255472Y212536D01*
X255453Y212538D01*
X255351Y212516D01*
X255249Y212500D01*
X255232Y212490D01*
X255212Y212486D01*
X255123Y212433D01*
X255032Y212384D01*
X255018Y212370D01*
X255001Y212360D01*
X254934Y212281D01*
X254862Y212206D01*
X254854Y212188D01*
X254841Y212173D01*
X254802Y212077D01*
X254759Y211983D01*
X254757Y211963D01*
X254749Y211945D01*
X254731Y211778D01*
X254731Y209165D01*
X251755Y206189D01*
X247545Y206189D01*
G37*
%LPD*%
G36*
X161338Y434432D02*
X161338Y434432D01*
X161487Y434441D01*
X161496Y434444D01*
X161506Y434445D01*
X161648Y434493D01*
X161789Y434539D01*
X161798Y434544D01*
X161807Y434548D01*
X161932Y434630D01*
X162058Y434709D01*
X162065Y434717D01*
X162073Y434722D01*
X162189Y434834D01*
X162189Y434835D01*
X162229Y434891D01*
X162276Y434941D01*
X162320Y435021D01*
X162372Y435095D01*
X162396Y435159D01*
X162430Y435220D01*
X162452Y435307D01*
X162484Y435392D01*
X162492Y435461D01*
X162509Y435528D01*
X162519Y435688D01*
X162519Y436591D01*
X162834Y436591D01*
X163004Y436545D01*
X163109Y436531D01*
X163212Y436508D01*
X163266Y436509D01*
X163320Y436502D01*
X163425Y436514D01*
X163530Y436517D01*
X163582Y436532D01*
X163635Y436538D01*
X163734Y436576D01*
X163784Y436591D01*
X164233Y436591D01*
X164371Y436608D01*
X164510Y436621D01*
X164529Y436628D01*
X164548Y436631D01*
X164678Y436682D01*
X164810Y436729D01*
X164826Y436740D01*
X164844Y436748D01*
X164957Y436830D01*
X165072Y436908D01*
X165085Y436923D01*
X165101Y436934D01*
X165190Y437042D01*
X165283Y437147D01*
X165292Y437164D01*
X165304Y437179D01*
X165363Y437305D01*
X165427Y437430D01*
X165431Y437450D01*
X165440Y437467D01*
X165466Y437604D01*
X165496Y437741D01*
X165496Y437760D01*
X165499Y437779D01*
X165491Y437919D01*
X165486Y438059D01*
X165481Y438077D01*
X165480Y438097D01*
X165437Y438230D01*
X165398Y438364D01*
X165388Y438381D01*
X165382Y438399D01*
X165361Y438432D01*
X164217Y441193D01*
X164217Y444007D01*
X165294Y446606D01*
X167284Y448596D01*
X169883Y449673D01*
X172697Y449673D01*
X175296Y448596D01*
X177293Y446600D01*
X177402Y446515D01*
X177509Y446426D01*
X177528Y446417D01*
X177544Y446405D01*
X177672Y446349D01*
X177797Y446290D01*
X177817Y446287D01*
X177836Y446279D01*
X177974Y446257D01*
X178110Y446231D01*
X178130Y446232D01*
X178150Y446229D01*
X178289Y446242D01*
X178427Y446250D01*
X178446Y446257D01*
X178466Y446258D01*
X178598Y446306D01*
X178729Y446348D01*
X178747Y446359D01*
X178766Y446366D01*
X178881Y446444D01*
X178998Y446519D01*
X179012Y446533D01*
X179029Y446545D01*
X179121Y446649D01*
X179216Y446750D01*
X179226Y446768D01*
X179239Y446783D01*
X179303Y446907D01*
X179370Y447029D01*
X179375Y447048D01*
X179384Y447066D01*
X179414Y447202D01*
X179449Y447337D01*
X179451Y447365D01*
X179454Y447377D01*
X179453Y447397D01*
X179459Y447497D01*
X179459Y450253D01*
X179463Y450261D01*
X179476Y450313D01*
X179498Y450363D01*
X179514Y450467D01*
X179540Y450570D01*
X179539Y450624D01*
X179547Y450677D01*
X179538Y450782D01*
X179537Y450888D01*
X179520Y450972D01*
X179518Y450993D01*
X179512Y451008D01*
X179505Y451046D01*
X179459Y451216D01*
X179459Y451531D01*
X180362Y451531D01*
X180403Y451536D01*
X180445Y451533D01*
X180542Y451552D01*
X180638Y451561D01*
X180657Y451568D01*
X180677Y451570D01*
X180716Y451586D01*
X180757Y451594D01*
X180846Y451636D01*
X180937Y451669D01*
X180954Y451680D01*
X180973Y451687D01*
X181006Y451712D01*
X181044Y451730D01*
X181174Y451825D01*
X181186Y451838D01*
X181201Y451847D01*
X181214Y451862D01*
X181230Y451874D01*
X181308Y451968D01*
X181391Y452058D01*
X181400Y452073D01*
X181411Y452086D01*
X181420Y452104D01*
X181433Y452119D01*
X181484Y452228D01*
X181544Y452337D01*
X181548Y452354D01*
X181556Y452369D01*
X181560Y452389D01*
X181569Y452407D01*
X181591Y452524D01*
X181622Y452645D01*
X181622Y452662D01*
X181625Y452679D01*
X181625Y452700D01*
X181628Y452719D01*
X181628Y452720D01*
X181621Y452839D01*
X181621Y452963D01*
X181616Y452980D01*
X181616Y452997D01*
X181610Y453017D01*
X181609Y453037D01*
X181572Y453151D01*
X181541Y453271D01*
X181532Y453286D01*
X181527Y453303D01*
X181517Y453321D01*
X181511Y453340D01*
X181446Y453442D01*
X181386Y453549D01*
X181375Y453562D01*
X181366Y453577D01*
X181347Y453598D01*
X181340Y453608D01*
X181326Y453622D01*
X181259Y453697D01*
X181259Y453698D01*
X181210Y453736D01*
X181168Y453780D01*
X181136Y453800D01*
X181109Y453826D01*
X181056Y453855D01*
X181008Y453893D01*
X180951Y453917D01*
X180899Y453950D01*
X180864Y453961D01*
X180830Y453980D01*
X180772Y453995D01*
X180716Y454019D01*
X180654Y454029D01*
X180596Y454047D01*
X180560Y454050D01*
X180522Y454059D01*
X180422Y454066D01*
X180402Y454069D01*
X180390Y454068D01*
X180362Y454069D01*
X179459Y454069D01*
X179459Y454384D01*
X179505Y454554D01*
X179519Y454659D01*
X179542Y454762D01*
X179541Y454816D01*
X179548Y454870D01*
X179536Y454975D01*
X179533Y455080D01*
X179518Y455132D01*
X179512Y455185D01*
X179474Y455284D01*
X179459Y455334D01*
X179459Y456753D01*
X179442Y456890D01*
X179429Y457029D01*
X179422Y457048D01*
X179419Y457068D01*
X179368Y457197D01*
X179321Y457328D01*
X179310Y457345D01*
X179302Y457364D01*
X179221Y457476D01*
X179143Y457591D01*
X179127Y457605D01*
X179116Y457621D01*
X179008Y457710D01*
X178904Y457802D01*
X178886Y457811D01*
X178871Y457824D01*
X178745Y457883D01*
X178621Y457947D01*
X178601Y457951D01*
X178583Y457960D01*
X178447Y457986D01*
X178311Y458016D01*
X178290Y458016D01*
X178271Y458019D01*
X178132Y458011D01*
X177993Y458007D01*
X177973Y458001D01*
X177953Y458000D01*
X177821Y457957D01*
X177687Y457918D01*
X177670Y457908D01*
X177651Y457902D01*
X177533Y457827D01*
X177413Y457757D01*
X177392Y457738D01*
X177382Y457731D01*
X177368Y457716D01*
X177293Y457650D01*
X175296Y455654D01*
X172697Y454577D01*
X169883Y454577D01*
X167284Y455654D01*
X165294Y457644D01*
X164217Y460243D01*
X164217Y460928D01*
X164202Y461046D01*
X164195Y461165D01*
X164182Y461203D01*
X164177Y461244D01*
X164134Y461354D01*
X164097Y461467D01*
X164075Y461502D01*
X164060Y461539D01*
X163991Y461635D01*
X163927Y461736D01*
X163897Y461764D01*
X163874Y461797D01*
X163782Y461873D01*
X163695Y461954D01*
X163660Y461974D01*
X163629Y461999D01*
X163521Y462050D01*
X163417Y462108D01*
X163377Y462118D01*
X163341Y462135D01*
X163224Y462157D01*
X163109Y462187D01*
X163049Y462191D01*
X163029Y462195D01*
X163008Y462193D01*
X162948Y462197D01*
X160993Y462197D01*
X159796Y462693D01*
X159748Y462706D01*
X159703Y462728D01*
X159595Y462748D01*
X159489Y462777D01*
X159439Y462778D01*
X159390Y462787D01*
X159281Y462781D01*
X159171Y462782D01*
X159123Y462771D01*
X159073Y462768D01*
X158969Y462734D01*
X158862Y462708D01*
X158818Y462685D01*
X158771Y462670D01*
X158678Y462611D01*
X158581Y462559D01*
X158544Y462526D01*
X158502Y462499D01*
X158427Y462419D01*
X158345Y462345D01*
X158318Y462304D01*
X158284Y462268D01*
X158231Y462172D01*
X158171Y462080D01*
X158154Y462033D01*
X158130Y461989D01*
X158103Y461883D01*
X158067Y461779D01*
X158063Y461729D01*
X158051Y461681D01*
X158041Y461521D01*
X158041Y455347D01*
X158037Y455339D01*
X158024Y455287D01*
X158002Y455237D01*
X157986Y455133D01*
X157960Y455030D01*
X157961Y454976D01*
X157953Y454923D01*
X157962Y454818D01*
X157963Y454712D01*
X157980Y454628D01*
X157982Y454607D01*
X157988Y454592D01*
X157995Y454554D01*
X158041Y454384D01*
X158041Y454069D01*
X157138Y454069D01*
X157110Y454066D01*
X157081Y454068D01*
X156971Y454049D01*
X156862Y454039D01*
X156843Y454032D01*
X156823Y454030D01*
X156796Y454019D01*
X156767Y454014D01*
X156666Y453968D01*
X156563Y453931D01*
X156546Y453920D01*
X156527Y453913D01*
X156504Y453896D01*
X156477Y453884D01*
X156345Y453791D01*
X156324Y453770D01*
X156299Y453753D01*
X156286Y453737D01*
X156270Y453726D01*
X156200Y453642D01*
X156124Y453563D01*
X156109Y453537D01*
X156089Y453514D01*
X156080Y453496D01*
X156067Y453481D01*
X156021Y453383D01*
X155966Y453287D01*
X155958Y453258D01*
X155944Y453231D01*
X155940Y453211D01*
X155931Y453193D01*
X155911Y453087D01*
X155882Y452980D01*
X155881Y452950D01*
X155875Y452921D01*
X155875Y452900D01*
X155872Y452881D01*
X155878Y452774D01*
X155876Y452662D01*
X155883Y452633D01*
X155884Y452603D01*
X155890Y452583D01*
X155891Y452563D01*
X155924Y452461D01*
X155950Y452353D01*
X155964Y452326D01*
X155973Y452297D01*
X155983Y452279D01*
X155989Y452260D01*
X156047Y452169D01*
X156099Y452072D01*
X156119Y452049D01*
X156134Y452023D01*
X156153Y452002D01*
X156160Y451992D01*
X156174Y451978D01*
X156241Y451903D01*
X156241Y451902D01*
X156280Y451872D01*
X156312Y451836D01*
X156354Y451808D01*
X156391Y451774D01*
X156444Y451745D01*
X156492Y451707D01*
X156537Y451688D01*
X156578Y451661D01*
X156625Y451645D01*
X156670Y451620D01*
X156728Y451605D01*
X156784Y451581D01*
X156833Y451573D01*
X156879Y451558D01*
X156928Y451554D01*
X156978Y451541D01*
X157078Y451534D01*
X157098Y451531D01*
X157110Y451532D01*
X157138Y451531D01*
X158041Y451531D01*
X158041Y451216D01*
X157995Y451046D01*
X157981Y450941D01*
X157958Y450838D01*
X157959Y450784D01*
X157952Y450730D01*
X157964Y450625D01*
X157967Y450520D01*
X157982Y450468D01*
X157988Y450415D01*
X158026Y450316D01*
X158041Y450266D01*
X158041Y437809D01*
X158057Y437685D01*
X158066Y437559D01*
X158076Y437527D01*
X158081Y437494D01*
X158127Y437377D01*
X158167Y437258D01*
X158185Y437230D01*
X158198Y437198D01*
X158272Y437096D01*
X158340Y436991D01*
X158365Y436968D01*
X158384Y436941D01*
X158481Y436861D01*
X158574Y436776D01*
X158603Y436760D01*
X158629Y436738D01*
X158743Y436685D01*
X158854Y436625D01*
X158887Y436617D01*
X158917Y436603D01*
X159040Y436579D01*
X159163Y436549D01*
X159196Y436549D01*
X159229Y436543D01*
X159355Y436551D01*
X159481Y436552D01*
X159529Y436561D01*
X159547Y436563D01*
X159567Y436569D01*
X159639Y436584D01*
X159666Y436591D01*
X159981Y436591D01*
X159981Y435688D01*
X159982Y435678D01*
X159981Y435668D01*
X160002Y435520D01*
X160003Y435502D01*
X160005Y435497D01*
X160020Y435372D01*
X160024Y435363D01*
X160026Y435353D01*
X160083Y435215D01*
X160137Y435077D01*
X160143Y435069D01*
X160147Y435059D01*
X160237Y434939D01*
X160324Y434819D01*
X160332Y434813D01*
X160338Y434805D01*
X160454Y434712D01*
X160569Y434617D01*
X160578Y434612D01*
X160586Y434606D01*
X160723Y434544D01*
X160857Y434481D01*
X160867Y434479D01*
X160876Y434475D01*
X161024Y434449D01*
X161169Y434421D01*
X161179Y434422D01*
X161189Y434420D01*
X161338Y434432D01*
G37*
%LPC*%
G36*
X149819Y397809D02*
X149819Y397809D01*
X149819Y397810D01*
X149804Y397928D01*
X149797Y398047D01*
X149784Y398085D01*
X149779Y398125D01*
X149736Y398236D01*
X149699Y398349D01*
X149677Y398384D01*
X149662Y398421D01*
X149592Y398517D01*
X149529Y398618D01*
X149499Y398646D01*
X149476Y398678D01*
X149384Y398754D01*
X149297Y398836D01*
X149262Y398855D01*
X149231Y398881D01*
X149123Y398932D01*
X149019Y398989D01*
X148979Y399000D01*
X148943Y399017D01*
X148826Y399039D01*
X148711Y399069D01*
X148650Y399073D01*
X148630Y399077D01*
X148610Y399075D01*
X148550Y399079D01*
X143349Y399079D01*
X143349Y405081D01*
X148644Y405081D01*
X149291Y404908D01*
X149870Y404573D01*
X150409Y404035D01*
X150492Y403970D01*
X150570Y403898D01*
X150617Y403873D01*
X150660Y403840D01*
X150757Y403798D01*
X150850Y403748D01*
X150902Y403735D01*
X150952Y403713D01*
X151056Y403697D01*
X151159Y403671D01*
X151212Y403672D01*
X151266Y403663D01*
X151371Y403673D01*
X151477Y403674D01*
X151561Y403691D01*
X151582Y403693D01*
X151597Y403698D01*
X151635Y403706D01*
X152026Y403811D01*
X157321Y403811D01*
X157321Y397809D01*
X149819Y397809D01*
G37*
%LPD*%
%LPC*%
G36*
X152026Y386729D02*
X152026Y386729D01*
X151379Y386902D01*
X150800Y387237D01*
X150261Y387775D01*
X150178Y387840D01*
X150100Y387912D01*
X150053Y387937D01*
X150010Y387970D01*
X149913Y388012D01*
X149820Y388062D01*
X149768Y388075D01*
X149718Y388097D01*
X149614Y388113D01*
X149511Y388139D01*
X149458Y388138D01*
X149404Y388147D01*
X149299Y388137D01*
X149193Y388136D01*
X149109Y388119D01*
X149088Y388117D01*
X149073Y388112D01*
X149035Y388104D01*
X148644Y387999D01*
X143349Y387999D01*
X143349Y394001D01*
X150851Y394001D01*
X150851Y394000D01*
X150866Y393882D01*
X150873Y393763D01*
X150886Y393725D01*
X150891Y393685D01*
X150934Y393574D01*
X150971Y393461D01*
X150993Y393426D01*
X151008Y393389D01*
X151077Y393293D01*
X151141Y393192D01*
X151171Y393164D01*
X151194Y393131D01*
X151286Y393056D01*
X151373Y392974D01*
X151408Y392954D01*
X151439Y392929D01*
X151547Y392878D01*
X151651Y392820D01*
X151691Y392810D01*
X151727Y392793D01*
X151844Y392771D01*
X151959Y392741D01*
X152019Y392737D01*
X152039Y392733D01*
X152060Y392735D01*
X152120Y392731D01*
X157321Y392731D01*
X157321Y386729D01*
X152026Y386729D01*
G37*
%LPD*%
%LPC*%
G36*
X229193Y443794D02*
X229193Y443794D01*
X229057Y443824D01*
X228922Y443859D01*
X228894Y443861D01*
X228882Y443863D01*
X228862Y443863D01*
X228762Y443869D01*
X222699Y443869D01*
X222699Y451371D01*
X226994Y451371D01*
X227641Y451198D01*
X228220Y450863D01*
X228693Y450390D01*
X229028Y449811D01*
X229201Y449164D01*
X229201Y443790D01*
X229193Y443794D01*
G37*
%LPD*%
%LPC*%
G36*
X220159Y502409D02*
X220159Y502409D01*
X220159Y509911D01*
X226661Y509911D01*
X226661Y504616D01*
X226488Y503969D01*
X226153Y503390D01*
X225680Y502917D01*
X225101Y502582D01*
X224454Y502409D01*
X220159Y502409D01*
G37*
%LPD*%
%LPC*%
G36*
X87979Y512449D02*
X87979Y512449D01*
X87979Y517744D01*
X88152Y518391D01*
X88487Y518970D01*
X88960Y519443D01*
X89539Y519778D01*
X90186Y519951D01*
X94481Y519951D01*
X94481Y512449D01*
X87979Y512449D01*
G37*
%LPD*%
%LPC*%
G36*
X162399Y397809D02*
X162399Y397809D01*
X162399Y403811D01*
X167694Y403811D01*
X168341Y403638D01*
X168920Y403303D01*
X169393Y402830D01*
X169728Y402251D01*
X169901Y401604D01*
X169901Y397809D01*
X162399Y397809D01*
G37*
%LPD*%
%LPC*%
G36*
X162399Y386729D02*
X162399Y386729D01*
X162399Y392731D01*
X169901Y392731D01*
X169901Y388936D01*
X169728Y388289D01*
X169393Y387710D01*
X168920Y387237D01*
X168341Y386902D01*
X167694Y386729D01*
X162399Y386729D01*
G37*
%LPD*%
%LPC*%
G36*
X132976Y387999D02*
X132976Y387999D01*
X132329Y388172D01*
X131750Y388507D01*
X131277Y388980D01*
X130942Y389559D01*
X130769Y390206D01*
X130769Y394001D01*
X138271Y394001D01*
X138271Y387999D01*
X132976Y387999D01*
G37*
%LPD*%
%LPC*%
G36*
X140809Y396539D02*
X140809Y396539D01*
X140809Y396541D01*
X140811Y396541D01*
X140811Y396539D01*
X140809Y396539D01*
G37*
%LPD*%
%LPC*%
G36*
X159859Y395269D02*
X159859Y395269D01*
X159859Y395271D01*
X159861Y395271D01*
X159861Y395269D01*
X159859Y395269D01*
G37*
%LPD*%
%LPC*%
G36*
X157499Y93149D02*
X157499Y93149D01*
X157499Y93151D01*
X157501Y93151D01*
X157501Y93149D01*
X157499Y93149D01*
G37*
%LPD*%
D10*
X35720Y18100D02*
X20480Y18100D01*
X20480Y43500D02*
X35720Y43500D01*
X35720Y68900D02*
X20480Y68900D01*
X20480Y94300D02*
X35720Y94300D01*
D11*
X98100Y276600D03*
X98100Y293600D03*
D12*
X68010Y15540D02*
X52990Y15540D01*
X52990Y22560D01*
X68010Y22560D01*
X68010Y15540D01*
X68010Y17421D02*
X52990Y17421D01*
X52990Y19302D02*
X68010Y19302D01*
X68010Y21183D02*
X52990Y21183D01*
X52990Y28240D02*
X68010Y28240D01*
X52990Y28240D02*
X52990Y35260D01*
X68010Y35260D01*
X68010Y28240D01*
X68010Y30121D02*
X52990Y30121D01*
X52990Y32002D02*
X68010Y32002D01*
X68010Y33883D02*
X52990Y33883D01*
X52990Y40940D02*
X68010Y40940D01*
X52990Y40940D02*
X52990Y47960D01*
X68010Y47960D01*
X68010Y40940D01*
X68010Y42821D02*
X52990Y42821D01*
X52990Y44702D02*
X68010Y44702D01*
X68010Y46583D02*
X52990Y46583D01*
X52990Y53640D02*
X68010Y53640D01*
X52990Y53640D02*
X52990Y60660D01*
X68010Y60660D01*
X68010Y53640D01*
X68010Y55521D02*
X52990Y55521D01*
X52990Y57402D02*
X68010Y57402D01*
X68010Y59283D02*
X52990Y59283D01*
X52990Y66340D02*
X68010Y66340D01*
X52990Y66340D02*
X52990Y73360D01*
X68010Y73360D01*
X68010Y66340D01*
X68010Y68221D02*
X52990Y68221D01*
X52990Y70102D02*
X68010Y70102D01*
X68010Y71983D02*
X52990Y71983D01*
X52990Y79040D02*
X68010Y79040D01*
X52990Y79040D02*
X52990Y86060D01*
X68010Y86060D01*
X68010Y79040D01*
X68010Y80921D02*
X52990Y80921D01*
X52990Y82802D02*
X68010Y82802D01*
X68010Y84683D02*
X52990Y84683D01*
X52990Y91740D02*
X68010Y91740D01*
X52990Y91740D02*
X52990Y98760D01*
X68010Y98760D01*
X68010Y91740D01*
X68010Y93621D02*
X52990Y93621D01*
X52990Y95502D02*
X68010Y95502D01*
X68010Y97383D02*
X52990Y97383D01*
X52990Y104440D02*
X68010Y104440D01*
X52990Y104440D02*
X52990Y111460D01*
X68010Y111460D01*
X68010Y104440D01*
X68010Y106321D02*
X52990Y106321D01*
X52990Y108202D02*
X68010Y108202D01*
X68010Y110083D02*
X52990Y110083D01*
X52990Y117140D02*
X68010Y117140D01*
X52990Y117140D02*
X52990Y124160D01*
X68010Y124160D01*
X68010Y117140D01*
X68010Y119021D02*
X52990Y119021D01*
X52990Y120902D02*
X68010Y120902D01*
X68010Y122783D02*
X52990Y122783D01*
X52990Y129840D02*
X68010Y129840D01*
X52990Y129840D02*
X52990Y136860D01*
X68010Y136860D01*
X68010Y129840D01*
X68010Y131721D02*
X52990Y131721D01*
X52990Y133602D02*
X68010Y133602D01*
X68010Y135483D02*
X52990Y135483D01*
X52990Y142540D02*
X68010Y142540D01*
X52990Y142540D02*
X52990Y149560D01*
X68010Y149560D01*
X68010Y142540D01*
X68010Y144421D02*
X52990Y144421D01*
X52990Y146302D02*
X68010Y146302D01*
X68010Y148183D02*
X52990Y148183D01*
X52990Y155240D02*
X68010Y155240D01*
X52990Y155240D02*
X52990Y162260D01*
X68010Y162260D01*
X68010Y155240D01*
X68010Y157121D02*
X52990Y157121D01*
X52990Y159002D02*
X68010Y159002D01*
X68010Y160883D02*
X52990Y160883D01*
X52990Y167940D02*
X68010Y167940D01*
X52990Y167940D02*
X52990Y174960D01*
X68010Y174960D01*
X68010Y167940D01*
X68010Y169821D02*
X52990Y169821D01*
X52990Y171702D02*
X68010Y171702D01*
X68010Y173583D02*
X52990Y173583D01*
X52990Y180640D02*
X68010Y180640D01*
X52990Y180640D02*
X52990Y187660D01*
X68010Y187660D01*
X68010Y180640D01*
X68010Y182521D02*
X52990Y182521D01*
X52990Y184402D02*
X68010Y184402D01*
X68010Y186283D02*
X52990Y186283D01*
X89840Y191640D02*
X89840Y206660D01*
X96860Y206660D01*
X96860Y191640D01*
X89840Y191640D01*
X89840Y193521D02*
X96860Y193521D01*
X96860Y195402D02*
X89840Y195402D01*
X89840Y197283D02*
X96860Y197283D01*
X96860Y199164D02*
X89840Y199164D01*
X89840Y201045D02*
X96860Y201045D01*
X96860Y202926D02*
X89840Y202926D01*
X89840Y204807D02*
X96860Y204807D01*
X102540Y206660D02*
X102540Y191640D01*
X102540Y206660D02*
X109560Y206660D01*
X109560Y191640D01*
X102540Y191640D01*
X102540Y193521D02*
X109560Y193521D01*
X109560Y195402D02*
X102540Y195402D01*
X102540Y197283D02*
X109560Y197283D01*
X109560Y199164D02*
X102540Y199164D01*
X102540Y201045D02*
X109560Y201045D01*
X109560Y202926D02*
X102540Y202926D01*
X102540Y204807D02*
X109560Y204807D01*
X115240Y206660D02*
X115240Y191640D01*
X115240Y206660D02*
X122260Y206660D01*
X122260Y191640D01*
X115240Y191640D01*
X115240Y193521D02*
X122260Y193521D01*
X122260Y195402D02*
X115240Y195402D01*
X115240Y197283D02*
X122260Y197283D01*
X122260Y199164D02*
X115240Y199164D01*
X115240Y201045D02*
X122260Y201045D01*
X122260Y202926D02*
X115240Y202926D01*
X115240Y204807D02*
X122260Y204807D01*
X127940Y206660D02*
X127940Y191640D01*
X127940Y206660D02*
X134960Y206660D01*
X134960Y191640D01*
X127940Y191640D01*
X127940Y193521D02*
X134960Y193521D01*
X134960Y195402D02*
X127940Y195402D01*
X127940Y197283D02*
X134960Y197283D01*
X134960Y199164D02*
X127940Y199164D01*
X127940Y201045D02*
X134960Y201045D01*
X134960Y202926D02*
X127940Y202926D01*
X127940Y204807D02*
X134960Y204807D01*
X140640Y206660D02*
X140640Y191640D01*
X140640Y206660D02*
X147660Y206660D01*
X147660Y191640D01*
X140640Y191640D01*
X140640Y193521D02*
X147660Y193521D01*
X147660Y195402D02*
X140640Y195402D01*
X140640Y197283D02*
X147660Y197283D01*
X147660Y199164D02*
X140640Y199164D01*
X140640Y201045D02*
X147660Y201045D01*
X147660Y202926D02*
X140640Y202926D01*
X140640Y204807D02*
X147660Y204807D01*
X153340Y206660D02*
X153340Y191640D01*
X153340Y206660D02*
X160360Y206660D01*
X160360Y191640D01*
X153340Y191640D01*
X153340Y193521D02*
X160360Y193521D01*
X160360Y195402D02*
X153340Y195402D01*
X153340Y197283D02*
X160360Y197283D01*
X160360Y199164D02*
X153340Y199164D01*
X153340Y201045D02*
X160360Y201045D01*
X160360Y202926D02*
X153340Y202926D01*
X153340Y204807D02*
X160360Y204807D01*
X166040Y206660D02*
X166040Y191640D01*
X166040Y206660D02*
X173060Y206660D01*
X173060Y191640D01*
X166040Y191640D01*
X166040Y193521D02*
X173060Y193521D01*
X173060Y195402D02*
X166040Y195402D01*
X166040Y197283D02*
X173060Y197283D01*
X173060Y199164D02*
X166040Y199164D01*
X166040Y201045D02*
X173060Y201045D01*
X173060Y202926D02*
X166040Y202926D01*
X166040Y204807D02*
X173060Y204807D01*
X178740Y206660D02*
X178740Y191640D01*
X178740Y206660D02*
X185760Y206660D01*
X185760Y191640D01*
X178740Y191640D01*
X178740Y193521D02*
X185760Y193521D01*
X185760Y195402D02*
X178740Y195402D01*
X178740Y197283D02*
X185760Y197283D01*
X185760Y199164D02*
X178740Y199164D01*
X178740Y201045D02*
X185760Y201045D01*
X185760Y202926D02*
X178740Y202926D01*
X178740Y204807D02*
X185760Y204807D01*
X191440Y206660D02*
X191440Y191640D01*
X191440Y206660D02*
X198460Y206660D01*
X198460Y191640D01*
X191440Y191640D01*
X191440Y193521D02*
X198460Y193521D01*
X198460Y195402D02*
X191440Y195402D01*
X191440Y197283D02*
X198460Y197283D01*
X198460Y199164D02*
X191440Y199164D01*
X191440Y201045D02*
X198460Y201045D01*
X198460Y202926D02*
X191440Y202926D01*
X191440Y204807D02*
X198460Y204807D01*
X204140Y206660D02*
X204140Y191640D01*
X204140Y206660D02*
X211160Y206660D01*
X211160Y191640D01*
X204140Y191640D01*
X204140Y193521D02*
X211160Y193521D01*
X211160Y195402D02*
X204140Y195402D01*
X204140Y197283D02*
X211160Y197283D01*
X211160Y199164D02*
X204140Y199164D01*
X204140Y201045D02*
X211160Y201045D01*
X211160Y202926D02*
X204140Y202926D01*
X204140Y204807D02*
X211160Y204807D01*
X232990Y187660D02*
X248010Y187660D01*
X248010Y180640D01*
X232990Y180640D01*
X232990Y187660D01*
X232990Y182521D02*
X248010Y182521D01*
X248010Y184402D02*
X232990Y184402D01*
X232990Y186283D02*
X248010Y186283D01*
X248010Y174960D02*
X232990Y174960D01*
X248010Y174960D02*
X248010Y167940D01*
X232990Y167940D01*
X232990Y174960D01*
X232990Y169821D02*
X248010Y169821D01*
X248010Y171702D02*
X232990Y171702D01*
X232990Y173583D02*
X248010Y173583D01*
X248010Y162260D02*
X232990Y162260D01*
X248010Y162260D02*
X248010Y155240D01*
X232990Y155240D01*
X232990Y162260D01*
X232990Y157121D02*
X248010Y157121D01*
X248010Y159002D02*
X232990Y159002D01*
X232990Y160883D02*
X248010Y160883D01*
X248010Y149560D02*
X232990Y149560D01*
X248010Y149560D02*
X248010Y142540D01*
X232990Y142540D01*
X232990Y149560D01*
X232990Y144421D02*
X248010Y144421D01*
X248010Y146302D02*
X232990Y146302D01*
X232990Y148183D02*
X248010Y148183D01*
X248010Y136860D02*
X232990Y136860D01*
X248010Y136860D02*
X248010Y129840D01*
X232990Y129840D01*
X232990Y136860D01*
X232990Y131721D02*
X248010Y131721D01*
X248010Y133602D02*
X232990Y133602D01*
X232990Y135483D02*
X248010Y135483D01*
X248010Y124160D02*
X232990Y124160D01*
X248010Y124160D02*
X248010Y117140D01*
X232990Y117140D01*
X232990Y124160D01*
X232990Y119021D02*
X248010Y119021D01*
X248010Y120902D02*
X232990Y120902D01*
X232990Y122783D02*
X248010Y122783D01*
X248010Y111460D02*
X232990Y111460D01*
X248010Y111460D02*
X248010Y104440D01*
X232990Y104440D01*
X232990Y111460D01*
X232990Y106321D02*
X248010Y106321D01*
X248010Y108202D02*
X232990Y108202D01*
X232990Y110083D02*
X248010Y110083D01*
X248010Y98760D02*
X232990Y98760D01*
X248010Y98760D02*
X248010Y91740D01*
X232990Y91740D01*
X232990Y98760D01*
X232990Y93621D02*
X248010Y93621D01*
X248010Y95502D02*
X232990Y95502D01*
X232990Y97383D02*
X248010Y97383D01*
X248010Y86060D02*
X232990Y86060D01*
X248010Y86060D02*
X248010Y79040D01*
X232990Y79040D01*
X232990Y86060D01*
X232990Y80921D02*
X248010Y80921D01*
X248010Y82802D02*
X232990Y82802D01*
X232990Y84683D02*
X248010Y84683D01*
X248010Y73360D02*
X232990Y73360D01*
X248010Y73360D02*
X248010Y66340D01*
X232990Y66340D01*
X232990Y73360D01*
X232990Y68221D02*
X248010Y68221D01*
X248010Y70102D02*
X232990Y70102D01*
X232990Y71983D02*
X248010Y71983D01*
X248010Y60660D02*
X232990Y60660D01*
X248010Y60660D02*
X248010Y53640D01*
X232990Y53640D01*
X232990Y60660D01*
X232990Y55521D02*
X248010Y55521D01*
X248010Y57402D02*
X232990Y57402D01*
X232990Y59283D02*
X248010Y59283D01*
X248010Y47960D02*
X232990Y47960D01*
X248010Y47960D02*
X248010Y40940D01*
X232990Y40940D01*
X232990Y47960D01*
X232990Y42821D02*
X248010Y42821D01*
X248010Y44702D02*
X232990Y44702D01*
X232990Y46583D02*
X248010Y46583D01*
X248010Y35260D02*
X232990Y35260D01*
X248010Y35260D02*
X248010Y28240D01*
X232990Y28240D01*
X232990Y35260D01*
X232990Y30121D02*
X248010Y30121D01*
X248010Y32002D02*
X232990Y32002D01*
X232990Y33883D02*
X248010Y33883D01*
X248010Y22560D02*
X232990Y22560D01*
X248010Y22560D02*
X248010Y15540D01*
X232990Y15540D01*
X232990Y22560D01*
X232990Y17421D02*
X248010Y17421D01*
X248010Y19302D02*
X232990Y19302D01*
X232990Y21183D02*
X248010Y21183D01*
D13*
X157500Y93150D03*
D14*
X173800Y346400D03*
X173800Y330400D03*
X173800Y314400D03*
D15*
X198800Y358400D03*
X198800Y302400D03*
D16*
X222300Y345400D03*
X222300Y315400D03*
D14*
X173800Y265300D03*
X173800Y249300D03*
X173800Y233300D03*
D15*
X198800Y277300D03*
X198800Y221300D03*
D16*
X222300Y264300D03*
X222300Y234300D03*
D17*
X153125Y432800D03*
D18*
X161250Y432175D03*
X166250Y432175D03*
X171250Y432175D03*
X176250Y432175D03*
D17*
X184375Y432800D03*
X184375Y437800D03*
X184375Y442800D03*
X184375Y447800D03*
X184375Y452800D03*
X184375Y457800D03*
X184375Y462800D03*
X184375Y467800D03*
X184375Y472800D03*
X184375Y477800D03*
D18*
X176250Y478425D03*
X171250Y478425D03*
X166250Y478425D03*
X161250Y478425D03*
D17*
X153125Y477800D03*
X153125Y472800D03*
X153125Y467800D03*
X153125Y462800D03*
X153125Y457800D03*
X153125Y452800D03*
X153125Y447800D03*
X153125Y442800D03*
X153125Y437800D03*
D19*
X149700Y516870D03*
X149700Y497870D03*
X168750Y515600D03*
X168750Y496600D03*
D20*
X198620Y512450D03*
X217620Y512450D03*
X259530Y462920D03*
X240530Y462920D03*
X237990Y432440D03*
X256990Y432440D03*
D21*
X123860Y487810D03*
X68860Y487810D03*
X68860Y455810D03*
X123860Y455810D03*
D20*
X102100Y434980D03*
X121100Y434980D03*
X97020Y509910D03*
X116020Y509910D03*
X220160Y441330D03*
X201160Y441330D03*
D22*
X159860Y395270D03*
X159860Y416270D03*
X140810Y417540D03*
X140810Y396540D03*
D20*
X199890Y485780D03*
X218890Y485780D03*
D23*
X130650Y544200D03*
X156050Y544200D03*
X181450Y544200D03*
X206850Y544200D03*
D24*
X224630Y461650D03*
X199230Y461650D03*
D10*
X36350Y129840D02*
X21110Y129840D01*
X21110Y155240D02*
X36350Y155240D01*
D25*
X243935Y252855D02*
X268065Y252855D01*
X243935Y252855D02*
X243935Y276985D01*
X268065Y276985D01*
X268065Y252855D01*
X268065Y254061D02*
X243935Y254061D01*
X243935Y255267D02*
X268065Y255267D01*
X268065Y256473D02*
X243935Y256473D01*
X243935Y257679D02*
X268065Y257679D01*
X268065Y258885D02*
X243935Y258885D01*
X243935Y260091D02*
X268065Y260091D01*
X268065Y261297D02*
X243935Y261297D01*
X243935Y262503D02*
X268065Y262503D01*
X268065Y263709D02*
X243935Y263709D01*
X243935Y264915D02*
X268065Y264915D01*
X268065Y266121D02*
X243935Y266121D01*
X243935Y267327D02*
X268065Y267327D01*
X268065Y268533D02*
X243935Y268533D01*
X243935Y269739D02*
X268065Y269739D01*
X268065Y270945D02*
X243935Y270945D01*
X243935Y272151D02*
X268065Y272151D01*
X268065Y273357D02*
X243935Y273357D01*
X243935Y274563D02*
X268065Y274563D01*
X268065Y275769D02*
X243935Y275769D01*
X243935Y276975D02*
X268065Y276975D01*
D26*
X249650Y271270D03*
X262350Y271270D03*
X249650Y258570D03*
X262350Y258570D03*
X256000Y264920D03*
D25*
X243935Y357665D02*
X268065Y357665D01*
X268065Y333535D01*
X243935Y333535D01*
X243935Y357665D01*
X243935Y334741D02*
X268065Y334741D01*
X268065Y335947D02*
X243935Y335947D01*
X243935Y337153D02*
X268065Y337153D01*
X268065Y338359D02*
X243935Y338359D01*
X243935Y339565D02*
X268065Y339565D01*
X268065Y340771D02*
X243935Y340771D01*
X243935Y341977D02*
X268065Y341977D01*
X268065Y343183D02*
X243935Y343183D01*
X243935Y344389D02*
X268065Y344389D01*
X268065Y345595D02*
X243935Y345595D01*
X243935Y346801D02*
X268065Y346801D01*
X268065Y348007D02*
X243935Y348007D01*
X243935Y349213D02*
X268065Y349213D01*
X268065Y350419D02*
X243935Y350419D01*
X243935Y351625D02*
X268065Y351625D01*
X268065Y352831D02*
X243935Y352831D01*
X243935Y354037D02*
X268065Y354037D01*
X268065Y355243D02*
X243935Y355243D01*
X243935Y356449D02*
X268065Y356449D01*
X268065Y357655D02*
X243935Y357655D01*
D26*
X262350Y339250D03*
X249650Y339250D03*
X262350Y351950D03*
X249650Y351950D03*
X256000Y345600D03*
D25*
X268065Y289085D02*
X243935Y289085D01*
X243935Y313215D01*
X268065Y313215D01*
X268065Y289085D01*
X268065Y290291D02*
X243935Y290291D01*
X243935Y291497D02*
X268065Y291497D01*
X268065Y292703D02*
X243935Y292703D01*
X243935Y293909D02*
X268065Y293909D01*
X268065Y295115D02*
X243935Y295115D01*
X243935Y296321D02*
X268065Y296321D01*
X268065Y297527D02*
X243935Y297527D01*
X243935Y298733D02*
X268065Y298733D01*
X268065Y299939D02*
X243935Y299939D01*
X243935Y301145D02*
X268065Y301145D01*
X268065Y302351D02*
X243935Y302351D01*
X243935Y303557D02*
X268065Y303557D01*
X268065Y304763D02*
X243935Y304763D01*
X243935Y305969D02*
X268065Y305969D01*
X268065Y307175D02*
X243935Y307175D01*
X243935Y308381D02*
X268065Y308381D01*
X268065Y309587D02*
X243935Y309587D01*
X243935Y310793D02*
X268065Y310793D01*
X268065Y311999D02*
X243935Y311999D01*
X243935Y313205D02*
X268065Y313205D01*
D26*
X249650Y307500D03*
X262350Y307500D03*
X249650Y294800D03*
X262350Y294800D03*
X256000Y301150D03*
D25*
X268065Y205555D02*
X243935Y205555D01*
X243935Y229685D01*
X268065Y229685D01*
X268065Y205555D01*
X268065Y206761D02*
X243935Y206761D01*
X243935Y207967D02*
X268065Y207967D01*
X268065Y209173D02*
X243935Y209173D01*
X243935Y210379D02*
X268065Y210379D01*
X268065Y211585D02*
X243935Y211585D01*
X243935Y212791D02*
X268065Y212791D01*
X268065Y213997D02*
X243935Y213997D01*
X243935Y215203D02*
X268065Y215203D01*
X268065Y216409D02*
X243935Y216409D01*
X243935Y217615D02*
X268065Y217615D01*
X268065Y218821D02*
X243935Y218821D01*
X243935Y220027D02*
X268065Y220027D01*
X268065Y221233D02*
X243935Y221233D01*
X243935Y222439D02*
X268065Y222439D01*
X268065Y223645D02*
X243935Y223645D01*
X243935Y224851D02*
X268065Y224851D01*
X268065Y226057D02*
X243935Y226057D01*
X243935Y227263D02*
X268065Y227263D01*
X268065Y228469D02*
X243935Y228469D01*
X243935Y229675D02*
X268065Y229675D01*
D26*
X249650Y223970D03*
X262350Y223970D03*
X249650Y211270D03*
X262350Y211270D03*
X256000Y217620D03*
D27*
X26900Y265570D03*
X26900Y242570D03*
X26900Y219570D03*
D28*
X87400Y242570D03*
D10*
X24130Y368300D02*
X24130Y383540D01*
X49530Y383540D02*
X49530Y368300D01*
X74930Y368300D02*
X74930Y383540D01*
X24130Y401320D02*
X24130Y416560D01*
X49530Y416560D02*
X49530Y401320D01*
X74930Y401320D02*
X74930Y416560D01*
X24130Y350520D02*
X24130Y335280D01*
X49530Y335280D02*
X49530Y350520D01*
X74930Y350520D02*
X74930Y335280D01*
X24600Y317620D02*
X24600Y302380D01*
X50000Y302380D02*
X50000Y317620D01*
X75400Y317620D02*
X75400Y302380D01*
D29*
X125000Y335500D03*
X125000Y294500D03*
X141000Y294500D03*
X141000Y335500D03*
X125000Y265500D03*
X125000Y224500D03*
X141000Y224500D03*
X141000Y265500D03*
D30*
X20000Y510000D03*
X20000Y492000D03*
X20000Y474000D03*
X20000Y456000D03*
X20000Y438000D03*
D31*
X198882Y301752D02*
X198882Y277368D01*
X198800Y277300D01*
X198882Y301752D02*
X198800Y302400D01*
X198120Y306324D02*
X174498Y329946D01*
X198120Y306324D02*
X198120Y302514D01*
X174498Y329946D02*
X173800Y330400D01*
X198120Y302514D02*
X198800Y302400D01*
X198120Y225552D02*
X198120Y221742D01*
X192405Y231267D02*
X174498Y249174D01*
X192405Y231267D02*
X198120Y225552D01*
X198120Y221742D02*
X198800Y221300D01*
X174498Y249174D02*
X173800Y249300D01*
X207264Y198882D02*
X207264Y191262D01*
X200406Y184404D01*
X191262Y230124D02*
X192405Y231267D01*
X207650Y199150D02*
X207264Y198882D01*
X198882Y243840D02*
X198882Y276606D01*
X198800Y277300D01*
X225552Y19050D02*
X240500Y19050D01*
X225552Y19050D02*
X157734Y86868D01*
X157734Y92964D01*
X157500Y93150D01*
X200406Y136398D02*
X200406Y144780D01*
X200406Y136398D02*
X157734Y93726D01*
X157500Y93150D01*
X60500Y19050D02*
X50292Y19050D01*
X37338Y32004D01*
X16002Y32004D01*
X9144Y38862D01*
X9144Y75438D01*
X27432Y93726D01*
X28100Y94300D01*
X26670Y260604D02*
X26670Y265176D01*
X26670Y260604D02*
X9906Y243840D01*
X9906Y148590D01*
X28194Y130302D01*
X26670Y265176D02*
X26900Y265570D01*
X28194Y130302D02*
X28730Y129840D01*
X176784Y478536D02*
X183642Y478536D01*
X176784Y478536D02*
X176250Y478425D01*
X183642Y478536D02*
X184375Y477800D01*
X166116Y478536D02*
X166116Y493776D01*
X168402Y496062D01*
X166116Y478536D02*
X166250Y478425D01*
X168402Y496062D02*
X168750Y496600D01*
X198882Y381762D02*
X198882Y358902D01*
X198882Y381762D02*
X199644Y382524D01*
X198882Y358902D02*
X198800Y358400D01*
X185166Y392524D02*
X185166Y393700D01*
X124968Y335280D02*
X124968Y294894D01*
X125000Y294500D01*
X124968Y335280D02*
X125000Y335500D01*
X160782Y432816D02*
X160782Y448818D01*
X160401Y449199D02*
X156972Y452628D01*
X160401Y449199D02*
X160782Y448818D01*
X156972Y452628D02*
X153162Y452628D01*
X160782Y432816D02*
X161250Y432175D01*
X153162Y452628D02*
X153125Y452800D01*
X163830Y452628D02*
X183642Y452628D01*
X163830Y452628D02*
X160401Y449199D01*
X183642Y452628D02*
X184375Y452800D01*
X124968Y237744D02*
X124968Y224790D01*
X125000Y224500D01*
X124968Y265938D02*
X118110Y265938D01*
X113538Y270510D01*
X124968Y265938D02*
X125000Y265500D01*
X184404Y452628D02*
X208788Y452628D01*
X218694Y442722D01*
X224790Y442722D01*
X225552Y441960D01*
X225552Y438150D01*
X223266Y435864D01*
X223266Y431292D01*
X226314Y431292D01*
X227838Y432816D01*
X227838Y434340D01*
X224028Y434340D01*
X224028Y432054D01*
X226314Y432054D01*
X227076Y432816D01*
X227838Y432054D01*
X227838Y431292D01*
X184404Y452628D02*
X184375Y452800D01*
X227838Y431292D02*
X227680Y430159D01*
X124206Y294894D02*
X114300Y284988D01*
X124206Y294894D02*
X125000Y294500D01*
X220218Y441198D02*
X220160Y441330D01*
X220218Y441198D02*
X220218Y440060D01*
X157734Y86106D02*
X132588Y86106D01*
X65532Y19050D01*
X60500Y19050D01*
X157734Y86106D02*
X157500Y93150D01*
D32*
X200406Y184404D03*
X191262Y230124D03*
X198882Y243840D03*
X200406Y144780D03*
X199644Y382524D03*
X185166Y392524D03*
X124968Y237744D03*
X113538Y270510D03*
X114300Y284988D03*
D31*
X125000Y335500D02*
X117500Y343000D01*
X111000Y343000D01*
X111000Y288288D01*
X114300Y284988D01*
D33*
X183000Y303000D03*
D31*
X183600Y302400D02*
X198800Y302400D01*
X183600Y302400D02*
X183000Y303000D01*
D33*
X199000Y347000D03*
D31*
X199000Y358784D01*
X198882Y358902D01*
D33*
X142000Y347000D03*
D31*
X125000Y346000D02*
X125000Y335500D01*
X125000Y346000D02*
X126000Y347000D01*
X142000Y347000D01*
X140970Y335280D02*
X140970Y294894D01*
X141000Y294500D01*
X140970Y335280D02*
X141000Y335500D01*
X98298Y276606D02*
X98100Y276600D01*
X140208Y294894D02*
X141000Y294500D01*
X235458Y44958D02*
X240030Y44958D01*
X240500Y44450D01*
X140000Y277500D02*
X100000Y277500D01*
X140000Y277500D02*
X140000Y292500D01*
X100000Y277500D02*
X98100Y276600D01*
X140000Y292500D02*
X141000Y294500D01*
D32*
X140000Y277500D03*
D31*
X227500Y52500D02*
X235000Y45000D01*
X227500Y52500D02*
X227500Y202500D01*
X230000Y202500D01*
X235000Y45000D02*
X240500Y44450D01*
D32*
X230000Y202500D03*
D31*
X98100Y293600D02*
X98298Y294132D01*
X173736Y345948D02*
X173800Y346400D01*
X173736Y265938D02*
X173800Y265300D01*
X240500Y31750D02*
X240030Y31242D01*
X98100Y293600D02*
X98100Y353100D01*
X100000Y355000D01*
X160000Y345000D02*
X172500Y345000D01*
X160000Y345000D02*
X157000Y345000D01*
X160000Y355000D02*
X100000Y355000D01*
X172500Y345000D02*
X173800Y346400D01*
X157000Y283000D02*
X172500Y267500D01*
X160000Y345000D02*
X160000Y355000D01*
X157000Y345000D02*
X157000Y283000D01*
X172500Y267500D02*
X173800Y265300D01*
X222500Y32500D02*
X240000Y32500D01*
X222500Y32500D02*
X222500Y210000D01*
X187500Y245000D01*
X187500Y252500D01*
X175000Y265000D01*
X240000Y32500D02*
X240500Y31750D01*
X175000Y265000D02*
X173800Y265300D01*
D32*
X222500Y32500D03*
D31*
X60500Y57150D02*
X55602Y52252D01*
X51212Y52252D01*
X42460Y43500D02*
X28100Y43500D01*
X42460Y43500D02*
X51212Y52252D01*
X60500Y69850D02*
X29050Y69850D01*
X28100Y68900D01*
X140970Y224790D02*
X140970Y265176D01*
X140970Y224790D02*
X141000Y224500D01*
X140970Y265176D02*
X141000Y265500D01*
X62484Y184404D02*
X60960Y184404D01*
X60500Y184150D01*
X140208Y224790D02*
X141000Y224500D01*
X140000Y262500D02*
X62500Y185000D01*
X140000Y262500D02*
X140000Y265000D01*
X62500Y185000D02*
X60500Y184150D01*
X140000Y265000D02*
X141000Y265500D01*
X173800Y233300D02*
X174498Y233172D01*
X60960Y159258D02*
X60500Y158750D01*
X175000Y232500D02*
X196250Y211250D01*
X215000Y211250D01*
X215000Y210000D01*
X216250Y208750D01*
X216250Y190000D01*
X186250Y160000D01*
X62500Y160000D01*
X173800Y233300D02*
X175000Y232500D01*
X62500Y160000D02*
X60500Y158750D01*
X255380Y264300D02*
X256000Y264920D01*
X222300Y345400D02*
X222500Y345600D01*
D34*
X168750Y531500D02*
X156050Y544200D01*
X168750Y531500D02*
X168750Y515600D01*
X176250Y438910D02*
X176250Y432175D01*
X176250Y438910D02*
X172560Y442600D01*
X171290Y442600D01*
D35*
X171290Y442600D03*
D34*
X130650Y535920D02*
X130650Y544200D01*
X130650Y535920D02*
X149700Y516870D01*
X184375Y432800D02*
X189980Y432800D01*
D35*
X197960Y424820D03*
D34*
X189980Y432800D01*
X184375Y457800D02*
X197920Y457800D01*
X199230Y459110D01*
X199230Y461650D01*
X199890Y485780D02*
X199230Y486440D01*
X199230Y461650D01*
X184375Y472800D02*
X178630Y472800D01*
X171290Y465460D01*
X171290Y461650D01*
D35*
X171290Y461650D03*
D34*
X172560Y485780D02*
X177640Y485780D01*
X172560Y485780D02*
X171250Y484470D01*
X171250Y478425D01*
X177640Y485780D02*
X181450Y489590D01*
X181450Y497820D01*
X198620Y512450D02*
X198620Y535970D01*
X206850Y544200D01*
X196080Y512450D02*
X181450Y497820D01*
X196080Y512450D02*
X198620Y512450D01*
X153125Y477800D02*
X146250Y477800D01*
X143350Y480700D01*
X143350Y483240D01*
D35*
X143350Y483240D03*
X233520Y525150D03*
D34*
X254450Y468000D02*
X259530Y462920D01*
X254450Y510570D02*
X248760Y516260D01*
X242410Y516260D01*
X233520Y525150D01*
X254508Y509778D02*
X254508Y468630D01*
D31*
X259530Y462920D01*
X254508Y509778D02*
X254450Y510570D01*
X131826Y198882D02*
X131826Y195072D01*
X131826Y198882D02*
X131450Y199150D01*
X132500Y195000D02*
X132500Y185000D01*
X210000Y367500D02*
X267500Y425000D01*
X267500Y455000D01*
X260000Y462500D01*
X131450Y199150D02*
X132500Y195000D01*
X260000Y462500D02*
X259530Y462920D01*
D32*
X132500Y185000D03*
X210000Y367500D03*
D34*
X161250Y470420D02*
X161250Y478425D01*
X161250Y470420D02*
X162400Y469270D01*
D35*
X162400Y469270D03*
X241140Y447680D03*
D34*
X241140Y433100D01*
X240480Y432440D01*
X237990Y432440D01*
X232910Y427360D01*
D31*
X232410Y426720D02*
X192845Y387155D01*
X192024Y386334D01*
X144780Y199644D02*
X144150Y199150D01*
X232410Y426720D02*
X237990Y432440D01*
X150000Y205000D02*
X144150Y199150D01*
X150000Y205000D02*
X150000Y325000D01*
X185000Y360000D02*
X192500Y367500D01*
X192500Y387500D01*
X192845Y387155D01*
D32*
X150000Y325000D03*
X185000Y360000D03*
D34*
X153125Y442800D02*
X140680Y442800D01*
X126400Y440280D02*
X121100Y434980D01*
X138160Y440280D02*
X140680Y442800D01*
X138160Y440280D02*
X126400Y440280D01*
X126400Y453270D02*
X123860Y455810D01*
X126400Y453270D02*
X126400Y440280D01*
X143230Y447800D02*
X153125Y447800D01*
X143230Y447800D02*
X134460Y456570D01*
X134460Y470540D01*
X123860Y481140D01*
X116020Y495650D02*
X116020Y509910D01*
X116020Y495650D02*
X123860Y487810D01*
X123860Y481140D01*
X184375Y447800D02*
X194690Y447800D01*
X201160Y441330D01*
D36*
X28730Y217740D02*
X28730Y155240D01*
D31*
X28730Y217740D02*
X26900Y219570D01*
D34*
X166250Y419160D02*
X166250Y432175D01*
X171250Y432175D02*
X171250Y424160D01*
X153125Y437800D02*
X144900Y437800D01*
X140810Y433710D01*
X140810Y417540D01*
X255720Y431170D02*
X256990Y432440D01*
X223810Y480860D02*
X218890Y485780D01*
X240530Y475780D02*
X240530Y462920D01*
X140810Y417540D02*
X139810Y416540D01*
X140810Y417540D02*
X158590Y417540D01*
X159860Y416270D01*
X166250Y419160D02*
X171250Y424160D01*
X166250Y419160D02*
X163360Y416270D01*
X159860Y416270D01*
X251910Y427360D02*
X256990Y432440D01*
X240530Y459720D02*
X240530Y462920D01*
X240530Y459720D02*
X256990Y443260D01*
X256990Y432440D01*
X240530Y475780D02*
X235450Y480860D01*
X223810Y480860D01*
D31*
X139446Y415290D02*
X139446Y413766D01*
X87630Y361950D01*
X87630Y243078D01*
X139446Y415290D02*
X140810Y417540D01*
X87630Y243078D02*
X87400Y242570D01*
X240792Y417576D02*
X250698Y427482D01*
X204978Y417576D02*
X178308Y417576D01*
X172212Y423672D01*
X250698Y427482D02*
X256990Y432440D01*
X172212Y423672D02*
X171250Y424160D01*
D32*
X240792Y417576D03*
X204978Y417576D03*
D31*
X57500Y150000D02*
X60000Y147500D01*
X57500Y150000D02*
X52500Y150000D01*
X47500Y155000D01*
X47500Y290000D01*
X45000Y290000D01*
X25000Y310000D01*
X60000Y147500D02*
X60500Y146050D01*
X25000Y310000D02*
X24600Y310000D01*
X105000Y197500D02*
X105000Y185000D01*
X105000Y197500D02*
X106050Y199150D01*
D32*
X105000Y185000D03*
D31*
X242500Y172500D02*
X245000Y175000D01*
X242500Y172500D02*
X240500Y171450D01*
X245000Y175000D02*
X255000Y175000D01*
X245000Y175000D02*
X240500Y171450D01*
D32*
X255000Y175000D03*
D31*
X192500Y177500D02*
X192500Y197500D01*
X192500Y177500D02*
X127500Y177500D01*
X192500Y197500D02*
X194950Y199150D01*
D32*
X127500Y177500D03*
D31*
X174498Y313944D02*
X173800Y314400D01*
X172500Y312500D02*
X172500Y277500D01*
X140000Y152500D02*
X72500Y85000D01*
X62500Y85000D01*
X172500Y312500D02*
X173800Y314400D01*
X62500Y85000D02*
X60500Y82550D01*
D32*
X172500Y277500D03*
X140000Y152500D03*
D31*
X242500Y147500D02*
X245000Y150000D01*
X270000Y150000D01*
X127500Y412500D02*
X117500Y422500D01*
X95000Y422500D01*
X85000Y432500D01*
X85000Y475000D01*
X42500Y475000D01*
X27500Y490000D01*
X20000Y490000D01*
X242500Y147500D02*
X240500Y146050D01*
X20000Y490000D02*
X20000Y492000D01*
D32*
X270000Y150000D03*
X127500Y412500D03*
D31*
X245000Y162500D02*
X242500Y160000D01*
X245000Y162500D02*
X252500Y162500D01*
X272500Y182500D01*
X272500Y285000D01*
X230000Y285000D01*
X187500Y327500D01*
X187500Y352500D01*
X170000Y352500D01*
X155000Y367500D01*
X102500Y367500D01*
X92500Y377500D02*
X92500Y420000D01*
X80000Y432500D01*
X80000Y470000D01*
X22500Y470000D01*
X20000Y472500D01*
X240500Y158750D02*
X242500Y160000D01*
X20000Y472500D02*
X20000Y474000D01*
D32*
X102500Y367500D03*
X92500Y377500D03*
D31*
X245000Y137500D02*
X242500Y135000D01*
X245000Y137500D02*
X255000Y137500D01*
X95000Y450000D02*
X95000Y497500D01*
X80000Y497500D01*
X67500Y510000D01*
X20000Y510000D01*
X242500Y135000D02*
X240500Y133350D01*
D32*
X255000Y137500D03*
X95000Y450000D03*
D31*
X242500Y107500D02*
X245000Y105000D01*
X255000Y105000D01*
X65000Y207500D02*
X65000Y295000D01*
X62500Y297500D01*
X62500Y422500D01*
X70000Y430000D01*
X70000Y442500D01*
X40000Y442500D01*
X27500Y455000D01*
X20000Y455000D01*
X240500Y107950D02*
X242500Y107500D01*
X20000Y455000D02*
X20000Y456000D01*
D32*
X255000Y105000D03*
X65000Y207500D03*
D31*
X242500Y120000D02*
X247500Y115000D01*
X255000Y115000D01*
X12500Y257500D02*
X12500Y437500D01*
X20000Y437500D01*
X240500Y120650D02*
X242500Y120000D01*
X20000Y437500D02*
X20000Y438000D01*
D32*
X255000Y115000D03*
X12500Y257500D03*
M02*
