G04 EAGLE Gerber RS-274X export*
G75*
%MOMM*%
%FSLAX34Y34*%
%LPD*%
%INSilkscreen Top*%
%IPPOS*%
%AMOC8*
5,1,8,0,0,1.08239X$1,22.5*%
G01*
%ADD10C,0.152400*%
%ADD11C,0.101600*%
%ADD12C,0.076200*%
%ADD13C,0.050800*%
%ADD14C,0.127000*%
%ADD15R,0.522031X4.471100*%
%ADD16R,3.009109X0.483500*%
%ADD17R,0.521681X2.452600*%
%ADD18R,3.008291X0.481900*%
%ADD19R,0.510231X2.459200*%
%ADD20R,3.010119X0.451200*%
%ADD21R,0.502034X2.451200*%
%ADD22R,3.002088X0.449900*%
%ADD23R,0.491200X2.447200*%
%ADD24R,5.488431X0.486300*%
%ADD25R,0.479300X4.970400*%
%ADD26R,0.486041X4.968900*%
%ADD27R,0.481131X0.474391*%
%ADD28R,0.491909X0.482931*%
%ADD29R,0.520331X0.474600*%
%ADD30R,0.492059X1.446400*%
%ADD31C,0.200000*%
%ADD32C,0.508000*%
%ADD33C,0.350000*%
%ADD34C,0.304800*%
%ADD35C,0.203200*%
%ADD36R,0.200000X1.000000*%

G36*
X209975Y458643D02*
X209975Y458643D01*
X210046Y458641D01*
X210116Y458660D01*
X210187Y458668D01*
X210242Y458693D01*
X210321Y458713D01*
X210424Y458774D01*
X210493Y458805D01*
X213493Y460805D01*
X213580Y460882D01*
X213670Y460955D01*
X213685Y460977D01*
X213705Y460995D01*
X213767Y461092D01*
X213834Y461187D01*
X213842Y461213D01*
X213857Y461235D01*
X213889Y461346D01*
X213927Y461456D01*
X213928Y461483D01*
X213935Y461508D01*
X213935Y461624D01*
X213941Y461740D01*
X213935Y461766D01*
X213935Y461793D01*
X213903Y461904D01*
X213877Y462017D01*
X213864Y462040D01*
X213856Y462066D01*
X213794Y462164D01*
X213738Y462265D01*
X213720Y462281D01*
X213705Y462306D01*
X213497Y462491D01*
X213493Y462495D01*
X210493Y464495D01*
X210429Y464526D01*
X210369Y464566D01*
X210301Y464587D01*
X210237Y464618D01*
X210166Y464630D01*
X210098Y464651D01*
X210027Y464653D01*
X209957Y464665D01*
X209885Y464657D01*
X209814Y464659D01*
X209745Y464641D01*
X209674Y464632D01*
X209608Y464605D01*
X209539Y464587D01*
X209478Y464550D01*
X209412Y464523D01*
X209356Y464478D01*
X209294Y464442D01*
X209245Y464390D01*
X209190Y464345D01*
X209149Y464287D01*
X209100Y464234D01*
X209067Y464171D01*
X209026Y464113D01*
X209003Y464045D01*
X208970Y463981D01*
X208960Y463922D01*
X208933Y463844D01*
X208927Y463725D01*
X208915Y463650D01*
X208915Y459650D01*
X208925Y459579D01*
X208925Y459507D01*
X208945Y459439D01*
X208955Y459369D01*
X208984Y459303D01*
X209004Y459234D01*
X209042Y459174D01*
X209071Y459109D01*
X209117Y459054D01*
X209155Y458994D01*
X209209Y458946D01*
X209255Y458892D01*
X209314Y458852D01*
X209368Y458805D01*
X209432Y458774D01*
X209491Y458735D01*
X209560Y458713D01*
X209624Y458682D01*
X209694Y458670D01*
X209762Y458649D01*
X209834Y458647D01*
X209905Y458635D01*
X209975Y458643D01*
G37*
D10*
X46366Y546521D02*
X49470Y546521D01*
X49470Y546520D02*
X49581Y546518D01*
X49691Y546512D01*
X49802Y546502D01*
X49912Y546488D01*
X50021Y546471D01*
X50130Y546449D01*
X50238Y546424D01*
X50344Y546394D01*
X50450Y546361D01*
X50555Y546324D01*
X50658Y546284D01*
X50759Y546239D01*
X50859Y546192D01*
X50958Y546140D01*
X51054Y546085D01*
X51148Y546027D01*
X51240Y545966D01*
X51330Y545901D01*
X51418Y545833D01*
X51503Y545762D01*
X51585Y545688D01*
X51665Y545611D01*
X51742Y545531D01*
X51816Y545449D01*
X51887Y545364D01*
X51955Y545276D01*
X52020Y545186D01*
X52081Y545094D01*
X52139Y545000D01*
X52194Y544904D01*
X52246Y544805D01*
X52293Y544705D01*
X52338Y544604D01*
X52378Y544501D01*
X52415Y544396D01*
X52448Y544290D01*
X52478Y544184D01*
X52503Y544076D01*
X52525Y543967D01*
X52542Y543858D01*
X52556Y543748D01*
X52566Y543637D01*
X52572Y543527D01*
X52574Y543416D01*
X52572Y543305D01*
X52566Y543195D01*
X52556Y543084D01*
X52542Y542974D01*
X52525Y542865D01*
X52503Y542756D01*
X52478Y542648D01*
X52448Y542542D01*
X52415Y542436D01*
X52378Y542331D01*
X52338Y542228D01*
X52293Y542127D01*
X52246Y542027D01*
X52194Y541928D01*
X52139Y541832D01*
X52081Y541738D01*
X52020Y541646D01*
X51955Y541556D01*
X51887Y541468D01*
X51816Y541383D01*
X51742Y541301D01*
X51665Y541221D01*
X51585Y541144D01*
X51503Y541070D01*
X51418Y540999D01*
X51330Y540931D01*
X51240Y540866D01*
X51148Y540805D01*
X51054Y540747D01*
X50958Y540692D01*
X50859Y540640D01*
X50759Y540593D01*
X50658Y540548D01*
X50555Y540508D01*
X50450Y540471D01*
X50344Y540438D01*
X50238Y540408D01*
X50130Y540383D01*
X50021Y540361D01*
X49912Y540344D01*
X49802Y540330D01*
X49691Y540320D01*
X49581Y540314D01*
X49470Y540312D01*
X46366Y540312D01*
X46366Y551488D01*
X49470Y551488D01*
X49569Y551486D01*
X49667Y551480D01*
X49766Y551470D01*
X49863Y551457D01*
X49961Y551439D01*
X50057Y551418D01*
X50153Y551392D01*
X50247Y551363D01*
X50340Y551331D01*
X50432Y551294D01*
X50522Y551254D01*
X50611Y551210D01*
X50698Y551163D01*
X50783Y551113D01*
X50865Y551059D01*
X50946Y551002D01*
X51024Y550942D01*
X51100Y550878D01*
X51173Y550812D01*
X51244Y550743D01*
X51312Y550671D01*
X51376Y550596D01*
X51438Y550519D01*
X51497Y550440D01*
X51552Y550358D01*
X51605Y550274D01*
X51653Y550189D01*
X51699Y550101D01*
X51741Y550011D01*
X51779Y549920D01*
X51813Y549828D01*
X51844Y549734D01*
X51871Y549639D01*
X51895Y549543D01*
X51914Y549446D01*
X51930Y549349D01*
X51942Y549251D01*
X51950Y549152D01*
X51954Y549053D01*
X51954Y548955D01*
X51950Y548856D01*
X51942Y548757D01*
X51930Y548659D01*
X51914Y548562D01*
X51895Y548465D01*
X51871Y548369D01*
X51844Y548274D01*
X51813Y548180D01*
X51779Y548088D01*
X51741Y547997D01*
X51699Y547907D01*
X51653Y547819D01*
X51605Y547734D01*
X51552Y547650D01*
X51497Y547568D01*
X51438Y547489D01*
X51376Y547412D01*
X51312Y547337D01*
X51244Y547265D01*
X51173Y547196D01*
X51100Y547130D01*
X51024Y547066D01*
X50946Y547006D01*
X50865Y546949D01*
X50783Y546895D01*
X50698Y546845D01*
X50611Y546798D01*
X50522Y546754D01*
X50432Y546714D01*
X50340Y546677D01*
X50247Y546645D01*
X50153Y546616D01*
X50057Y546590D01*
X49961Y546569D01*
X49863Y546551D01*
X49766Y546538D01*
X49667Y546528D01*
X49569Y546522D01*
X49470Y546520D01*
X57584Y551488D02*
X57584Y540312D01*
X63793Y540312D02*
X57584Y551488D01*
X63793Y551488D02*
X63793Y540312D01*
X69395Y543416D02*
X69395Y548384D01*
X69396Y548384D02*
X69398Y548495D01*
X69404Y548605D01*
X69414Y548716D01*
X69428Y548826D01*
X69445Y548935D01*
X69467Y549044D01*
X69492Y549152D01*
X69522Y549258D01*
X69555Y549364D01*
X69592Y549469D01*
X69632Y549572D01*
X69677Y549673D01*
X69724Y549773D01*
X69776Y549872D01*
X69831Y549968D01*
X69889Y550062D01*
X69950Y550154D01*
X70015Y550244D01*
X70083Y550332D01*
X70154Y550417D01*
X70228Y550499D01*
X70305Y550579D01*
X70385Y550656D01*
X70467Y550730D01*
X70552Y550801D01*
X70640Y550869D01*
X70730Y550934D01*
X70822Y550995D01*
X70916Y551053D01*
X71012Y551108D01*
X71111Y551160D01*
X71211Y551207D01*
X71312Y551252D01*
X71415Y551292D01*
X71520Y551329D01*
X71626Y551362D01*
X71732Y551392D01*
X71840Y551417D01*
X71949Y551439D01*
X72058Y551456D01*
X72168Y551470D01*
X72279Y551480D01*
X72389Y551486D01*
X72500Y551488D01*
X72611Y551486D01*
X72721Y551480D01*
X72832Y551470D01*
X72942Y551456D01*
X73051Y551439D01*
X73160Y551417D01*
X73268Y551392D01*
X73374Y551362D01*
X73480Y551329D01*
X73585Y551292D01*
X73688Y551252D01*
X73789Y551207D01*
X73889Y551160D01*
X73988Y551108D01*
X74084Y551053D01*
X74178Y550995D01*
X74270Y550934D01*
X74360Y550869D01*
X74448Y550801D01*
X74533Y550730D01*
X74615Y550656D01*
X74695Y550579D01*
X74772Y550499D01*
X74846Y550417D01*
X74917Y550332D01*
X74985Y550244D01*
X75050Y550154D01*
X75111Y550062D01*
X75169Y549968D01*
X75224Y549872D01*
X75276Y549773D01*
X75323Y549673D01*
X75368Y549572D01*
X75408Y549469D01*
X75445Y549364D01*
X75478Y549258D01*
X75508Y549152D01*
X75533Y549044D01*
X75555Y548935D01*
X75572Y548826D01*
X75586Y548716D01*
X75596Y548605D01*
X75602Y548495D01*
X75604Y548384D01*
X75604Y543416D01*
X75602Y543305D01*
X75596Y543195D01*
X75586Y543084D01*
X75572Y542974D01*
X75555Y542865D01*
X75533Y542756D01*
X75508Y542648D01*
X75478Y542542D01*
X75445Y542436D01*
X75408Y542331D01*
X75368Y542228D01*
X75323Y542127D01*
X75276Y542027D01*
X75224Y541928D01*
X75169Y541832D01*
X75111Y541738D01*
X75050Y541646D01*
X74985Y541556D01*
X74917Y541468D01*
X74846Y541383D01*
X74772Y541301D01*
X74695Y541221D01*
X74615Y541144D01*
X74533Y541070D01*
X74448Y540999D01*
X74360Y540931D01*
X74270Y540866D01*
X74178Y540805D01*
X74084Y540747D01*
X73988Y540692D01*
X73889Y540640D01*
X73789Y540593D01*
X73688Y540548D01*
X73585Y540508D01*
X73480Y540471D01*
X73374Y540438D01*
X73268Y540408D01*
X73160Y540383D01*
X73051Y540361D01*
X72942Y540344D01*
X72832Y540330D01*
X72721Y540320D01*
X72611Y540314D01*
X72500Y540312D01*
X72389Y540314D01*
X72279Y540320D01*
X72168Y540330D01*
X72058Y540344D01*
X71949Y540361D01*
X71840Y540383D01*
X71732Y540408D01*
X71626Y540438D01*
X71520Y540471D01*
X71415Y540508D01*
X71312Y540548D01*
X71211Y540593D01*
X71111Y540640D01*
X71012Y540692D01*
X70916Y540747D01*
X70822Y540805D01*
X70730Y540866D01*
X70640Y540931D01*
X70552Y540999D01*
X70467Y541070D01*
X70385Y541144D01*
X70305Y541221D01*
X70228Y541301D01*
X70154Y541383D01*
X70083Y541468D01*
X70015Y541556D01*
X69950Y541646D01*
X69889Y541738D01*
X69831Y541832D01*
X69776Y541928D01*
X69724Y542027D01*
X69677Y542127D01*
X69632Y542228D01*
X69592Y542331D01*
X69555Y542436D01*
X69522Y542542D01*
X69492Y542648D01*
X69467Y542756D01*
X69445Y542865D01*
X69428Y542974D01*
X69414Y543084D01*
X69404Y543195D01*
X69398Y543305D01*
X69396Y543416D01*
X80825Y545900D02*
X80828Y546120D01*
X80835Y546340D01*
X80849Y546559D01*
X80867Y546778D01*
X80891Y546997D01*
X80919Y547215D01*
X80953Y547432D01*
X80992Y547648D01*
X81037Y547864D01*
X81086Y548078D01*
X81141Y548291D01*
X81200Y548503D01*
X81265Y548713D01*
X81335Y548921D01*
X81409Y549128D01*
X81489Y549333D01*
X81573Y549536D01*
X81662Y549737D01*
X81756Y549936D01*
X81757Y549936D02*
X81790Y550025D01*
X81826Y550113D01*
X81866Y550199D01*
X81909Y550284D01*
X81956Y550366D01*
X82007Y550447D01*
X82060Y550525D01*
X82117Y550601D01*
X82177Y550675D01*
X82240Y550746D01*
X82305Y550815D01*
X82374Y550881D01*
X82445Y550943D01*
X82519Y551003D01*
X82595Y551060D01*
X82673Y551114D01*
X82754Y551164D01*
X82836Y551211D01*
X82921Y551254D01*
X83007Y551294D01*
X83095Y551331D01*
X83184Y551363D01*
X83274Y551392D01*
X83366Y551418D01*
X83458Y551439D01*
X83552Y551457D01*
X83646Y551470D01*
X83740Y551480D01*
X83835Y551486D01*
X83930Y551488D01*
X84025Y551486D01*
X84120Y551480D01*
X84214Y551470D01*
X84308Y551457D01*
X84402Y551439D01*
X84494Y551418D01*
X84586Y551392D01*
X84676Y551363D01*
X84765Y551331D01*
X84853Y551294D01*
X84939Y551254D01*
X85024Y551211D01*
X85106Y551164D01*
X85187Y551114D01*
X85265Y551060D01*
X85341Y551003D01*
X85415Y550943D01*
X85486Y550881D01*
X85555Y550815D01*
X85620Y550746D01*
X85683Y550675D01*
X85743Y550601D01*
X85800Y550525D01*
X85853Y550447D01*
X85904Y550366D01*
X85951Y550283D01*
X85994Y550199D01*
X86034Y550113D01*
X86070Y550025D01*
X86103Y549936D01*
X86197Y549737D01*
X86286Y549536D01*
X86370Y549333D01*
X86450Y549128D01*
X86524Y548921D01*
X86594Y548713D01*
X86659Y548503D01*
X86718Y548291D01*
X86773Y548078D01*
X86822Y547864D01*
X86867Y547648D01*
X86906Y547432D01*
X86940Y547215D01*
X86968Y546997D01*
X86992Y546778D01*
X87010Y546559D01*
X87024Y546340D01*
X87031Y546120D01*
X87034Y545900D01*
X80825Y545900D02*
X80828Y545680D01*
X80835Y545460D01*
X80849Y545241D01*
X80867Y545022D01*
X80891Y544803D01*
X80919Y544585D01*
X80953Y544368D01*
X80992Y544152D01*
X81037Y543936D01*
X81086Y543722D01*
X81141Y543509D01*
X81200Y543298D01*
X81265Y543087D01*
X81335Y542879D01*
X81409Y542672D01*
X81489Y542467D01*
X81573Y542264D01*
X81662Y542063D01*
X81756Y541864D01*
X81757Y541864D02*
X81790Y541775D01*
X81826Y541687D01*
X81866Y541601D01*
X81909Y541516D01*
X81956Y541434D01*
X82007Y541353D01*
X82060Y541275D01*
X82117Y541199D01*
X82177Y541125D01*
X82240Y541054D01*
X82305Y540985D01*
X82374Y540919D01*
X82445Y540857D01*
X82519Y540797D01*
X82595Y540740D01*
X82673Y540686D01*
X82754Y540636D01*
X82836Y540589D01*
X82921Y540546D01*
X83007Y540506D01*
X83095Y540469D01*
X83184Y540437D01*
X83274Y540408D01*
X83366Y540382D01*
X83458Y540361D01*
X83552Y540343D01*
X83646Y540330D01*
X83740Y540320D01*
X83835Y540314D01*
X83930Y540312D01*
X86103Y541864D02*
X86197Y542063D01*
X86286Y542264D01*
X86370Y542467D01*
X86450Y542672D01*
X86524Y542879D01*
X86594Y543087D01*
X86659Y543297D01*
X86718Y543509D01*
X86773Y543722D01*
X86822Y543936D01*
X86867Y544152D01*
X86906Y544368D01*
X86940Y544585D01*
X86968Y544803D01*
X86992Y545022D01*
X87010Y545241D01*
X87024Y545460D01*
X87031Y545680D01*
X87034Y545900D01*
X86103Y541864D02*
X86070Y541775D01*
X86034Y541687D01*
X85994Y541601D01*
X85951Y541516D01*
X85904Y541434D01*
X85853Y541353D01*
X85800Y541275D01*
X85743Y541199D01*
X85683Y541125D01*
X85620Y541054D01*
X85555Y540985D01*
X85486Y540919D01*
X85415Y540857D01*
X85341Y540797D01*
X85265Y540740D01*
X85187Y540686D01*
X85106Y540636D01*
X85024Y540589D01*
X84939Y540546D01*
X84853Y540506D01*
X84765Y540469D01*
X84676Y540437D01*
X84586Y540408D01*
X84494Y540382D01*
X84402Y540361D01*
X84308Y540343D01*
X84214Y540330D01*
X84120Y540320D01*
X84025Y540314D01*
X83930Y540312D01*
X81446Y542796D02*
X86413Y549004D01*
X92255Y540312D02*
X95981Y540312D01*
X96079Y540314D01*
X96176Y540320D01*
X96273Y540329D01*
X96370Y540343D01*
X96466Y540360D01*
X96561Y540381D01*
X96655Y540405D01*
X96749Y540434D01*
X96841Y540466D01*
X96932Y540501D01*
X97021Y540540D01*
X97109Y540583D01*
X97195Y540629D01*
X97279Y540678D01*
X97361Y540731D01*
X97441Y540786D01*
X97519Y540845D01*
X97594Y540907D01*
X97667Y540972D01*
X97737Y541040D01*
X97805Y541110D01*
X97870Y541183D01*
X97932Y541258D01*
X97991Y541336D01*
X98046Y541416D01*
X98099Y541498D01*
X98148Y541582D01*
X98194Y541668D01*
X98237Y541756D01*
X98276Y541845D01*
X98311Y541936D01*
X98343Y542028D01*
X98372Y542122D01*
X98396Y542216D01*
X98417Y542311D01*
X98434Y542407D01*
X98448Y542504D01*
X98457Y542601D01*
X98463Y542698D01*
X98465Y542796D01*
X98464Y542796D02*
X98464Y544037D01*
X98465Y544037D02*
X98463Y544135D01*
X98457Y544232D01*
X98448Y544329D01*
X98434Y544426D01*
X98417Y544522D01*
X98396Y544617D01*
X98372Y544711D01*
X98343Y544805D01*
X98311Y544897D01*
X98276Y544988D01*
X98237Y545077D01*
X98194Y545165D01*
X98148Y545251D01*
X98099Y545335D01*
X98046Y545417D01*
X97991Y545497D01*
X97932Y545575D01*
X97870Y545650D01*
X97805Y545723D01*
X97737Y545793D01*
X97667Y545861D01*
X97594Y545926D01*
X97519Y545988D01*
X97441Y546047D01*
X97361Y546102D01*
X97279Y546155D01*
X97195Y546204D01*
X97109Y546250D01*
X97021Y546293D01*
X96932Y546332D01*
X96841Y546367D01*
X96749Y546399D01*
X96655Y546428D01*
X96561Y546452D01*
X96466Y546473D01*
X96370Y546490D01*
X96273Y546504D01*
X96176Y546513D01*
X96079Y546519D01*
X95981Y546521D01*
X92255Y546521D01*
X92255Y551488D01*
X98464Y551488D01*
X103685Y540312D02*
X107411Y540312D01*
X107509Y540314D01*
X107606Y540320D01*
X107703Y540329D01*
X107800Y540343D01*
X107896Y540360D01*
X107991Y540381D01*
X108085Y540405D01*
X108179Y540434D01*
X108271Y540466D01*
X108362Y540501D01*
X108451Y540540D01*
X108539Y540583D01*
X108625Y540629D01*
X108709Y540678D01*
X108791Y540731D01*
X108871Y540786D01*
X108949Y540845D01*
X109024Y540907D01*
X109097Y540972D01*
X109167Y541040D01*
X109235Y541110D01*
X109300Y541183D01*
X109362Y541258D01*
X109421Y541336D01*
X109476Y541416D01*
X109529Y541498D01*
X109578Y541582D01*
X109624Y541668D01*
X109667Y541756D01*
X109706Y541845D01*
X109741Y541936D01*
X109773Y542028D01*
X109802Y542122D01*
X109826Y542216D01*
X109847Y542311D01*
X109864Y542407D01*
X109878Y542504D01*
X109887Y542601D01*
X109893Y542698D01*
X109895Y542796D01*
X109894Y542796D02*
X109894Y544037D01*
X109895Y544037D02*
X109893Y544135D01*
X109887Y544232D01*
X109878Y544329D01*
X109864Y544426D01*
X109847Y544522D01*
X109826Y544617D01*
X109802Y544711D01*
X109773Y544805D01*
X109741Y544897D01*
X109706Y544988D01*
X109667Y545077D01*
X109624Y545165D01*
X109578Y545251D01*
X109529Y545335D01*
X109476Y545417D01*
X109421Y545497D01*
X109362Y545575D01*
X109300Y545650D01*
X109235Y545723D01*
X109167Y545793D01*
X109097Y545861D01*
X109024Y545926D01*
X108949Y545988D01*
X108871Y546047D01*
X108791Y546102D01*
X108709Y546155D01*
X108625Y546204D01*
X108539Y546250D01*
X108451Y546293D01*
X108362Y546332D01*
X108271Y546367D01*
X108179Y546399D01*
X108085Y546428D01*
X107991Y546452D01*
X107896Y546473D01*
X107800Y546490D01*
X107703Y546504D01*
X107606Y546513D01*
X107509Y546519D01*
X107411Y546521D01*
X103685Y546521D01*
X103685Y551488D01*
X109894Y551488D01*
D11*
X175804Y532996D02*
X175804Y525884D01*
X176594Y525884D02*
X175013Y525884D01*
X175013Y532996D02*
X176594Y532996D01*
X179924Y532996D02*
X179924Y525884D01*
X183875Y525884D02*
X179924Y532996D01*
X183875Y532996D02*
X183875Y525884D01*
X188971Y525884D02*
X188971Y532996D01*
X186995Y532996D02*
X190947Y532996D01*
X121744Y532516D02*
X121744Y525404D01*
X121744Y532516D02*
X123720Y532516D01*
X123807Y532514D01*
X123895Y532508D01*
X123982Y532499D01*
X124068Y532485D01*
X124154Y532468D01*
X124238Y532447D01*
X124322Y532422D01*
X124405Y532393D01*
X124486Y532361D01*
X124566Y532326D01*
X124644Y532287D01*
X124721Y532244D01*
X124795Y532198D01*
X124867Y532149D01*
X124937Y532097D01*
X125005Y532041D01*
X125070Y531983D01*
X125133Y531922D01*
X125192Y531858D01*
X125249Y531791D01*
X125303Y531723D01*
X125354Y531651D01*
X125401Y531578D01*
X125446Y531503D01*
X125487Y531425D01*
X125524Y531346D01*
X125558Y531266D01*
X125588Y531184D01*
X125615Y531101D01*
X125638Y531016D01*
X125657Y530931D01*
X125672Y530845D01*
X125684Y530758D01*
X125692Y530671D01*
X125696Y530584D01*
X125696Y530496D01*
X125692Y530409D01*
X125684Y530322D01*
X125672Y530235D01*
X125657Y530149D01*
X125638Y530064D01*
X125615Y529979D01*
X125588Y529896D01*
X125558Y529814D01*
X125524Y529734D01*
X125487Y529655D01*
X125446Y529577D01*
X125401Y529502D01*
X125354Y529429D01*
X125303Y529357D01*
X125249Y529289D01*
X125192Y529222D01*
X125133Y529158D01*
X125070Y529097D01*
X125005Y529039D01*
X124937Y528983D01*
X124867Y528931D01*
X124795Y528882D01*
X124721Y528836D01*
X124644Y528793D01*
X124566Y528754D01*
X124486Y528719D01*
X124405Y528687D01*
X124322Y528658D01*
X124238Y528633D01*
X124154Y528612D01*
X124068Y528595D01*
X123982Y528581D01*
X123895Y528572D01*
X123807Y528566D01*
X123720Y528564D01*
X123720Y528565D02*
X121744Y528565D01*
X130804Y525404D02*
X130882Y525406D01*
X130959Y525412D01*
X131036Y525421D01*
X131112Y525434D01*
X131188Y525451D01*
X131263Y525472D01*
X131336Y525496D01*
X131409Y525524D01*
X131480Y525556D01*
X131549Y525591D01*
X131616Y525629D01*
X131682Y525670D01*
X131745Y525715D01*
X131806Y525763D01*
X131865Y525813D01*
X131921Y525867D01*
X131975Y525923D01*
X132025Y525982D01*
X132073Y526043D01*
X132118Y526106D01*
X132159Y526172D01*
X132197Y526239D01*
X132232Y526308D01*
X132264Y526379D01*
X132292Y526452D01*
X132316Y526525D01*
X132337Y526600D01*
X132354Y526676D01*
X132367Y526752D01*
X132376Y526829D01*
X132382Y526906D01*
X132384Y526984D01*
X130804Y525404D02*
X130689Y525406D01*
X130575Y525412D01*
X130461Y525422D01*
X130347Y525435D01*
X130234Y525453D01*
X130121Y525475D01*
X130009Y525500D01*
X129899Y525529D01*
X129789Y525562D01*
X129680Y525599D01*
X129573Y525639D01*
X129467Y525683D01*
X129363Y525731D01*
X129260Y525782D01*
X129160Y525837D01*
X129061Y525895D01*
X128964Y525957D01*
X128870Y526021D01*
X128777Y526089D01*
X128687Y526161D01*
X128600Y526235D01*
X128515Y526312D01*
X128433Y526392D01*
X128631Y530936D02*
X128633Y531014D01*
X128639Y531091D01*
X128648Y531168D01*
X128661Y531244D01*
X128678Y531320D01*
X128699Y531395D01*
X128723Y531468D01*
X128751Y531541D01*
X128783Y531612D01*
X128818Y531681D01*
X128856Y531748D01*
X128897Y531814D01*
X128942Y531877D01*
X128990Y531938D01*
X129040Y531997D01*
X129094Y532053D01*
X129150Y532107D01*
X129209Y532157D01*
X129270Y532205D01*
X129333Y532250D01*
X129399Y532291D01*
X129466Y532329D01*
X129535Y532364D01*
X129606Y532396D01*
X129679Y532424D01*
X129752Y532448D01*
X129827Y532469D01*
X129903Y532486D01*
X129979Y532499D01*
X130056Y532508D01*
X130134Y532514D01*
X130211Y532516D01*
X130317Y532514D01*
X130423Y532508D01*
X130528Y532499D01*
X130633Y532486D01*
X130738Y532469D01*
X130842Y532448D01*
X130945Y532424D01*
X131047Y532396D01*
X131148Y532364D01*
X131248Y532329D01*
X131346Y532290D01*
X131444Y532247D01*
X131539Y532202D01*
X131633Y532153D01*
X131725Y532100D01*
X131815Y532044D01*
X131903Y531985D01*
X131989Y531923D01*
X129421Y529553D02*
X129354Y529595D01*
X129289Y529640D01*
X129226Y529689D01*
X129165Y529740D01*
X129108Y529795D01*
X129053Y529852D01*
X129000Y529912D01*
X128951Y529974D01*
X128905Y530039D01*
X128863Y530105D01*
X128823Y530174D01*
X128787Y530245D01*
X128755Y530318D01*
X128726Y530392D01*
X128701Y530467D01*
X128680Y530543D01*
X128662Y530621D01*
X128649Y530699D01*
X128639Y530778D01*
X128633Y530857D01*
X128631Y530936D01*
X131594Y528367D02*
X131661Y528325D01*
X131726Y528280D01*
X131789Y528231D01*
X131850Y528180D01*
X131907Y528125D01*
X131962Y528068D01*
X132015Y528008D01*
X132064Y527946D01*
X132110Y527881D01*
X132152Y527815D01*
X132192Y527746D01*
X132228Y527675D01*
X132260Y527602D01*
X132289Y527528D01*
X132314Y527453D01*
X132335Y527377D01*
X132353Y527299D01*
X132366Y527221D01*
X132376Y527142D01*
X132382Y527063D01*
X132384Y526984D01*
X131594Y528367D02*
X129421Y529553D01*
X135504Y528960D02*
X135506Y529108D01*
X135511Y529255D01*
X135521Y529403D01*
X135534Y529550D01*
X135550Y529697D01*
X135571Y529843D01*
X135595Y529989D01*
X135623Y530134D01*
X135654Y530278D01*
X135689Y530421D01*
X135728Y530564D01*
X135770Y530705D01*
X135816Y530846D01*
X135865Y530985D01*
X135918Y531123D01*
X135974Y531260D01*
X136034Y531395D01*
X136097Y531528D01*
X136123Y531599D01*
X136153Y531668D01*
X136187Y531736D01*
X136224Y531802D01*
X136264Y531866D01*
X136308Y531928D01*
X136354Y531987D01*
X136404Y532044D01*
X136457Y532098D01*
X136512Y532150D01*
X136570Y532198D01*
X136630Y532244D01*
X136693Y532286D01*
X136758Y532325D01*
X136824Y532361D01*
X136893Y532393D01*
X136962Y532421D01*
X137034Y532446D01*
X137106Y532467D01*
X137180Y532485D01*
X137254Y532498D01*
X137329Y532508D01*
X137404Y532514D01*
X137480Y532516D01*
X137556Y532514D01*
X137631Y532508D01*
X137706Y532498D01*
X137780Y532485D01*
X137854Y532467D01*
X137926Y532446D01*
X137997Y532421D01*
X138067Y532393D01*
X138136Y532361D01*
X138202Y532325D01*
X138267Y532286D01*
X138330Y532244D01*
X138390Y532198D01*
X138448Y532150D01*
X138503Y532098D01*
X138556Y532044D01*
X138606Y531987D01*
X138652Y531928D01*
X138696Y531866D01*
X138736Y531802D01*
X138773Y531736D01*
X138807Y531668D01*
X138837Y531599D01*
X138863Y531528D01*
X138926Y531395D01*
X138986Y531260D01*
X139042Y531123D01*
X139095Y530985D01*
X139144Y530846D01*
X139190Y530705D01*
X139232Y530564D01*
X139271Y530421D01*
X139306Y530278D01*
X139337Y530134D01*
X139365Y529989D01*
X139389Y529843D01*
X139410Y529697D01*
X139426Y529550D01*
X139439Y529403D01*
X139449Y529255D01*
X139454Y529108D01*
X139456Y528960D01*
X135504Y528960D02*
X135506Y528812D01*
X135511Y528665D01*
X135521Y528517D01*
X135534Y528370D01*
X135550Y528223D01*
X135571Y528077D01*
X135595Y527932D01*
X135623Y527786D01*
X135654Y527642D01*
X135689Y527499D01*
X135728Y527356D01*
X135770Y527215D01*
X135816Y527074D01*
X135865Y526935D01*
X135918Y526797D01*
X135974Y526660D01*
X136034Y526525D01*
X136097Y526392D01*
X136123Y526321D01*
X136153Y526252D01*
X136187Y526184D01*
X136224Y526118D01*
X136264Y526054D01*
X136308Y525992D01*
X136354Y525933D01*
X136404Y525876D01*
X136457Y525822D01*
X136512Y525770D01*
X136570Y525722D01*
X136630Y525676D01*
X136693Y525634D01*
X136758Y525595D01*
X136824Y525559D01*
X136893Y525527D01*
X136963Y525499D01*
X137034Y525474D01*
X137106Y525453D01*
X137180Y525435D01*
X137254Y525422D01*
X137329Y525412D01*
X137404Y525406D01*
X137480Y525404D01*
X138863Y526392D02*
X138926Y526525D01*
X138986Y526660D01*
X139042Y526797D01*
X139095Y526935D01*
X139144Y527074D01*
X139190Y527215D01*
X139232Y527356D01*
X139271Y527499D01*
X139306Y527642D01*
X139337Y527786D01*
X139365Y527932D01*
X139389Y528077D01*
X139410Y528223D01*
X139426Y528370D01*
X139439Y528517D01*
X139449Y528665D01*
X139454Y528812D01*
X139456Y528960D01*
X138863Y526392D02*
X138837Y526321D01*
X138807Y526252D01*
X138773Y526184D01*
X138736Y526118D01*
X138696Y526054D01*
X138652Y525992D01*
X138606Y525933D01*
X138556Y525876D01*
X138503Y525822D01*
X138448Y525770D01*
X138390Y525722D01*
X138330Y525676D01*
X138267Y525634D01*
X138202Y525595D01*
X138136Y525559D01*
X138067Y525527D01*
X137997Y525499D01*
X137926Y525474D01*
X137854Y525453D01*
X137780Y525435D01*
X137706Y525422D01*
X137631Y525412D01*
X137556Y525406D01*
X137480Y525404D01*
X135900Y526984D02*
X139060Y530936D01*
X147144Y532516D02*
X147144Y525404D01*
X147144Y532516D02*
X149120Y532516D01*
X149207Y532514D01*
X149295Y532508D01*
X149382Y532499D01*
X149468Y532485D01*
X149554Y532468D01*
X149638Y532447D01*
X149722Y532422D01*
X149805Y532393D01*
X149886Y532361D01*
X149966Y532326D01*
X150044Y532287D01*
X150121Y532244D01*
X150195Y532198D01*
X150267Y532149D01*
X150337Y532097D01*
X150405Y532041D01*
X150470Y531983D01*
X150533Y531922D01*
X150592Y531858D01*
X150649Y531791D01*
X150703Y531723D01*
X150754Y531651D01*
X150801Y531578D01*
X150846Y531503D01*
X150887Y531425D01*
X150924Y531346D01*
X150958Y531266D01*
X150988Y531184D01*
X151015Y531101D01*
X151038Y531016D01*
X151057Y530931D01*
X151072Y530845D01*
X151084Y530758D01*
X151092Y530671D01*
X151096Y530584D01*
X151096Y530496D01*
X151092Y530409D01*
X151084Y530322D01*
X151072Y530235D01*
X151057Y530149D01*
X151038Y530064D01*
X151015Y529979D01*
X150988Y529896D01*
X150958Y529814D01*
X150924Y529734D01*
X150887Y529655D01*
X150846Y529577D01*
X150801Y529502D01*
X150754Y529429D01*
X150703Y529357D01*
X150649Y529289D01*
X150592Y529222D01*
X150533Y529158D01*
X150470Y529097D01*
X150405Y529039D01*
X150337Y528983D01*
X150267Y528931D01*
X150195Y528882D01*
X150121Y528836D01*
X150044Y528793D01*
X149966Y528754D01*
X149886Y528719D01*
X149805Y528687D01*
X149722Y528658D01*
X149638Y528633D01*
X149554Y528612D01*
X149468Y528595D01*
X149382Y528581D01*
X149295Y528572D01*
X149207Y528566D01*
X149120Y528564D01*
X149120Y528565D02*
X147144Y528565D01*
X156204Y525404D02*
X156282Y525406D01*
X156359Y525412D01*
X156436Y525421D01*
X156512Y525434D01*
X156588Y525451D01*
X156663Y525472D01*
X156736Y525496D01*
X156809Y525524D01*
X156880Y525556D01*
X156949Y525591D01*
X157016Y525629D01*
X157082Y525670D01*
X157145Y525715D01*
X157206Y525763D01*
X157265Y525813D01*
X157321Y525867D01*
X157375Y525923D01*
X157425Y525982D01*
X157473Y526043D01*
X157518Y526106D01*
X157559Y526172D01*
X157597Y526239D01*
X157632Y526308D01*
X157664Y526379D01*
X157692Y526452D01*
X157716Y526525D01*
X157737Y526600D01*
X157754Y526676D01*
X157767Y526752D01*
X157776Y526829D01*
X157782Y526906D01*
X157784Y526984D01*
X156204Y525404D02*
X156089Y525406D01*
X155975Y525412D01*
X155861Y525422D01*
X155747Y525435D01*
X155634Y525453D01*
X155521Y525475D01*
X155409Y525500D01*
X155299Y525529D01*
X155189Y525562D01*
X155080Y525599D01*
X154973Y525639D01*
X154867Y525683D01*
X154763Y525731D01*
X154660Y525782D01*
X154560Y525837D01*
X154461Y525895D01*
X154364Y525957D01*
X154270Y526021D01*
X154177Y526089D01*
X154087Y526161D01*
X154000Y526235D01*
X153915Y526312D01*
X153833Y526392D01*
X154031Y530936D02*
X154033Y531014D01*
X154039Y531091D01*
X154048Y531168D01*
X154061Y531244D01*
X154078Y531320D01*
X154099Y531395D01*
X154123Y531468D01*
X154151Y531541D01*
X154183Y531612D01*
X154218Y531681D01*
X154256Y531748D01*
X154297Y531814D01*
X154342Y531877D01*
X154390Y531938D01*
X154440Y531997D01*
X154494Y532053D01*
X154550Y532107D01*
X154609Y532157D01*
X154670Y532205D01*
X154733Y532250D01*
X154799Y532291D01*
X154866Y532329D01*
X154935Y532364D01*
X155006Y532396D01*
X155079Y532424D01*
X155152Y532448D01*
X155227Y532469D01*
X155303Y532486D01*
X155379Y532499D01*
X155456Y532508D01*
X155534Y532514D01*
X155611Y532516D01*
X155717Y532514D01*
X155823Y532508D01*
X155928Y532499D01*
X156033Y532486D01*
X156138Y532469D01*
X156242Y532448D01*
X156345Y532424D01*
X156447Y532396D01*
X156548Y532364D01*
X156648Y532329D01*
X156746Y532290D01*
X156844Y532247D01*
X156939Y532202D01*
X157033Y532153D01*
X157125Y532100D01*
X157215Y532044D01*
X157303Y531985D01*
X157389Y531923D01*
X154821Y529553D02*
X154754Y529595D01*
X154689Y529640D01*
X154626Y529689D01*
X154565Y529740D01*
X154508Y529795D01*
X154453Y529852D01*
X154400Y529912D01*
X154351Y529974D01*
X154305Y530039D01*
X154263Y530105D01*
X154223Y530174D01*
X154187Y530245D01*
X154155Y530318D01*
X154126Y530392D01*
X154101Y530467D01*
X154080Y530543D01*
X154062Y530621D01*
X154049Y530699D01*
X154039Y530778D01*
X154033Y530857D01*
X154031Y530936D01*
X156994Y528367D02*
X157061Y528325D01*
X157126Y528280D01*
X157189Y528231D01*
X157250Y528180D01*
X157307Y528125D01*
X157362Y528068D01*
X157415Y528008D01*
X157464Y527946D01*
X157510Y527881D01*
X157552Y527815D01*
X157592Y527746D01*
X157628Y527675D01*
X157660Y527602D01*
X157689Y527528D01*
X157714Y527453D01*
X157735Y527377D01*
X157753Y527299D01*
X157766Y527221D01*
X157776Y527142D01*
X157782Y527063D01*
X157784Y526984D01*
X156994Y528367D02*
X154821Y529553D01*
X160904Y530936D02*
X162880Y532516D01*
X162880Y525404D01*
X160904Y525404D02*
X164856Y525404D01*
X219484Y537696D02*
X226596Y535326D01*
X226596Y540067D02*
X219484Y537696D01*
X224818Y539474D02*
X224818Y535918D01*
X226596Y543280D02*
X219484Y543280D01*
X219484Y545255D01*
X219486Y545341D01*
X219492Y545427D01*
X219501Y545513D01*
X219514Y545598D01*
X219531Y545683D01*
X219551Y545766D01*
X219575Y545849D01*
X219603Y545931D01*
X219634Y546011D01*
X219669Y546090D01*
X219707Y546167D01*
X219749Y546243D01*
X219793Y546317D01*
X219841Y546388D01*
X219892Y546458D01*
X219946Y546525D01*
X220003Y546590D01*
X220063Y546652D01*
X220125Y546712D01*
X220190Y546769D01*
X220257Y546823D01*
X220327Y546874D01*
X220398Y546922D01*
X220472Y546966D01*
X220548Y547008D01*
X220625Y547046D01*
X220704Y547081D01*
X220784Y547112D01*
X220866Y547140D01*
X220949Y547164D01*
X221032Y547184D01*
X221117Y547201D01*
X221202Y547214D01*
X221288Y547223D01*
X221374Y547229D01*
X221460Y547231D01*
X224620Y547231D01*
X224706Y547229D01*
X224792Y547223D01*
X224878Y547214D01*
X224963Y547201D01*
X225048Y547184D01*
X225131Y547164D01*
X225214Y547140D01*
X225296Y547112D01*
X225376Y547081D01*
X225455Y547046D01*
X225532Y547008D01*
X225608Y546966D01*
X225682Y546922D01*
X225753Y546874D01*
X225823Y546823D01*
X225890Y546769D01*
X225955Y546712D01*
X226017Y546652D01*
X226077Y546590D01*
X226134Y546525D01*
X226188Y546458D01*
X226239Y546388D01*
X226287Y546317D01*
X226331Y546243D01*
X226373Y546167D01*
X226411Y546090D01*
X226446Y546011D01*
X226477Y545931D01*
X226505Y545849D01*
X226529Y545766D01*
X226549Y545683D01*
X226566Y545598D01*
X226579Y545513D01*
X226588Y545427D01*
X226594Y545341D01*
X226596Y545255D01*
X226596Y543280D01*
X226596Y551143D02*
X219484Y551143D01*
X219484Y553119D01*
X219486Y553206D01*
X219492Y553294D01*
X219501Y553381D01*
X219515Y553467D01*
X219532Y553553D01*
X219553Y553637D01*
X219578Y553721D01*
X219607Y553804D01*
X219639Y553885D01*
X219674Y553965D01*
X219713Y554043D01*
X219756Y554120D01*
X219802Y554194D01*
X219851Y554266D01*
X219903Y554336D01*
X219959Y554404D01*
X220017Y554469D01*
X220078Y554532D01*
X220142Y554591D01*
X220209Y554648D01*
X220277Y554702D01*
X220349Y554753D01*
X220422Y554800D01*
X220497Y554845D01*
X220575Y554886D01*
X220654Y554923D01*
X220734Y554957D01*
X220816Y554987D01*
X220899Y555014D01*
X220984Y555037D01*
X221069Y555056D01*
X221155Y555071D01*
X221242Y555083D01*
X221329Y555091D01*
X221416Y555095D01*
X221504Y555095D01*
X221591Y555091D01*
X221678Y555083D01*
X221765Y555071D01*
X221851Y555056D01*
X221936Y555037D01*
X222021Y555014D01*
X222104Y554987D01*
X222186Y554957D01*
X222266Y554923D01*
X222345Y554886D01*
X222423Y554845D01*
X222498Y554800D01*
X222571Y554753D01*
X222643Y554702D01*
X222711Y554648D01*
X222778Y554591D01*
X222842Y554532D01*
X222903Y554469D01*
X222961Y554404D01*
X223017Y554336D01*
X223069Y554266D01*
X223118Y554194D01*
X223164Y554120D01*
X223207Y554043D01*
X223246Y553965D01*
X223281Y553885D01*
X223313Y553804D01*
X223342Y553721D01*
X223367Y553637D01*
X223388Y553553D01*
X223405Y553467D01*
X223419Y553381D01*
X223428Y553294D01*
X223434Y553206D01*
X223436Y553119D01*
X223435Y553119D02*
X223435Y551143D01*
X223435Y553514D02*
X226596Y555094D01*
D12*
X109157Y233167D02*
X109157Y230601D01*
X109157Y233167D02*
X109159Y233266D01*
X109165Y233366D01*
X109174Y233465D01*
X109188Y233563D01*
X109205Y233661D01*
X109226Y233759D01*
X109251Y233855D01*
X109280Y233950D01*
X109312Y234045D01*
X109348Y234137D01*
X109387Y234229D01*
X109430Y234319D01*
X109476Y234407D01*
X109526Y234493D01*
X109579Y234577D01*
X109635Y234659D01*
X109695Y234739D01*
X109757Y234816D01*
X109823Y234891D01*
X109891Y234964D01*
X109962Y235033D01*
X110036Y235100D01*
X110112Y235164D01*
X110191Y235225D01*
X110272Y235283D01*
X110355Y235338D01*
X110440Y235389D01*
X110527Y235437D01*
X110616Y235482D01*
X110707Y235523D01*
X110799Y235561D01*
X110892Y235595D01*
X110987Y235625D01*
X111083Y235652D01*
X111180Y235675D01*
X111277Y235694D01*
X111376Y235709D01*
X111475Y235721D01*
X111574Y235729D01*
X111673Y235733D01*
X111773Y235733D01*
X111872Y235729D01*
X111971Y235721D01*
X112070Y235709D01*
X112169Y235694D01*
X112266Y235675D01*
X112363Y235652D01*
X112459Y235625D01*
X112554Y235595D01*
X112647Y235561D01*
X112739Y235523D01*
X112830Y235482D01*
X112919Y235437D01*
X113006Y235389D01*
X113091Y235338D01*
X113174Y235283D01*
X113255Y235225D01*
X113334Y235164D01*
X113410Y235100D01*
X113484Y235033D01*
X113555Y234964D01*
X113623Y234891D01*
X113689Y234816D01*
X113751Y234739D01*
X113811Y234659D01*
X113867Y234577D01*
X113920Y234493D01*
X113970Y234407D01*
X114016Y234319D01*
X114059Y234229D01*
X114098Y234137D01*
X114134Y234045D01*
X114166Y233950D01*
X114195Y233855D01*
X114220Y233759D01*
X114241Y233661D01*
X114258Y233563D01*
X114272Y233465D01*
X114281Y233366D01*
X114287Y233266D01*
X114289Y233167D01*
X114289Y230601D01*
X105051Y230601D01*
X105051Y233167D01*
X105053Y233257D01*
X105059Y233346D01*
X105069Y233435D01*
X105082Y233523D01*
X105100Y233611D01*
X105121Y233698D01*
X105146Y233784D01*
X105175Y233869D01*
X105207Y233953D01*
X105243Y234035D01*
X105283Y234115D01*
X105326Y234194D01*
X105373Y234270D01*
X105422Y234345D01*
X105475Y234417D01*
X105531Y234487D01*
X105590Y234554D01*
X105652Y234619D01*
X105717Y234681D01*
X105784Y234740D01*
X105854Y234796D01*
X105926Y234849D01*
X106001Y234898D01*
X106078Y234945D01*
X106156Y234988D01*
X106236Y235028D01*
X106318Y235064D01*
X106402Y235096D01*
X106487Y235125D01*
X106573Y235150D01*
X106660Y235171D01*
X106748Y235189D01*
X106836Y235202D01*
X106925Y235212D01*
X107014Y235218D01*
X107104Y235220D01*
X107194Y235218D01*
X107283Y235212D01*
X107372Y235202D01*
X107460Y235189D01*
X107548Y235171D01*
X107635Y235150D01*
X107721Y235125D01*
X107806Y235096D01*
X107890Y235064D01*
X107972Y235028D01*
X108052Y234988D01*
X108131Y234945D01*
X108207Y234898D01*
X108282Y234849D01*
X108354Y234796D01*
X108424Y234740D01*
X108491Y234681D01*
X108556Y234619D01*
X108618Y234554D01*
X108677Y234487D01*
X108733Y234417D01*
X108786Y234345D01*
X108835Y234270D01*
X108882Y234194D01*
X108925Y234115D01*
X108965Y234035D01*
X109001Y233953D01*
X109033Y233869D01*
X109062Y233784D01*
X109087Y233698D01*
X109108Y233611D01*
X109126Y233523D01*
X109139Y233435D01*
X109149Y233346D01*
X109155Y233257D01*
X109157Y233167D01*
X110183Y239084D02*
X112236Y239084D01*
X110183Y239084D02*
X110093Y239086D01*
X110004Y239092D01*
X109915Y239102D01*
X109827Y239115D01*
X109739Y239133D01*
X109652Y239154D01*
X109566Y239179D01*
X109481Y239208D01*
X109397Y239240D01*
X109315Y239276D01*
X109235Y239316D01*
X109157Y239359D01*
X109080Y239406D01*
X109005Y239455D01*
X108933Y239508D01*
X108863Y239564D01*
X108796Y239623D01*
X108731Y239685D01*
X108669Y239750D01*
X108610Y239817D01*
X108554Y239887D01*
X108501Y239959D01*
X108452Y240034D01*
X108405Y240111D01*
X108362Y240189D01*
X108322Y240269D01*
X108286Y240351D01*
X108254Y240435D01*
X108225Y240520D01*
X108200Y240606D01*
X108179Y240693D01*
X108161Y240781D01*
X108148Y240869D01*
X108138Y240958D01*
X108132Y241047D01*
X108130Y241137D01*
X108132Y241227D01*
X108138Y241316D01*
X108148Y241405D01*
X108161Y241493D01*
X108179Y241581D01*
X108200Y241668D01*
X108225Y241754D01*
X108254Y241839D01*
X108286Y241923D01*
X108322Y242005D01*
X108362Y242085D01*
X108405Y242164D01*
X108452Y242240D01*
X108501Y242315D01*
X108554Y242387D01*
X108610Y242457D01*
X108669Y242524D01*
X108731Y242589D01*
X108796Y242651D01*
X108863Y242710D01*
X108933Y242766D01*
X109005Y242819D01*
X109080Y242868D01*
X109157Y242915D01*
X109235Y242958D01*
X109315Y242998D01*
X109397Y243034D01*
X109481Y243066D01*
X109566Y243095D01*
X109652Y243120D01*
X109739Y243141D01*
X109827Y243159D01*
X109915Y243172D01*
X110004Y243182D01*
X110093Y243188D01*
X110183Y243190D01*
X112236Y243190D01*
X112326Y243188D01*
X112415Y243182D01*
X112504Y243172D01*
X112592Y243159D01*
X112680Y243141D01*
X112767Y243120D01*
X112853Y243095D01*
X112938Y243066D01*
X113022Y243034D01*
X113104Y242998D01*
X113184Y242958D01*
X113263Y242915D01*
X113339Y242868D01*
X113414Y242819D01*
X113486Y242766D01*
X113556Y242710D01*
X113623Y242651D01*
X113688Y242589D01*
X113750Y242524D01*
X113809Y242457D01*
X113865Y242387D01*
X113918Y242315D01*
X113967Y242240D01*
X114014Y242164D01*
X114057Y242085D01*
X114097Y242005D01*
X114133Y241923D01*
X114165Y241839D01*
X114194Y241754D01*
X114219Y241668D01*
X114240Y241581D01*
X114258Y241493D01*
X114271Y241405D01*
X114281Y241316D01*
X114287Y241227D01*
X114289Y241137D01*
X114287Y241047D01*
X114281Y240958D01*
X114271Y240869D01*
X114258Y240781D01*
X114240Y240693D01*
X114219Y240606D01*
X114194Y240520D01*
X114165Y240435D01*
X114133Y240351D01*
X114097Y240269D01*
X114057Y240189D01*
X114014Y240111D01*
X113967Y240034D01*
X113918Y239959D01*
X113865Y239887D01*
X113809Y239817D01*
X113750Y239750D01*
X113688Y239685D01*
X113623Y239623D01*
X113556Y239564D01*
X113486Y239508D01*
X113414Y239455D01*
X113339Y239406D01*
X113263Y239359D01*
X113184Y239316D01*
X113104Y239276D01*
X113022Y239240D01*
X112938Y239208D01*
X112853Y239179D01*
X112767Y239154D01*
X112680Y239133D01*
X112592Y239115D01*
X112504Y239102D01*
X112415Y239092D01*
X112326Y239086D01*
X112236Y239084D01*
X112236Y246884D02*
X110183Y246884D01*
X110093Y246886D01*
X110004Y246892D01*
X109915Y246902D01*
X109827Y246915D01*
X109739Y246933D01*
X109652Y246954D01*
X109566Y246979D01*
X109481Y247008D01*
X109397Y247040D01*
X109315Y247076D01*
X109235Y247116D01*
X109157Y247159D01*
X109080Y247206D01*
X109005Y247255D01*
X108933Y247308D01*
X108863Y247364D01*
X108796Y247423D01*
X108731Y247485D01*
X108669Y247550D01*
X108610Y247617D01*
X108554Y247687D01*
X108501Y247759D01*
X108452Y247834D01*
X108405Y247911D01*
X108362Y247989D01*
X108322Y248069D01*
X108286Y248151D01*
X108254Y248235D01*
X108225Y248320D01*
X108200Y248406D01*
X108179Y248493D01*
X108161Y248581D01*
X108148Y248669D01*
X108138Y248758D01*
X108132Y248847D01*
X108130Y248937D01*
X108132Y249027D01*
X108138Y249116D01*
X108148Y249205D01*
X108161Y249293D01*
X108179Y249381D01*
X108200Y249468D01*
X108225Y249554D01*
X108254Y249639D01*
X108286Y249723D01*
X108322Y249805D01*
X108362Y249885D01*
X108405Y249964D01*
X108452Y250040D01*
X108501Y250115D01*
X108554Y250187D01*
X108610Y250257D01*
X108669Y250324D01*
X108731Y250389D01*
X108796Y250451D01*
X108863Y250510D01*
X108933Y250566D01*
X109005Y250619D01*
X109080Y250668D01*
X109157Y250715D01*
X109235Y250758D01*
X109315Y250798D01*
X109397Y250834D01*
X109481Y250866D01*
X109566Y250895D01*
X109652Y250920D01*
X109739Y250941D01*
X109827Y250959D01*
X109915Y250972D01*
X110004Y250982D01*
X110093Y250988D01*
X110183Y250990D01*
X112236Y250990D01*
X112326Y250988D01*
X112415Y250982D01*
X112504Y250972D01*
X112592Y250959D01*
X112680Y250941D01*
X112767Y250920D01*
X112853Y250895D01*
X112938Y250866D01*
X113022Y250834D01*
X113104Y250798D01*
X113184Y250758D01*
X113263Y250715D01*
X113339Y250668D01*
X113414Y250619D01*
X113486Y250566D01*
X113556Y250510D01*
X113623Y250451D01*
X113688Y250389D01*
X113750Y250324D01*
X113809Y250257D01*
X113865Y250187D01*
X113918Y250115D01*
X113967Y250040D01*
X114014Y249964D01*
X114057Y249885D01*
X114097Y249805D01*
X114133Y249723D01*
X114165Y249639D01*
X114194Y249554D01*
X114219Y249468D01*
X114240Y249381D01*
X114258Y249293D01*
X114271Y249205D01*
X114281Y249116D01*
X114287Y249027D01*
X114289Y248937D01*
X114287Y248847D01*
X114281Y248758D01*
X114271Y248669D01*
X114258Y248581D01*
X114240Y248493D01*
X114219Y248406D01*
X114194Y248320D01*
X114165Y248235D01*
X114133Y248151D01*
X114097Y248069D01*
X114057Y247989D01*
X114014Y247911D01*
X113967Y247834D01*
X113918Y247759D01*
X113865Y247687D01*
X113809Y247617D01*
X113750Y247550D01*
X113688Y247485D01*
X113623Y247423D01*
X113556Y247364D01*
X113486Y247308D01*
X113414Y247255D01*
X113339Y247206D01*
X113263Y247159D01*
X113184Y247116D01*
X113104Y247076D01*
X113022Y247040D01*
X112938Y247008D01*
X112853Y246979D01*
X112767Y246954D01*
X112680Y246933D01*
X112592Y246915D01*
X112504Y246902D01*
X112415Y246892D01*
X112326Y246886D01*
X112236Y246884D01*
X108130Y253926D02*
X108130Y257006D01*
X105051Y254953D02*
X112749Y254953D01*
X112749Y254952D02*
X112825Y254954D01*
X112900Y254959D01*
X112975Y254969D01*
X113049Y254982D01*
X113123Y254998D01*
X113196Y255018D01*
X113268Y255042D01*
X113338Y255069D01*
X113407Y255100D01*
X113475Y255134D01*
X113541Y255171D01*
X113605Y255212D01*
X113666Y255255D01*
X113726Y255302D01*
X113783Y255351D01*
X113838Y255403D01*
X113890Y255458D01*
X113939Y255515D01*
X113986Y255575D01*
X114029Y255636D01*
X114070Y255700D01*
X114107Y255766D01*
X114141Y255834D01*
X114172Y255903D01*
X114199Y255973D01*
X114223Y256045D01*
X114243Y256118D01*
X114259Y256192D01*
X114272Y256266D01*
X114282Y256341D01*
X114287Y256416D01*
X114289Y256492D01*
X114289Y257006D01*
X113639Y302001D02*
X104401Y302001D01*
X104401Y304567D01*
X104403Y304666D01*
X104409Y304766D01*
X104418Y304865D01*
X104432Y304963D01*
X104449Y305061D01*
X104470Y305159D01*
X104495Y305255D01*
X104524Y305350D01*
X104556Y305445D01*
X104592Y305537D01*
X104631Y305629D01*
X104674Y305719D01*
X104720Y305807D01*
X104770Y305893D01*
X104823Y305977D01*
X104879Y306059D01*
X104939Y306139D01*
X105001Y306216D01*
X105067Y306291D01*
X105135Y306364D01*
X105206Y306433D01*
X105280Y306500D01*
X105356Y306564D01*
X105435Y306625D01*
X105516Y306683D01*
X105599Y306738D01*
X105684Y306789D01*
X105771Y306837D01*
X105860Y306882D01*
X105951Y306923D01*
X106043Y306961D01*
X106136Y306995D01*
X106231Y307025D01*
X106327Y307052D01*
X106424Y307075D01*
X106521Y307094D01*
X106620Y307109D01*
X106719Y307121D01*
X106818Y307129D01*
X106917Y307133D01*
X107017Y307133D01*
X107116Y307129D01*
X107215Y307121D01*
X107314Y307109D01*
X107413Y307094D01*
X107510Y307075D01*
X107607Y307052D01*
X107703Y307025D01*
X107798Y306995D01*
X107891Y306961D01*
X107983Y306923D01*
X108074Y306882D01*
X108163Y306837D01*
X108250Y306789D01*
X108335Y306738D01*
X108418Y306683D01*
X108499Y306625D01*
X108578Y306564D01*
X108654Y306500D01*
X108728Y306433D01*
X108799Y306364D01*
X108867Y306291D01*
X108933Y306216D01*
X108995Y306139D01*
X109055Y306059D01*
X109111Y305977D01*
X109164Y305893D01*
X109214Y305807D01*
X109260Y305719D01*
X109303Y305629D01*
X109342Y305537D01*
X109378Y305445D01*
X109410Y305350D01*
X109439Y305255D01*
X109464Y305159D01*
X109485Y305061D01*
X109502Y304963D01*
X109516Y304865D01*
X109525Y304766D01*
X109531Y304666D01*
X109533Y304567D01*
X109533Y302001D01*
X109533Y305080D02*
X113639Y307133D01*
X113639Y313724D02*
X113637Y313814D01*
X113631Y313903D01*
X113621Y313992D01*
X113608Y314080D01*
X113590Y314168D01*
X113569Y314255D01*
X113544Y314341D01*
X113515Y314426D01*
X113483Y314510D01*
X113447Y314592D01*
X113407Y314672D01*
X113364Y314751D01*
X113317Y314827D01*
X113268Y314902D01*
X113215Y314974D01*
X113159Y315044D01*
X113100Y315111D01*
X113038Y315176D01*
X112973Y315238D01*
X112906Y315297D01*
X112836Y315353D01*
X112764Y315406D01*
X112689Y315455D01*
X112613Y315502D01*
X112534Y315545D01*
X112454Y315585D01*
X112372Y315621D01*
X112288Y315653D01*
X112203Y315682D01*
X112117Y315707D01*
X112030Y315728D01*
X111942Y315746D01*
X111854Y315759D01*
X111765Y315769D01*
X111676Y315775D01*
X111586Y315777D01*
X113639Y313724D02*
X113637Y313597D01*
X113632Y313470D01*
X113622Y313344D01*
X113609Y313218D01*
X113593Y313092D01*
X113572Y312967D01*
X113548Y312842D01*
X113521Y312719D01*
X113490Y312596D01*
X113455Y312474D01*
X113417Y312353D01*
X113375Y312233D01*
X113329Y312115D01*
X113281Y311998D01*
X113228Y311882D01*
X113173Y311768D01*
X113114Y311656D01*
X113052Y311545D01*
X112987Y311436D01*
X112918Y311330D01*
X112847Y311225D01*
X112772Y311122D01*
X112694Y311022D01*
X112614Y310924D01*
X112531Y310828D01*
X112445Y310735D01*
X112356Y310645D01*
X106454Y310901D02*
X106364Y310903D01*
X106275Y310909D01*
X106186Y310919D01*
X106098Y310932D01*
X106010Y310950D01*
X105923Y310971D01*
X105837Y310996D01*
X105752Y311025D01*
X105668Y311057D01*
X105586Y311093D01*
X105506Y311133D01*
X105428Y311176D01*
X105351Y311223D01*
X105276Y311272D01*
X105204Y311325D01*
X105134Y311381D01*
X105067Y311440D01*
X105002Y311502D01*
X104940Y311567D01*
X104881Y311634D01*
X104825Y311704D01*
X104772Y311776D01*
X104723Y311851D01*
X104676Y311928D01*
X104633Y312006D01*
X104593Y312086D01*
X104557Y312168D01*
X104525Y312252D01*
X104496Y312337D01*
X104471Y312423D01*
X104450Y312510D01*
X104432Y312598D01*
X104419Y312686D01*
X104409Y312775D01*
X104403Y312864D01*
X104401Y312954D01*
X104403Y313078D01*
X104409Y313202D01*
X104419Y313325D01*
X104433Y313448D01*
X104451Y313571D01*
X104473Y313692D01*
X104498Y313814D01*
X104528Y313934D01*
X104561Y314053D01*
X104599Y314171D01*
X104640Y314288D01*
X104684Y314403D01*
X104733Y314517D01*
X104785Y314630D01*
X104841Y314740D01*
X104900Y314849D01*
X104963Y314956D01*
X105029Y315061D01*
X105098Y315163D01*
X105171Y315263D01*
X108250Y311927D02*
X108203Y311851D01*
X108152Y311776D01*
X108098Y311704D01*
X108041Y311634D01*
X107981Y311567D01*
X107918Y311502D01*
X107853Y311440D01*
X107785Y311381D01*
X107714Y311325D01*
X107641Y311272D01*
X107566Y311222D01*
X107488Y311176D01*
X107409Y311133D01*
X107328Y311093D01*
X107245Y311057D01*
X107161Y311025D01*
X107076Y310996D01*
X106989Y310971D01*
X106902Y310950D01*
X106813Y310932D01*
X106724Y310919D01*
X106634Y310909D01*
X106544Y310903D01*
X106454Y310901D01*
X109790Y314751D02*
X109837Y314827D01*
X109888Y314902D01*
X109942Y314974D01*
X109999Y315044D01*
X110059Y315111D01*
X110122Y315176D01*
X110187Y315238D01*
X110255Y315297D01*
X110326Y315353D01*
X110399Y315406D01*
X110474Y315456D01*
X110552Y315502D01*
X110631Y315545D01*
X110712Y315585D01*
X110795Y315621D01*
X110879Y315653D01*
X110964Y315682D01*
X111051Y315707D01*
X111139Y315728D01*
X111227Y315746D01*
X111316Y315759D01*
X111406Y315769D01*
X111496Y315775D01*
X111586Y315777D01*
X109790Y314750D02*
X108250Y311927D01*
X104401Y321310D02*
X113639Y321310D01*
X104401Y318744D02*
X104401Y323877D01*
D13*
X11176Y12245D02*
X5684Y10414D01*
X5684Y14075D02*
X11176Y12245D01*
X11176Y17323D02*
X11176Y18544D01*
X11176Y17323D02*
X11174Y17255D01*
X11168Y17186D01*
X11159Y17119D01*
X11145Y17052D01*
X11128Y16985D01*
X11108Y16920D01*
X11083Y16856D01*
X11055Y16794D01*
X11024Y16733D01*
X10989Y16674D01*
X10951Y16617D01*
X10910Y16562D01*
X10866Y16510D01*
X10819Y16460D01*
X10769Y16413D01*
X10717Y16369D01*
X10662Y16328D01*
X10605Y16290D01*
X10546Y16255D01*
X10485Y16224D01*
X10423Y16196D01*
X10359Y16171D01*
X10294Y16151D01*
X10227Y16134D01*
X10160Y16120D01*
X10093Y16111D01*
X10024Y16105D01*
X9956Y16103D01*
X6904Y16103D01*
X6904Y16102D02*
X6836Y16104D01*
X6767Y16110D01*
X6699Y16119D01*
X6632Y16133D01*
X6566Y16150D01*
X6501Y16171D01*
X6437Y16195D01*
X6374Y16223D01*
X6313Y16254D01*
X6254Y16289D01*
X6197Y16327D01*
X6143Y16368D01*
X6090Y16413D01*
X6041Y16460D01*
X5994Y16509D01*
X5949Y16562D01*
X5908Y16616D01*
X5870Y16673D01*
X5835Y16732D01*
X5804Y16793D01*
X5776Y16856D01*
X5752Y16920D01*
X5731Y16985D01*
X5714Y17051D01*
X5700Y17118D01*
X5691Y17186D01*
X5685Y17254D01*
X5683Y17323D01*
X5684Y17323D02*
X5684Y18544D01*
X11176Y21823D02*
X11176Y23044D01*
X11176Y21823D02*
X11174Y21755D01*
X11168Y21686D01*
X11159Y21619D01*
X11145Y21552D01*
X11128Y21485D01*
X11108Y21420D01*
X11083Y21356D01*
X11055Y21294D01*
X11024Y21233D01*
X10989Y21174D01*
X10951Y21117D01*
X10910Y21062D01*
X10866Y21010D01*
X10819Y20960D01*
X10769Y20913D01*
X10717Y20869D01*
X10662Y20828D01*
X10605Y20790D01*
X10546Y20755D01*
X10485Y20724D01*
X10423Y20696D01*
X10359Y20671D01*
X10294Y20651D01*
X10227Y20634D01*
X10160Y20620D01*
X10093Y20611D01*
X10024Y20605D01*
X9956Y20603D01*
X6904Y20603D01*
X6904Y20602D02*
X6836Y20604D01*
X6767Y20610D01*
X6699Y20619D01*
X6632Y20633D01*
X6566Y20650D01*
X6501Y20671D01*
X6437Y20695D01*
X6374Y20723D01*
X6313Y20754D01*
X6254Y20789D01*
X6197Y20827D01*
X6143Y20868D01*
X6090Y20913D01*
X6041Y20960D01*
X5994Y21009D01*
X5949Y21062D01*
X5908Y21116D01*
X5870Y21173D01*
X5835Y21232D01*
X5804Y21293D01*
X5776Y21356D01*
X5752Y21420D01*
X5731Y21485D01*
X5714Y21551D01*
X5700Y21618D01*
X5691Y21686D01*
X5685Y21754D01*
X5683Y21823D01*
X5684Y21823D02*
X5684Y23044D01*
X8285Y90190D02*
X8285Y91105D01*
X11336Y91105D01*
X11336Y89274D01*
X11334Y89206D01*
X11328Y89137D01*
X11319Y89070D01*
X11305Y89003D01*
X11288Y88936D01*
X11268Y88871D01*
X11243Y88807D01*
X11215Y88745D01*
X11184Y88684D01*
X11149Y88625D01*
X11111Y88568D01*
X11070Y88513D01*
X11026Y88461D01*
X10979Y88411D01*
X10929Y88364D01*
X10877Y88320D01*
X10822Y88279D01*
X10765Y88241D01*
X10706Y88206D01*
X10645Y88175D01*
X10583Y88147D01*
X10519Y88122D01*
X10454Y88102D01*
X10387Y88085D01*
X10320Y88071D01*
X10253Y88062D01*
X10184Y88056D01*
X10116Y88054D01*
X7064Y88054D01*
X6996Y88056D01*
X6927Y88062D01*
X6859Y88071D01*
X6792Y88085D01*
X6726Y88102D01*
X6661Y88123D01*
X6597Y88147D01*
X6534Y88175D01*
X6473Y88206D01*
X6414Y88241D01*
X6357Y88279D01*
X6303Y88320D01*
X6250Y88365D01*
X6201Y88412D01*
X6154Y88461D01*
X6109Y88514D01*
X6068Y88568D01*
X6030Y88625D01*
X5995Y88684D01*
X5964Y88745D01*
X5936Y88808D01*
X5912Y88872D01*
X5891Y88937D01*
X5874Y89003D01*
X5860Y89070D01*
X5851Y89138D01*
X5845Y89206D01*
X5843Y89275D01*
X5844Y89274D02*
X5844Y91105D01*
X5844Y93814D02*
X11336Y93814D01*
X11336Y96865D02*
X5844Y93814D01*
X5844Y96865D02*
X11336Y96865D01*
X11336Y99574D02*
X5844Y99574D01*
X5844Y101099D01*
X5846Y101176D01*
X5852Y101253D01*
X5862Y101330D01*
X5875Y101406D01*
X5893Y101481D01*
X5914Y101556D01*
X5939Y101629D01*
X5968Y101701D01*
X6000Y101771D01*
X6036Y101840D01*
X6075Y101906D01*
X6118Y101971D01*
X6163Y102033D01*
X6212Y102093D01*
X6264Y102150D01*
X6319Y102205D01*
X6376Y102257D01*
X6436Y102306D01*
X6498Y102351D01*
X6563Y102394D01*
X6629Y102433D01*
X6698Y102469D01*
X6768Y102501D01*
X6840Y102530D01*
X6913Y102555D01*
X6988Y102576D01*
X7063Y102594D01*
X7139Y102607D01*
X7216Y102617D01*
X7293Y102623D01*
X7370Y102625D01*
X9810Y102625D01*
X9810Y102626D02*
X9887Y102624D01*
X9964Y102618D01*
X10041Y102608D01*
X10117Y102595D01*
X10193Y102577D01*
X10267Y102556D01*
X10340Y102531D01*
X10412Y102502D01*
X10482Y102470D01*
X10551Y102434D01*
X10617Y102395D01*
X10682Y102352D01*
X10744Y102307D01*
X10804Y102258D01*
X10861Y102206D01*
X10916Y102151D01*
X10968Y102094D01*
X11017Y102034D01*
X11062Y101972D01*
X11105Y101907D01*
X11144Y101841D01*
X11180Y101772D01*
X11212Y101702D01*
X11241Y101630D01*
X11266Y101557D01*
X11287Y101482D01*
X11305Y101407D01*
X11318Y101331D01*
X11328Y101254D01*
X11334Y101177D01*
X11336Y101100D01*
X11336Y101099D02*
X11336Y99574D01*
X11336Y63904D02*
X5844Y63904D01*
X5844Y65430D01*
X5846Y65507D01*
X5852Y65584D01*
X5862Y65661D01*
X5875Y65737D01*
X5893Y65812D01*
X5914Y65887D01*
X5939Y65960D01*
X5968Y66032D01*
X6000Y66102D01*
X6036Y66171D01*
X6075Y66237D01*
X6118Y66302D01*
X6163Y66364D01*
X6212Y66424D01*
X6264Y66481D01*
X6319Y66536D01*
X6376Y66588D01*
X6436Y66637D01*
X6498Y66682D01*
X6563Y66725D01*
X6629Y66764D01*
X6698Y66800D01*
X6768Y66832D01*
X6840Y66861D01*
X6913Y66886D01*
X6988Y66907D01*
X7063Y66925D01*
X7139Y66938D01*
X7216Y66948D01*
X7293Y66954D01*
X7370Y66956D01*
X7447Y66954D01*
X7524Y66948D01*
X7601Y66938D01*
X7677Y66925D01*
X7752Y66907D01*
X7827Y66886D01*
X7900Y66861D01*
X7972Y66832D01*
X8042Y66800D01*
X8111Y66764D01*
X8177Y66725D01*
X8242Y66682D01*
X8304Y66637D01*
X8364Y66588D01*
X8421Y66536D01*
X8476Y66481D01*
X8528Y66424D01*
X8577Y66364D01*
X8622Y66302D01*
X8665Y66237D01*
X8704Y66171D01*
X8740Y66102D01*
X8772Y66032D01*
X8801Y65960D01*
X8826Y65887D01*
X8847Y65812D01*
X8865Y65737D01*
X8878Y65661D01*
X8888Y65584D01*
X8894Y65507D01*
X8896Y65430D01*
X8895Y65430D02*
X8895Y63904D01*
X8895Y65735D02*
X11336Y66955D01*
X11336Y68963D02*
X5844Y72624D01*
X5844Y68963D02*
X11336Y72624D01*
X11176Y39880D02*
X5684Y39880D01*
X5684Y41405D02*
X5684Y38354D01*
X11176Y43089D02*
X5684Y46750D01*
X5684Y43089D02*
X11176Y46750D01*
X8125Y125580D02*
X8125Y126495D01*
X11176Y126495D01*
X11176Y124664D01*
X11174Y124596D01*
X11168Y124527D01*
X11159Y124460D01*
X11145Y124393D01*
X11128Y124326D01*
X11108Y124261D01*
X11083Y124197D01*
X11055Y124135D01*
X11024Y124074D01*
X10989Y124015D01*
X10951Y123958D01*
X10910Y123903D01*
X10866Y123851D01*
X10819Y123801D01*
X10769Y123754D01*
X10717Y123710D01*
X10662Y123669D01*
X10605Y123631D01*
X10546Y123596D01*
X10485Y123565D01*
X10423Y123537D01*
X10359Y123512D01*
X10294Y123492D01*
X10227Y123475D01*
X10160Y123461D01*
X10093Y123452D01*
X10024Y123446D01*
X9956Y123444D01*
X6904Y123444D01*
X6836Y123446D01*
X6767Y123452D01*
X6699Y123461D01*
X6632Y123475D01*
X6566Y123492D01*
X6501Y123513D01*
X6437Y123537D01*
X6374Y123565D01*
X6313Y123596D01*
X6254Y123631D01*
X6197Y123669D01*
X6143Y123710D01*
X6090Y123755D01*
X6041Y123802D01*
X5994Y123851D01*
X5949Y123904D01*
X5908Y123958D01*
X5870Y124015D01*
X5835Y124074D01*
X5804Y124135D01*
X5776Y124198D01*
X5752Y124262D01*
X5731Y124327D01*
X5714Y124393D01*
X5700Y124460D01*
X5691Y124528D01*
X5685Y124596D01*
X5683Y124665D01*
X5684Y124664D02*
X5684Y126495D01*
X5684Y129204D02*
X11176Y129204D01*
X11176Y132255D02*
X5684Y129204D01*
X5684Y132255D02*
X11176Y132255D01*
X11176Y134964D02*
X5684Y134964D01*
X5684Y136489D01*
X5686Y136566D01*
X5692Y136643D01*
X5702Y136720D01*
X5715Y136796D01*
X5733Y136871D01*
X5754Y136946D01*
X5779Y137019D01*
X5808Y137091D01*
X5840Y137161D01*
X5876Y137230D01*
X5915Y137296D01*
X5958Y137361D01*
X6003Y137423D01*
X6052Y137483D01*
X6104Y137540D01*
X6159Y137595D01*
X6216Y137647D01*
X6276Y137696D01*
X6338Y137741D01*
X6403Y137784D01*
X6469Y137823D01*
X6538Y137859D01*
X6608Y137891D01*
X6680Y137920D01*
X6753Y137945D01*
X6828Y137966D01*
X6903Y137984D01*
X6979Y137997D01*
X7056Y138007D01*
X7133Y138013D01*
X7210Y138015D01*
X9650Y138015D01*
X9650Y138016D02*
X9727Y138014D01*
X9804Y138008D01*
X9881Y137998D01*
X9957Y137985D01*
X10033Y137967D01*
X10107Y137946D01*
X10180Y137921D01*
X10252Y137892D01*
X10322Y137860D01*
X10391Y137824D01*
X10457Y137785D01*
X10522Y137742D01*
X10584Y137697D01*
X10644Y137648D01*
X10701Y137596D01*
X10756Y137541D01*
X10808Y137484D01*
X10857Y137424D01*
X10902Y137362D01*
X10945Y137297D01*
X10984Y137231D01*
X11020Y137162D01*
X11052Y137092D01*
X11081Y137020D01*
X11106Y136947D01*
X11127Y136872D01*
X11145Y136797D01*
X11158Y136721D01*
X11168Y136644D01*
X11174Y136567D01*
X11176Y136490D01*
X11176Y136489D02*
X11176Y134964D01*
X11496Y150624D02*
X11496Y152455D01*
X11494Y152523D01*
X11488Y152592D01*
X11479Y152659D01*
X11465Y152726D01*
X11448Y152793D01*
X11428Y152858D01*
X11403Y152922D01*
X11375Y152984D01*
X11344Y153045D01*
X11309Y153104D01*
X11271Y153161D01*
X11230Y153216D01*
X11186Y153268D01*
X11139Y153318D01*
X11089Y153365D01*
X11037Y153409D01*
X10982Y153450D01*
X10925Y153488D01*
X10866Y153523D01*
X10805Y153554D01*
X10743Y153582D01*
X10679Y153607D01*
X10614Y153627D01*
X10547Y153644D01*
X10480Y153658D01*
X10413Y153667D01*
X10344Y153673D01*
X10276Y153675D01*
X9665Y153675D01*
X9597Y153673D01*
X9528Y153667D01*
X9461Y153658D01*
X9394Y153644D01*
X9327Y153627D01*
X9262Y153607D01*
X9198Y153582D01*
X9136Y153554D01*
X9075Y153523D01*
X9016Y153488D01*
X8959Y153450D01*
X8904Y153409D01*
X8852Y153365D01*
X8802Y153318D01*
X8755Y153268D01*
X8711Y153216D01*
X8670Y153161D01*
X8632Y153104D01*
X8597Y153045D01*
X8566Y152984D01*
X8538Y152922D01*
X8513Y152858D01*
X8493Y152793D01*
X8476Y152726D01*
X8462Y152659D01*
X8453Y152592D01*
X8447Y152523D01*
X8445Y152455D01*
X8445Y150624D01*
X6004Y150624D01*
X6004Y153675D01*
X6004Y155719D02*
X11496Y157550D01*
X6004Y159380D01*
D10*
X15400Y62550D02*
X21750Y56200D01*
X15400Y62550D02*
X15400Y75250D01*
X21750Y81600D01*
X34450Y81600D01*
X40800Y75250D01*
X40800Y62550D01*
X34450Y56200D01*
X15400Y24450D02*
X15400Y11750D01*
X15400Y24450D02*
X21750Y30800D01*
X34450Y30800D01*
X40800Y24450D01*
X21750Y30800D02*
X15400Y37150D01*
X15400Y49850D01*
X21750Y56200D01*
X34450Y56200D01*
X40800Y49850D01*
X40800Y37150D01*
X34450Y30800D01*
X34450Y5400D02*
X21750Y5400D01*
X15400Y11750D01*
X34450Y5400D02*
X40800Y11750D01*
X40800Y24450D01*
X15400Y87950D02*
X15400Y100650D01*
X21750Y107000D01*
X34450Y107000D01*
X40800Y100650D01*
X21750Y81600D02*
X15400Y87950D01*
X34450Y81600D02*
X40800Y87950D01*
X40800Y100650D01*
D14*
X85019Y281048D02*
X89845Y281048D01*
X85019Y281048D02*
X85019Y282389D01*
X85021Y282460D01*
X85027Y282532D01*
X85036Y282602D01*
X85049Y282672D01*
X85066Y282742D01*
X85087Y282810D01*
X85111Y282877D01*
X85139Y282943D01*
X85170Y283007D01*
X85205Y283070D01*
X85243Y283130D01*
X85284Y283189D01*
X85328Y283245D01*
X85375Y283299D01*
X85424Y283350D01*
X85477Y283398D01*
X85532Y283444D01*
X85589Y283486D01*
X85649Y283526D01*
X85710Y283562D01*
X85774Y283595D01*
X85839Y283624D01*
X85905Y283650D01*
X85973Y283673D01*
X86042Y283692D01*
X86112Y283707D01*
X86182Y283718D01*
X86253Y283726D01*
X86324Y283730D01*
X86396Y283730D01*
X86467Y283726D01*
X86538Y283718D01*
X86608Y283707D01*
X86678Y283692D01*
X86747Y283673D01*
X86815Y283650D01*
X86881Y283624D01*
X86946Y283595D01*
X87010Y283562D01*
X87071Y283526D01*
X87131Y283486D01*
X87188Y283444D01*
X87243Y283398D01*
X87296Y283350D01*
X87345Y283299D01*
X87392Y283245D01*
X87436Y283189D01*
X87477Y283130D01*
X87515Y283070D01*
X87550Y283007D01*
X87581Y282943D01*
X87609Y282877D01*
X87633Y282810D01*
X87654Y282742D01*
X87671Y282672D01*
X87684Y282602D01*
X87693Y282532D01*
X87699Y282460D01*
X87701Y282389D01*
X87700Y282389D02*
X87700Y281048D01*
X87700Y282657D02*
X89845Y283729D01*
X86091Y286471D02*
X85019Y287811D01*
X89845Y287811D01*
X89845Y286471D02*
X89845Y289152D01*
X240500Y199100D02*
X240500Y191600D01*
X240500Y199100D02*
X215500Y199100D01*
X85500Y199100D02*
X60500Y199100D01*
X60500Y191600D01*
X240500Y9100D02*
X240500Y-55900D01*
X60500Y-55900D01*
X60500Y9100D01*
D15*
X228110Y-26045D03*
D16*
X215546Y-45983D03*
D17*
X203108Y-31137D03*
D18*
X190541Y-20991D03*
D19*
X178051Y-31104D03*
D20*
X165551Y-46144D03*
D21*
X153010Y-31144D03*
D22*
X140510Y-21151D03*
D23*
X127956Y-31164D03*
D24*
X102942Y-45969D03*
D25*
X77897Y-23548D03*
D26*
X102930Y-23556D03*
D27*
X77906Y3972D03*
D28*
X102960Y4015D03*
D29*
X228102Y-1027D03*
D30*
X127960Y-41168D03*
D31*
X253150Y18846D02*
X253152Y18909D01*
X253158Y18971D01*
X253168Y19033D01*
X253181Y19095D01*
X253199Y19155D01*
X253220Y19214D01*
X253245Y19272D01*
X253274Y19328D01*
X253306Y19382D01*
X253341Y19434D01*
X253379Y19483D01*
X253421Y19531D01*
X253465Y19575D01*
X253513Y19617D01*
X253562Y19655D01*
X253614Y19690D01*
X253668Y19722D01*
X253724Y19751D01*
X253782Y19776D01*
X253841Y19797D01*
X253901Y19815D01*
X253963Y19828D01*
X254025Y19838D01*
X254087Y19844D01*
X254150Y19846D01*
X254213Y19844D01*
X254275Y19838D01*
X254337Y19828D01*
X254399Y19815D01*
X254459Y19797D01*
X254518Y19776D01*
X254576Y19751D01*
X254632Y19722D01*
X254686Y19690D01*
X254738Y19655D01*
X254787Y19617D01*
X254835Y19575D01*
X254879Y19531D01*
X254921Y19483D01*
X254959Y19434D01*
X254994Y19382D01*
X255026Y19328D01*
X255055Y19272D01*
X255080Y19214D01*
X255101Y19155D01*
X255119Y19095D01*
X255132Y19033D01*
X255142Y18971D01*
X255148Y18909D01*
X255150Y18846D01*
X255148Y18783D01*
X255142Y18721D01*
X255132Y18659D01*
X255119Y18597D01*
X255101Y18537D01*
X255080Y18478D01*
X255055Y18420D01*
X255026Y18364D01*
X254994Y18310D01*
X254959Y18258D01*
X254921Y18209D01*
X254879Y18161D01*
X254835Y18117D01*
X254787Y18075D01*
X254738Y18037D01*
X254686Y18002D01*
X254632Y17970D01*
X254576Y17941D01*
X254518Y17916D01*
X254459Y17895D01*
X254399Y17877D01*
X254337Y17864D01*
X254275Y17854D01*
X254213Y17848D01*
X254150Y17846D01*
X254087Y17848D01*
X254025Y17854D01*
X253963Y17864D01*
X253901Y17877D01*
X253841Y17895D01*
X253782Y17916D01*
X253724Y17941D01*
X253668Y17970D01*
X253614Y18002D01*
X253562Y18037D01*
X253513Y18075D01*
X253465Y18117D01*
X253421Y18161D01*
X253379Y18209D01*
X253341Y18258D01*
X253306Y18310D01*
X253274Y18364D01*
X253245Y18420D01*
X253220Y18478D01*
X253199Y18537D01*
X253181Y18597D01*
X253168Y18659D01*
X253158Y18721D01*
X253152Y18783D01*
X253150Y18846D01*
D14*
X216140Y-62123D02*
X216140Y-73357D01*
X216142Y-73488D01*
X216148Y-73618D01*
X216158Y-73748D01*
X216172Y-73878D01*
X216189Y-74007D01*
X216211Y-74136D01*
X216236Y-74264D01*
X216266Y-74391D01*
X216299Y-74517D01*
X216336Y-74643D01*
X216376Y-74767D01*
X216421Y-74889D01*
X216469Y-75011D01*
X216521Y-75130D01*
X216576Y-75249D01*
X216635Y-75365D01*
X216697Y-75480D01*
X216763Y-75592D01*
X216832Y-75703D01*
X216905Y-75812D01*
X216981Y-75918D01*
X217060Y-76022D01*
X217142Y-76123D01*
X217227Y-76222D01*
X217315Y-76319D01*
X217406Y-76412D01*
X217499Y-76503D01*
X217596Y-76591D01*
X217695Y-76676D01*
X217796Y-76758D01*
X217900Y-76837D01*
X218006Y-76913D01*
X218115Y-76986D01*
X218226Y-77055D01*
X218338Y-77121D01*
X218453Y-77183D01*
X218569Y-77242D01*
X218688Y-77297D01*
X218807Y-77349D01*
X218929Y-77397D01*
X219051Y-77442D01*
X219175Y-77482D01*
X219301Y-77519D01*
X219427Y-77552D01*
X219554Y-77582D01*
X219682Y-77607D01*
X219811Y-77629D01*
X219940Y-77646D01*
X220070Y-77660D01*
X220200Y-77670D01*
X220330Y-77676D01*
X220461Y-77678D01*
X220592Y-77676D01*
X220722Y-77670D01*
X220852Y-77660D01*
X220982Y-77646D01*
X221111Y-77629D01*
X221240Y-77607D01*
X221368Y-77582D01*
X221495Y-77552D01*
X221621Y-77519D01*
X221747Y-77482D01*
X221871Y-77442D01*
X221993Y-77397D01*
X222115Y-77349D01*
X222234Y-77297D01*
X222353Y-77242D01*
X222469Y-77183D01*
X222584Y-77121D01*
X222696Y-77055D01*
X222807Y-76986D01*
X222916Y-76913D01*
X223022Y-76837D01*
X223126Y-76758D01*
X223227Y-76676D01*
X223326Y-76591D01*
X223423Y-76503D01*
X223516Y-76412D01*
X223607Y-76319D01*
X223695Y-76222D01*
X223780Y-76123D01*
X223862Y-76022D01*
X223941Y-75918D01*
X224017Y-75812D01*
X224090Y-75703D01*
X224159Y-75592D01*
X224225Y-75480D01*
X224287Y-75365D01*
X224346Y-75249D01*
X224401Y-75130D01*
X224453Y-75011D01*
X224501Y-74889D01*
X224546Y-74767D01*
X224586Y-74643D01*
X224623Y-74517D01*
X224656Y-74391D01*
X224686Y-74264D01*
X224711Y-74136D01*
X224733Y-74007D01*
X224750Y-73878D01*
X224764Y-73748D01*
X224774Y-73618D01*
X224780Y-73488D01*
X224782Y-73357D01*
X224781Y-73357D02*
X224781Y-62123D01*
X231549Y-65580D02*
X235870Y-62123D01*
X235870Y-77678D01*
X231549Y-77678D02*
X240191Y-77678D01*
D10*
X173038Y352246D02*
X173038Y364184D01*
X173038Y296620D02*
X192596Y296620D01*
X224600Y296620D02*
X224600Y302970D01*
X224600Y364184D02*
X204788Y364184D01*
X173038Y340562D02*
X173038Y336244D01*
X173038Y324560D02*
X173038Y320242D01*
X173038Y308558D02*
X173038Y296620D01*
X173038Y364184D02*
X192596Y364184D01*
X204788Y296620D02*
X224600Y296620D01*
X224600Y357834D02*
X224600Y364184D01*
X224600Y332942D02*
X224600Y327862D01*
D32*
X173800Y366724D02*
X173678Y366726D01*
X173556Y366732D01*
X173434Y366742D01*
X173313Y366755D01*
X173192Y366773D01*
X173072Y366794D01*
X172952Y366820D01*
X172834Y366849D01*
X172716Y366881D01*
X172599Y366918D01*
X172484Y366958D01*
X172370Y367002D01*
X172258Y367050D01*
X172147Y367101D01*
X172038Y367156D01*
X171930Y367214D01*
X171825Y367276D01*
X171722Y367341D01*
X171620Y367409D01*
X171521Y367481D01*
X171425Y367555D01*
X171330Y367633D01*
X171239Y367714D01*
X171149Y367797D01*
X171063Y367883D01*
X170980Y367973D01*
X170899Y368064D01*
X170821Y368159D01*
X170747Y368255D01*
X170675Y368354D01*
X170607Y368456D01*
X170542Y368559D01*
X170480Y368664D01*
X170422Y368772D01*
X170367Y368881D01*
X170316Y368992D01*
X170268Y369104D01*
X170224Y369218D01*
X170184Y369333D01*
X170147Y369450D01*
X170115Y369568D01*
X170086Y369686D01*
X170060Y369806D01*
X170039Y369926D01*
X170021Y370047D01*
X170008Y370168D01*
X169998Y370290D01*
X169992Y370412D01*
X169990Y370534D01*
X169992Y370656D01*
X169998Y370778D01*
X170008Y370900D01*
X170021Y371021D01*
X170039Y371142D01*
X170060Y371262D01*
X170086Y371382D01*
X170115Y371500D01*
X170147Y371618D01*
X170184Y371735D01*
X170224Y371850D01*
X170268Y371964D01*
X170316Y372076D01*
X170367Y372187D01*
X170422Y372296D01*
X170480Y372404D01*
X170542Y372509D01*
X170607Y372612D01*
X170675Y372714D01*
X170747Y372813D01*
X170821Y372909D01*
X170899Y373004D01*
X170980Y373095D01*
X171063Y373185D01*
X171149Y373271D01*
X171239Y373354D01*
X171330Y373435D01*
X171425Y373513D01*
X171521Y373587D01*
X171620Y373659D01*
X171722Y373727D01*
X171825Y373792D01*
X171930Y373854D01*
X172038Y373912D01*
X172147Y373967D01*
X172258Y374018D01*
X172370Y374066D01*
X172484Y374110D01*
X172599Y374150D01*
X172716Y374187D01*
X172834Y374219D01*
X172952Y374248D01*
X173072Y374274D01*
X173192Y374295D01*
X173313Y374313D01*
X173434Y374326D01*
X173556Y374336D01*
X173678Y374342D01*
X173800Y374344D01*
X173922Y374342D01*
X174044Y374336D01*
X174166Y374326D01*
X174287Y374313D01*
X174408Y374295D01*
X174528Y374274D01*
X174648Y374248D01*
X174766Y374219D01*
X174884Y374187D01*
X175001Y374150D01*
X175116Y374110D01*
X175230Y374066D01*
X175342Y374018D01*
X175453Y373967D01*
X175562Y373912D01*
X175670Y373854D01*
X175775Y373792D01*
X175878Y373727D01*
X175980Y373659D01*
X176079Y373587D01*
X176175Y373513D01*
X176270Y373435D01*
X176361Y373354D01*
X176451Y373271D01*
X176537Y373185D01*
X176620Y373095D01*
X176701Y373004D01*
X176779Y372909D01*
X176853Y372813D01*
X176925Y372714D01*
X176993Y372612D01*
X177058Y372509D01*
X177120Y372404D01*
X177178Y372296D01*
X177233Y372187D01*
X177284Y372076D01*
X177332Y371964D01*
X177376Y371850D01*
X177416Y371735D01*
X177453Y371618D01*
X177485Y371500D01*
X177514Y371382D01*
X177540Y371262D01*
X177561Y371142D01*
X177579Y371021D01*
X177592Y370900D01*
X177602Y370778D01*
X177608Y370656D01*
X177610Y370534D01*
X177608Y370412D01*
X177602Y370290D01*
X177592Y370168D01*
X177579Y370047D01*
X177561Y369926D01*
X177540Y369806D01*
X177514Y369686D01*
X177485Y369568D01*
X177453Y369450D01*
X177416Y369333D01*
X177376Y369218D01*
X177332Y369104D01*
X177284Y368992D01*
X177233Y368881D01*
X177178Y368772D01*
X177120Y368664D01*
X177058Y368559D01*
X176993Y368456D01*
X176925Y368354D01*
X176853Y368255D01*
X176779Y368159D01*
X176701Y368064D01*
X176620Y367973D01*
X176537Y367883D01*
X176451Y367797D01*
X176361Y367714D01*
X176270Y367633D01*
X176175Y367555D01*
X176079Y367481D01*
X175980Y367409D01*
X175878Y367341D01*
X175775Y367276D01*
X175670Y367214D01*
X175562Y367156D01*
X175453Y367101D01*
X175342Y367050D01*
X175230Y367002D01*
X175116Y366958D01*
X175001Y366918D01*
X174884Y366881D01*
X174766Y366849D01*
X174648Y366820D01*
X174528Y366794D01*
X174408Y366773D01*
X174287Y366755D01*
X174166Y366742D01*
X174044Y366732D01*
X173922Y366726D01*
X173800Y366724D01*
D12*
X193231Y357434D02*
X205169Y360087D01*
X201190Y354781D02*
X193231Y357434D01*
X193231Y352128D02*
X201190Y354781D01*
X205169Y349475D02*
X193231Y352128D01*
X193231Y344743D02*
X193231Y339437D01*
X193231Y344743D02*
X205169Y344743D01*
X205169Y339437D01*
X199863Y340763D02*
X199863Y344743D01*
X193231Y335901D02*
X205169Y331921D01*
X193231Y327942D01*
X196216Y328937D02*
X196216Y334906D01*
X193231Y323278D02*
X205169Y323278D01*
X205169Y319962D01*
X205167Y319848D01*
X205161Y319733D01*
X205151Y319619D01*
X205137Y319506D01*
X205120Y319392D01*
X205098Y319280D01*
X205073Y319168D01*
X205043Y319058D01*
X205010Y318948D01*
X204973Y318840D01*
X204933Y318733D01*
X204888Y318627D01*
X204841Y318523D01*
X204789Y318421D01*
X204734Y318321D01*
X204676Y318222D01*
X204614Y318126D01*
X204549Y318031D01*
X204481Y317940D01*
X204409Y317850D01*
X204335Y317763D01*
X204258Y317679D01*
X204177Y317597D01*
X204094Y317518D01*
X204009Y317442D01*
X203920Y317369D01*
X203830Y317300D01*
X203737Y317233D01*
X203641Y317170D01*
X203544Y317110D01*
X203444Y317053D01*
X203343Y317000D01*
X203240Y316950D01*
X203135Y316904D01*
X203029Y316861D01*
X202921Y316823D01*
X202812Y316788D01*
X202702Y316757D01*
X202591Y316729D01*
X202479Y316706D01*
X202366Y316686D01*
X202253Y316670D01*
X202139Y316658D01*
X202025Y316650D01*
X201910Y316646D01*
X201796Y316646D01*
X201681Y316650D01*
X201567Y316658D01*
X201453Y316670D01*
X201340Y316686D01*
X201227Y316706D01*
X201115Y316729D01*
X201004Y316757D01*
X200894Y316788D01*
X200785Y316823D01*
X200677Y316861D01*
X200571Y316904D01*
X200466Y316950D01*
X200363Y317000D01*
X200262Y317053D01*
X200162Y317110D01*
X200065Y317170D01*
X199969Y317233D01*
X199876Y317300D01*
X199786Y317369D01*
X199697Y317442D01*
X199612Y317518D01*
X199529Y317597D01*
X199448Y317679D01*
X199371Y317763D01*
X199297Y317850D01*
X199225Y317940D01*
X199157Y318031D01*
X199092Y318126D01*
X199030Y318222D01*
X198972Y318321D01*
X198917Y318421D01*
X198865Y318523D01*
X198818Y318627D01*
X198773Y318733D01*
X198733Y318840D01*
X198696Y318948D01*
X198663Y319058D01*
X198633Y319168D01*
X198608Y319280D01*
X198586Y319392D01*
X198569Y319506D01*
X198555Y319619D01*
X198545Y319733D01*
X198539Y319848D01*
X198537Y319962D01*
X198537Y323278D01*
X196547Y312377D02*
X201853Y312377D01*
X201967Y312375D01*
X202082Y312369D01*
X202196Y312359D01*
X202309Y312345D01*
X202423Y312328D01*
X202535Y312306D01*
X202647Y312281D01*
X202757Y312251D01*
X202867Y312218D01*
X202975Y312181D01*
X203082Y312141D01*
X203188Y312096D01*
X203292Y312049D01*
X203394Y311997D01*
X203494Y311942D01*
X203593Y311884D01*
X203689Y311822D01*
X203784Y311757D01*
X203875Y311689D01*
X203965Y311617D01*
X204052Y311543D01*
X204136Y311466D01*
X204218Y311385D01*
X204297Y311302D01*
X204373Y311217D01*
X204446Y311128D01*
X204515Y311038D01*
X204582Y310945D01*
X204645Y310849D01*
X204705Y310752D01*
X204762Y310652D01*
X204815Y310551D01*
X204865Y310448D01*
X204911Y310343D01*
X204954Y310237D01*
X204992Y310129D01*
X205027Y310020D01*
X205058Y309910D01*
X205086Y309799D01*
X205109Y309687D01*
X205129Y309574D01*
X205145Y309461D01*
X205157Y309347D01*
X205165Y309233D01*
X205169Y309118D01*
X205169Y309004D01*
X205165Y308889D01*
X205157Y308775D01*
X205145Y308661D01*
X205129Y308548D01*
X205109Y308435D01*
X205086Y308323D01*
X205058Y308212D01*
X205027Y308102D01*
X204992Y307993D01*
X204954Y307885D01*
X204911Y307779D01*
X204865Y307674D01*
X204815Y307571D01*
X204762Y307470D01*
X204705Y307370D01*
X204645Y307273D01*
X204582Y307177D01*
X204515Y307084D01*
X204446Y306994D01*
X204373Y306905D01*
X204297Y306820D01*
X204218Y306737D01*
X204136Y306656D01*
X204052Y306579D01*
X203965Y306505D01*
X203875Y306433D01*
X203784Y306365D01*
X203689Y306300D01*
X203593Y306238D01*
X203494Y306180D01*
X203394Y306125D01*
X203292Y306073D01*
X203188Y306026D01*
X203082Y305981D01*
X202975Y305941D01*
X202867Y305904D01*
X202757Y305871D01*
X202647Y305841D01*
X202535Y305816D01*
X202423Y305794D01*
X202309Y305777D01*
X202196Y305763D01*
X202082Y305753D01*
X201967Y305747D01*
X201853Y305745D01*
X196547Y305745D01*
X196433Y305747D01*
X196318Y305753D01*
X196204Y305763D01*
X196091Y305777D01*
X195977Y305794D01*
X195865Y305816D01*
X195753Y305841D01*
X195643Y305871D01*
X195533Y305904D01*
X195425Y305941D01*
X195318Y305981D01*
X195212Y306026D01*
X195108Y306073D01*
X195006Y306125D01*
X194906Y306180D01*
X194807Y306238D01*
X194711Y306300D01*
X194616Y306365D01*
X194525Y306433D01*
X194435Y306505D01*
X194348Y306579D01*
X194264Y306656D01*
X194182Y306737D01*
X194103Y306820D01*
X194027Y306905D01*
X193954Y306994D01*
X193885Y307084D01*
X193818Y307177D01*
X193755Y307273D01*
X193695Y307370D01*
X193638Y307470D01*
X193585Y307571D01*
X193535Y307674D01*
X193489Y307779D01*
X193446Y307885D01*
X193408Y307993D01*
X193373Y308102D01*
X193342Y308212D01*
X193314Y308323D01*
X193291Y308435D01*
X193271Y308548D01*
X193255Y308661D01*
X193243Y308775D01*
X193235Y308889D01*
X193231Y309004D01*
X193231Y309118D01*
X193235Y309233D01*
X193243Y309347D01*
X193255Y309461D01*
X193271Y309574D01*
X193291Y309687D01*
X193314Y309799D01*
X193342Y309910D01*
X193373Y310020D01*
X193408Y310129D01*
X193446Y310237D01*
X193489Y310343D01*
X193535Y310448D01*
X193585Y310551D01*
X193638Y310652D01*
X193695Y310752D01*
X193755Y310849D01*
X193818Y310945D01*
X193885Y311038D01*
X193954Y311128D01*
X194027Y311217D01*
X194103Y311302D01*
X194182Y311385D01*
X194264Y311466D01*
X194348Y311543D01*
X194435Y311617D01*
X194525Y311689D01*
X194616Y311757D01*
X194711Y311822D01*
X194807Y311884D01*
X194906Y311942D01*
X195006Y311997D01*
X195108Y312049D01*
X195212Y312096D01*
X195318Y312141D01*
X195425Y312181D01*
X195533Y312218D01*
X195643Y312251D01*
X195753Y312281D01*
X195865Y312306D01*
X195977Y312328D01*
X196091Y312345D01*
X196204Y312359D01*
X196318Y312369D01*
X196433Y312375D01*
X196547Y312377D01*
X193231Y300567D02*
X205169Y300567D01*
X193231Y293934D01*
X205169Y293934D01*
D10*
X173038Y283084D02*
X173038Y271146D01*
X173038Y215520D02*
X192596Y215520D01*
X224600Y215520D02*
X224600Y221870D01*
X224600Y283084D02*
X204788Y283084D01*
X173038Y259462D02*
X173038Y255144D01*
X173038Y243460D02*
X173038Y239142D01*
X173038Y227458D02*
X173038Y215520D01*
X173038Y283084D02*
X192596Y283084D01*
X204788Y215520D02*
X224600Y215520D01*
X224600Y276734D02*
X224600Y283084D01*
X224600Y251842D02*
X224600Y246762D01*
D32*
X173800Y285624D02*
X173678Y285626D01*
X173556Y285632D01*
X173434Y285642D01*
X173313Y285655D01*
X173192Y285673D01*
X173072Y285694D01*
X172952Y285720D01*
X172834Y285749D01*
X172716Y285781D01*
X172599Y285818D01*
X172484Y285858D01*
X172370Y285902D01*
X172258Y285950D01*
X172147Y286001D01*
X172038Y286056D01*
X171930Y286114D01*
X171825Y286176D01*
X171722Y286241D01*
X171620Y286309D01*
X171521Y286381D01*
X171425Y286455D01*
X171330Y286533D01*
X171239Y286614D01*
X171149Y286697D01*
X171063Y286783D01*
X170980Y286873D01*
X170899Y286964D01*
X170821Y287059D01*
X170747Y287155D01*
X170675Y287254D01*
X170607Y287356D01*
X170542Y287459D01*
X170480Y287564D01*
X170422Y287672D01*
X170367Y287781D01*
X170316Y287892D01*
X170268Y288004D01*
X170224Y288118D01*
X170184Y288233D01*
X170147Y288350D01*
X170115Y288468D01*
X170086Y288586D01*
X170060Y288706D01*
X170039Y288826D01*
X170021Y288947D01*
X170008Y289068D01*
X169998Y289190D01*
X169992Y289312D01*
X169990Y289434D01*
X169992Y289556D01*
X169998Y289678D01*
X170008Y289800D01*
X170021Y289921D01*
X170039Y290042D01*
X170060Y290162D01*
X170086Y290282D01*
X170115Y290400D01*
X170147Y290518D01*
X170184Y290635D01*
X170224Y290750D01*
X170268Y290864D01*
X170316Y290976D01*
X170367Y291087D01*
X170422Y291196D01*
X170480Y291304D01*
X170542Y291409D01*
X170607Y291512D01*
X170675Y291614D01*
X170747Y291713D01*
X170821Y291809D01*
X170899Y291904D01*
X170980Y291995D01*
X171063Y292085D01*
X171149Y292171D01*
X171239Y292254D01*
X171330Y292335D01*
X171425Y292413D01*
X171521Y292487D01*
X171620Y292559D01*
X171722Y292627D01*
X171825Y292692D01*
X171930Y292754D01*
X172038Y292812D01*
X172147Y292867D01*
X172258Y292918D01*
X172370Y292966D01*
X172484Y293010D01*
X172599Y293050D01*
X172716Y293087D01*
X172834Y293119D01*
X172952Y293148D01*
X173072Y293174D01*
X173192Y293195D01*
X173313Y293213D01*
X173434Y293226D01*
X173556Y293236D01*
X173678Y293242D01*
X173800Y293244D01*
X173922Y293242D01*
X174044Y293236D01*
X174166Y293226D01*
X174287Y293213D01*
X174408Y293195D01*
X174528Y293174D01*
X174648Y293148D01*
X174766Y293119D01*
X174884Y293087D01*
X175001Y293050D01*
X175116Y293010D01*
X175230Y292966D01*
X175342Y292918D01*
X175453Y292867D01*
X175562Y292812D01*
X175670Y292754D01*
X175775Y292692D01*
X175878Y292627D01*
X175980Y292559D01*
X176079Y292487D01*
X176175Y292413D01*
X176270Y292335D01*
X176361Y292254D01*
X176451Y292171D01*
X176537Y292085D01*
X176620Y291995D01*
X176701Y291904D01*
X176779Y291809D01*
X176853Y291713D01*
X176925Y291614D01*
X176993Y291512D01*
X177058Y291409D01*
X177120Y291304D01*
X177178Y291196D01*
X177233Y291087D01*
X177284Y290976D01*
X177332Y290864D01*
X177376Y290750D01*
X177416Y290635D01*
X177453Y290518D01*
X177485Y290400D01*
X177514Y290282D01*
X177540Y290162D01*
X177561Y290042D01*
X177579Y289921D01*
X177592Y289800D01*
X177602Y289678D01*
X177608Y289556D01*
X177610Y289434D01*
X177608Y289312D01*
X177602Y289190D01*
X177592Y289068D01*
X177579Y288947D01*
X177561Y288826D01*
X177540Y288706D01*
X177514Y288586D01*
X177485Y288468D01*
X177453Y288350D01*
X177416Y288233D01*
X177376Y288118D01*
X177332Y288004D01*
X177284Y287892D01*
X177233Y287781D01*
X177178Y287672D01*
X177120Y287564D01*
X177058Y287459D01*
X176993Y287356D01*
X176925Y287254D01*
X176853Y287155D01*
X176779Y287059D01*
X176701Y286964D01*
X176620Y286873D01*
X176537Y286783D01*
X176451Y286697D01*
X176361Y286614D01*
X176270Y286533D01*
X176175Y286455D01*
X176079Y286381D01*
X175980Y286309D01*
X175878Y286241D01*
X175775Y286176D01*
X175670Y286114D01*
X175562Y286056D01*
X175453Y286001D01*
X175342Y285950D01*
X175230Y285902D01*
X175116Y285858D01*
X175001Y285818D01*
X174884Y285781D01*
X174766Y285749D01*
X174648Y285720D01*
X174528Y285694D01*
X174408Y285673D01*
X174287Y285655D01*
X174166Y285642D01*
X174044Y285632D01*
X173922Y285626D01*
X173800Y285624D01*
D12*
X193231Y278987D02*
X205169Y278987D01*
X205169Y275671D01*
X205167Y275558D01*
X205161Y275445D01*
X205152Y275332D01*
X205138Y275219D01*
X205121Y275108D01*
X205100Y274996D01*
X205075Y274886D01*
X205046Y274776D01*
X205014Y274668D01*
X204978Y274561D01*
X204938Y274455D01*
X204894Y274350D01*
X204848Y274247D01*
X204797Y274145D01*
X204743Y274046D01*
X204686Y273948D01*
X204626Y273852D01*
X204562Y273759D01*
X204495Y273667D01*
X204425Y273578D01*
X204352Y273492D01*
X204276Y273408D01*
X204198Y273326D01*
X204116Y273248D01*
X204032Y273172D01*
X203946Y273099D01*
X203857Y273029D01*
X203765Y272962D01*
X203672Y272898D01*
X203576Y272838D01*
X203478Y272781D01*
X203379Y272727D01*
X203277Y272676D01*
X203174Y272630D01*
X203069Y272586D01*
X202963Y272546D01*
X202856Y272510D01*
X202748Y272478D01*
X202638Y272449D01*
X202528Y272424D01*
X202416Y272403D01*
X202305Y272386D01*
X202192Y272372D01*
X202079Y272363D01*
X201966Y272357D01*
X201853Y272355D01*
X196547Y272355D01*
X196434Y272357D01*
X196321Y272363D01*
X196208Y272372D01*
X196095Y272386D01*
X195984Y272403D01*
X195872Y272424D01*
X195762Y272449D01*
X195652Y272478D01*
X195544Y272510D01*
X195437Y272546D01*
X195331Y272586D01*
X195226Y272630D01*
X195123Y272676D01*
X195021Y272727D01*
X194922Y272781D01*
X194824Y272838D01*
X194728Y272898D01*
X194635Y272962D01*
X194543Y273029D01*
X194454Y273099D01*
X194368Y273172D01*
X194284Y273248D01*
X194202Y273326D01*
X194124Y273408D01*
X194048Y273492D01*
X193975Y273578D01*
X193905Y273667D01*
X193838Y273759D01*
X193774Y273852D01*
X193714Y273948D01*
X193657Y274046D01*
X193603Y274145D01*
X193552Y274247D01*
X193506Y274350D01*
X193462Y274455D01*
X193422Y274561D01*
X193386Y274668D01*
X193354Y274776D01*
X193325Y274886D01*
X193300Y274996D01*
X193279Y275108D01*
X193262Y275219D01*
X193248Y275332D01*
X193239Y275445D01*
X193233Y275558D01*
X193231Y275671D01*
X193231Y278987D01*
X193231Y266731D02*
X205169Y266731D01*
X205169Y263415D01*
X205167Y263301D01*
X205161Y263186D01*
X205151Y263072D01*
X205137Y262959D01*
X205120Y262845D01*
X205098Y262733D01*
X205073Y262621D01*
X205043Y262511D01*
X205010Y262401D01*
X204973Y262293D01*
X204933Y262186D01*
X204888Y262080D01*
X204841Y261976D01*
X204789Y261874D01*
X204734Y261774D01*
X204676Y261675D01*
X204614Y261579D01*
X204549Y261484D01*
X204481Y261393D01*
X204409Y261303D01*
X204335Y261216D01*
X204258Y261132D01*
X204177Y261050D01*
X204094Y260971D01*
X204009Y260895D01*
X203920Y260822D01*
X203830Y260753D01*
X203737Y260686D01*
X203641Y260623D01*
X203544Y260563D01*
X203444Y260506D01*
X203343Y260453D01*
X203240Y260403D01*
X203135Y260357D01*
X203029Y260314D01*
X202921Y260276D01*
X202812Y260241D01*
X202702Y260210D01*
X202591Y260182D01*
X202479Y260159D01*
X202366Y260139D01*
X202253Y260123D01*
X202139Y260111D01*
X202025Y260103D01*
X201910Y260099D01*
X201796Y260099D01*
X201681Y260103D01*
X201567Y260111D01*
X201453Y260123D01*
X201340Y260139D01*
X201227Y260159D01*
X201115Y260182D01*
X201004Y260210D01*
X200894Y260241D01*
X200785Y260276D01*
X200677Y260314D01*
X200571Y260357D01*
X200466Y260403D01*
X200363Y260453D01*
X200262Y260506D01*
X200162Y260563D01*
X200065Y260623D01*
X199969Y260686D01*
X199876Y260753D01*
X199786Y260822D01*
X199697Y260895D01*
X199612Y260971D01*
X199529Y261050D01*
X199448Y261132D01*
X199371Y261216D01*
X199297Y261303D01*
X199225Y261393D01*
X199157Y261484D01*
X199092Y261579D01*
X199030Y261675D01*
X198972Y261774D01*
X198917Y261874D01*
X198865Y261976D01*
X198818Y262080D01*
X198773Y262186D01*
X198733Y262293D01*
X198696Y262401D01*
X198663Y262511D01*
X198633Y262621D01*
X198608Y262733D01*
X198586Y262845D01*
X198569Y262959D01*
X198555Y263072D01*
X198545Y263186D01*
X198539Y263301D01*
X198537Y263415D01*
X198537Y266731D01*
X198537Y262751D02*
X193231Y260098D01*
X193231Y254335D02*
X205169Y254335D01*
X193231Y255661D02*
X193231Y253009D01*
X205169Y253009D02*
X205169Y255661D01*
X205169Y249170D02*
X193231Y245191D01*
X205169Y241212D01*
X193231Y236676D02*
X193231Y231371D01*
X193231Y236676D02*
X205169Y236676D01*
X205169Y231371D01*
X199863Y232697D02*
X199863Y236676D01*
D14*
X147750Y427300D02*
X147750Y483300D01*
X189750Y483300D01*
X189750Y427300D01*
X147750Y427300D01*
D33*
X150750Y421300D02*
X150752Y421389D01*
X150758Y421478D01*
X150768Y421567D01*
X150782Y421655D01*
X150799Y421742D01*
X150821Y421828D01*
X150847Y421914D01*
X150876Y421998D01*
X150909Y422081D01*
X150945Y422162D01*
X150986Y422242D01*
X151029Y422319D01*
X151076Y422395D01*
X151127Y422468D01*
X151180Y422539D01*
X151237Y422608D01*
X151297Y422674D01*
X151360Y422738D01*
X151425Y422798D01*
X151493Y422856D01*
X151564Y422910D01*
X151637Y422961D01*
X151712Y423009D01*
X151789Y423054D01*
X151868Y423095D01*
X151949Y423132D01*
X152031Y423166D01*
X152115Y423197D01*
X152200Y423223D01*
X152286Y423246D01*
X152373Y423264D01*
X152461Y423279D01*
X152550Y423290D01*
X152639Y423297D01*
X152728Y423300D01*
X152817Y423299D01*
X152906Y423294D01*
X152994Y423285D01*
X153083Y423272D01*
X153170Y423255D01*
X153257Y423235D01*
X153343Y423210D01*
X153427Y423182D01*
X153510Y423150D01*
X153592Y423114D01*
X153672Y423075D01*
X153750Y423032D01*
X153826Y422986D01*
X153900Y422936D01*
X153972Y422883D01*
X154041Y422827D01*
X154108Y422768D01*
X154172Y422706D01*
X154233Y422642D01*
X154292Y422574D01*
X154347Y422504D01*
X154399Y422432D01*
X154448Y422357D01*
X154493Y422281D01*
X154535Y422202D01*
X154573Y422122D01*
X154608Y422040D01*
X154639Y421956D01*
X154667Y421871D01*
X154690Y421785D01*
X154710Y421698D01*
X154726Y421611D01*
X154738Y421522D01*
X154746Y421434D01*
X154750Y421345D01*
X154750Y421255D01*
X154746Y421166D01*
X154738Y421078D01*
X154726Y420989D01*
X154710Y420902D01*
X154690Y420815D01*
X154667Y420729D01*
X154639Y420644D01*
X154608Y420560D01*
X154573Y420478D01*
X154535Y420398D01*
X154493Y420319D01*
X154448Y420243D01*
X154399Y420168D01*
X154347Y420096D01*
X154292Y420026D01*
X154233Y419958D01*
X154172Y419894D01*
X154108Y419832D01*
X154041Y419773D01*
X153972Y419717D01*
X153900Y419664D01*
X153826Y419614D01*
X153750Y419568D01*
X153672Y419525D01*
X153592Y419486D01*
X153510Y419450D01*
X153427Y419418D01*
X153343Y419390D01*
X153257Y419365D01*
X153170Y419345D01*
X153083Y419328D01*
X152994Y419315D01*
X152906Y419306D01*
X152817Y419301D01*
X152728Y419300D01*
X152639Y419303D01*
X152550Y419310D01*
X152461Y419321D01*
X152373Y419336D01*
X152286Y419354D01*
X152200Y419377D01*
X152115Y419403D01*
X152031Y419434D01*
X151949Y419468D01*
X151868Y419505D01*
X151789Y419546D01*
X151712Y419591D01*
X151637Y419639D01*
X151564Y419690D01*
X151493Y419744D01*
X151425Y419802D01*
X151360Y419862D01*
X151297Y419926D01*
X151237Y419992D01*
X151180Y420061D01*
X151127Y420132D01*
X151076Y420205D01*
X151029Y420281D01*
X150986Y420358D01*
X150945Y420438D01*
X150909Y420519D01*
X150876Y420602D01*
X150847Y420686D01*
X150821Y420772D01*
X150799Y420858D01*
X150782Y420945D01*
X150768Y421033D01*
X150758Y421122D01*
X150752Y421211D01*
X150750Y421300D01*
D10*
X143674Y427662D02*
X138904Y427662D01*
X143674Y427662D02*
X143759Y427664D01*
X143843Y427670D01*
X143927Y427680D01*
X144011Y427693D01*
X144094Y427711D01*
X144176Y427732D01*
X144257Y427757D01*
X144337Y427786D01*
X144415Y427818D01*
X144491Y427854D01*
X144566Y427894D01*
X144639Y427937D01*
X144710Y427983D01*
X144779Y428032D01*
X144846Y428085D01*
X144910Y428141D01*
X144971Y428199D01*
X145029Y428260D01*
X145085Y428324D01*
X145138Y428391D01*
X145187Y428460D01*
X145233Y428531D01*
X145276Y428604D01*
X145316Y428679D01*
X145352Y428755D01*
X145384Y428833D01*
X145413Y428913D01*
X145438Y428994D01*
X145459Y429076D01*
X145477Y429159D01*
X145490Y429243D01*
X145500Y429327D01*
X145506Y429411D01*
X145508Y429496D01*
X145506Y429581D01*
X145500Y429665D01*
X145490Y429749D01*
X145477Y429833D01*
X145459Y429916D01*
X145438Y429998D01*
X145413Y430079D01*
X145384Y430159D01*
X145352Y430237D01*
X145316Y430313D01*
X145276Y430388D01*
X145233Y430461D01*
X145187Y430532D01*
X145138Y430601D01*
X145085Y430668D01*
X145029Y430732D01*
X144971Y430793D01*
X144910Y430851D01*
X144846Y430907D01*
X144779Y430960D01*
X144710Y431009D01*
X144639Y431055D01*
X144566Y431098D01*
X144491Y431138D01*
X144415Y431174D01*
X144337Y431206D01*
X144257Y431235D01*
X144176Y431260D01*
X144094Y431281D01*
X144011Y431299D01*
X143927Y431312D01*
X143843Y431322D01*
X143759Y431328D01*
X143674Y431330D01*
X143674Y431331D02*
X138904Y431331D01*
X138904Y436568D02*
X145508Y436568D01*
X142206Y436568D02*
X141656Y435651D01*
X141656Y435650D02*
X141621Y435596D01*
X141583Y435543D01*
X141542Y435493D01*
X141498Y435446D01*
X141451Y435401D01*
X141402Y435359D01*
X141350Y435320D01*
X141296Y435284D01*
X141241Y435252D01*
X141183Y435222D01*
X141124Y435197D01*
X141063Y435174D01*
X141001Y435156D01*
X140938Y435141D01*
X140874Y435129D01*
X140810Y435122D01*
X140745Y435118D01*
X140681Y435119D01*
X140616Y435123D01*
X140552Y435130D01*
X140488Y435142D01*
X140425Y435157D01*
X140364Y435176D01*
X140303Y435199D01*
X140244Y435225D01*
X140186Y435255D01*
X140130Y435288D01*
X140077Y435324D01*
X140025Y435363D01*
X139976Y435405D01*
X139930Y435450D01*
X139886Y435498D01*
X139845Y435548D01*
X139808Y435601D01*
X139773Y435655D01*
X139742Y435712D01*
X139714Y435770D01*
X139689Y435830D01*
X139669Y435891D01*
X139651Y435954D01*
X139638Y436017D01*
X139637Y436018D02*
X139620Y436121D01*
X139607Y436225D01*
X139598Y436329D01*
X139592Y436434D01*
X139590Y436539D01*
X139592Y436644D01*
X139597Y436748D01*
X139607Y436853D01*
X139620Y436957D01*
X139637Y437060D01*
X139657Y437163D01*
X139682Y437265D01*
X139710Y437366D01*
X139741Y437466D01*
X139776Y437564D01*
X139815Y437662D01*
X139857Y437758D01*
X139903Y437852D01*
X139952Y437945D01*
X140004Y438036D01*
X142206Y436568D02*
X142756Y437485D01*
X142791Y437539D01*
X142829Y437592D01*
X142870Y437642D01*
X142914Y437689D01*
X142961Y437734D01*
X143010Y437776D01*
X143062Y437815D01*
X143116Y437851D01*
X143171Y437883D01*
X143229Y437913D01*
X143288Y437938D01*
X143349Y437961D01*
X143411Y437979D01*
X143474Y437994D01*
X143538Y438006D01*
X143602Y438013D01*
X143667Y438017D01*
X143731Y438016D01*
X143796Y438012D01*
X143860Y438005D01*
X143924Y437993D01*
X143987Y437978D01*
X144048Y437959D01*
X144109Y437936D01*
X144168Y437910D01*
X144226Y437880D01*
X144281Y437848D01*
X144335Y437811D01*
X144387Y437772D01*
X144436Y437730D01*
X144482Y437685D01*
X144526Y437637D01*
X144567Y437587D01*
X144604Y437534D01*
X144639Y437480D01*
X144670Y437423D01*
X144698Y437365D01*
X144723Y437305D01*
X144743Y437244D01*
X144761Y437181D01*
X144774Y437118D01*
X144791Y437015D01*
X144804Y436911D01*
X144813Y436807D01*
X144819Y436702D01*
X144821Y436597D01*
X144819Y436493D01*
X144814Y436388D01*
X144804Y436284D01*
X144791Y436180D01*
X144774Y436076D01*
X144754Y435973D01*
X144729Y435871D01*
X144701Y435770D01*
X144670Y435671D01*
X144635Y435572D01*
X144596Y435474D01*
X144554Y435379D01*
X144508Y435284D01*
X144459Y435192D01*
X144407Y435101D01*
X141839Y441561D02*
X141839Y443762D01*
X141841Y443836D01*
X141847Y443911D01*
X141856Y443984D01*
X141869Y444058D01*
X141886Y444130D01*
X141906Y444201D01*
X141930Y444272D01*
X141958Y444341D01*
X141989Y444408D01*
X142023Y444474D01*
X142061Y444539D01*
X142102Y444601D01*
X142146Y444661D01*
X142193Y444718D01*
X142243Y444773D01*
X142296Y444826D01*
X142351Y444876D01*
X142408Y444923D01*
X142468Y444967D01*
X142530Y445008D01*
X142595Y445046D01*
X142661Y445080D01*
X142728Y445111D01*
X142797Y445139D01*
X142868Y445163D01*
X142939Y445183D01*
X143011Y445200D01*
X143085Y445213D01*
X143158Y445222D01*
X143233Y445228D01*
X143307Y445230D01*
X143674Y445230D01*
X143674Y445229D02*
X143759Y445227D01*
X143843Y445221D01*
X143927Y445211D01*
X144011Y445198D01*
X144094Y445180D01*
X144176Y445159D01*
X144257Y445134D01*
X144337Y445105D01*
X144415Y445073D01*
X144491Y445037D01*
X144566Y444997D01*
X144639Y444954D01*
X144710Y444908D01*
X144779Y444859D01*
X144846Y444806D01*
X144910Y444750D01*
X144971Y444692D01*
X145029Y444631D01*
X145085Y444567D01*
X145138Y444500D01*
X145187Y444431D01*
X145233Y444360D01*
X145276Y444287D01*
X145316Y444212D01*
X145352Y444136D01*
X145384Y444058D01*
X145413Y443978D01*
X145438Y443897D01*
X145459Y443815D01*
X145477Y443732D01*
X145490Y443648D01*
X145500Y443564D01*
X145506Y443480D01*
X145508Y443395D01*
X145506Y443310D01*
X145500Y443226D01*
X145490Y443142D01*
X145477Y443058D01*
X145459Y442975D01*
X145438Y442893D01*
X145413Y442812D01*
X145384Y442732D01*
X145352Y442654D01*
X145316Y442578D01*
X145276Y442503D01*
X145233Y442430D01*
X145187Y442359D01*
X145138Y442290D01*
X145085Y442223D01*
X145029Y442159D01*
X144971Y442098D01*
X144910Y442040D01*
X144846Y441984D01*
X144779Y441931D01*
X144710Y441882D01*
X144639Y441836D01*
X144566Y441793D01*
X144491Y441753D01*
X144415Y441717D01*
X144337Y441685D01*
X144257Y441656D01*
X144176Y441631D01*
X144094Y441610D01*
X144011Y441592D01*
X143927Y441579D01*
X143843Y441569D01*
X143759Y441563D01*
X143674Y441561D01*
X141839Y441561D01*
X141732Y441563D01*
X141625Y441569D01*
X141518Y441579D01*
X141412Y441592D01*
X141306Y441610D01*
X141201Y441631D01*
X141097Y441656D01*
X140993Y441685D01*
X140891Y441718D01*
X140791Y441755D01*
X140691Y441795D01*
X140593Y441839D01*
X140497Y441886D01*
X140403Y441937D01*
X140310Y441991D01*
X140220Y442048D01*
X140131Y442109D01*
X140045Y442173D01*
X139962Y442240D01*
X139880Y442310D01*
X139802Y442383D01*
X139726Y442459D01*
X139653Y442537D01*
X139583Y442619D01*
X139516Y442702D01*
X139452Y442788D01*
X139391Y442877D01*
X139334Y442967D01*
X139280Y443060D01*
X139229Y443154D01*
X139182Y443250D01*
X139138Y443348D01*
X139098Y443448D01*
X139061Y443548D01*
X139028Y443650D01*
X138999Y443754D01*
X138974Y443858D01*
X138953Y443963D01*
X138935Y444069D01*
X138922Y444175D01*
X138912Y444282D01*
X138906Y444389D01*
X138904Y444496D01*
X143674Y448877D02*
X143589Y448879D01*
X143505Y448885D01*
X143421Y448895D01*
X143337Y448908D01*
X143254Y448926D01*
X143172Y448947D01*
X143091Y448972D01*
X143011Y449001D01*
X142933Y449033D01*
X142857Y449069D01*
X142782Y449109D01*
X142709Y449152D01*
X142638Y449198D01*
X142569Y449247D01*
X142502Y449300D01*
X142438Y449356D01*
X142377Y449414D01*
X142319Y449475D01*
X142263Y449539D01*
X142210Y449606D01*
X142161Y449675D01*
X142115Y449746D01*
X142072Y449819D01*
X142032Y449894D01*
X141996Y449970D01*
X141964Y450048D01*
X141935Y450128D01*
X141910Y450209D01*
X141889Y450291D01*
X141871Y450374D01*
X141858Y450458D01*
X141848Y450542D01*
X141842Y450626D01*
X141840Y450711D01*
X141842Y450796D01*
X141848Y450880D01*
X141858Y450964D01*
X141871Y451048D01*
X141889Y451131D01*
X141910Y451213D01*
X141935Y451294D01*
X141964Y451374D01*
X141996Y451452D01*
X142032Y451528D01*
X142072Y451603D01*
X142115Y451676D01*
X142161Y451747D01*
X142210Y451816D01*
X142263Y451883D01*
X142319Y451947D01*
X142377Y452008D01*
X142438Y452066D01*
X142502Y452122D01*
X142569Y452175D01*
X142638Y452224D01*
X142709Y452270D01*
X142782Y452313D01*
X142857Y452353D01*
X142933Y452389D01*
X143011Y452421D01*
X143091Y452450D01*
X143172Y452475D01*
X143254Y452496D01*
X143337Y452514D01*
X143421Y452527D01*
X143505Y452537D01*
X143589Y452543D01*
X143674Y452545D01*
X143759Y452543D01*
X143843Y452537D01*
X143927Y452527D01*
X144011Y452514D01*
X144094Y452496D01*
X144176Y452475D01*
X144257Y452450D01*
X144337Y452421D01*
X144415Y452389D01*
X144491Y452353D01*
X144566Y452313D01*
X144639Y452270D01*
X144710Y452224D01*
X144779Y452175D01*
X144846Y452122D01*
X144910Y452066D01*
X144971Y452008D01*
X145029Y451947D01*
X145085Y451883D01*
X145138Y451816D01*
X145187Y451747D01*
X145233Y451676D01*
X145276Y451603D01*
X145316Y451528D01*
X145352Y451452D01*
X145384Y451374D01*
X145413Y451294D01*
X145438Y451213D01*
X145459Y451131D01*
X145477Y451048D01*
X145490Y450964D01*
X145500Y450880D01*
X145506Y450796D01*
X145508Y450711D01*
X145506Y450626D01*
X145500Y450542D01*
X145490Y450458D01*
X145477Y450374D01*
X145459Y450291D01*
X145438Y450209D01*
X145413Y450128D01*
X145384Y450048D01*
X145352Y449970D01*
X145316Y449894D01*
X145276Y449819D01*
X145233Y449746D01*
X145187Y449675D01*
X145138Y449606D01*
X145085Y449539D01*
X145029Y449475D01*
X144971Y449414D01*
X144910Y449356D01*
X144846Y449300D01*
X144779Y449247D01*
X144710Y449198D01*
X144639Y449152D01*
X144566Y449109D01*
X144491Y449069D01*
X144415Y449033D01*
X144337Y449001D01*
X144257Y448972D01*
X144176Y448947D01*
X144094Y448926D01*
X144011Y448908D01*
X143927Y448895D01*
X143843Y448885D01*
X143759Y448879D01*
X143674Y448877D01*
X140372Y449243D02*
X140296Y449245D01*
X140221Y449251D01*
X140146Y449260D01*
X140072Y449274D01*
X139998Y449291D01*
X139926Y449313D01*
X139854Y449337D01*
X139784Y449366D01*
X139716Y449398D01*
X139649Y449433D01*
X139584Y449472D01*
X139521Y449515D01*
X139461Y449560D01*
X139403Y449608D01*
X139347Y449660D01*
X139295Y449714D01*
X139245Y449771D01*
X139198Y449830D01*
X139154Y449891D01*
X139113Y449955D01*
X139076Y450021D01*
X139042Y450089D01*
X139012Y450158D01*
X138985Y450229D01*
X138962Y450301D01*
X138943Y450374D01*
X138928Y450448D01*
X138916Y450523D01*
X138908Y450598D01*
X138904Y450673D01*
X138904Y450749D01*
X138908Y450824D01*
X138916Y450899D01*
X138928Y450974D01*
X138943Y451048D01*
X138962Y451121D01*
X138985Y451193D01*
X139012Y451264D01*
X139042Y451333D01*
X139076Y451401D01*
X139113Y451467D01*
X139154Y451531D01*
X139198Y451592D01*
X139245Y451651D01*
X139295Y451708D01*
X139347Y451762D01*
X139403Y451814D01*
X139461Y451862D01*
X139521Y451907D01*
X139584Y451950D01*
X139649Y451989D01*
X139716Y452024D01*
X139784Y452056D01*
X139854Y452085D01*
X139926Y452109D01*
X139998Y452131D01*
X140072Y452148D01*
X140146Y452162D01*
X140221Y452171D01*
X140296Y452177D01*
X140372Y452179D01*
X140448Y452177D01*
X140523Y452171D01*
X140598Y452162D01*
X140672Y452148D01*
X140746Y452131D01*
X140818Y452109D01*
X140890Y452085D01*
X140960Y452056D01*
X141028Y452024D01*
X141095Y451989D01*
X141160Y451950D01*
X141223Y451907D01*
X141283Y451862D01*
X141341Y451814D01*
X141397Y451762D01*
X141449Y451708D01*
X141499Y451651D01*
X141546Y451592D01*
X141590Y451531D01*
X141631Y451467D01*
X141668Y451401D01*
X141702Y451333D01*
X141732Y451264D01*
X141759Y451193D01*
X141782Y451121D01*
X141801Y451048D01*
X141816Y450974D01*
X141828Y450899D01*
X141836Y450824D01*
X141840Y450749D01*
X141840Y450673D01*
X141836Y450598D01*
X141828Y450523D01*
X141816Y450448D01*
X141801Y450374D01*
X141782Y450301D01*
X141759Y450229D01*
X141732Y450158D01*
X141702Y450089D01*
X141668Y450021D01*
X141631Y449955D01*
X141590Y449891D01*
X141546Y449830D01*
X141499Y449771D01*
X141449Y449714D01*
X141397Y449660D01*
X141341Y449608D01*
X141283Y449560D01*
X141223Y449515D01*
X141160Y449472D01*
X141095Y449433D01*
X141028Y449398D01*
X140960Y449366D01*
X140890Y449337D01*
X140818Y449313D01*
X140746Y449291D01*
X140672Y449274D01*
X140598Y449260D01*
X140523Y449251D01*
X140448Y449245D01*
X140372Y449243D01*
D34*
X144620Y507370D02*
X154780Y507370D01*
D10*
X159987Y504263D02*
X166591Y504263D01*
X159987Y504263D02*
X159987Y506097D01*
X159989Y506182D01*
X159995Y506266D01*
X160005Y506350D01*
X160018Y506434D01*
X160036Y506517D01*
X160057Y506599D01*
X160082Y506680D01*
X160111Y506760D01*
X160143Y506838D01*
X160179Y506914D01*
X160219Y506989D01*
X160262Y507062D01*
X160308Y507133D01*
X160357Y507202D01*
X160410Y507269D01*
X160466Y507333D01*
X160524Y507394D01*
X160585Y507452D01*
X160649Y507508D01*
X160716Y507561D01*
X160785Y507610D01*
X160856Y507656D01*
X160929Y507699D01*
X161004Y507739D01*
X161080Y507775D01*
X161158Y507807D01*
X161238Y507836D01*
X161319Y507861D01*
X161401Y507882D01*
X161484Y507900D01*
X161568Y507913D01*
X161652Y507923D01*
X161736Y507929D01*
X161821Y507931D01*
X161906Y507929D01*
X161990Y507923D01*
X162074Y507913D01*
X162158Y507900D01*
X162241Y507882D01*
X162323Y507861D01*
X162404Y507836D01*
X162484Y507807D01*
X162562Y507775D01*
X162638Y507739D01*
X162713Y507699D01*
X162786Y507656D01*
X162857Y507610D01*
X162926Y507561D01*
X162993Y507508D01*
X163057Y507452D01*
X163118Y507394D01*
X163176Y507333D01*
X163232Y507269D01*
X163285Y507202D01*
X163334Y507133D01*
X163380Y507062D01*
X163423Y506989D01*
X163463Y506914D01*
X163499Y506838D01*
X163531Y506760D01*
X163560Y506680D01*
X163585Y506599D01*
X163606Y506517D01*
X163624Y506434D01*
X163637Y506350D01*
X163647Y506266D01*
X163653Y506182D01*
X163655Y506097D01*
X163656Y506097D02*
X163656Y504263D01*
X163656Y506464D02*
X166591Y507931D01*
X161455Y511499D02*
X159987Y513333D01*
X166591Y513333D01*
X166591Y511499D02*
X166591Y515168D01*
X164757Y518815D02*
X164672Y518817D01*
X164588Y518823D01*
X164504Y518833D01*
X164420Y518846D01*
X164337Y518864D01*
X164255Y518885D01*
X164174Y518910D01*
X164094Y518939D01*
X164016Y518971D01*
X163940Y519007D01*
X163865Y519047D01*
X163792Y519090D01*
X163721Y519136D01*
X163652Y519185D01*
X163585Y519238D01*
X163521Y519294D01*
X163460Y519352D01*
X163402Y519413D01*
X163346Y519477D01*
X163293Y519544D01*
X163244Y519613D01*
X163198Y519684D01*
X163155Y519757D01*
X163115Y519832D01*
X163079Y519908D01*
X163047Y519986D01*
X163018Y520066D01*
X162993Y520147D01*
X162972Y520229D01*
X162954Y520312D01*
X162941Y520396D01*
X162931Y520480D01*
X162925Y520564D01*
X162923Y520649D01*
X162925Y520734D01*
X162931Y520818D01*
X162941Y520902D01*
X162954Y520986D01*
X162972Y521069D01*
X162993Y521151D01*
X163018Y521232D01*
X163047Y521312D01*
X163079Y521390D01*
X163115Y521466D01*
X163155Y521541D01*
X163198Y521614D01*
X163244Y521685D01*
X163293Y521754D01*
X163346Y521821D01*
X163402Y521885D01*
X163460Y521946D01*
X163521Y522004D01*
X163585Y522060D01*
X163652Y522113D01*
X163721Y522162D01*
X163792Y522208D01*
X163865Y522251D01*
X163940Y522291D01*
X164016Y522327D01*
X164094Y522359D01*
X164174Y522388D01*
X164255Y522413D01*
X164337Y522434D01*
X164420Y522452D01*
X164504Y522465D01*
X164588Y522475D01*
X164672Y522481D01*
X164757Y522483D01*
X164842Y522481D01*
X164926Y522475D01*
X165010Y522465D01*
X165094Y522452D01*
X165177Y522434D01*
X165259Y522413D01*
X165340Y522388D01*
X165420Y522359D01*
X165498Y522327D01*
X165574Y522291D01*
X165649Y522251D01*
X165722Y522208D01*
X165793Y522162D01*
X165862Y522113D01*
X165929Y522060D01*
X165993Y522004D01*
X166054Y521946D01*
X166112Y521885D01*
X166168Y521821D01*
X166221Y521754D01*
X166270Y521685D01*
X166316Y521614D01*
X166359Y521541D01*
X166399Y521466D01*
X166435Y521390D01*
X166467Y521312D01*
X166496Y521232D01*
X166521Y521151D01*
X166542Y521069D01*
X166560Y520986D01*
X166573Y520902D01*
X166583Y520818D01*
X166589Y520734D01*
X166591Y520649D01*
X166589Y520564D01*
X166583Y520480D01*
X166573Y520396D01*
X166560Y520312D01*
X166542Y520229D01*
X166521Y520147D01*
X166496Y520066D01*
X166467Y519986D01*
X166435Y519908D01*
X166399Y519832D01*
X166359Y519757D01*
X166316Y519684D01*
X166270Y519613D01*
X166221Y519544D01*
X166168Y519477D01*
X166112Y519413D01*
X166054Y519352D01*
X165993Y519294D01*
X165929Y519238D01*
X165862Y519185D01*
X165793Y519136D01*
X165722Y519090D01*
X165649Y519047D01*
X165574Y519007D01*
X165498Y518971D01*
X165420Y518939D01*
X165340Y518910D01*
X165259Y518885D01*
X165177Y518864D01*
X165094Y518846D01*
X165010Y518833D01*
X164926Y518823D01*
X164842Y518817D01*
X164757Y518815D01*
X161455Y519181D02*
X161379Y519183D01*
X161304Y519189D01*
X161229Y519198D01*
X161155Y519212D01*
X161081Y519229D01*
X161009Y519251D01*
X160937Y519275D01*
X160867Y519304D01*
X160799Y519336D01*
X160732Y519371D01*
X160667Y519410D01*
X160604Y519453D01*
X160544Y519498D01*
X160486Y519546D01*
X160430Y519598D01*
X160378Y519652D01*
X160328Y519709D01*
X160281Y519768D01*
X160237Y519829D01*
X160196Y519893D01*
X160159Y519959D01*
X160125Y520027D01*
X160095Y520096D01*
X160068Y520167D01*
X160045Y520239D01*
X160026Y520312D01*
X160011Y520386D01*
X159999Y520461D01*
X159991Y520536D01*
X159987Y520611D01*
X159987Y520687D01*
X159991Y520762D01*
X159999Y520837D01*
X160011Y520912D01*
X160026Y520986D01*
X160045Y521059D01*
X160068Y521131D01*
X160095Y521202D01*
X160125Y521271D01*
X160159Y521339D01*
X160196Y521405D01*
X160237Y521469D01*
X160281Y521530D01*
X160328Y521589D01*
X160378Y521646D01*
X160430Y521700D01*
X160486Y521752D01*
X160544Y521800D01*
X160604Y521845D01*
X160667Y521888D01*
X160732Y521927D01*
X160799Y521962D01*
X160867Y521994D01*
X160937Y522023D01*
X161009Y522047D01*
X161081Y522069D01*
X161155Y522086D01*
X161229Y522100D01*
X161304Y522109D01*
X161379Y522115D01*
X161455Y522117D01*
X161531Y522115D01*
X161606Y522109D01*
X161681Y522100D01*
X161755Y522086D01*
X161829Y522069D01*
X161901Y522047D01*
X161973Y522023D01*
X162043Y521994D01*
X162111Y521962D01*
X162178Y521927D01*
X162243Y521888D01*
X162306Y521845D01*
X162366Y521800D01*
X162424Y521752D01*
X162480Y521700D01*
X162532Y521646D01*
X162582Y521589D01*
X162629Y521530D01*
X162673Y521469D01*
X162714Y521405D01*
X162751Y521339D01*
X162785Y521271D01*
X162815Y521202D01*
X162842Y521131D01*
X162865Y521059D01*
X162884Y520986D01*
X162899Y520912D01*
X162911Y520837D01*
X162919Y520762D01*
X162923Y520687D01*
X162923Y520611D01*
X162919Y520536D01*
X162911Y520461D01*
X162899Y520386D01*
X162884Y520312D01*
X162865Y520239D01*
X162842Y520167D01*
X162815Y520096D01*
X162785Y520027D01*
X162751Y519959D01*
X162714Y519893D01*
X162673Y519829D01*
X162629Y519768D01*
X162582Y519709D01*
X162532Y519652D01*
X162480Y519598D01*
X162424Y519546D01*
X162366Y519498D01*
X162306Y519453D01*
X162243Y519410D01*
X162178Y519371D01*
X162111Y519336D01*
X162043Y519304D01*
X161973Y519275D01*
X161901Y519251D01*
X161829Y519229D01*
X161755Y519212D01*
X161681Y519198D01*
X161606Y519189D01*
X161531Y519183D01*
X161455Y519181D01*
D34*
X163670Y506100D02*
X173830Y506100D01*
D10*
X179037Y502993D02*
X185641Y502993D01*
X179037Y502993D02*
X179037Y504827D01*
X179039Y504912D01*
X179045Y504996D01*
X179055Y505080D01*
X179068Y505164D01*
X179086Y505247D01*
X179107Y505329D01*
X179132Y505410D01*
X179161Y505490D01*
X179193Y505568D01*
X179229Y505644D01*
X179269Y505719D01*
X179312Y505792D01*
X179358Y505863D01*
X179407Y505932D01*
X179460Y505999D01*
X179516Y506063D01*
X179574Y506124D01*
X179635Y506182D01*
X179699Y506238D01*
X179766Y506291D01*
X179835Y506340D01*
X179906Y506386D01*
X179979Y506429D01*
X180054Y506469D01*
X180130Y506505D01*
X180208Y506537D01*
X180288Y506566D01*
X180369Y506591D01*
X180451Y506612D01*
X180534Y506630D01*
X180618Y506643D01*
X180702Y506653D01*
X180786Y506659D01*
X180871Y506661D01*
X180956Y506659D01*
X181040Y506653D01*
X181124Y506643D01*
X181208Y506630D01*
X181291Y506612D01*
X181373Y506591D01*
X181454Y506566D01*
X181534Y506537D01*
X181612Y506505D01*
X181688Y506469D01*
X181763Y506429D01*
X181836Y506386D01*
X181907Y506340D01*
X181976Y506291D01*
X182043Y506238D01*
X182107Y506182D01*
X182168Y506124D01*
X182226Y506063D01*
X182282Y505999D01*
X182335Y505932D01*
X182384Y505863D01*
X182430Y505792D01*
X182473Y505719D01*
X182513Y505644D01*
X182549Y505568D01*
X182581Y505490D01*
X182610Y505410D01*
X182635Y505329D01*
X182656Y505247D01*
X182674Y505164D01*
X182687Y505080D01*
X182697Y504996D01*
X182703Y504912D01*
X182705Y504827D01*
X182706Y504827D02*
X182706Y502993D01*
X182706Y505194D02*
X185641Y506661D01*
X180505Y510229D02*
X179037Y512063D01*
X185641Y512063D01*
X185641Y510229D02*
X185641Y513898D01*
X182706Y519012D02*
X182706Y521213D01*
X182706Y519012D02*
X182704Y518938D01*
X182698Y518863D01*
X182689Y518790D01*
X182676Y518716D01*
X182659Y518644D01*
X182639Y518573D01*
X182615Y518502D01*
X182587Y518433D01*
X182556Y518365D01*
X182522Y518300D01*
X182484Y518235D01*
X182443Y518173D01*
X182399Y518113D01*
X182352Y518056D01*
X182302Y518001D01*
X182249Y517948D01*
X182194Y517898D01*
X182137Y517851D01*
X182077Y517807D01*
X182015Y517766D01*
X181950Y517728D01*
X181884Y517694D01*
X181817Y517663D01*
X181748Y517635D01*
X181677Y517611D01*
X181606Y517591D01*
X181533Y517574D01*
X181460Y517561D01*
X181386Y517552D01*
X181312Y517546D01*
X181238Y517544D01*
X180871Y517544D01*
X180871Y517545D02*
X180786Y517547D01*
X180702Y517553D01*
X180618Y517563D01*
X180534Y517576D01*
X180451Y517594D01*
X180369Y517615D01*
X180288Y517640D01*
X180208Y517669D01*
X180130Y517701D01*
X180054Y517737D01*
X179979Y517777D01*
X179906Y517820D01*
X179835Y517866D01*
X179766Y517915D01*
X179699Y517968D01*
X179635Y518024D01*
X179574Y518082D01*
X179516Y518143D01*
X179460Y518207D01*
X179407Y518274D01*
X179358Y518343D01*
X179312Y518414D01*
X179269Y518487D01*
X179229Y518562D01*
X179193Y518638D01*
X179161Y518716D01*
X179132Y518796D01*
X179107Y518877D01*
X179086Y518959D01*
X179068Y519042D01*
X179055Y519126D01*
X179045Y519210D01*
X179039Y519294D01*
X179037Y519379D01*
X179039Y519464D01*
X179045Y519548D01*
X179055Y519632D01*
X179068Y519716D01*
X179086Y519799D01*
X179107Y519881D01*
X179132Y519962D01*
X179161Y520042D01*
X179193Y520120D01*
X179229Y520196D01*
X179269Y520271D01*
X179312Y520344D01*
X179358Y520415D01*
X179407Y520484D01*
X179460Y520551D01*
X179516Y520615D01*
X179574Y520676D01*
X179635Y520734D01*
X179699Y520790D01*
X179766Y520843D01*
X179835Y520892D01*
X179906Y520938D01*
X179979Y520981D01*
X180054Y521021D01*
X180130Y521057D01*
X180208Y521089D01*
X180288Y521118D01*
X180369Y521143D01*
X180451Y521164D01*
X180534Y521182D01*
X180618Y521195D01*
X180702Y521205D01*
X180786Y521211D01*
X180871Y521213D01*
X182706Y521213D01*
X182813Y521211D01*
X182920Y521205D01*
X183027Y521195D01*
X183133Y521182D01*
X183239Y521164D01*
X183344Y521143D01*
X183448Y521118D01*
X183552Y521089D01*
X183654Y521056D01*
X183754Y521019D01*
X183854Y520979D01*
X183952Y520935D01*
X184048Y520888D01*
X184142Y520837D01*
X184235Y520783D01*
X184325Y520726D01*
X184414Y520665D01*
X184500Y520601D01*
X184583Y520534D01*
X184665Y520464D01*
X184743Y520391D01*
X184819Y520315D01*
X184892Y520237D01*
X184962Y520155D01*
X185029Y520072D01*
X185093Y519986D01*
X185154Y519897D01*
X185211Y519807D01*
X185265Y519714D01*
X185316Y519620D01*
X185364Y519524D01*
X185407Y519426D01*
X185447Y519326D01*
X185484Y519226D01*
X185517Y519124D01*
X185546Y519020D01*
X185571Y518916D01*
X185592Y518811D01*
X185610Y518705D01*
X185623Y518599D01*
X185633Y518492D01*
X185639Y518385D01*
X185641Y518278D01*
D34*
X208120Y517530D02*
X208120Y507370D01*
D10*
X193007Y522737D02*
X193007Y529341D01*
X194841Y529341D01*
X194926Y529339D01*
X195010Y529333D01*
X195094Y529323D01*
X195178Y529310D01*
X195261Y529292D01*
X195343Y529271D01*
X195424Y529246D01*
X195504Y529217D01*
X195582Y529185D01*
X195658Y529149D01*
X195733Y529109D01*
X195806Y529066D01*
X195877Y529020D01*
X195946Y528971D01*
X196013Y528918D01*
X196077Y528862D01*
X196138Y528804D01*
X196196Y528743D01*
X196252Y528679D01*
X196305Y528612D01*
X196354Y528543D01*
X196400Y528472D01*
X196443Y528399D01*
X196483Y528324D01*
X196519Y528248D01*
X196551Y528170D01*
X196580Y528090D01*
X196605Y528009D01*
X196626Y527927D01*
X196644Y527844D01*
X196657Y527760D01*
X196667Y527676D01*
X196673Y527592D01*
X196675Y527507D01*
X196673Y527422D01*
X196667Y527338D01*
X196657Y527254D01*
X196644Y527170D01*
X196626Y527087D01*
X196605Y527005D01*
X196580Y526924D01*
X196551Y526844D01*
X196519Y526766D01*
X196483Y526690D01*
X196443Y526615D01*
X196400Y526542D01*
X196354Y526471D01*
X196305Y526402D01*
X196252Y526335D01*
X196196Y526271D01*
X196138Y526210D01*
X196077Y526152D01*
X196013Y526096D01*
X195946Y526043D01*
X195877Y525994D01*
X195806Y525948D01*
X195733Y525905D01*
X195658Y525865D01*
X195582Y525829D01*
X195504Y525797D01*
X195424Y525768D01*
X195343Y525743D01*
X195261Y525722D01*
X195178Y525704D01*
X195094Y525691D01*
X195010Y525681D01*
X194926Y525675D01*
X194841Y525673D01*
X194841Y525672D02*
X193007Y525672D01*
X195208Y525672D02*
X196676Y522737D01*
X202261Y529341D02*
X202340Y529339D01*
X202418Y529334D01*
X202496Y529324D01*
X202573Y529311D01*
X202650Y529294D01*
X202726Y529274D01*
X202801Y529250D01*
X202875Y529223D01*
X202947Y529192D01*
X203018Y529157D01*
X203087Y529120D01*
X203154Y529079D01*
X203219Y529035D01*
X203282Y528988D01*
X203342Y528938D01*
X203400Y528885D01*
X203456Y528829D01*
X203509Y528771D01*
X203559Y528711D01*
X203606Y528648D01*
X203650Y528583D01*
X203691Y528516D01*
X203728Y528447D01*
X203763Y528376D01*
X203794Y528304D01*
X203821Y528230D01*
X203845Y528155D01*
X203865Y528079D01*
X203882Y528002D01*
X203895Y527925D01*
X203905Y527847D01*
X203910Y527769D01*
X203912Y527690D01*
X202261Y529341D02*
X202172Y529339D01*
X202083Y529334D01*
X201995Y529324D01*
X201907Y529311D01*
X201820Y529295D01*
X201733Y529274D01*
X201648Y529250D01*
X201563Y529223D01*
X201480Y529192D01*
X201398Y529157D01*
X201317Y529119D01*
X201238Y529078D01*
X201162Y529034D01*
X201086Y528986D01*
X201013Y528935D01*
X200943Y528882D01*
X200874Y528825D01*
X200808Y528765D01*
X200745Y528703D01*
X200684Y528638D01*
X200626Y528571D01*
X200571Y528501D01*
X200518Y528429D01*
X200469Y528355D01*
X200423Y528279D01*
X200381Y528201D01*
X200341Y528121D01*
X200305Y528040D01*
X200272Y527957D01*
X200243Y527873D01*
X203362Y526406D02*
X203418Y526462D01*
X203472Y526521D01*
X203523Y526582D01*
X203572Y526646D01*
X203617Y526711D01*
X203660Y526779D01*
X203699Y526848D01*
X203736Y526919D01*
X203769Y526992D01*
X203798Y527066D01*
X203825Y527141D01*
X203848Y527217D01*
X203867Y527295D01*
X203883Y527373D01*
X203896Y527451D01*
X203905Y527531D01*
X203910Y527610D01*
X203912Y527690D01*
X203362Y526406D02*
X200243Y522737D01*
X203912Y522737D01*
X207559Y526039D02*
X207561Y526184D01*
X207567Y526329D01*
X207576Y526474D01*
X207590Y526619D01*
X207607Y526763D01*
X207629Y526906D01*
X207654Y527050D01*
X207683Y527192D01*
X207715Y527333D01*
X207752Y527474D01*
X207792Y527613D01*
X207836Y527752D01*
X207883Y527889D01*
X207934Y528025D01*
X207989Y528159D01*
X208047Y528292D01*
X208109Y528424D01*
X208108Y528424D02*
X208134Y528493D01*
X208163Y528560D01*
X208196Y528626D01*
X208232Y528689D01*
X208272Y528751D01*
X208315Y528810D01*
X208361Y528867D01*
X208410Y528921D01*
X208462Y528973D01*
X208517Y529022D01*
X208574Y529067D01*
X208634Y529110D01*
X208696Y529149D01*
X208759Y529185D01*
X208825Y529218D01*
X208892Y529246D01*
X208961Y529272D01*
X209031Y529293D01*
X209102Y529311D01*
X209174Y529324D01*
X209247Y529334D01*
X209320Y529340D01*
X209393Y529342D01*
X209393Y529341D02*
X209466Y529339D01*
X209539Y529333D01*
X209612Y529323D01*
X209684Y529310D01*
X209755Y529292D01*
X209825Y529271D01*
X209893Y529245D01*
X209961Y529217D01*
X210026Y529184D01*
X210090Y529148D01*
X210152Y529109D01*
X210211Y529067D01*
X210268Y529021D01*
X210323Y528972D01*
X210375Y528921D01*
X210424Y528866D01*
X210470Y528809D01*
X210513Y528750D01*
X210553Y528689D01*
X210589Y528625D01*
X210622Y528560D01*
X210651Y528493D01*
X210677Y528424D01*
X210739Y528292D01*
X210797Y528159D01*
X210852Y528025D01*
X210903Y527889D01*
X210950Y527752D01*
X210994Y527613D01*
X211034Y527474D01*
X211071Y527333D01*
X211103Y527192D01*
X211132Y527050D01*
X211157Y526907D01*
X211179Y526763D01*
X211196Y526619D01*
X211210Y526474D01*
X211219Y526329D01*
X211225Y526184D01*
X211227Y526039D01*
X207559Y526039D02*
X207561Y525894D01*
X207567Y525749D01*
X207576Y525604D01*
X207590Y525459D01*
X207607Y525315D01*
X207629Y525172D01*
X207654Y525029D01*
X207682Y524886D01*
X207715Y524745D01*
X207752Y524604D01*
X207792Y524465D01*
X207836Y524326D01*
X207883Y524189D01*
X207934Y524053D01*
X207989Y523919D01*
X208047Y523786D01*
X208109Y523654D01*
X208108Y523655D02*
X208134Y523586D01*
X208163Y523519D01*
X208196Y523453D01*
X208232Y523390D01*
X208272Y523328D01*
X208315Y523269D01*
X208361Y523212D01*
X208410Y523158D01*
X208462Y523106D01*
X208517Y523057D01*
X208574Y523012D01*
X208634Y522969D01*
X208696Y522930D01*
X208759Y522894D01*
X208825Y522861D01*
X208892Y522833D01*
X208961Y522807D01*
X209031Y522786D01*
X209102Y522768D01*
X209174Y522755D01*
X209247Y522745D01*
X209320Y522739D01*
X209393Y522737D01*
X210677Y523654D02*
X210739Y523786D01*
X210797Y523919D01*
X210852Y524053D01*
X210903Y524189D01*
X210950Y524326D01*
X210994Y524465D01*
X211034Y524604D01*
X211071Y524745D01*
X211103Y524886D01*
X211132Y525028D01*
X211157Y525171D01*
X211179Y525315D01*
X211196Y525459D01*
X211210Y525604D01*
X211219Y525749D01*
X211225Y525894D01*
X211227Y526039D01*
X210677Y523654D02*
X210651Y523585D01*
X210622Y523518D01*
X210589Y523453D01*
X210553Y523389D01*
X210513Y523328D01*
X210470Y523269D01*
X210424Y523212D01*
X210375Y523157D01*
X210323Y523106D01*
X210268Y523057D01*
X210211Y523011D01*
X210152Y522969D01*
X210090Y522930D01*
X210026Y522894D01*
X209961Y522861D01*
X209893Y522833D01*
X209825Y522807D01*
X209755Y522786D01*
X209683Y522768D01*
X209612Y522755D01*
X209539Y522745D01*
X209466Y522739D01*
X209393Y522737D01*
X207925Y524205D02*
X210861Y527873D01*
D34*
X250030Y468000D02*
X250030Y457840D01*
D10*
X246923Y452633D02*
X246923Y446029D01*
X246923Y452633D02*
X248757Y452633D01*
X248842Y452631D01*
X248926Y452625D01*
X249010Y452615D01*
X249094Y452602D01*
X249177Y452584D01*
X249259Y452563D01*
X249340Y452538D01*
X249420Y452509D01*
X249498Y452477D01*
X249574Y452441D01*
X249649Y452401D01*
X249722Y452358D01*
X249793Y452312D01*
X249862Y452263D01*
X249929Y452210D01*
X249993Y452154D01*
X250054Y452096D01*
X250112Y452035D01*
X250168Y451971D01*
X250221Y451904D01*
X250270Y451835D01*
X250316Y451764D01*
X250359Y451691D01*
X250399Y451616D01*
X250435Y451540D01*
X250467Y451462D01*
X250496Y451382D01*
X250521Y451301D01*
X250542Y451219D01*
X250560Y451136D01*
X250573Y451052D01*
X250583Y450968D01*
X250589Y450884D01*
X250591Y450799D01*
X250589Y450714D01*
X250583Y450630D01*
X250573Y450546D01*
X250560Y450462D01*
X250542Y450379D01*
X250521Y450297D01*
X250496Y450216D01*
X250467Y450136D01*
X250435Y450058D01*
X250399Y449982D01*
X250359Y449907D01*
X250316Y449834D01*
X250270Y449763D01*
X250221Y449694D01*
X250168Y449627D01*
X250112Y449563D01*
X250054Y449502D01*
X249993Y449444D01*
X249929Y449388D01*
X249862Y449335D01*
X249793Y449286D01*
X249722Y449240D01*
X249649Y449197D01*
X249574Y449157D01*
X249498Y449121D01*
X249420Y449089D01*
X249340Y449060D01*
X249259Y449035D01*
X249177Y449014D01*
X249094Y448996D01*
X249010Y448983D01*
X248926Y448973D01*
X248842Y448967D01*
X248757Y448965D01*
X248757Y448964D02*
X246923Y448964D01*
X249124Y448964D02*
X250591Y446029D01*
X256177Y452633D02*
X256256Y452631D01*
X256334Y452626D01*
X256412Y452616D01*
X256489Y452603D01*
X256566Y452586D01*
X256642Y452566D01*
X256717Y452542D01*
X256791Y452515D01*
X256863Y452484D01*
X256934Y452449D01*
X257003Y452412D01*
X257070Y452371D01*
X257135Y452327D01*
X257198Y452280D01*
X257258Y452230D01*
X257316Y452177D01*
X257372Y452121D01*
X257425Y452063D01*
X257475Y452003D01*
X257522Y451940D01*
X257566Y451875D01*
X257607Y451808D01*
X257644Y451739D01*
X257679Y451668D01*
X257710Y451596D01*
X257737Y451522D01*
X257761Y451447D01*
X257781Y451371D01*
X257798Y451294D01*
X257811Y451217D01*
X257821Y451139D01*
X257826Y451061D01*
X257828Y450982D01*
X256177Y452633D02*
X256088Y452631D01*
X255999Y452626D01*
X255911Y452616D01*
X255823Y452603D01*
X255736Y452587D01*
X255649Y452566D01*
X255564Y452542D01*
X255479Y452515D01*
X255396Y452484D01*
X255314Y452449D01*
X255233Y452411D01*
X255154Y452370D01*
X255078Y452326D01*
X255002Y452278D01*
X254929Y452227D01*
X254859Y452174D01*
X254790Y452117D01*
X254724Y452057D01*
X254661Y451995D01*
X254600Y451930D01*
X254542Y451863D01*
X254487Y451793D01*
X254434Y451721D01*
X254385Y451647D01*
X254339Y451571D01*
X254297Y451493D01*
X254257Y451413D01*
X254221Y451332D01*
X254188Y451249D01*
X254159Y451165D01*
X257278Y449698D02*
X257334Y449754D01*
X257388Y449813D01*
X257439Y449874D01*
X257488Y449938D01*
X257533Y450003D01*
X257576Y450071D01*
X257615Y450140D01*
X257652Y450211D01*
X257685Y450284D01*
X257714Y450358D01*
X257741Y450433D01*
X257764Y450509D01*
X257783Y450587D01*
X257799Y450665D01*
X257812Y450743D01*
X257821Y450823D01*
X257826Y450902D01*
X257828Y450982D01*
X257277Y449698D02*
X254159Y446029D01*
X257828Y446029D01*
X261474Y451165D02*
X263309Y452633D01*
X263309Y446029D01*
X265143Y446029D02*
X261474Y446029D01*
D34*
X247490Y437520D02*
X247490Y427360D01*
D10*
X232377Y442727D02*
X232377Y449331D01*
X234211Y449331D01*
X234296Y449329D01*
X234380Y449323D01*
X234464Y449313D01*
X234548Y449300D01*
X234631Y449282D01*
X234713Y449261D01*
X234794Y449236D01*
X234874Y449207D01*
X234952Y449175D01*
X235028Y449139D01*
X235103Y449099D01*
X235176Y449056D01*
X235247Y449010D01*
X235316Y448961D01*
X235383Y448908D01*
X235447Y448852D01*
X235508Y448794D01*
X235566Y448733D01*
X235622Y448669D01*
X235675Y448602D01*
X235724Y448533D01*
X235770Y448462D01*
X235813Y448389D01*
X235853Y448314D01*
X235889Y448238D01*
X235921Y448160D01*
X235950Y448080D01*
X235975Y447999D01*
X235996Y447917D01*
X236014Y447834D01*
X236027Y447750D01*
X236037Y447666D01*
X236043Y447582D01*
X236045Y447497D01*
X236043Y447412D01*
X236037Y447328D01*
X236027Y447244D01*
X236014Y447160D01*
X235996Y447077D01*
X235975Y446995D01*
X235950Y446914D01*
X235921Y446834D01*
X235889Y446756D01*
X235853Y446680D01*
X235813Y446605D01*
X235770Y446532D01*
X235724Y446461D01*
X235675Y446392D01*
X235622Y446325D01*
X235566Y446261D01*
X235508Y446200D01*
X235447Y446142D01*
X235383Y446086D01*
X235316Y446033D01*
X235247Y445984D01*
X235176Y445938D01*
X235103Y445895D01*
X235028Y445855D01*
X234952Y445819D01*
X234874Y445787D01*
X234794Y445758D01*
X234713Y445733D01*
X234631Y445712D01*
X234548Y445694D01*
X234464Y445681D01*
X234380Y445671D01*
X234296Y445665D01*
X234211Y445663D01*
X234211Y445662D02*
X232377Y445662D01*
X234578Y445662D02*
X236046Y442727D01*
X241631Y449331D02*
X241710Y449329D01*
X241788Y449324D01*
X241866Y449314D01*
X241943Y449301D01*
X242020Y449284D01*
X242096Y449264D01*
X242171Y449240D01*
X242245Y449213D01*
X242317Y449182D01*
X242388Y449147D01*
X242457Y449110D01*
X242524Y449069D01*
X242589Y449025D01*
X242652Y448978D01*
X242712Y448928D01*
X242770Y448875D01*
X242826Y448819D01*
X242879Y448761D01*
X242929Y448701D01*
X242976Y448638D01*
X243020Y448573D01*
X243061Y448506D01*
X243098Y448437D01*
X243133Y448366D01*
X243164Y448294D01*
X243191Y448220D01*
X243215Y448145D01*
X243235Y448069D01*
X243252Y447992D01*
X243265Y447915D01*
X243275Y447837D01*
X243280Y447759D01*
X243282Y447680D01*
X241631Y449331D02*
X241542Y449329D01*
X241453Y449324D01*
X241365Y449314D01*
X241277Y449301D01*
X241190Y449285D01*
X241103Y449264D01*
X241018Y449240D01*
X240933Y449213D01*
X240850Y449182D01*
X240768Y449147D01*
X240687Y449109D01*
X240608Y449068D01*
X240532Y449024D01*
X240456Y448976D01*
X240383Y448925D01*
X240313Y448872D01*
X240244Y448815D01*
X240178Y448755D01*
X240115Y448693D01*
X240054Y448628D01*
X239996Y448561D01*
X239941Y448491D01*
X239888Y448419D01*
X239839Y448345D01*
X239793Y448269D01*
X239751Y448191D01*
X239711Y448111D01*
X239675Y448030D01*
X239642Y447947D01*
X239613Y447863D01*
X242732Y446396D02*
X242788Y446452D01*
X242842Y446511D01*
X242893Y446572D01*
X242942Y446636D01*
X242987Y446701D01*
X243030Y446769D01*
X243069Y446838D01*
X243106Y446909D01*
X243139Y446982D01*
X243168Y447056D01*
X243195Y447131D01*
X243218Y447207D01*
X243237Y447285D01*
X243253Y447363D01*
X243266Y447441D01*
X243275Y447521D01*
X243280Y447600D01*
X243282Y447680D01*
X242732Y446396D02*
X239613Y442727D01*
X243282Y442727D01*
X248946Y449331D02*
X249025Y449329D01*
X249103Y449324D01*
X249181Y449314D01*
X249258Y449301D01*
X249335Y449284D01*
X249411Y449264D01*
X249486Y449240D01*
X249560Y449213D01*
X249632Y449182D01*
X249703Y449147D01*
X249772Y449110D01*
X249839Y449069D01*
X249904Y449025D01*
X249967Y448978D01*
X250027Y448928D01*
X250085Y448875D01*
X250141Y448819D01*
X250194Y448761D01*
X250244Y448701D01*
X250291Y448638D01*
X250335Y448573D01*
X250376Y448506D01*
X250413Y448437D01*
X250448Y448366D01*
X250479Y448294D01*
X250506Y448220D01*
X250530Y448145D01*
X250550Y448069D01*
X250567Y447992D01*
X250580Y447915D01*
X250590Y447837D01*
X250595Y447759D01*
X250597Y447680D01*
X248946Y449331D02*
X248857Y449329D01*
X248768Y449324D01*
X248680Y449314D01*
X248592Y449301D01*
X248505Y449285D01*
X248418Y449264D01*
X248333Y449240D01*
X248248Y449213D01*
X248165Y449182D01*
X248083Y449147D01*
X248002Y449109D01*
X247923Y449068D01*
X247847Y449024D01*
X247771Y448976D01*
X247698Y448925D01*
X247628Y448872D01*
X247559Y448815D01*
X247493Y448755D01*
X247430Y448693D01*
X247369Y448628D01*
X247311Y448561D01*
X247256Y448491D01*
X247203Y448419D01*
X247154Y448345D01*
X247108Y448269D01*
X247066Y448191D01*
X247026Y448111D01*
X246990Y448030D01*
X246957Y447947D01*
X246928Y447863D01*
X250047Y446396D02*
X250103Y446452D01*
X250157Y446511D01*
X250208Y446572D01*
X250257Y446636D01*
X250302Y446701D01*
X250345Y446769D01*
X250384Y446838D01*
X250421Y446909D01*
X250454Y446982D01*
X250483Y447056D01*
X250510Y447131D01*
X250533Y447207D01*
X250552Y447285D01*
X250568Y447363D01*
X250581Y447441D01*
X250590Y447521D01*
X250595Y447600D01*
X250597Y447680D01*
X250047Y446396D02*
X246929Y442727D01*
X250597Y442727D01*
D35*
X137360Y451810D02*
X133360Y451810D01*
X137360Y451810D02*
X137360Y491810D01*
X133360Y491810D01*
X114360Y491810D02*
X78360Y491810D01*
X78360Y451810D02*
X114360Y451810D01*
X59360Y451810D02*
X55360Y451810D01*
X55360Y491810D01*
X59360Y491810D01*
D34*
X59345Y471556D02*
X59347Y471669D01*
X59353Y471783D01*
X59363Y471896D01*
X59377Y472008D01*
X59395Y472121D01*
X59416Y472232D01*
X59442Y472342D01*
X59472Y472452D01*
X59505Y472560D01*
X59542Y472668D01*
X59583Y472774D01*
X59628Y472878D01*
X59676Y472981D01*
X59728Y473082D01*
X59783Y473181D01*
X59842Y473278D01*
X59904Y473373D01*
X59969Y473465D01*
X60038Y473556D01*
X60110Y473644D01*
X60184Y473729D01*
X60262Y473812D01*
X60343Y473892D01*
X60426Y473969D01*
X60512Y474043D01*
X60601Y474114D01*
X60691Y474182D01*
X60785Y474246D01*
X60880Y474307D01*
X60978Y474365D01*
X61077Y474420D01*
X61179Y474471D01*
X61282Y474518D01*
X61387Y474562D01*
X61493Y474602D01*
X61601Y474638D01*
X61709Y474670D01*
X61819Y474699D01*
X61930Y474723D01*
X62041Y474744D01*
X62154Y474761D01*
X62266Y474774D01*
X62380Y474783D01*
X62493Y474788D01*
X62606Y474789D01*
X62720Y474786D01*
X62833Y474779D01*
X62946Y474768D01*
X63059Y474753D01*
X63170Y474734D01*
X63282Y474712D01*
X63392Y474685D01*
X63501Y474654D01*
X63609Y474620D01*
X63716Y474582D01*
X63822Y474540D01*
X63926Y474495D01*
X64028Y474446D01*
X64129Y474393D01*
X64227Y474337D01*
X64324Y474277D01*
X64418Y474214D01*
X64510Y474148D01*
X64600Y474079D01*
X64687Y474006D01*
X64772Y473931D01*
X64854Y473852D01*
X64933Y473771D01*
X65009Y473687D01*
X65083Y473600D01*
X65153Y473511D01*
X65220Y473419D01*
X65284Y473326D01*
X65344Y473229D01*
X65401Y473131D01*
X65455Y473031D01*
X65505Y472929D01*
X65551Y472826D01*
X65594Y472721D01*
X65633Y472614D01*
X65668Y472506D01*
X65700Y472397D01*
X65727Y472287D01*
X65751Y472176D01*
X65771Y472065D01*
X65787Y471952D01*
X65799Y471839D01*
X65807Y471726D01*
X65811Y471613D01*
X65811Y471499D01*
X65807Y471386D01*
X65799Y471273D01*
X65787Y471160D01*
X65771Y471047D01*
X65751Y470936D01*
X65727Y470825D01*
X65700Y470715D01*
X65668Y470606D01*
X65633Y470498D01*
X65594Y470391D01*
X65551Y470286D01*
X65505Y470183D01*
X65455Y470081D01*
X65401Y469981D01*
X65344Y469883D01*
X65284Y469786D01*
X65220Y469693D01*
X65153Y469601D01*
X65083Y469512D01*
X65009Y469425D01*
X64933Y469341D01*
X64854Y469260D01*
X64772Y469181D01*
X64687Y469106D01*
X64600Y469033D01*
X64510Y468964D01*
X64418Y468898D01*
X64324Y468835D01*
X64227Y468775D01*
X64129Y468719D01*
X64028Y468666D01*
X63926Y468617D01*
X63822Y468572D01*
X63716Y468530D01*
X63609Y468492D01*
X63501Y468458D01*
X63392Y468427D01*
X63282Y468400D01*
X63170Y468378D01*
X63059Y468359D01*
X62946Y468344D01*
X62833Y468333D01*
X62720Y468326D01*
X62606Y468323D01*
X62493Y468324D01*
X62380Y468329D01*
X62266Y468338D01*
X62154Y468351D01*
X62041Y468368D01*
X61930Y468389D01*
X61819Y468413D01*
X61709Y468442D01*
X61601Y468474D01*
X61493Y468510D01*
X61387Y468550D01*
X61282Y468594D01*
X61179Y468641D01*
X61077Y468692D01*
X60978Y468747D01*
X60880Y468805D01*
X60785Y468866D01*
X60691Y468930D01*
X60601Y468998D01*
X60512Y469069D01*
X60426Y469143D01*
X60343Y469220D01*
X60262Y469300D01*
X60184Y469383D01*
X60110Y469468D01*
X60038Y469556D01*
X59969Y469647D01*
X59904Y469739D01*
X59842Y469834D01*
X59783Y469931D01*
X59728Y470030D01*
X59676Y470131D01*
X59628Y470234D01*
X59583Y470338D01*
X59542Y470444D01*
X59505Y470552D01*
X59472Y470660D01*
X59442Y470770D01*
X59416Y470880D01*
X59395Y470991D01*
X59377Y471104D01*
X59363Y471216D01*
X59353Y471329D01*
X59347Y471443D01*
X59345Y471556D01*
D10*
X103247Y442508D02*
X105448Y439389D01*
X107650Y442508D01*
X105448Y439389D02*
X105448Y435904D01*
X110929Y435904D02*
X112764Y435904D01*
X112849Y435906D01*
X112933Y435912D01*
X113017Y435922D01*
X113101Y435935D01*
X113184Y435953D01*
X113266Y435974D01*
X113347Y435999D01*
X113427Y436028D01*
X113505Y436060D01*
X113581Y436096D01*
X113656Y436136D01*
X113729Y436179D01*
X113800Y436225D01*
X113869Y436274D01*
X113936Y436327D01*
X114000Y436383D01*
X114061Y436441D01*
X114119Y436502D01*
X114175Y436566D01*
X114228Y436633D01*
X114277Y436702D01*
X114323Y436773D01*
X114366Y436846D01*
X114406Y436921D01*
X114442Y436997D01*
X114474Y437075D01*
X114503Y437155D01*
X114528Y437236D01*
X114549Y437318D01*
X114567Y437401D01*
X114580Y437485D01*
X114590Y437569D01*
X114596Y437653D01*
X114598Y437738D01*
X114596Y437823D01*
X114590Y437907D01*
X114580Y437991D01*
X114567Y438075D01*
X114549Y438158D01*
X114528Y438240D01*
X114503Y438321D01*
X114474Y438401D01*
X114442Y438479D01*
X114406Y438555D01*
X114366Y438630D01*
X114323Y438703D01*
X114277Y438774D01*
X114228Y438843D01*
X114175Y438910D01*
X114119Y438974D01*
X114061Y439035D01*
X114000Y439093D01*
X113936Y439149D01*
X113869Y439202D01*
X113800Y439251D01*
X113729Y439297D01*
X113656Y439340D01*
X113581Y439380D01*
X113505Y439416D01*
X113427Y439448D01*
X113347Y439477D01*
X113266Y439502D01*
X113184Y439523D01*
X113101Y439541D01*
X113017Y439554D01*
X112933Y439564D01*
X112849Y439570D01*
X112764Y439572D01*
X113130Y442508D02*
X110929Y442508D01*
X113130Y442508D02*
X113206Y442506D01*
X113281Y442500D01*
X113356Y442491D01*
X113430Y442477D01*
X113504Y442460D01*
X113576Y442438D01*
X113648Y442414D01*
X113718Y442385D01*
X113786Y442353D01*
X113853Y442318D01*
X113918Y442279D01*
X113981Y442236D01*
X114041Y442191D01*
X114099Y442143D01*
X114155Y442091D01*
X114207Y442037D01*
X114257Y441980D01*
X114304Y441921D01*
X114348Y441860D01*
X114389Y441796D01*
X114426Y441730D01*
X114460Y441662D01*
X114490Y441593D01*
X114517Y441522D01*
X114540Y441450D01*
X114559Y441377D01*
X114574Y441303D01*
X114586Y441228D01*
X114594Y441153D01*
X114598Y441078D01*
X114598Y441002D01*
X114594Y440927D01*
X114586Y440852D01*
X114574Y440777D01*
X114559Y440703D01*
X114540Y440630D01*
X114517Y440558D01*
X114490Y440487D01*
X114460Y440418D01*
X114426Y440350D01*
X114389Y440284D01*
X114348Y440220D01*
X114304Y440159D01*
X114257Y440100D01*
X114207Y440043D01*
X114155Y439989D01*
X114099Y439937D01*
X114041Y439889D01*
X113981Y439844D01*
X113918Y439801D01*
X113853Y439762D01*
X113786Y439727D01*
X113718Y439695D01*
X113648Y439666D01*
X113576Y439642D01*
X113504Y439620D01*
X113430Y439603D01*
X113356Y439589D01*
X113281Y439580D01*
X113206Y439574D01*
X113130Y439572D01*
X113130Y439573D02*
X111663Y439573D01*
D34*
X111600Y440060D02*
X111600Y429900D01*
D10*
X99422Y445267D02*
X97955Y445267D01*
X97881Y445269D01*
X97806Y445275D01*
X97733Y445284D01*
X97659Y445297D01*
X97587Y445314D01*
X97516Y445334D01*
X97445Y445358D01*
X97376Y445386D01*
X97309Y445417D01*
X97243Y445451D01*
X97178Y445489D01*
X97116Y445530D01*
X97056Y445574D01*
X96999Y445621D01*
X96944Y445671D01*
X96891Y445724D01*
X96841Y445779D01*
X96794Y445836D01*
X96750Y445896D01*
X96709Y445958D01*
X96671Y446023D01*
X96637Y446089D01*
X96606Y446156D01*
X96578Y446225D01*
X96554Y446296D01*
X96534Y446367D01*
X96517Y446439D01*
X96504Y446513D01*
X96495Y446586D01*
X96489Y446661D01*
X96487Y446735D01*
X96487Y450403D01*
X96489Y450477D01*
X96495Y450552D01*
X96504Y450625D01*
X96517Y450699D01*
X96534Y450771D01*
X96554Y450842D01*
X96578Y450913D01*
X96606Y450982D01*
X96637Y451049D01*
X96671Y451115D01*
X96709Y451180D01*
X96750Y451242D01*
X96794Y451302D01*
X96841Y451359D01*
X96891Y451414D01*
X96944Y451467D01*
X96999Y451517D01*
X97056Y451564D01*
X97116Y451608D01*
X97178Y451649D01*
X97243Y451687D01*
X97308Y451721D01*
X97376Y451752D01*
X97445Y451780D01*
X97516Y451804D01*
X97587Y451824D01*
X97659Y451841D01*
X97733Y451854D01*
X97806Y451863D01*
X97881Y451869D01*
X97955Y451871D01*
X99422Y451871D01*
X102619Y450403D02*
X104453Y451871D01*
X104453Y445267D01*
X102619Y445267D02*
X106287Y445267D01*
X109934Y445267D02*
X111768Y445267D01*
X111853Y445269D01*
X111937Y445275D01*
X112021Y445285D01*
X112105Y445298D01*
X112188Y445316D01*
X112270Y445337D01*
X112351Y445362D01*
X112431Y445391D01*
X112509Y445423D01*
X112585Y445459D01*
X112660Y445499D01*
X112733Y445542D01*
X112804Y445588D01*
X112873Y445637D01*
X112940Y445690D01*
X113004Y445746D01*
X113065Y445804D01*
X113123Y445865D01*
X113179Y445929D01*
X113232Y445996D01*
X113281Y446065D01*
X113327Y446136D01*
X113370Y446209D01*
X113410Y446284D01*
X113446Y446360D01*
X113478Y446438D01*
X113507Y446518D01*
X113532Y446599D01*
X113553Y446681D01*
X113571Y446764D01*
X113584Y446848D01*
X113594Y446932D01*
X113600Y447016D01*
X113602Y447101D01*
X113600Y447186D01*
X113594Y447270D01*
X113584Y447354D01*
X113571Y447438D01*
X113553Y447521D01*
X113532Y447603D01*
X113507Y447684D01*
X113478Y447764D01*
X113446Y447842D01*
X113410Y447918D01*
X113370Y447993D01*
X113327Y448066D01*
X113281Y448137D01*
X113232Y448206D01*
X113179Y448273D01*
X113123Y448337D01*
X113065Y448398D01*
X113004Y448456D01*
X112940Y448512D01*
X112873Y448565D01*
X112804Y448614D01*
X112733Y448660D01*
X112660Y448703D01*
X112585Y448743D01*
X112509Y448779D01*
X112431Y448811D01*
X112351Y448840D01*
X112270Y448865D01*
X112188Y448886D01*
X112105Y448904D01*
X112021Y448917D01*
X111937Y448927D01*
X111853Y448933D01*
X111768Y448935D01*
X112135Y451871D02*
X109934Y451871D01*
X112135Y451871D02*
X112211Y451869D01*
X112286Y451863D01*
X112361Y451854D01*
X112435Y451840D01*
X112509Y451823D01*
X112581Y451801D01*
X112653Y451777D01*
X112723Y451748D01*
X112791Y451716D01*
X112858Y451681D01*
X112923Y451642D01*
X112986Y451599D01*
X113046Y451554D01*
X113104Y451506D01*
X113160Y451454D01*
X113212Y451400D01*
X113262Y451343D01*
X113309Y451284D01*
X113353Y451223D01*
X113394Y451159D01*
X113431Y451093D01*
X113465Y451025D01*
X113495Y450956D01*
X113522Y450885D01*
X113545Y450813D01*
X113564Y450740D01*
X113579Y450666D01*
X113591Y450591D01*
X113599Y450516D01*
X113603Y450441D01*
X113603Y450365D01*
X113599Y450290D01*
X113591Y450215D01*
X113579Y450140D01*
X113564Y450066D01*
X113545Y449993D01*
X113522Y449921D01*
X113495Y449850D01*
X113465Y449781D01*
X113431Y449713D01*
X113394Y449647D01*
X113353Y449583D01*
X113309Y449522D01*
X113262Y449463D01*
X113212Y449406D01*
X113160Y449352D01*
X113104Y449300D01*
X113046Y449252D01*
X112986Y449207D01*
X112923Y449164D01*
X112858Y449125D01*
X112791Y449090D01*
X112723Y449058D01*
X112653Y449029D01*
X112581Y449005D01*
X112509Y448983D01*
X112435Y448966D01*
X112361Y448952D01*
X112286Y448943D01*
X112211Y448937D01*
X112135Y448935D01*
X112135Y448936D02*
X110667Y448936D01*
D34*
X106520Y504830D02*
X106520Y514990D01*
D10*
X94342Y520197D02*
X92875Y520197D01*
X92801Y520199D01*
X92726Y520205D01*
X92653Y520214D01*
X92579Y520227D01*
X92507Y520244D01*
X92436Y520264D01*
X92365Y520288D01*
X92296Y520316D01*
X92229Y520347D01*
X92163Y520381D01*
X92098Y520419D01*
X92036Y520460D01*
X91976Y520504D01*
X91919Y520551D01*
X91864Y520601D01*
X91811Y520654D01*
X91761Y520709D01*
X91714Y520766D01*
X91670Y520826D01*
X91629Y520888D01*
X91591Y520953D01*
X91557Y521019D01*
X91526Y521086D01*
X91498Y521155D01*
X91474Y521226D01*
X91454Y521297D01*
X91437Y521369D01*
X91424Y521443D01*
X91415Y521516D01*
X91409Y521591D01*
X91407Y521665D01*
X91407Y525333D01*
X91409Y525407D01*
X91415Y525482D01*
X91424Y525555D01*
X91437Y525629D01*
X91454Y525701D01*
X91474Y525772D01*
X91498Y525843D01*
X91526Y525912D01*
X91557Y525979D01*
X91591Y526045D01*
X91629Y526110D01*
X91670Y526172D01*
X91714Y526232D01*
X91761Y526289D01*
X91811Y526344D01*
X91864Y526397D01*
X91919Y526447D01*
X91976Y526494D01*
X92036Y526538D01*
X92098Y526579D01*
X92163Y526617D01*
X92228Y526651D01*
X92296Y526682D01*
X92365Y526710D01*
X92436Y526734D01*
X92507Y526754D01*
X92579Y526771D01*
X92653Y526784D01*
X92726Y526793D01*
X92801Y526799D01*
X92875Y526801D01*
X94342Y526801D01*
X97539Y525333D02*
X99373Y526801D01*
X99373Y520197D01*
X97539Y520197D02*
X101207Y520197D01*
X104854Y521665D02*
X106321Y526801D01*
X104854Y521665D02*
X108523Y521665D01*
X107422Y523132D02*
X107422Y520197D01*
D34*
X210660Y446410D02*
X210660Y436250D01*
D10*
X210125Y424439D02*
X211593Y424439D01*
X210125Y424439D02*
X210051Y424441D01*
X209976Y424447D01*
X209903Y424456D01*
X209829Y424469D01*
X209757Y424486D01*
X209686Y424506D01*
X209615Y424530D01*
X209546Y424558D01*
X209479Y424589D01*
X209413Y424623D01*
X209348Y424661D01*
X209286Y424702D01*
X209226Y424746D01*
X209169Y424793D01*
X209114Y424843D01*
X209061Y424896D01*
X209011Y424951D01*
X208964Y425008D01*
X208920Y425068D01*
X208879Y425130D01*
X208841Y425195D01*
X208807Y425261D01*
X208776Y425328D01*
X208748Y425397D01*
X208724Y425468D01*
X208704Y425539D01*
X208687Y425611D01*
X208674Y425685D01*
X208665Y425758D01*
X208659Y425833D01*
X208657Y425907D01*
X208657Y429575D01*
X208659Y429649D01*
X208665Y429724D01*
X208674Y429797D01*
X208687Y429871D01*
X208704Y429943D01*
X208724Y430014D01*
X208748Y430085D01*
X208776Y430154D01*
X208807Y430221D01*
X208841Y430287D01*
X208879Y430352D01*
X208920Y430414D01*
X208964Y430474D01*
X209011Y430531D01*
X209061Y430586D01*
X209114Y430639D01*
X209169Y430689D01*
X209226Y430736D01*
X209286Y430780D01*
X209348Y430821D01*
X209413Y430859D01*
X209478Y430893D01*
X209546Y430924D01*
X209615Y430952D01*
X209686Y430976D01*
X209757Y430996D01*
X209829Y431013D01*
X209903Y431026D01*
X209976Y431035D01*
X210051Y431041D01*
X210125Y431043D01*
X211593Y431043D01*
X214789Y429575D02*
X216623Y431043D01*
X216623Y424439D01*
X214789Y424439D02*
X218458Y424439D01*
X222104Y424439D02*
X224305Y424439D01*
X224379Y424441D01*
X224454Y424447D01*
X224527Y424456D01*
X224601Y424469D01*
X224673Y424486D01*
X224744Y424506D01*
X224815Y424530D01*
X224884Y424558D01*
X224951Y424589D01*
X225017Y424623D01*
X225082Y424661D01*
X225144Y424702D01*
X225204Y424746D01*
X225261Y424793D01*
X225316Y424843D01*
X225369Y424896D01*
X225419Y424951D01*
X225466Y425008D01*
X225510Y425068D01*
X225551Y425130D01*
X225589Y425195D01*
X225623Y425260D01*
X225654Y425328D01*
X225682Y425397D01*
X225706Y425468D01*
X225726Y425539D01*
X225743Y425611D01*
X225756Y425685D01*
X225765Y425758D01*
X225771Y425833D01*
X225773Y425907D01*
X225773Y426640D01*
X225771Y426714D01*
X225765Y426789D01*
X225756Y426862D01*
X225743Y426936D01*
X225726Y427008D01*
X225706Y427079D01*
X225682Y427150D01*
X225654Y427219D01*
X225623Y427286D01*
X225589Y427352D01*
X225551Y427417D01*
X225510Y427479D01*
X225466Y427539D01*
X225419Y427596D01*
X225369Y427651D01*
X225316Y427704D01*
X225261Y427754D01*
X225204Y427801D01*
X225144Y427845D01*
X225082Y427886D01*
X225017Y427924D01*
X224951Y427958D01*
X224884Y427989D01*
X224815Y428017D01*
X224744Y428041D01*
X224673Y428061D01*
X224601Y428078D01*
X224527Y428091D01*
X224454Y428100D01*
X224379Y428106D01*
X224305Y428108D01*
X222104Y428108D01*
X222104Y431043D01*
X225773Y431043D01*
D34*
X164940Y405770D02*
X154780Y405770D01*
D10*
X149573Y393592D02*
X149573Y392125D01*
X149571Y392051D01*
X149565Y391976D01*
X149556Y391903D01*
X149543Y391829D01*
X149526Y391757D01*
X149506Y391686D01*
X149482Y391615D01*
X149454Y391546D01*
X149423Y391479D01*
X149389Y391413D01*
X149351Y391348D01*
X149310Y391286D01*
X149266Y391226D01*
X149219Y391169D01*
X149169Y391114D01*
X149116Y391061D01*
X149061Y391011D01*
X149004Y390964D01*
X148944Y390920D01*
X148882Y390879D01*
X148817Y390841D01*
X148752Y390807D01*
X148684Y390776D01*
X148615Y390748D01*
X148544Y390724D01*
X148473Y390704D01*
X148401Y390687D01*
X148327Y390674D01*
X148254Y390665D01*
X148179Y390659D01*
X148105Y390657D01*
X144437Y390657D01*
X144363Y390659D01*
X144288Y390665D01*
X144215Y390674D01*
X144141Y390687D01*
X144069Y390704D01*
X143998Y390724D01*
X143927Y390748D01*
X143858Y390776D01*
X143791Y390807D01*
X143725Y390841D01*
X143660Y390879D01*
X143598Y390920D01*
X143538Y390964D01*
X143481Y391011D01*
X143426Y391061D01*
X143373Y391114D01*
X143323Y391169D01*
X143276Y391226D01*
X143232Y391286D01*
X143191Y391348D01*
X143153Y391413D01*
X143119Y391478D01*
X143088Y391546D01*
X143060Y391615D01*
X143036Y391686D01*
X143016Y391757D01*
X142999Y391829D01*
X142986Y391903D01*
X142977Y391976D01*
X142971Y392051D01*
X142969Y392125D01*
X142969Y393592D01*
X144437Y396789D02*
X142969Y398623D01*
X149573Y398623D01*
X149573Y396789D02*
X149573Y400457D01*
X145904Y404104D02*
X145904Y406305D01*
X145906Y406379D01*
X145912Y406454D01*
X145921Y406527D01*
X145934Y406601D01*
X145951Y406673D01*
X145971Y406744D01*
X145995Y406815D01*
X146023Y406884D01*
X146054Y406951D01*
X146088Y407017D01*
X146126Y407082D01*
X146167Y407144D01*
X146211Y407204D01*
X146258Y407261D01*
X146308Y407316D01*
X146361Y407369D01*
X146416Y407419D01*
X146473Y407466D01*
X146533Y407510D01*
X146595Y407551D01*
X146660Y407589D01*
X146726Y407623D01*
X146793Y407654D01*
X146862Y407682D01*
X146933Y407706D01*
X147004Y407726D01*
X147076Y407743D01*
X147150Y407756D01*
X147223Y407765D01*
X147298Y407771D01*
X147372Y407773D01*
X147739Y407773D01*
X147739Y407772D02*
X147824Y407770D01*
X147908Y407764D01*
X147992Y407754D01*
X148076Y407741D01*
X148159Y407723D01*
X148241Y407702D01*
X148322Y407677D01*
X148402Y407648D01*
X148480Y407616D01*
X148556Y407580D01*
X148631Y407540D01*
X148704Y407497D01*
X148775Y407451D01*
X148844Y407402D01*
X148911Y407349D01*
X148975Y407293D01*
X149036Y407235D01*
X149094Y407174D01*
X149150Y407110D01*
X149203Y407043D01*
X149252Y406974D01*
X149298Y406903D01*
X149341Y406830D01*
X149381Y406755D01*
X149417Y406679D01*
X149449Y406601D01*
X149478Y406521D01*
X149503Y406440D01*
X149524Y406358D01*
X149542Y406275D01*
X149555Y406191D01*
X149565Y406107D01*
X149571Y406023D01*
X149573Y405938D01*
X149571Y405853D01*
X149565Y405769D01*
X149555Y405685D01*
X149542Y405601D01*
X149524Y405518D01*
X149503Y405436D01*
X149478Y405355D01*
X149449Y405275D01*
X149417Y405197D01*
X149381Y405121D01*
X149341Y405046D01*
X149298Y404973D01*
X149252Y404902D01*
X149203Y404833D01*
X149150Y404766D01*
X149094Y404702D01*
X149036Y404641D01*
X148975Y404583D01*
X148911Y404527D01*
X148844Y404474D01*
X148775Y404425D01*
X148704Y404379D01*
X148631Y404336D01*
X148556Y404296D01*
X148480Y404260D01*
X148402Y404228D01*
X148322Y404199D01*
X148241Y404174D01*
X148159Y404153D01*
X148076Y404135D01*
X147992Y404122D01*
X147908Y404112D01*
X147824Y404106D01*
X147739Y404104D01*
X145904Y404104D01*
X145797Y404106D01*
X145690Y404112D01*
X145583Y404122D01*
X145477Y404135D01*
X145371Y404153D01*
X145266Y404174D01*
X145162Y404199D01*
X145058Y404228D01*
X144956Y404261D01*
X144856Y404298D01*
X144756Y404338D01*
X144658Y404382D01*
X144562Y404429D01*
X144468Y404480D01*
X144375Y404534D01*
X144285Y404591D01*
X144196Y404652D01*
X144110Y404716D01*
X144027Y404783D01*
X143945Y404853D01*
X143867Y404926D01*
X143791Y405002D01*
X143718Y405080D01*
X143648Y405162D01*
X143581Y405245D01*
X143517Y405331D01*
X143456Y405420D01*
X143399Y405510D01*
X143345Y405603D01*
X143294Y405697D01*
X143247Y405793D01*
X143203Y405891D01*
X143163Y405991D01*
X143126Y406091D01*
X143093Y406193D01*
X143064Y406297D01*
X143039Y406401D01*
X143018Y406506D01*
X143000Y406612D01*
X142987Y406718D01*
X142977Y406825D01*
X142971Y406932D01*
X142969Y407039D01*
D34*
X145890Y407040D02*
X135730Y407040D01*
D10*
X157701Y406505D02*
X157701Y407973D01*
X157701Y406505D02*
X157699Y406431D01*
X157693Y406356D01*
X157684Y406283D01*
X157671Y406209D01*
X157654Y406137D01*
X157634Y406066D01*
X157610Y405995D01*
X157582Y405926D01*
X157551Y405859D01*
X157517Y405793D01*
X157479Y405728D01*
X157438Y405666D01*
X157394Y405606D01*
X157347Y405549D01*
X157297Y405494D01*
X157244Y405441D01*
X157189Y405391D01*
X157132Y405344D01*
X157072Y405300D01*
X157010Y405259D01*
X156945Y405221D01*
X156880Y405187D01*
X156812Y405156D01*
X156743Y405128D01*
X156672Y405104D01*
X156601Y405084D01*
X156529Y405067D01*
X156455Y405054D01*
X156382Y405045D01*
X156307Y405039D01*
X156233Y405037D01*
X152565Y405037D01*
X152491Y405039D01*
X152416Y405045D01*
X152343Y405054D01*
X152269Y405067D01*
X152197Y405084D01*
X152126Y405104D01*
X152055Y405128D01*
X151986Y405156D01*
X151919Y405187D01*
X151853Y405221D01*
X151788Y405259D01*
X151726Y405300D01*
X151666Y405344D01*
X151609Y405391D01*
X151554Y405441D01*
X151501Y405494D01*
X151451Y405549D01*
X151404Y405606D01*
X151360Y405666D01*
X151319Y405728D01*
X151281Y405793D01*
X151247Y405858D01*
X151216Y405926D01*
X151188Y405995D01*
X151164Y406066D01*
X151144Y406137D01*
X151127Y406209D01*
X151114Y406283D01*
X151105Y406356D01*
X151099Y406431D01*
X151097Y406505D01*
X151097Y407973D01*
X152565Y411169D02*
X151097Y413003D01*
X157701Y413003D01*
X157701Y411169D02*
X157701Y414838D01*
X155867Y418485D02*
X155782Y418487D01*
X155698Y418493D01*
X155614Y418503D01*
X155530Y418516D01*
X155447Y418534D01*
X155365Y418555D01*
X155284Y418580D01*
X155204Y418609D01*
X155126Y418641D01*
X155050Y418677D01*
X154975Y418717D01*
X154902Y418760D01*
X154831Y418806D01*
X154762Y418855D01*
X154695Y418908D01*
X154631Y418964D01*
X154570Y419022D01*
X154512Y419083D01*
X154456Y419147D01*
X154403Y419214D01*
X154354Y419283D01*
X154308Y419354D01*
X154265Y419427D01*
X154225Y419502D01*
X154189Y419578D01*
X154157Y419656D01*
X154128Y419736D01*
X154103Y419817D01*
X154082Y419899D01*
X154064Y419982D01*
X154051Y420066D01*
X154041Y420150D01*
X154035Y420234D01*
X154033Y420319D01*
X154035Y420404D01*
X154041Y420488D01*
X154051Y420572D01*
X154064Y420656D01*
X154082Y420739D01*
X154103Y420821D01*
X154128Y420902D01*
X154157Y420982D01*
X154189Y421060D01*
X154225Y421136D01*
X154265Y421211D01*
X154308Y421284D01*
X154354Y421355D01*
X154403Y421424D01*
X154456Y421491D01*
X154512Y421555D01*
X154570Y421616D01*
X154631Y421674D01*
X154695Y421730D01*
X154762Y421783D01*
X154831Y421832D01*
X154902Y421878D01*
X154975Y421921D01*
X155050Y421961D01*
X155126Y421997D01*
X155204Y422029D01*
X155284Y422058D01*
X155365Y422083D01*
X155447Y422104D01*
X155530Y422122D01*
X155614Y422135D01*
X155698Y422145D01*
X155782Y422151D01*
X155867Y422153D01*
X155952Y422151D01*
X156036Y422145D01*
X156120Y422135D01*
X156204Y422122D01*
X156287Y422104D01*
X156369Y422083D01*
X156450Y422058D01*
X156530Y422029D01*
X156608Y421997D01*
X156684Y421961D01*
X156759Y421921D01*
X156832Y421878D01*
X156903Y421832D01*
X156972Y421783D01*
X157039Y421730D01*
X157103Y421674D01*
X157164Y421616D01*
X157222Y421555D01*
X157278Y421491D01*
X157331Y421424D01*
X157380Y421355D01*
X157426Y421284D01*
X157469Y421211D01*
X157509Y421136D01*
X157545Y421060D01*
X157577Y420982D01*
X157606Y420902D01*
X157631Y420821D01*
X157652Y420739D01*
X157670Y420656D01*
X157683Y420572D01*
X157693Y420488D01*
X157699Y420404D01*
X157701Y420319D01*
X157699Y420234D01*
X157693Y420150D01*
X157683Y420066D01*
X157670Y419982D01*
X157652Y419899D01*
X157631Y419817D01*
X157606Y419736D01*
X157577Y419656D01*
X157545Y419578D01*
X157509Y419502D01*
X157469Y419427D01*
X157426Y419354D01*
X157380Y419283D01*
X157331Y419214D01*
X157278Y419147D01*
X157222Y419083D01*
X157164Y419022D01*
X157103Y418964D01*
X157039Y418908D01*
X156972Y418855D01*
X156903Y418806D01*
X156832Y418760D01*
X156759Y418717D01*
X156684Y418677D01*
X156608Y418641D01*
X156530Y418609D01*
X156450Y418580D01*
X156369Y418555D01*
X156287Y418534D01*
X156204Y418516D01*
X156120Y418503D01*
X156036Y418493D01*
X155952Y418487D01*
X155867Y418485D01*
X152565Y418851D02*
X152489Y418853D01*
X152414Y418859D01*
X152339Y418868D01*
X152265Y418882D01*
X152191Y418899D01*
X152119Y418921D01*
X152047Y418945D01*
X151977Y418974D01*
X151909Y419006D01*
X151842Y419041D01*
X151777Y419080D01*
X151714Y419123D01*
X151654Y419168D01*
X151596Y419216D01*
X151540Y419268D01*
X151488Y419322D01*
X151438Y419379D01*
X151391Y419438D01*
X151347Y419499D01*
X151306Y419563D01*
X151269Y419629D01*
X151235Y419697D01*
X151205Y419766D01*
X151178Y419837D01*
X151155Y419909D01*
X151136Y419982D01*
X151121Y420056D01*
X151109Y420131D01*
X151101Y420206D01*
X151097Y420281D01*
X151097Y420357D01*
X151101Y420432D01*
X151109Y420507D01*
X151121Y420582D01*
X151136Y420656D01*
X151155Y420729D01*
X151178Y420801D01*
X151205Y420872D01*
X151235Y420941D01*
X151269Y421009D01*
X151306Y421075D01*
X151347Y421139D01*
X151391Y421200D01*
X151438Y421259D01*
X151488Y421316D01*
X151540Y421370D01*
X151596Y421422D01*
X151654Y421470D01*
X151714Y421515D01*
X151777Y421558D01*
X151842Y421597D01*
X151909Y421632D01*
X151977Y421664D01*
X152047Y421693D01*
X152119Y421717D01*
X152191Y421739D01*
X152265Y421756D01*
X152339Y421770D01*
X152414Y421779D01*
X152489Y421785D01*
X152565Y421787D01*
X152641Y421785D01*
X152716Y421779D01*
X152791Y421770D01*
X152865Y421756D01*
X152939Y421739D01*
X153011Y421717D01*
X153083Y421693D01*
X153153Y421664D01*
X153221Y421632D01*
X153288Y421597D01*
X153353Y421558D01*
X153416Y421515D01*
X153476Y421470D01*
X153534Y421422D01*
X153590Y421370D01*
X153642Y421316D01*
X153692Y421259D01*
X153739Y421200D01*
X153783Y421139D01*
X153824Y421075D01*
X153861Y421009D01*
X153895Y420941D01*
X153925Y420872D01*
X153952Y420801D01*
X153975Y420729D01*
X153994Y420656D01*
X154009Y420582D01*
X154021Y420507D01*
X154029Y420432D01*
X154033Y420357D01*
X154033Y420281D01*
X154029Y420206D01*
X154021Y420131D01*
X154009Y420056D01*
X153994Y419982D01*
X153975Y419909D01*
X153952Y419837D01*
X153925Y419766D01*
X153895Y419697D01*
X153861Y419629D01*
X153824Y419563D01*
X153783Y419499D01*
X153739Y419438D01*
X153692Y419379D01*
X153642Y419322D01*
X153590Y419268D01*
X153534Y419216D01*
X153476Y419168D01*
X153416Y419123D01*
X153353Y419080D01*
X153288Y419041D01*
X153221Y419006D01*
X153153Y418974D01*
X153083Y418945D01*
X153011Y418921D01*
X152939Y418899D01*
X152865Y418882D01*
X152791Y418868D01*
X152716Y418859D01*
X152641Y418853D01*
X152565Y418851D01*
D34*
X209390Y480700D02*
X209390Y490860D01*
D10*
X194277Y496067D02*
X194277Y502671D01*
X196111Y502671D01*
X196196Y502669D01*
X196280Y502663D01*
X196364Y502653D01*
X196448Y502640D01*
X196531Y502622D01*
X196613Y502601D01*
X196694Y502576D01*
X196774Y502547D01*
X196852Y502515D01*
X196928Y502479D01*
X197003Y502439D01*
X197076Y502396D01*
X197147Y502350D01*
X197216Y502301D01*
X197283Y502248D01*
X197347Y502192D01*
X197408Y502134D01*
X197466Y502073D01*
X197522Y502009D01*
X197575Y501942D01*
X197624Y501873D01*
X197670Y501802D01*
X197713Y501729D01*
X197753Y501654D01*
X197789Y501578D01*
X197821Y501500D01*
X197850Y501420D01*
X197875Y501339D01*
X197896Y501257D01*
X197914Y501174D01*
X197927Y501090D01*
X197937Y501006D01*
X197943Y500922D01*
X197945Y500837D01*
X197943Y500752D01*
X197937Y500668D01*
X197927Y500584D01*
X197914Y500500D01*
X197896Y500417D01*
X197875Y500335D01*
X197850Y500254D01*
X197821Y500174D01*
X197789Y500096D01*
X197753Y500020D01*
X197713Y499945D01*
X197670Y499872D01*
X197624Y499801D01*
X197575Y499732D01*
X197522Y499665D01*
X197466Y499601D01*
X197408Y499540D01*
X197347Y499482D01*
X197283Y499426D01*
X197216Y499373D01*
X197147Y499324D01*
X197076Y499278D01*
X197003Y499235D01*
X196928Y499195D01*
X196852Y499159D01*
X196774Y499127D01*
X196694Y499098D01*
X196613Y499073D01*
X196531Y499052D01*
X196448Y499034D01*
X196364Y499021D01*
X196280Y499011D01*
X196196Y499005D01*
X196111Y499003D01*
X196111Y499002D02*
X194277Y499002D01*
X196478Y499002D02*
X197946Y496067D01*
X203531Y502671D02*
X203610Y502669D01*
X203688Y502664D01*
X203766Y502654D01*
X203843Y502641D01*
X203920Y502624D01*
X203996Y502604D01*
X204071Y502580D01*
X204145Y502553D01*
X204217Y502522D01*
X204288Y502487D01*
X204357Y502450D01*
X204424Y502409D01*
X204489Y502365D01*
X204552Y502318D01*
X204612Y502268D01*
X204670Y502215D01*
X204726Y502159D01*
X204779Y502101D01*
X204829Y502041D01*
X204876Y501978D01*
X204920Y501913D01*
X204961Y501846D01*
X204998Y501777D01*
X205033Y501706D01*
X205064Y501634D01*
X205091Y501560D01*
X205115Y501485D01*
X205135Y501409D01*
X205152Y501332D01*
X205165Y501255D01*
X205175Y501177D01*
X205180Y501099D01*
X205182Y501020D01*
X203531Y502671D02*
X203442Y502669D01*
X203353Y502664D01*
X203265Y502654D01*
X203177Y502641D01*
X203090Y502625D01*
X203003Y502604D01*
X202918Y502580D01*
X202833Y502553D01*
X202750Y502522D01*
X202668Y502487D01*
X202587Y502449D01*
X202508Y502408D01*
X202432Y502364D01*
X202356Y502316D01*
X202283Y502265D01*
X202213Y502212D01*
X202144Y502155D01*
X202078Y502095D01*
X202015Y502033D01*
X201954Y501968D01*
X201896Y501901D01*
X201841Y501831D01*
X201788Y501759D01*
X201739Y501685D01*
X201693Y501609D01*
X201651Y501531D01*
X201611Y501451D01*
X201575Y501370D01*
X201542Y501287D01*
X201513Y501203D01*
X204632Y499736D02*
X204688Y499792D01*
X204742Y499851D01*
X204793Y499912D01*
X204842Y499976D01*
X204887Y500041D01*
X204930Y500109D01*
X204969Y500178D01*
X205006Y500249D01*
X205039Y500322D01*
X205068Y500396D01*
X205095Y500471D01*
X205118Y500547D01*
X205137Y500625D01*
X205153Y500703D01*
X205166Y500781D01*
X205175Y500861D01*
X205180Y500940D01*
X205182Y501020D01*
X204632Y499736D02*
X201513Y496067D01*
X205182Y496067D01*
X208829Y496067D02*
X211030Y496067D01*
X211104Y496069D01*
X211179Y496075D01*
X211252Y496084D01*
X211326Y496097D01*
X211398Y496114D01*
X211469Y496134D01*
X211540Y496158D01*
X211609Y496186D01*
X211676Y496217D01*
X211742Y496251D01*
X211807Y496289D01*
X211869Y496330D01*
X211929Y496374D01*
X211986Y496421D01*
X212041Y496471D01*
X212094Y496524D01*
X212144Y496579D01*
X212191Y496636D01*
X212235Y496696D01*
X212276Y496758D01*
X212314Y496823D01*
X212348Y496888D01*
X212379Y496956D01*
X212407Y497025D01*
X212431Y497096D01*
X212451Y497167D01*
X212468Y497239D01*
X212481Y497313D01*
X212490Y497386D01*
X212496Y497461D01*
X212498Y497535D01*
X212497Y497535D02*
X212497Y498268D01*
X212498Y498268D02*
X212496Y498342D01*
X212490Y498417D01*
X212481Y498490D01*
X212468Y498564D01*
X212451Y498636D01*
X212431Y498707D01*
X212407Y498778D01*
X212379Y498847D01*
X212348Y498914D01*
X212314Y498980D01*
X212276Y499045D01*
X212235Y499107D01*
X212191Y499167D01*
X212144Y499224D01*
X212094Y499279D01*
X212041Y499332D01*
X211986Y499382D01*
X211929Y499429D01*
X211869Y499473D01*
X211807Y499514D01*
X211742Y499552D01*
X211676Y499586D01*
X211609Y499617D01*
X211540Y499645D01*
X211469Y499669D01*
X211398Y499689D01*
X211326Y499706D01*
X211252Y499719D01*
X211179Y499728D01*
X211104Y499734D01*
X211030Y499736D01*
X208829Y499736D01*
X208829Y502671D01*
X212497Y502671D01*
D35*
X221930Y454650D02*
X201930Y454650D01*
X201930Y468650D02*
X221930Y468650D01*
X214430Y461650D02*
X208430Y457650D01*
X208430Y465650D01*
X214430Y461650D01*
D36*
X215430Y461650D03*
D10*
X210940Y450888D02*
X210940Y444284D01*
X210940Y450888D02*
X212775Y450888D01*
X212860Y450886D01*
X212944Y450880D01*
X213028Y450870D01*
X213112Y450857D01*
X213195Y450839D01*
X213277Y450818D01*
X213358Y450793D01*
X213438Y450764D01*
X213516Y450732D01*
X213592Y450696D01*
X213667Y450656D01*
X213740Y450613D01*
X213811Y450567D01*
X213880Y450518D01*
X213947Y450465D01*
X214011Y450409D01*
X214072Y450351D01*
X214130Y450290D01*
X214186Y450226D01*
X214239Y450159D01*
X214288Y450090D01*
X214334Y450019D01*
X214377Y449946D01*
X214417Y449871D01*
X214453Y449795D01*
X214485Y449717D01*
X214514Y449637D01*
X214539Y449556D01*
X214560Y449474D01*
X214578Y449391D01*
X214591Y449307D01*
X214601Y449223D01*
X214607Y449139D01*
X214609Y449054D01*
X214609Y446118D01*
X214607Y446033D01*
X214601Y445949D01*
X214591Y445865D01*
X214578Y445781D01*
X214560Y445698D01*
X214539Y445616D01*
X214514Y445535D01*
X214485Y445455D01*
X214453Y445377D01*
X214417Y445301D01*
X214377Y445226D01*
X214334Y445153D01*
X214288Y445082D01*
X214239Y445013D01*
X214186Y444946D01*
X214130Y444882D01*
X214072Y444821D01*
X214011Y444763D01*
X213947Y444707D01*
X213880Y444654D01*
X213811Y444605D01*
X213740Y444559D01*
X213667Y444516D01*
X213592Y444476D01*
X213516Y444440D01*
X213438Y444408D01*
X213358Y444379D01*
X213277Y444354D01*
X213195Y444333D01*
X213112Y444315D01*
X213028Y444302D01*
X212944Y444292D01*
X212860Y444286D01*
X212775Y444284D01*
X210940Y444284D01*
X218499Y444284D02*
X220334Y444284D01*
X220419Y444286D01*
X220503Y444292D01*
X220587Y444302D01*
X220671Y444315D01*
X220754Y444333D01*
X220836Y444354D01*
X220917Y444379D01*
X220997Y444408D01*
X221075Y444440D01*
X221151Y444476D01*
X221226Y444516D01*
X221299Y444559D01*
X221370Y444605D01*
X221439Y444654D01*
X221506Y444707D01*
X221570Y444763D01*
X221631Y444821D01*
X221689Y444882D01*
X221745Y444946D01*
X221798Y445013D01*
X221847Y445082D01*
X221893Y445153D01*
X221936Y445226D01*
X221976Y445301D01*
X222012Y445377D01*
X222044Y445455D01*
X222073Y445535D01*
X222098Y445616D01*
X222119Y445698D01*
X222137Y445781D01*
X222150Y445865D01*
X222160Y445949D01*
X222166Y446033D01*
X222168Y446118D01*
X222166Y446203D01*
X222160Y446287D01*
X222150Y446371D01*
X222137Y446455D01*
X222119Y446538D01*
X222098Y446620D01*
X222073Y446701D01*
X222044Y446781D01*
X222012Y446859D01*
X221976Y446935D01*
X221936Y447010D01*
X221893Y447083D01*
X221847Y447154D01*
X221798Y447223D01*
X221745Y447290D01*
X221689Y447354D01*
X221631Y447415D01*
X221570Y447473D01*
X221506Y447529D01*
X221439Y447582D01*
X221370Y447631D01*
X221299Y447677D01*
X221226Y447720D01*
X221151Y447760D01*
X221075Y447796D01*
X220997Y447828D01*
X220917Y447857D01*
X220836Y447882D01*
X220754Y447903D01*
X220671Y447921D01*
X220587Y447934D01*
X220503Y447944D01*
X220419Y447950D01*
X220334Y447952D01*
X220700Y450888D02*
X218499Y450888D01*
X220700Y450888D02*
X220776Y450886D01*
X220851Y450880D01*
X220926Y450871D01*
X221000Y450857D01*
X221074Y450840D01*
X221146Y450818D01*
X221218Y450794D01*
X221288Y450765D01*
X221356Y450733D01*
X221423Y450698D01*
X221488Y450659D01*
X221551Y450616D01*
X221611Y450571D01*
X221669Y450523D01*
X221725Y450471D01*
X221777Y450417D01*
X221827Y450360D01*
X221874Y450301D01*
X221918Y450240D01*
X221959Y450176D01*
X221996Y450110D01*
X222030Y450042D01*
X222060Y449973D01*
X222087Y449902D01*
X222110Y449830D01*
X222129Y449757D01*
X222144Y449683D01*
X222156Y449608D01*
X222164Y449533D01*
X222168Y449458D01*
X222168Y449382D01*
X222164Y449307D01*
X222156Y449232D01*
X222144Y449157D01*
X222129Y449083D01*
X222110Y449010D01*
X222087Y448938D01*
X222060Y448867D01*
X222030Y448798D01*
X221996Y448730D01*
X221959Y448664D01*
X221918Y448600D01*
X221874Y448539D01*
X221827Y448480D01*
X221777Y448423D01*
X221725Y448369D01*
X221669Y448317D01*
X221611Y448269D01*
X221551Y448224D01*
X221488Y448181D01*
X221423Y448142D01*
X221356Y448107D01*
X221288Y448075D01*
X221218Y448046D01*
X221146Y448022D01*
X221074Y448000D01*
X221000Y447983D01*
X220926Y447969D01*
X220851Y447960D01*
X220776Y447954D01*
X220700Y447952D01*
X220700Y447953D02*
X219233Y447953D01*
X16030Y136190D02*
X16030Y123490D01*
X16030Y136190D02*
X22380Y142540D01*
X35080Y142540D01*
X41430Y136190D01*
X35080Y117140D02*
X22380Y117140D01*
X16030Y123490D01*
X35080Y117140D02*
X41430Y123490D01*
X41430Y136190D01*
X22380Y142540D02*
X16030Y148890D01*
X16030Y161590D01*
X22380Y167940D01*
X35080Y167940D01*
X41430Y161590D01*
X41430Y148890D01*
X35080Y142540D01*
X38100Y272034D02*
X38100Y276606D01*
X38100Y208534D02*
X76200Y208534D01*
X76200Y224536D01*
X76200Y276606D02*
X38100Y276606D01*
X38100Y259080D02*
X38100Y249174D01*
X38100Y235966D02*
X38100Y226060D01*
X38100Y213106D02*
X38100Y208534D01*
X76200Y260604D02*
X76200Y276606D01*
X21590Y286766D02*
X21520Y286768D01*
X21450Y286774D01*
X21381Y286783D01*
X21312Y286797D01*
X21244Y286814D01*
X21178Y286835D01*
X21112Y286859D01*
X21048Y286887D01*
X20986Y286919D01*
X20925Y286954D01*
X20866Y286992D01*
X20810Y287034D01*
X20756Y287078D01*
X20704Y287126D01*
X20656Y287176D01*
X20610Y287229D01*
X20567Y287284D01*
X20527Y287341D01*
X20490Y287401D01*
X20457Y287463D01*
X20427Y287526D01*
X20401Y287591D01*
X20378Y287657D01*
X20359Y287724D01*
X20344Y287793D01*
X20332Y287862D01*
X20324Y287931D01*
X20320Y288001D01*
X20320Y288071D01*
X20324Y288141D01*
X20332Y288210D01*
X20344Y288279D01*
X20359Y288348D01*
X20378Y288415D01*
X20401Y288481D01*
X20427Y288546D01*
X20457Y288609D01*
X20490Y288671D01*
X20527Y288731D01*
X20567Y288788D01*
X20610Y288843D01*
X20656Y288896D01*
X20704Y288946D01*
X20756Y288994D01*
X20810Y289038D01*
X20866Y289080D01*
X20925Y289118D01*
X20986Y289153D01*
X21048Y289185D01*
X21112Y289213D01*
X21178Y289237D01*
X21244Y289258D01*
X21312Y289275D01*
X21381Y289289D01*
X21450Y289298D01*
X21520Y289304D01*
X21590Y289306D01*
X21660Y289304D01*
X21730Y289298D01*
X21799Y289289D01*
X21868Y289275D01*
X21936Y289258D01*
X22002Y289237D01*
X22068Y289213D01*
X22132Y289185D01*
X22194Y289153D01*
X22255Y289118D01*
X22314Y289080D01*
X22370Y289038D01*
X22424Y288994D01*
X22476Y288946D01*
X22524Y288896D01*
X22570Y288843D01*
X22613Y288788D01*
X22653Y288731D01*
X22690Y288671D01*
X22723Y288609D01*
X22753Y288546D01*
X22779Y288481D01*
X22802Y288415D01*
X22821Y288348D01*
X22836Y288279D01*
X22848Y288210D01*
X22856Y288141D01*
X22860Y288071D01*
X22860Y288001D01*
X22856Y287931D01*
X22848Y287862D01*
X22836Y287793D01*
X22821Y287724D01*
X22802Y287657D01*
X22779Y287591D01*
X22753Y287526D01*
X22723Y287463D01*
X22690Y287401D01*
X22653Y287341D01*
X22613Y287284D01*
X22570Y287229D01*
X22524Y287176D01*
X22476Y287126D01*
X22424Y287078D01*
X22370Y287034D01*
X22314Y286992D01*
X22255Y286954D01*
X22194Y286919D01*
X22132Y286887D01*
X22068Y286859D01*
X22002Y286835D01*
X21936Y286814D01*
X21868Y286797D01*
X21799Y286783D01*
X21730Y286774D01*
X21660Y286768D01*
X21590Y286766D01*
D12*
X51181Y260976D02*
X63119Y264955D01*
X63119Y256996D02*
X51181Y260976D01*
X51181Y252416D02*
X63119Y252416D01*
X63119Y249100D01*
X63117Y248986D01*
X63111Y248871D01*
X63101Y248757D01*
X63087Y248644D01*
X63070Y248530D01*
X63048Y248418D01*
X63023Y248306D01*
X62993Y248196D01*
X62960Y248086D01*
X62923Y247978D01*
X62883Y247871D01*
X62838Y247765D01*
X62791Y247661D01*
X62739Y247559D01*
X62684Y247459D01*
X62626Y247360D01*
X62564Y247264D01*
X62499Y247169D01*
X62431Y247078D01*
X62359Y246988D01*
X62285Y246901D01*
X62208Y246817D01*
X62127Y246735D01*
X62044Y246656D01*
X61959Y246580D01*
X61870Y246507D01*
X61780Y246438D01*
X61687Y246371D01*
X61591Y246308D01*
X61494Y246248D01*
X61394Y246191D01*
X61293Y246138D01*
X61190Y246088D01*
X61085Y246042D01*
X60979Y245999D01*
X60871Y245961D01*
X60762Y245926D01*
X60652Y245895D01*
X60541Y245867D01*
X60429Y245844D01*
X60316Y245824D01*
X60203Y245808D01*
X60089Y245796D01*
X59975Y245788D01*
X59860Y245784D01*
X59746Y245784D01*
X59631Y245788D01*
X59517Y245796D01*
X59403Y245808D01*
X59290Y245824D01*
X59177Y245844D01*
X59065Y245867D01*
X58954Y245895D01*
X58844Y245926D01*
X58735Y245961D01*
X58627Y245999D01*
X58521Y246042D01*
X58416Y246088D01*
X58313Y246138D01*
X58212Y246191D01*
X58112Y246248D01*
X58015Y246308D01*
X57919Y246371D01*
X57826Y246438D01*
X57736Y246507D01*
X57647Y246580D01*
X57562Y246656D01*
X57479Y246735D01*
X57398Y246817D01*
X57321Y246901D01*
X57247Y246988D01*
X57175Y247078D01*
X57107Y247169D01*
X57042Y247264D01*
X56980Y247360D01*
X56922Y247459D01*
X56867Y247559D01*
X56815Y247661D01*
X56768Y247765D01*
X56723Y247871D01*
X56683Y247978D01*
X56646Y248086D01*
X56613Y248196D01*
X56583Y248306D01*
X56558Y248418D01*
X56536Y248530D01*
X56519Y248644D01*
X56505Y248757D01*
X56495Y248871D01*
X56489Y248986D01*
X56487Y249100D01*
X56487Y252416D01*
X56487Y248437D02*
X51181Y245784D01*
X51181Y240650D02*
X51181Y235344D01*
X51181Y240650D02*
X63119Y240650D01*
X63119Y235344D01*
X57813Y236671D02*
X57813Y240650D01*
X57813Y226121D02*
X57813Y224132D01*
X51181Y224132D01*
X51181Y228111D01*
X51183Y228213D01*
X51189Y228314D01*
X51199Y228415D01*
X51212Y228516D01*
X51230Y228616D01*
X51251Y228715D01*
X51276Y228814D01*
X51305Y228911D01*
X51337Y229008D01*
X51373Y229103D01*
X51413Y229196D01*
X51456Y229288D01*
X51503Y229378D01*
X51554Y229467D01*
X51607Y229553D01*
X51664Y229637D01*
X51724Y229719D01*
X51787Y229799D01*
X51853Y229876D01*
X51922Y229951D01*
X51994Y230023D01*
X52069Y230092D01*
X52146Y230158D01*
X52226Y230221D01*
X52308Y230281D01*
X52392Y230338D01*
X52478Y230391D01*
X52567Y230442D01*
X52657Y230489D01*
X52749Y230532D01*
X52842Y230572D01*
X52937Y230608D01*
X53034Y230640D01*
X53131Y230669D01*
X53230Y230694D01*
X53329Y230715D01*
X53429Y230733D01*
X53530Y230746D01*
X53631Y230756D01*
X53732Y230762D01*
X53834Y230764D01*
X60466Y230764D01*
X60568Y230762D01*
X60669Y230756D01*
X60770Y230746D01*
X60871Y230733D01*
X60971Y230715D01*
X61070Y230694D01*
X61169Y230669D01*
X61266Y230640D01*
X61363Y230608D01*
X61458Y230572D01*
X61551Y230532D01*
X61643Y230489D01*
X61733Y230442D01*
X61822Y230391D01*
X61908Y230338D01*
X61992Y230281D01*
X62074Y230221D01*
X62154Y230158D01*
X62231Y230092D01*
X62306Y230023D01*
X62378Y229951D01*
X62447Y229876D01*
X62513Y229799D01*
X62576Y229719D01*
X62636Y229637D01*
X62693Y229553D01*
X62746Y229467D01*
X62797Y229378D01*
X62844Y229288D01*
X62887Y229196D01*
X62927Y229103D01*
X62963Y229008D01*
X62995Y228911D01*
X63024Y228814D01*
X63049Y228716D01*
X63070Y228616D01*
X63088Y228516D01*
X63101Y228415D01*
X63111Y228314D01*
X63117Y228213D01*
X63119Y228111D01*
X63119Y224132D01*
D10*
X30480Y388620D02*
X17780Y388620D01*
X30480Y388620D02*
X36830Y382270D01*
X36830Y369570D01*
X30480Y363220D01*
X36830Y382270D02*
X43180Y388620D01*
X55880Y388620D01*
X62230Y382270D01*
X62230Y369570D01*
X55880Y363220D01*
X43180Y363220D01*
X36830Y369570D01*
X11430Y369570D02*
X11430Y382270D01*
X17780Y388620D01*
X11430Y369570D02*
X17780Y363220D01*
X30480Y363220D01*
X62230Y382270D02*
X68580Y388620D01*
X81280Y388620D01*
X87630Y382270D01*
X87630Y369570D01*
X81280Y363220D01*
X68580Y363220D01*
X62230Y369570D01*
D11*
X9167Y379454D02*
X9165Y379547D01*
X9159Y379639D01*
X9150Y379732D01*
X9136Y379824D01*
X9119Y379915D01*
X9098Y380005D01*
X9074Y380095D01*
X9045Y380183D01*
X9013Y380270D01*
X8978Y380356D01*
X8939Y380440D01*
X8896Y380523D01*
X8850Y380604D01*
X8801Y380682D01*
X8749Y380759D01*
X8693Y380834D01*
X8635Y380906D01*
X8573Y380975D01*
X8509Y381042D01*
X8442Y381106D01*
X8373Y381168D01*
X8301Y381226D01*
X8226Y381282D01*
X8149Y381334D01*
X8071Y381383D01*
X7990Y381429D01*
X7907Y381472D01*
X7823Y381511D01*
X7737Y381546D01*
X7650Y381578D01*
X7562Y381607D01*
X7472Y381631D01*
X7382Y381652D01*
X7291Y381669D01*
X7199Y381683D01*
X7106Y381692D01*
X7014Y381698D01*
X6921Y381700D01*
X6921Y381701D02*
X6814Y381699D01*
X6708Y381693D01*
X6601Y381683D01*
X6496Y381669D01*
X6390Y381652D01*
X6286Y381630D01*
X6182Y381605D01*
X6079Y381576D01*
X5978Y381543D01*
X5878Y381506D01*
X5779Y381465D01*
X5682Y381421D01*
X5586Y381374D01*
X5492Y381323D01*
X5401Y381268D01*
X5311Y381210D01*
X5224Y381149D01*
X5138Y381085D01*
X5056Y381017D01*
X4976Y380947D01*
X4898Y380873D01*
X4823Y380797D01*
X4751Y380718D01*
X4683Y380637D01*
X4617Y380553D01*
X4554Y380466D01*
X4495Y380378D01*
X4438Y380287D01*
X4386Y380194D01*
X4336Y380099D01*
X4291Y380003D01*
X4249Y379905D01*
X4210Y379805D01*
X4175Y379704D01*
X8419Y377707D02*
X8489Y377776D01*
X8555Y377847D01*
X8619Y377921D01*
X8679Y377998D01*
X8737Y378077D01*
X8791Y378158D01*
X8841Y378242D01*
X8889Y378327D01*
X8933Y378415D01*
X8973Y378504D01*
X9010Y378594D01*
X9043Y378686D01*
X9072Y378779D01*
X9097Y378874D01*
X9119Y378969D01*
X9136Y379065D01*
X9150Y379162D01*
X9160Y379259D01*
X9166Y379356D01*
X9168Y379454D01*
X8418Y377707D02*
X4176Y372716D01*
X9167Y372716D01*
D10*
X17780Y421640D02*
X30480Y421640D01*
X36830Y415290D01*
X36830Y402590D01*
X30480Y396240D01*
X36830Y415290D02*
X43180Y421640D01*
X55880Y421640D01*
X62230Y415290D01*
X62230Y402590D01*
X55880Y396240D01*
X43180Y396240D01*
X36830Y402590D01*
X11430Y402590D02*
X11430Y415290D01*
X17780Y421640D01*
X11430Y402590D02*
X17780Y396240D01*
X30480Y396240D01*
X62230Y415290D02*
X68580Y421640D01*
X81280Y421640D01*
X87630Y415290D01*
X87630Y402590D01*
X81280Y396240D01*
X68580Y396240D01*
X62230Y402590D01*
D11*
X6672Y413720D02*
X4176Y411724D01*
X6672Y413720D02*
X6672Y404736D01*
X9167Y404736D02*
X4176Y404736D01*
D10*
X17780Y355600D02*
X30480Y355600D01*
X36830Y349250D01*
X36830Y336550D01*
X30480Y330200D01*
X36830Y349250D02*
X43180Y355600D01*
X55880Y355600D01*
X62230Y349250D01*
X62230Y336550D01*
X55880Y330200D01*
X43180Y330200D01*
X36830Y336550D01*
X11430Y336550D02*
X11430Y349250D01*
X17780Y355600D01*
X11430Y336550D02*
X17780Y330200D01*
X30480Y330200D01*
X62230Y349250D02*
X68580Y355600D01*
X81280Y355600D01*
X87630Y349250D01*
X87630Y336550D01*
X81280Y330200D01*
X68580Y330200D01*
X62230Y336550D01*
D11*
X6672Y338696D02*
X4176Y338696D01*
X6672Y338696D02*
X6771Y338698D01*
X6870Y338704D01*
X6969Y338714D01*
X7067Y338728D01*
X7165Y338745D01*
X7262Y338767D01*
X7358Y338792D01*
X7453Y338821D01*
X7546Y338854D01*
X7639Y338891D01*
X7729Y338931D01*
X7818Y338975D01*
X7906Y339022D01*
X7991Y339073D01*
X8074Y339127D01*
X8155Y339184D01*
X8234Y339245D01*
X8310Y339309D01*
X8384Y339375D01*
X8454Y339445D01*
X8522Y339517D01*
X8588Y339592D01*
X8650Y339669D01*
X8709Y339749D01*
X8764Y339831D01*
X8817Y339915D01*
X8866Y340002D01*
X8912Y340090D01*
X8954Y340180D01*
X8992Y340271D01*
X9027Y340364D01*
X9058Y340459D01*
X9085Y340554D01*
X9109Y340650D01*
X9128Y340748D01*
X9144Y340846D01*
X9156Y340944D01*
X9164Y341043D01*
X9168Y341142D01*
X9168Y341242D01*
X9164Y341341D01*
X9156Y341440D01*
X9144Y341538D01*
X9128Y341636D01*
X9109Y341734D01*
X9085Y341830D01*
X9058Y341925D01*
X9027Y342020D01*
X8992Y342113D01*
X8954Y342204D01*
X8912Y342294D01*
X8866Y342382D01*
X8817Y342469D01*
X8764Y342553D01*
X8709Y342635D01*
X8650Y342715D01*
X8588Y342792D01*
X8522Y342867D01*
X8454Y342939D01*
X8384Y343009D01*
X8310Y343075D01*
X8234Y343139D01*
X8155Y343200D01*
X8074Y343257D01*
X7991Y343311D01*
X7906Y343362D01*
X7818Y343409D01*
X7729Y343453D01*
X7639Y343493D01*
X7546Y343530D01*
X7453Y343563D01*
X7358Y343592D01*
X7262Y343617D01*
X7165Y343639D01*
X7067Y343656D01*
X6969Y343670D01*
X6870Y343680D01*
X6771Y343686D01*
X6672Y343688D01*
X7171Y347680D02*
X4176Y347680D01*
X7171Y347680D02*
X7259Y347678D01*
X7347Y347672D01*
X7435Y347662D01*
X7522Y347649D01*
X7609Y347631D01*
X7695Y347610D01*
X7779Y347585D01*
X7863Y347556D01*
X7945Y347524D01*
X8026Y347488D01*
X8105Y347448D01*
X8182Y347405D01*
X8257Y347359D01*
X8330Y347309D01*
X8401Y347256D01*
X8469Y347200D01*
X8535Y347141D01*
X8598Y347080D01*
X8658Y347015D01*
X8716Y346948D01*
X8770Y346879D01*
X8821Y346807D01*
X8869Y346733D01*
X8914Y346656D01*
X8955Y346578D01*
X8993Y346499D01*
X9027Y346417D01*
X9058Y346334D01*
X9085Y346250D01*
X9108Y346165D01*
X9128Y346079D01*
X9143Y345992D01*
X9155Y345904D01*
X9163Y345816D01*
X9167Y345728D01*
X9167Y345640D01*
X9163Y345552D01*
X9155Y345464D01*
X9143Y345376D01*
X9128Y345289D01*
X9108Y345203D01*
X9085Y345118D01*
X9058Y345034D01*
X9027Y344951D01*
X8993Y344869D01*
X8955Y344790D01*
X8914Y344712D01*
X8869Y344635D01*
X8821Y344561D01*
X8770Y344489D01*
X8716Y344420D01*
X8658Y344353D01*
X8598Y344288D01*
X8535Y344227D01*
X8469Y344168D01*
X8401Y344112D01*
X8330Y344059D01*
X8257Y344009D01*
X8182Y343963D01*
X8105Y343920D01*
X8026Y343880D01*
X7945Y343844D01*
X7863Y343812D01*
X7779Y343783D01*
X7695Y343758D01*
X7609Y343737D01*
X7522Y343719D01*
X7435Y343706D01*
X7347Y343696D01*
X7259Y343690D01*
X7171Y343688D01*
X7171Y343687D02*
X5174Y343687D01*
D10*
X18250Y322700D02*
X30950Y322700D01*
X37300Y316350D01*
X37300Y303650D01*
X30950Y297300D01*
X37300Y316350D02*
X43650Y322700D01*
X56350Y322700D01*
X62700Y316350D01*
X62700Y303650D01*
X56350Y297300D01*
X43650Y297300D01*
X37300Y303650D01*
X11900Y303650D02*
X11900Y316350D01*
X18250Y322700D01*
X11900Y303650D02*
X18250Y297300D01*
X30950Y297300D01*
X62700Y316350D02*
X69050Y322700D01*
X81750Y322700D01*
X88100Y316350D01*
X88100Y303650D01*
X81750Y297300D01*
X69050Y297300D01*
X62700Y303650D01*
D11*
X6952Y315330D02*
X4956Y308342D01*
X9947Y308342D01*
X8450Y310339D02*
X8450Y306346D01*
D14*
X116000Y336000D02*
X150000Y336000D01*
X116000Y336000D02*
X116000Y294000D01*
X150000Y294000D01*
X150000Y336000D01*
X150000Y266000D02*
X116000Y266000D01*
X116000Y224000D01*
X150000Y224000D01*
X150000Y266000D01*
D13*
X34898Y507254D02*
X34898Y511746D01*
X34399Y507254D02*
X35397Y507254D01*
X35397Y511746D02*
X34399Y511746D01*
X37251Y510498D02*
X37251Y508502D01*
X37250Y510498D02*
X37252Y510567D01*
X37258Y510635D01*
X37267Y510703D01*
X37280Y510771D01*
X37297Y510838D01*
X37318Y510903D01*
X37342Y510968D01*
X37369Y511031D01*
X37400Y511092D01*
X37435Y511152D01*
X37472Y511209D01*
X37513Y511265D01*
X37557Y511318D01*
X37603Y511368D01*
X37653Y511416D01*
X37705Y511461D01*
X37759Y511504D01*
X37815Y511543D01*
X37874Y511579D01*
X37934Y511612D01*
X37997Y511641D01*
X38060Y511667D01*
X38125Y511689D01*
X38192Y511708D01*
X38259Y511723D01*
X38327Y511734D01*
X38395Y511742D01*
X38464Y511746D01*
X38532Y511746D01*
X38601Y511742D01*
X38669Y511734D01*
X38737Y511723D01*
X38804Y511708D01*
X38871Y511689D01*
X38936Y511667D01*
X38999Y511641D01*
X39062Y511612D01*
X39122Y511579D01*
X39181Y511543D01*
X39237Y511504D01*
X39291Y511461D01*
X39343Y511416D01*
X39393Y511368D01*
X39439Y511318D01*
X39483Y511265D01*
X39524Y511209D01*
X39561Y511152D01*
X39596Y511092D01*
X39627Y511031D01*
X39654Y510968D01*
X39678Y510903D01*
X39699Y510838D01*
X39716Y510771D01*
X39729Y510703D01*
X39738Y510635D01*
X39744Y510567D01*
X39746Y510498D01*
X39746Y508502D01*
X39744Y508433D01*
X39738Y508365D01*
X39729Y508297D01*
X39716Y508229D01*
X39699Y508162D01*
X39678Y508097D01*
X39654Y508032D01*
X39627Y507969D01*
X39596Y507908D01*
X39561Y507848D01*
X39524Y507791D01*
X39483Y507735D01*
X39439Y507682D01*
X39393Y507632D01*
X39343Y507584D01*
X39291Y507539D01*
X39237Y507496D01*
X39181Y507457D01*
X39122Y507421D01*
X39062Y507388D01*
X38999Y507359D01*
X38936Y507333D01*
X38871Y507311D01*
X38804Y507292D01*
X38737Y507277D01*
X38669Y507266D01*
X38601Y507258D01*
X38532Y507254D01*
X38464Y507254D01*
X38395Y507258D01*
X38327Y507266D01*
X38259Y507277D01*
X38192Y507292D01*
X38125Y507311D01*
X38060Y507333D01*
X37997Y507359D01*
X37934Y507388D01*
X37874Y507421D01*
X37815Y507457D01*
X37759Y507496D01*
X37705Y507539D01*
X37653Y507584D01*
X37603Y507632D01*
X37557Y507682D01*
X37513Y507735D01*
X37472Y507791D01*
X37435Y507848D01*
X37400Y507908D01*
X37369Y507969D01*
X37342Y508032D01*
X37318Y508097D01*
X37297Y508162D01*
X37280Y508229D01*
X37267Y508297D01*
X37258Y508365D01*
X37252Y508433D01*
X37250Y508502D01*
X43123Y511746D02*
X43188Y511744D01*
X43253Y511738D01*
X43318Y511729D01*
X43382Y511716D01*
X43445Y511699D01*
X43507Y511678D01*
X43568Y511654D01*
X43627Y511627D01*
X43685Y511596D01*
X43740Y511561D01*
X43794Y511524D01*
X43845Y511483D01*
X43894Y511440D01*
X43940Y511394D01*
X43983Y511345D01*
X44024Y511294D01*
X44061Y511240D01*
X44096Y511185D01*
X44127Y511127D01*
X44154Y511068D01*
X44178Y511007D01*
X44199Y510945D01*
X44216Y510882D01*
X44229Y510818D01*
X44238Y510753D01*
X44244Y510688D01*
X44246Y510623D01*
X43123Y511746D02*
X43050Y511744D01*
X42978Y511739D01*
X42906Y511730D01*
X42835Y511717D01*
X42764Y511701D01*
X42694Y511681D01*
X42625Y511657D01*
X42558Y511631D01*
X42492Y511601D01*
X42427Y511567D01*
X42365Y511531D01*
X42304Y511491D01*
X42245Y511448D01*
X42189Y511403D01*
X42135Y511354D01*
X42083Y511303D01*
X42034Y511250D01*
X41988Y511194D01*
X41944Y511136D01*
X41904Y511075D01*
X41867Y511013D01*
X41833Y510949D01*
X41802Y510883D01*
X41774Y510816D01*
X41750Y510748D01*
X43872Y509750D02*
X43918Y509796D01*
X43961Y509844D01*
X44002Y509895D01*
X44040Y509948D01*
X44075Y510003D01*
X44106Y510060D01*
X44135Y510118D01*
X44161Y510178D01*
X44183Y510239D01*
X44202Y510301D01*
X44218Y510365D01*
X44230Y510429D01*
X44239Y510493D01*
X44244Y510558D01*
X44246Y510623D01*
X43872Y509750D02*
X41751Y507254D01*
X44246Y507254D01*
X46250Y507254D02*
X47748Y507254D01*
X47808Y507256D01*
X47868Y507261D01*
X47928Y507270D01*
X47987Y507283D01*
X48045Y507299D01*
X48102Y507319D01*
X48158Y507342D01*
X48212Y507368D01*
X48264Y507398D01*
X48315Y507431D01*
X48363Y507466D01*
X48410Y507505D01*
X48454Y507546D01*
X48495Y507590D01*
X48534Y507637D01*
X48569Y507685D01*
X48602Y507736D01*
X48632Y507788D01*
X48658Y507842D01*
X48681Y507898D01*
X48701Y507955D01*
X48717Y508013D01*
X48730Y508072D01*
X48739Y508132D01*
X48744Y508192D01*
X48746Y508252D01*
X48746Y508751D01*
X48744Y508811D01*
X48739Y508871D01*
X48730Y508931D01*
X48717Y508990D01*
X48701Y509048D01*
X48681Y509105D01*
X48658Y509161D01*
X48632Y509215D01*
X48602Y509267D01*
X48569Y509318D01*
X48534Y509366D01*
X48495Y509413D01*
X48454Y509457D01*
X48410Y509498D01*
X48363Y509537D01*
X48315Y509572D01*
X48264Y509605D01*
X48212Y509635D01*
X48158Y509661D01*
X48102Y509684D01*
X48045Y509704D01*
X47987Y509720D01*
X47928Y509733D01*
X47868Y509742D01*
X47808Y509747D01*
X47748Y509749D01*
X47748Y509750D02*
X46250Y509750D01*
X46250Y511746D01*
X48746Y511746D01*
X34898Y494746D02*
X34898Y490254D01*
X34399Y490254D02*
X35397Y490254D01*
X35397Y494746D02*
X34399Y494746D01*
X37251Y493498D02*
X37251Y491502D01*
X37250Y493498D02*
X37252Y493567D01*
X37258Y493635D01*
X37267Y493703D01*
X37280Y493771D01*
X37297Y493838D01*
X37318Y493903D01*
X37342Y493968D01*
X37369Y494031D01*
X37400Y494092D01*
X37435Y494152D01*
X37472Y494209D01*
X37513Y494265D01*
X37557Y494318D01*
X37603Y494368D01*
X37653Y494416D01*
X37705Y494461D01*
X37759Y494504D01*
X37815Y494543D01*
X37874Y494579D01*
X37934Y494612D01*
X37997Y494641D01*
X38060Y494667D01*
X38125Y494689D01*
X38192Y494708D01*
X38259Y494723D01*
X38327Y494734D01*
X38395Y494742D01*
X38464Y494746D01*
X38532Y494746D01*
X38601Y494742D01*
X38669Y494734D01*
X38737Y494723D01*
X38804Y494708D01*
X38871Y494689D01*
X38936Y494667D01*
X38999Y494641D01*
X39062Y494612D01*
X39122Y494579D01*
X39181Y494543D01*
X39237Y494504D01*
X39291Y494461D01*
X39343Y494416D01*
X39393Y494368D01*
X39439Y494318D01*
X39483Y494265D01*
X39524Y494209D01*
X39561Y494152D01*
X39596Y494092D01*
X39627Y494031D01*
X39654Y493968D01*
X39678Y493903D01*
X39699Y493838D01*
X39716Y493771D01*
X39729Y493703D01*
X39738Y493635D01*
X39744Y493567D01*
X39746Y493498D01*
X39746Y491502D01*
X39744Y491433D01*
X39738Y491365D01*
X39729Y491297D01*
X39716Y491229D01*
X39699Y491162D01*
X39678Y491097D01*
X39654Y491032D01*
X39627Y490969D01*
X39596Y490908D01*
X39561Y490848D01*
X39524Y490791D01*
X39483Y490735D01*
X39439Y490682D01*
X39393Y490632D01*
X39343Y490584D01*
X39291Y490539D01*
X39237Y490496D01*
X39181Y490457D01*
X39122Y490421D01*
X39062Y490388D01*
X38999Y490359D01*
X38936Y490333D01*
X38871Y490311D01*
X38804Y490292D01*
X38737Y490277D01*
X38669Y490266D01*
X38601Y490258D01*
X38532Y490254D01*
X38464Y490254D01*
X38395Y490258D01*
X38327Y490266D01*
X38259Y490277D01*
X38192Y490292D01*
X38125Y490311D01*
X38060Y490333D01*
X37997Y490359D01*
X37934Y490388D01*
X37874Y490421D01*
X37815Y490457D01*
X37759Y490496D01*
X37705Y490539D01*
X37653Y490584D01*
X37603Y490632D01*
X37557Y490682D01*
X37513Y490735D01*
X37472Y490791D01*
X37435Y490848D01*
X37400Y490908D01*
X37369Y490969D01*
X37342Y491032D01*
X37318Y491097D01*
X37297Y491162D01*
X37280Y491229D01*
X37267Y491297D01*
X37258Y491365D01*
X37252Y491433D01*
X37250Y491502D01*
X43123Y494746D02*
X43188Y494744D01*
X43253Y494738D01*
X43318Y494729D01*
X43382Y494716D01*
X43445Y494699D01*
X43507Y494678D01*
X43568Y494654D01*
X43627Y494627D01*
X43685Y494596D01*
X43740Y494561D01*
X43794Y494524D01*
X43845Y494483D01*
X43894Y494440D01*
X43940Y494394D01*
X43983Y494345D01*
X44024Y494294D01*
X44061Y494240D01*
X44096Y494185D01*
X44127Y494127D01*
X44154Y494068D01*
X44178Y494007D01*
X44199Y493945D01*
X44216Y493882D01*
X44229Y493818D01*
X44238Y493753D01*
X44244Y493688D01*
X44246Y493623D01*
X43123Y494746D02*
X43050Y494744D01*
X42978Y494739D01*
X42906Y494730D01*
X42835Y494717D01*
X42764Y494701D01*
X42694Y494681D01*
X42625Y494657D01*
X42558Y494631D01*
X42492Y494601D01*
X42427Y494567D01*
X42365Y494531D01*
X42304Y494491D01*
X42245Y494448D01*
X42189Y494403D01*
X42135Y494354D01*
X42083Y494303D01*
X42034Y494250D01*
X41988Y494194D01*
X41944Y494136D01*
X41904Y494075D01*
X41867Y494013D01*
X41833Y493949D01*
X41802Y493883D01*
X41774Y493816D01*
X41750Y493748D01*
X43872Y492750D02*
X43918Y492796D01*
X43961Y492844D01*
X44002Y492895D01*
X44040Y492948D01*
X44075Y493003D01*
X44106Y493060D01*
X44135Y493118D01*
X44161Y493178D01*
X44183Y493239D01*
X44202Y493301D01*
X44218Y493365D01*
X44230Y493429D01*
X44239Y493493D01*
X44244Y493558D01*
X44246Y493623D01*
X43872Y492750D02*
X41751Y490254D01*
X44246Y490254D01*
X46250Y492750D02*
X47748Y492750D01*
X47748Y492749D02*
X47808Y492747D01*
X47868Y492742D01*
X47928Y492733D01*
X47987Y492720D01*
X48045Y492704D01*
X48102Y492684D01*
X48158Y492661D01*
X48212Y492635D01*
X48264Y492605D01*
X48315Y492572D01*
X48363Y492537D01*
X48410Y492498D01*
X48454Y492457D01*
X48495Y492413D01*
X48534Y492366D01*
X48569Y492318D01*
X48602Y492267D01*
X48632Y492215D01*
X48658Y492161D01*
X48681Y492105D01*
X48701Y492048D01*
X48717Y491990D01*
X48730Y491931D01*
X48739Y491871D01*
X48744Y491811D01*
X48746Y491751D01*
X48746Y491502D01*
X48744Y491433D01*
X48738Y491365D01*
X48729Y491297D01*
X48716Y491229D01*
X48699Y491162D01*
X48678Y491097D01*
X48654Y491032D01*
X48627Y490969D01*
X48596Y490908D01*
X48561Y490848D01*
X48524Y490791D01*
X48483Y490735D01*
X48439Y490682D01*
X48393Y490632D01*
X48343Y490584D01*
X48291Y490539D01*
X48237Y490496D01*
X48181Y490457D01*
X48122Y490421D01*
X48062Y490388D01*
X47999Y490359D01*
X47936Y490333D01*
X47871Y490311D01*
X47804Y490292D01*
X47737Y490277D01*
X47669Y490266D01*
X47601Y490258D01*
X47532Y490254D01*
X47464Y490254D01*
X47395Y490258D01*
X47327Y490266D01*
X47259Y490277D01*
X47192Y490292D01*
X47125Y490311D01*
X47060Y490333D01*
X46997Y490359D01*
X46934Y490388D01*
X46874Y490421D01*
X46815Y490457D01*
X46759Y490496D01*
X46705Y490539D01*
X46653Y490584D01*
X46603Y490632D01*
X46557Y490682D01*
X46513Y490735D01*
X46472Y490791D01*
X46435Y490848D01*
X46400Y490908D01*
X46369Y490969D01*
X46342Y491032D01*
X46318Y491097D01*
X46297Y491162D01*
X46280Y491229D01*
X46267Y491297D01*
X46258Y491365D01*
X46252Y491433D01*
X46250Y491502D01*
X46250Y492750D01*
X46251Y492750D02*
X46253Y492837D01*
X46259Y492924D01*
X46268Y493011D01*
X46281Y493097D01*
X46298Y493182D01*
X46319Y493267D01*
X46343Y493350D01*
X46371Y493433D01*
X46403Y493514D01*
X46438Y493594D01*
X46477Y493672D01*
X46518Y493748D01*
X46564Y493822D01*
X46612Y493895D01*
X46663Y493965D01*
X46718Y494033D01*
X46775Y494098D01*
X46836Y494161D01*
X46899Y494222D01*
X46964Y494279D01*
X47032Y494334D01*
X47102Y494385D01*
X47175Y494433D01*
X47249Y494479D01*
X47325Y494520D01*
X47403Y494559D01*
X47483Y494594D01*
X47564Y494626D01*
X47647Y494654D01*
X47730Y494678D01*
X47815Y494699D01*
X47900Y494716D01*
X47986Y494729D01*
X48073Y494738D01*
X48160Y494744D01*
X48247Y494746D01*
X34898Y476746D02*
X34898Y472254D01*
X34399Y472254D02*
X35397Y472254D01*
X35397Y476746D02*
X34399Y476746D01*
X37251Y475498D02*
X37251Y473502D01*
X37250Y475498D02*
X37252Y475567D01*
X37258Y475635D01*
X37267Y475703D01*
X37280Y475771D01*
X37297Y475838D01*
X37318Y475903D01*
X37342Y475968D01*
X37369Y476031D01*
X37400Y476092D01*
X37435Y476152D01*
X37472Y476209D01*
X37513Y476265D01*
X37557Y476318D01*
X37603Y476368D01*
X37653Y476416D01*
X37705Y476461D01*
X37759Y476504D01*
X37815Y476543D01*
X37874Y476579D01*
X37934Y476612D01*
X37997Y476641D01*
X38060Y476667D01*
X38125Y476689D01*
X38192Y476708D01*
X38259Y476723D01*
X38327Y476734D01*
X38395Y476742D01*
X38464Y476746D01*
X38532Y476746D01*
X38601Y476742D01*
X38669Y476734D01*
X38737Y476723D01*
X38804Y476708D01*
X38871Y476689D01*
X38936Y476667D01*
X38999Y476641D01*
X39062Y476612D01*
X39122Y476579D01*
X39181Y476543D01*
X39237Y476504D01*
X39291Y476461D01*
X39343Y476416D01*
X39393Y476368D01*
X39439Y476318D01*
X39483Y476265D01*
X39524Y476209D01*
X39561Y476152D01*
X39596Y476092D01*
X39627Y476031D01*
X39654Y475968D01*
X39678Y475903D01*
X39699Y475838D01*
X39716Y475771D01*
X39729Y475703D01*
X39738Y475635D01*
X39744Y475567D01*
X39746Y475498D01*
X39746Y473502D01*
X39744Y473433D01*
X39738Y473365D01*
X39729Y473297D01*
X39716Y473229D01*
X39699Y473162D01*
X39678Y473097D01*
X39654Y473032D01*
X39627Y472969D01*
X39596Y472908D01*
X39561Y472848D01*
X39524Y472791D01*
X39483Y472735D01*
X39439Y472682D01*
X39393Y472632D01*
X39343Y472584D01*
X39291Y472539D01*
X39237Y472496D01*
X39181Y472457D01*
X39122Y472421D01*
X39062Y472388D01*
X38999Y472359D01*
X38936Y472333D01*
X38871Y472311D01*
X38804Y472292D01*
X38737Y472277D01*
X38669Y472266D01*
X38601Y472258D01*
X38532Y472254D01*
X38464Y472254D01*
X38395Y472258D01*
X38327Y472266D01*
X38259Y472277D01*
X38192Y472292D01*
X38125Y472311D01*
X38060Y472333D01*
X37997Y472359D01*
X37934Y472388D01*
X37874Y472421D01*
X37815Y472457D01*
X37759Y472496D01*
X37705Y472539D01*
X37653Y472584D01*
X37603Y472632D01*
X37557Y472682D01*
X37513Y472735D01*
X37472Y472791D01*
X37435Y472848D01*
X37400Y472908D01*
X37369Y472969D01*
X37342Y473032D01*
X37318Y473097D01*
X37297Y473162D01*
X37280Y473229D01*
X37267Y473297D01*
X37258Y473365D01*
X37252Y473433D01*
X37250Y473502D01*
X43123Y476746D02*
X43188Y476744D01*
X43253Y476738D01*
X43318Y476729D01*
X43382Y476716D01*
X43445Y476699D01*
X43507Y476678D01*
X43568Y476654D01*
X43627Y476627D01*
X43685Y476596D01*
X43740Y476561D01*
X43794Y476524D01*
X43845Y476483D01*
X43894Y476440D01*
X43940Y476394D01*
X43983Y476345D01*
X44024Y476294D01*
X44061Y476240D01*
X44096Y476185D01*
X44127Y476127D01*
X44154Y476068D01*
X44178Y476007D01*
X44199Y475945D01*
X44216Y475882D01*
X44229Y475818D01*
X44238Y475753D01*
X44244Y475688D01*
X44246Y475623D01*
X43123Y476746D02*
X43050Y476744D01*
X42978Y476739D01*
X42906Y476730D01*
X42835Y476717D01*
X42764Y476701D01*
X42694Y476681D01*
X42625Y476657D01*
X42558Y476631D01*
X42492Y476601D01*
X42427Y476567D01*
X42365Y476531D01*
X42304Y476491D01*
X42245Y476448D01*
X42189Y476403D01*
X42135Y476354D01*
X42083Y476303D01*
X42034Y476250D01*
X41988Y476194D01*
X41944Y476136D01*
X41904Y476075D01*
X41867Y476013D01*
X41833Y475949D01*
X41802Y475883D01*
X41774Y475816D01*
X41750Y475748D01*
X43872Y474750D02*
X43918Y474796D01*
X43961Y474844D01*
X44002Y474895D01*
X44040Y474948D01*
X44075Y475003D01*
X44106Y475060D01*
X44135Y475118D01*
X44161Y475178D01*
X44183Y475239D01*
X44202Y475301D01*
X44218Y475365D01*
X44230Y475429D01*
X44239Y475493D01*
X44244Y475558D01*
X44246Y475623D01*
X43872Y474750D02*
X41751Y472254D01*
X44246Y472254D01*
X46250Y476247D02*
X46250Y476746D01*
X48746Y476746D01*
X47498Y472254D01*
X34898Y458746D02*
X34898Y454254D01*
X34399Y454254D02*
X35397Y454254D01*
X35397Y458746D02*
X34399Y458746D01*
X37251Y457498D02*
X37251Y455502D01*
X37250Y457498D02*
X37252Y457567D01*
X37258Y457635D01*
X37267Y457703D01*
X37280Y457771D01*
X37297Y457838D01*
X37318Y457903D01*
X37342Y457968D01*
X37369Y458031D01*
X37400Y458092D01*
X37435Y458152D01*
X37472Y458209D01*
X37513Y458265D01*
X37557Y458318D01*
X37603Y458368D01*
X37653Y458416D01*
X37705Y458461D01*
X37759Y458504D01*
X37815Y458543D01*
X37874Y458579D01*
X37934Y458612D01*
X37997Y458641D01*
X38060Y458667D01*
X38125Y458689D01*
X38192Y458708D01*
X38259Y458723D01*
X38327Y458734D01*
X38395Y458742D01*
X38464Y458746D01*
X38532Y458746D01*
X38601Y458742D01*
X38669Y458734D01*
X38737Y458723D01*
X38804Y458708D01*
X38871Y458689D01*
X38936Y458667D01*
X38999Y458641D01*
X39062Y458612D01*
X39122Y458579D01*
X39181Y458543D01*
X39237Y458504D01*
X39291Y458461D01*
X39343Y458416D01*
X39393Y458368D01*
X39439Y458318D01*
X39483Y458265D01*
X39524Y458209D01*
X39561Y458152D01*
X39596Y458092D01*
X39627Y458031D01*
X39654Y457968D01*
X39678Y457903D01*
X39699Y457838D01*
X39716Y457771D01*
X39729Y457703D01*
X39738Y457635D01*
X39744Y457567D01*
X39746Y457498D01*
X39746Y455502D01*
X39744Y455433D01*
X39738Y455365D01*
X39729Y455297D01*
X39716Y455229D01*
X39699Y455162D01*
X39678Y455097D01*
X39654Y455032D01*
X39627Y454969D01*
X39596Y454908D01*
X39561Y454848D01*
X39524Y454791D01*
X39483Y454735D01*
X39439Y454682D01*
X39393Y454632D01*
X39343Y454584D01*
X39291Y454539D01*
X39237Y454496D01*
X39181Y454457D01*
X39122Y454421D01*
X39062Y454388D01*
X38999Y454359D01*
X38936Y454333D01*
X38871Y454311D01*
X38804Y454292D01*
X38737Y454277D01*
X38669Y454266D01*
X38601Y454258D01*
X38532Y454254D01*
X38464Y454254D01*
X38395Y454258D01*
X38327Y454266D01*
X38259Y454277D01*
X38192Y454292D01*
X38125Y454311D01*
X38060Y454333D01*
X37997Y454359D01*
X37934Y454388D01*
X37874Y454421D01*
X37815Y454457D01*
X37759Y454496D01*
X37705Y454539D01*
X37653Y454584D01*
X37603Y454632D01*
X37557Y454682D01*
X37513Y454735D01*
X37472Y454791D01*
X37435Y454848D01*
X37400Y454908D01*
X37369Y454969D01*
X37342Y455032D01*
X37318Y455097D01*
X37297Y455162D01*
X37280Y455229D01*
X37267Y455297D01*
X37258Y455365D01*
X37252Y455433D01*
X37250Y455502D01*
X41751Y454254D02*
X42998Y454254D01*
X43067Y454256D01*
X43135Y454262D01*
X43203Y454271D01*
X43271Y454284D01*
X43338Y454301D01*
X43403Y454322D01*
X43468Y454346D01*
X43531Y454373D01*
X43592Y454404D01*
X43652Y454439D01*
X43709Y454476D01*
X43765Y454517D01*
X43818Y454561D01*
X43868Y454607D01*
X43916Y454657D01*
X43961Y454709D01*
X44004Y454763D01*
X44043Y454819D01*
X44079Y454878D01*
X44112Y454938D01*
X44141Y455001D01*
X44167Y455064D01*
X44189Y455129D01*
X44208Y455196D01*
X44223Y455263D01*
X44234Y455331D01*
X44242Y455399D01*
X44246Y455468D01*
X44246Y455536D01*
X44242Y455605D01*
X44234Y455673D01*
X44223Y455741D01*
X44208Y455808D01*
X44189Y455875D01*
X44167Y455940D01*
X44141Y456003D01*
X44112Y456066D01*
X44079Y456126D01*
X44043Y456185D01*
X44004Y456241D01*
X43961Y456295D01*
X43916Y456347D01*
X43868Y456397D01*
X43818Y456443D01*
X43765Y456487D01*
X43709Y456528D01*
X43652Y456565D01*
X43592Y456600D01*
X43531Y456631D01*
X43468Y456658D01*
X43403Y456682D01*
X43338Y456703D01*
X43271Y456720D01*
X43203Y456733D01*
X43135Y456742D01*
X43067Y456748D01*
X42998Y456750D01*
X43248Y458746D02*
X41751Y458746D01*
X43248Y458746D02*
X43309Y458744D01*
X43371Y458738D01*
X43431Y458729D01*
X43491Y458716D01*
X43551Y458699D01*
X43609Y458679D01*
X43665Y458655D01*
X43720Y458627D01*
X43773Y458597D01*
X43825Y458563D01*
X43874Y458526D01*
X43920Y458486D01*
X43964Y458443D01*
X44006Y458397D01*
X44044Y458349D01*
X44080Y458299D01*
X44112Y458247D01*
X44141Y458193D01*
X44167Y458137D01*
X44189Y458080D01*
X44208Y458021D01*
X44223Y457962D01*
X44234Y457901D01*
X44242Y457840D01*
X44246Y457779D01*
X44246Y457717D01*
X44242Y457656D01*
X44234Y457595D01*
X44223Y457534D01*
X44208Y457475D01*
X44189Y457416D01*
X44167Y457359D01*
X44141Y457303D01*
X44112Y457249D01*
X44080Y457197D01*
X44044Y457147D01*
X44006Y457099D01*
X43964Y457053D01*
X43920Y457010D01*
X43874Y456970D01*
X43825Y456933D01*
X43773Y456899D01*
X43720Y456869D01*
X43665Y456841D01*
X43609Y456817D01*
X43551Y456797D01*
X43491Y456780D01*
X43431Y456767D01*
X43371Y456758D01*
X43309Y456752D01*
X43248Y456750D01*
X42250Y456750D01*
X47623Y458746D02*
X47688Y458744D01*
X47753Y458738D01*
X47818Y458729D01*
X47882Y458716D01*
X47945Y458699D01*
X48007Y458678D01*
X48068Y458654D01*
X48127Y458627D01*
X48185Y458596D01*
X48240Y458561D01*
X48294Y458524D01*
X48345Y458483D01*
X48394Y458440D01*
X48440Y458394D01*
X48483Y458345D01*
X48524Y458294D01*
X48561Y458240D01*
X48596Y458185D01*
X48627Y458127D01*
X48654Y458068D01*
X48678Y458007D01*
X48699Y457945D01*
X48716Y457882D01*
X48729Y457818D01*
X48738Y457753D01*
X48744Y457688D01*
X48746Y457623D01*
X47623Y458746D02*
X47550Y458744D01*
X47478Y458739D01*
X47406Y458730D01*
X47335Y458717D01*
X47264Y458701D01*
X47194Y458681D01*
X47125Y458657D01*
X47058Y458631D01*
X46992Y458601D01*
X46927Y458567D01*
X46865Y458531D01*
X46804Y458491D01*
X46745Y458448D01*
X46689Y458403D01*
X46635Y458354D01*
X46583Y458303D01*
X46534Y458250D01*
X46488Y458194D01*
X46444Y458136D01*
X46404Y458075D01*
X46367Y458013D01*
X46333Y457949D01*
X46302Y457883D01*
X46274Y457816D01*
X46250Y457748D01*
X48372Y456750D02*
X48418Y456796D01*
X48461Y456844D01*
X48502Y456895D01*
X48540Y456948D01*
X48575Y457003D01*
X48606Y457060D01*
X48635Y457118D01*
X48661Y457178D01*
X48683Y457239D01*
X48702Y457301D01*
X48718Y457365D01*
X48730Y457429D01*
X48739Y457493D01*
X48744Y457558D01*
X48746Y457623D01*
X48372Y456750D02*
X46250Y454254D01*
X48746Y454254D01*
X34898Y440746D02*
X34898Y436254D01*
X34399Y436254D02*
X35397Y436254D01*
X35397Y440746D02*
X34399Y440746D01*
X37251Y439498D02*
X37251Y437502D01*
X37250Y439498D02*
X37252Y439567D01*
X37258Y439635D01*
X37267Y439703D01*
X37280Y439771D01*
X37297Y439838D01*
X37318Y439903D01*
X37342Y439968D01*
X37369Y440031D01*
X37400Y440092D01*
X37435Y440152D01*
X37472Y440209D01*
X37513Y440265D01*
X37557Y440318D01*
X37603Y440368D01*
X37653Y440416D01*
X37705Y440461D01*
X37759Y440504D01*
X37815Y440543D01*
X37874Y440579D01*
X37934Y440612D01*
X37997Y440641D01*
X38060Y440667D01*
X38125Y440689D01*
X38192Y440708D01*
X38259Y440723D01*
X38327Y440734D01*
X38395Y440742D01*
X38464Y440746D01*
X38532Y440746D01*
X38601Y440742D01*
X38669Y440734D01*
X38737Y440723D01*
X38804Y440708D01*
X38871Y440689D01*
X38936Y440667D01*
X38999Y440641D01*
X39062Y440612D01*
X39122Y440579D01*
X39181Y440543D01*
X39237Y440504D01*
X39291Y440461D01*
X39343Y440416D01*
X39393Y440368D01*
X39439Y440318D01*
X39483Y440265D01*
X39524Y440209D01*
X39561Y440152D01*
X39596Y440092D01*
X39627Y440031D01*
X39654Y439968D01*
X39678Y439903D01*
X39699Y439838D01*
X39716Y439771D01*
X39729Y439703D01*
X39738Y439635D01*
X39744Y439567D01*
X39746Y439498D01*
X39746Y437502D01*
X39744Y437433D01*
X39738Y437365D01*
X39729Y437297D01*
X39716Y437229D01*
X39699Y437162D01*
X39678Y437097D01*
X39654Y437032D01*
X39627Y436969D01*
X39596Y436908D01*
X39561Y436848D01*
X39524Y436791D01*
X39483Y436735D01*
X39439Y436682D01*
X39393Y436632D01*
X39343Y436584D01*
X39291Y436539D01*
X39237Y436496D01*
X39181Y436457D01*
X39122Y436421D01*
X39062Y436388D01*
X38999Y436359D01*
X38936Y436333D01*
X38871Y436311D01*
X38804Y436292D01*
X38737Y436277D01*
X38669Y436266D01*
X38601Y436258D01*
X38532Y436254D01*
X38464Y436254D01*
X38395Y436258D01*
X38327Y436266D01*
X38259Y436277D01*
X38192Y436292D01*
X38125Y436311D01*
X38060Y436333D01*
X37997Y436359D01*
X37934Y436388D01*
X37874Y436421D01*
X37815Y436457D01*
X37759Y436496D01*
X37705Y436539D01*
X37653Y436584D01*
X37603Y436632D01*
X37557Y436682D01*
X37513Y436735D01*
X37472Y436791D01*
X37435Y436848D01*
X37400Y436908D01*
X37369Y436969D01*
X37342Y437032D01*
X37318Y437097D01*
X37297Y437162D01*
X37280Y437229D01*
X37267Y437297D01*
X37258Y437365D01*
X37252Y437433D01*
X37250Y437502D01*
X41751Y436254D02*
X42998Y436254D01*
X43067Y436256D01*
X43135Y436262D01*
X43203Y436271D01*
X43271Y436284D01*
X43338Y436301D01*
X43403Y436322D01*
X43468Y436346D01*
X43531Y436373D01*
X43592Y436404D01*
X43652Y436439D01*
X43709Y436476D01*
X43765Y436517D01*
X43818Y436561D01*
X43868Y436607D01*
X43916Y436657D01*
X43961Y436709D01*
X44004Y436763D01*
X44043Y436819D01*
X44079Y436878D01*
X44112Y436938D01*
X44141Y437001D01*
X44167Y437064D01*
X44189Y437129D01*
X44208Y437196D01*
X44223Y437263D01*
X44234Y437331D01*
X44242Y437399D01*
X44246Y437468D01*
X44246Y437536D01*
X44242Y437605D01*
X44234Y437673D01*
X44223Y437741D01*
X44208Y437808D01*
X44189Y437875D01*
X44167Y437940D01*
X44141Y438003D01*
X44112Y438066D01*
X44079Y438126D01*
X44043Y438185D01*
X44004Y438241D01*
X43961Y438295D01*
X43916Y438347D01*
X43868Y438397D01*
X43818Y438443D01*
X43765Y438487D01*
X43709Y438528D01*
X43652Y438565D01*
X43592Y438600D01*
X43531Y438631D01*
X43468Y438658D01*
X43403Y438682D01*
X43338Y438703D01*
X43271Y438720D01*
X43203Y438733D01*
X43135Y438742D01*
X43067Y438748D01*
X42998Y438750D01*
X43248Y440746D02*
X41751Y440746D01*
X43248Y440746D02*
X43309Y440744D01*
X43371Y440738D01*
X43431Y440729D01*
X43491Y440716D01*
X43551Y440699D01*
X43609Y440679D01*
X43665Y440655D01*
X43720Y440627D01*
X43773Y440597D01*
X43825Y440563D01*
X43874Y440526D01*
X43920Y440486D01*
X43964Y440443D01*
X44006Y440397D01*
X44044Y440349D01*
X44080Y440299D01*
X44112Y440247D01*
X44141Y440193D01*
X44167Y440137D01*
X44189Y440080D01*
X44208Y440021D01*
X44223Y439962D01*
X44234Y439901D01*
X44242Y439840D01*
X44246Y439779D01*
X44246Y439717D01*
X44242Y439656D01*
X44234Y439595D01*
X44223Y439534D01*
X44208Y439475D01*
X44189Y439416D01*
X44167Y439359D01*
X44141Y439303D01*
X44112Y439249D01*
X44080Y439197D01*
X44044Y439147D01*
X44006Y439099D01*
X43964Y439053D01*
X43920Y439010D01*
X43874Y438970D01*
X43825Y438933D01*
X43773Y438899D01*
X43720Y438869D01*
X43665Y438841D01*
X43609Y438817D01*
X43551Y438797D01*
X43491Y438780D01*
X43431Y438767D01*
X43371Y438758D01*
X43309Y438752D01*
X43248Y438750D01*
X42250Y438750D01*
X46250Y436254D02*
X47498Y436254D01*
X47567Y436256D01*
X47635Y436262D01*
X47703Y436271D01*
X47771Y436284D01*
X47838Y436301D01*
X47903Y436322D01*
X47968Y436346D01*
X48031Y436373D01*
X48092Y436404D01*
X48152Y436439D01*
X48209Y436476D01*
X48265Y436517D01*
X48318Y436561D01*
X48368Y436607D01*
X48416Y436657D01*
X48461Y436709D01*
X48504Y436763D01*
X48543Y436819D01*
X48579Y436878D01*
X48612Y436938D01*
X48641Y437001D01*
X48667Y437064D01*
X48689Y437129D01*
X48708Y437196D01*
X48723Y437263D01*
X48734Y437331D01*
X48742Y437399D01*
X48746Y437468D01*
X48746Y437536D01*
X48742Y437605D01*
X48734Y437673D01*
X48723Y437741D01*
X48708Y437808D01*
X48689Y437875D01*
X48667Y437940D01*
X48641Y438003D01*
X48612Y438066D01*
X48579Y438126D01*
X48543Y438185D01*
X48504Y438241D01*
X48461Y438295D01*
X48416Y438347D01*
X48368Y438397D01*
X48318Y438443D01*
X48265Y438487D01*
X48209Y438528D01*
X48152Y438565D01*
X48092Y438600D01*
X48031Y438631D01*
X47968Y438658D01*
X47903Y438682D01*
X47838Y438703D01*
X47771Y438720D01*
X47703Y438733D01*
X47635Y438742D01*
X47567Y438748D01*
X47498Y438750D01*
X47748Y440746D02*
X46250Y440746D01*
X47748Y440746D02*
X47809Y440744D01*
X47871Y440738D01*
X47931Y440729D01*
X47991Y440716D01*
X48051Y440699D01*
X48109Y440679D01*
X48165Y440655D01*
X48220Y440627D01*
X48273Y440597D01*
X48325Y440563D01*
X48374Y440526D01*
X48420Y440486D01*
X48464Y440443D01*
X48506Y440397D01*
X48544Y440349D01*
X48580Y440299D01*
X48612Y440247D01*
X48641Y440193D01*
X48667Y440137D01*
X48689Y440080D01*
X48708Y440021D01*
X48723Y439962D01*
X48734Y439901D01*
X48742Y439840D01*
X48746Y439779D01*
X48746Y439717D01*
X48742Y439656D01*
X48734Y439595D01*
X48723Y439534D01*
X48708Y439475D01*
X48689Y439416D01*
X48667Y439359D01*
X48641Y439303D01*
X48612Y439249D01*
X48580Y439197D01*
X48544Y439147D01*
X48506Y439099D01*
X48464Y439053D01*
X48420Y439010D01*
X48374Y438970D01*
X48325Y438933D01*
X48273Y438899D01*
X48220Y438869D01*
X48165Y438841D01*
X48109Y438817D01*
X48051Y438797D01*
X47991Y438780D01*
X47931Y438767D01*
X47871Y438758D01*
X47809Y438752D01*
X47748Y438750D01*
X46750Y438750D01*
M02*
