G04 EAGLE Gerber RS-274X export*
G75*
%MOMM*%
%FSLAX34Y34*%
%LPD*%
%INSolderpaste Top*%
%IPPOS*%
%AMOC8*
5,1,8,0,0,1.08239X$1,22.5*%
G01*
%ADD10R,1.000000X1.100000*%
%ADD11C,0.198000*%
%ADD12R,4.000000X4.000000*%
%ADD13R,1.600200X0.508000*%
%ADD14R,0.609600X0.889000*%
%ADD15R,1.701800X1.803400*%
%ADD16R,0.475000X0.250000*%
%ADD17R,0.250000X0.375000*%
%ADD18R,1.500000X1.300000*%
%ADD19R,1.300000X1.500000*%
%ADD20R,1.300000X1.900000*%
%ADD21R,1.500000X1.200000*%
%ADD22R,1.350000X0.800000*%
%ADD23C,0.127000*%
%ADD24R,1.761200X0.850800*%
%ADD25R,1.761200X3.150800*%
%ADD26R,1.000000X0.900000*%
%ADD27R,2.540000X1.270000*%


D10*
X98100Y276600D03*
X98100Y293600D03*
D11*
X68010Y15540D02*
X52990Y15540D01*
X52990Y22560D01*
X68010Y22560D01*
X68010Y15540D01*
X68010Y17421D02*
X52990Y17421D01*
X52990Y19302D02*
X68010Y19302D01*
X68010Y21183D02*
X52990Y21183D01*
X52990Y28240D02*
X68010Y28240D01*
X52990Y28240D02*
X52990Y35260D01*
X68010Y35260D01*
X68010Y28240D01*
X68010Y30121D02*
X52990Y30121D01*
X52990Y32002D02*
X68010Y32002D01*
X68010Y33883D02*
X52990Y33883D01*
X52990Y40940D02*
X68010Y40940D01*
X52990Y40940D02*
X52990Y47960D01*
X68010Y47960D01*
X68010Y40940D01*
X68010Y42821D02*
X52990Y42821D01*
X52990Y44702D02*
X68010Y44702D01*
X68010Y46583D02*
X52990Y46583D01*
X52990Y53640D02*
X68010Y53640D01*
X52990Y53640D02*
X52990Y60660D01*
X68010Y60660D01*
X68010Y53640D01*
X68010Y55521D02*
X52990Y55521D01*
X52990Y57402D02*
X68010Y57402D01*
X68010Y59283D02*
X52990Y59283D01*
X52990Y66340D02*
X68010Y66340D01*
X52990Y66340D02*
X52990Y73360D01*
X68010Y73360D01*
X68010Y66340D01*
X68010Y68221D02*
X52990Y68221D01*
X52990Y70102D02*
X68010Y70102D01*
X68010Y71983D02*
X52990Y71983D01*
X52990Y79040D02*
X68010Y79040D01*
X52990Y79040D02*
X52990Y86060D01*
X68010Y86060D01*
X68010Y79040D01*
X68010Y80921D02*
X52990Y80921D01*
X52990Y82802D02*
X68010Y82802D01*
X68010Y84683D02*
X52990Y84683D01*
X52990Y91740D02*
X68010Y91740D01*
X52990Y91740D02*
X52990Y98760D01*
X68010Y98760D01*
X68010Y91740D01*
X68010Y93621D02*
X52990Y93621D01*
X52990Y95502D02*
X68010Y95502D01*
X68010Y97383D02*
X52990Y97383D01*
X52990Y104440D02*
X68010Y104440D01*
X52990Y104440D02*
X52990Y111460D01*
X68010Y111460D01*
X68010Y104440D01*
X68010Y106321D02*
X52990Y106321D01*
X52990Y108202D02*
X68010Y108202D01*
X68010Y110083D02*
X52990Y110083D01*
X52990Y117140D02*
X68010Y117140D01*
X52990Y117140D02*
X52990Y124160D01*
X68010Y124160D01*
X68010Y117140D01*
X68010Y119021D02*
X52990Y119021D01*
X52990Y120902D02*
X68010Y120902D01*
X68010Y122783D02*
X52990Y122783D01*
X52990Y129840D02*
X68010Y129840D01*
X52990Y129840D02*
X52990Y136860D01*
X68010Y136860D01*
X68010Y129840D01*
X68010Y131721D02*
X52990Y131721D01*
X52990Y133602D02*
X68010Y133602D01*
X68010Y135483D02*
X52990Y135483D01*
X52990Y142540D02*
X68010Y142540D01*
X52990Y142540D02*
X52990Y149560D01*
X68010Y149560D01*
X68010Y142540D01*
X68010Y144421D02*
X52990Y144421D01*
X52990Y146302D02*
X68010Y146302D01*
X68010Y148183D02*
X52990Y148183D01*
X52990Y155240D02*
X68010Y155240D01*
X52990Y155240D02*
X52990Y162260D01*
X68010Y162260D01*
X68010Y155240D01*
X68010Y157121D02*
X52990Y157121D01*
X52990Y159002D02*
X68010Y159002D01*
X68010Y160883D02*
X52990Y160883D01*
X52990Y167940D02*
X68010Y167940D01*
X52990Y167940D02*
X52990Y174960D01*
X68010Y174960D01*
X68010Y167940D01*
X68010Y169821D02*
X52990Y169821D01*
X52990Y171702D02*
X68010Y171702D01*
X68010Y173583D02*
X52990Y173583D01*
X52990Y180640D02*
X68010Y180640D01*
X52990Y180640D02*
X52990Y187660D01*
X68010Y187660D01*
X68010Y180640D01*
X68010Y182521D02*
X52990Y182521D01*
X52990Y184402D02*
X68010Y184402D01*
X68010Y186283D02*
X52990Y186283D01*
X89840Y191640D02*
X89840Y206660D01*
X96860Y206660D01*
X96860Y191640D01*
X89840Y191640D01*
X89840Y193521D02*
X96860Y193521D01*
X96860Y195402D02*
X89840Y195402D01*
X89840Y197283D02*
X96860Y197283D01*
X96860Y199164D02*
X89840Y199164D01*
X89840Y201045D02*
X96860Y201045D01*
X96860Y202926D02*
X89840Y202926D01*
X89840Y204807D02*
X96860Y204807D01*
X102540Y206660D02*
X102540Y191640D01*
X102540Y206660D02*
X109560Y206660D01*
X109560Y191640D01*
X102540Y191640D01*
X102540Y193521D02*
X109560Y193521D01*
X109560Y195402D02*
X102540Y195402D01*
X102540Y197283D02*
X109560Y197283D01*
X109560Y199164D02*
X102540Y199164D01*
X102540Y201045D02*
X109560Y201045D01*
X109560Y202926D02*
X102540Y202926D01*
X102540Y204807D02*
X109560Y204807D01*
X115240Y206660D02*
X115240Y191640D01*
X115240Y206660D02*
X122260Y206660D01*
X122260Y191640D01*
X115240Y191640D01*
X115240Y193521D02*
X122260Y193521D01*
X122260Y195402D02*
X115240Y195402D01*
X115240Y197283D02*
X122260Y197283D01*
X122260Y199164D02*
X115240Y199164D01*
X115240Y201045D02*
X122260Y201045D01*
X122260Y202926D02*
X115240Y202926D01*
X115240Y204807D02*
X122260Y204807D01*
X127940Y206660D02*
X127940Y191640D01*
X127940Y206660D02*
X134960Y206660D01*
X134960Y191640D01*
X127940Y191640D01*
X127940Y193521D02*
X134960Y193521D01*
X134960Y195402D02*
X127940Y195402D01*
X127940Y197283D02*
X134960Y197283D01*
X134960Y199164D02*
X127940Y199164D01*
X127940Y201045D02*
X134960Y201045D01*
X134960Y202926D02*
X127940Y202926D01*
X127940Y204807D02*
X134960Y204807D01*
X140640Y206660D02*
X140640Y191640D01*
X140640Y206660D02*
X147660Y206660D01*
X147660Y191640D01*
X140640Y191640D01*
X140640Y193521D02*
X147660Y193521D01*
X147660Y195402D02*
X140640Y195402D01*
X140640Y197283D02*
X147660Y197283D01*
X147660Y199164D02*
X140640Y199164D01*
X140640Y201045D02*
X147660Y201045D01*
X147660Y202926D02*
X140640Y202926D01*
X140640Y204807D02*
X147660Y204807D01*
X153340Y206660D02*
X153340Y191640D01*
X153340Y206660D02*
X160360Y206660D01*
X160360Y191640D01*
X153340Y191640D01*
X153340Y193521D02*
X160360Y193521D01*
X160360Y195402D02*
X153340Y195402D01*
X153340Y197283D02*
X160360Y197283D01*
X160360Y199164D02*
X153340Y199164D01*
X153340Y201045D02*
X160360Y201045D01*
X160360Y202926D02*
X153340Y202926D01*
X153340Y204807D02*
X160360Y204807D01*
X166040Y206660D02*
X166040Y191640D01*
X166040Y206660D02*
X173060Y206660D01*
X173060Y191640D01*
X166040Y191640D01*
X166040Y193521D02*
X173060Y193521D01*
X173060Y195402D02*
X166040Y195402D01*
X166040Y197283D02*
X173060Y197283D01*
X173060Y199164D02*
X166040Y199164D01*
X166040Y201045D02*
X173060Y201045D01*
X173060Y202926D02*
X166040Y202926D01*
X166040Y204807D02*
X173060Y204807D01*
X178740Y206660D02*
X178740Y191640D01*
X178740Y206660D02*
X185760Y206660D01*
X185760Y191640D01*
X178740Y191640D01*
X178740Y193521D02*
X185760Y193521D01*
X185760Y195402D02*
X178740Y195402D01*
X178740Y197283D02*
X185760Y197283D01*
X185760Y199164D02*
X178740Y199164D01*
X178740Y201045D02*
X185760Y201045D01*
X185760Y202926D02*
X178740Y202926D01*
X178740Y204807D02*
X185760Y204807D01*
X191440Y206660D02*
X191440Y191640D01*
X191440Y206660D02*
X198460Y206660D01*
X198460Y191640D01*
X191440Y191640D01*
X191440Y193521D02*
X198460Y193521D01*
X198460Y195402D02*
X191440Y195402D01*
X191440Y197283D02*
X198460Y197283D01*
X198460Y199164D02*
X191440Y199164D01*
X191440Y201045D02*
X198460Y201045D01*
X198460Y202926D02*
X191440Y202926D01*
X191440Y204807D02*
X198460Y204807D01*
X204140Y206660D02*
X204140Y191640D01*
X204140Y206660D02*
X211160Y206660D01*
X211160Y191640D01*
X204140Y191640D01*
X204140Y193521D02*
X211160Y193521D01*
X211160Y195402D02*
X204140Y195402D01*
X204140Y197283D02*
X211160Y197283D01*
X211160Y199164D02*
X204140Y199164D01*
X204140Y201045D02*
X211160Y201045D01*
X211160Y202926D02*
X204140Y202926D01*
X204140Y204807D02*
X211160Y204807D01*
X232990Y187660D02*
X248010Y187660D01*
X248010Y180640D01*
X232990Y180640D01*
X232990Y187660D01*
X232990Y182521D02*
X248010Y182521D01*
X248010Y184402D02*
X232990Y184402D01*
X232990Y186283D02*
X248010Y186283D01*
X248010Y174960D02*
X232990Y174960D01*
X248010Y174960D02*
X248010Y167940D01*
X232990Y167940D01*
X232990Y174960D01*
X232990Y169821D02*
X248010Y169821D01*
X248010Y171702D02*
X232990Y171702D01*
X232990Y173583D02*
X248010Y173583D01*
X248010Y162260D02*
X232990Y162260D01*
X248010Y162260D02*
X248010Y155240D01*
X232990Y155240D01*
X232990Y162260D01*
X232990Y157121D02*
X248010Y157121D01*
X248010Y159002D02*
X232990Y159002D01*
X232990Y160883D02*
X248010Y160883D01*
X248010Y149560D02*
X232990Y149560D01*
X248010Y149560D02*
X248010Y142540D01*
X232990Y142540D01*
X232990Y149560D01*
X232990Y144421D02*
X248010Y144421D01*
X248010Y146302D02*
X232990Y146302D01*
X232990Y148183D02*
X248010Y148183D01*
X248010Y136860D02*
X232990Y136860D01*
X248010Y136860D02*
X248010Y129840D01*
X232990Y129840D01*
X232990Y136860D01*
X232990Y131721D02*
X248010Y131721D01*
X248010Y133602D02*
X232990Y133602D01*
X232990Y135483D02*
X248010Y135483D01*
X248010Y124160D02*
X232990Y124160D01*
X248010Y124160D02*
X248010Y117140D01*
X232990Y117140D01*
X232990Y124160D01*
X232990Y119021D02*
X248010Y119021D01*
X248010Y120902D02*
X232990Y120902D01*
X232990Y122783D02*
X248010Y122783D01*
X248010Y111460D02*
X232990Y111460D01*
X248010Y111460D02*
X248010Y104440D01*
X232990Y104440D01*
X232990Y111460D01*
X232990Y106321D02*
X248010Y106321D01*
X248010Y108202D02*
X232990Y108202D01*
X232990Y110083D02*
X248010Y110083D01*
X248010Y98760D02*
X232990Y98760D01*
X248010Y98760D02*
X248010Y91740D01*
X232990Y91740D01*
X232990Y98760D01*
X232990Y93621D02*
X248010Y93621D01*
X248010Y95502D02*
X232990Y95502D01*
X232990Y97383D02*
X248010Y97383D01*
X248010Y86060D02*
X232990Y86060D01*
X248010Y86060D02*
X248010Y79040D01*
X232990Y79040D01*
X232990Y86060D01*
X232990Y80921D02*
X248010Y80921D01*
X248010Y82802D02*
X232990Y82802D01*
X232990Y84683D02*
X248010Y84683D01*
X248010Y73360D02*
X232990Y73360D01*
X248010Y73360D02*
X248010Y66340D01*
X232990Y66340D01*
X232990Y73360D01*
X232990Y68221D02*
X248010Y68221D01*
X248010Y70102D02*
X232990Y70102D01*
X232990Y71983D02*
X248010Y71983D01*
X248010Y60660D02*
X232990Y60660D01*
X248010Y60660D02*
X248010Y53640D01*
X232990Y53640D01*
X232990Y60660D01*
X232990Y55521D02*
X248010Y55521D01*
X248010Y57402D02*
X232990Y57402D01*
X232990Y59283D02*
X248010Y59283D01*
X248010Y47960D02*
X232990Y47960D01*
X248010Y47960D02*
X248010Y40940D01*
X232990Y40940D01*
X232990Y47960D01*
X232990Y42821D02*
X248010Y42821D01*
X248010Y44702D02*
X232990Y44702D01*
X232990Y46583D02*
X248010Y46583D01*
X248010Y35260D02*
X232990Y35260D01*
X248010Y35260D02*
X248010Y28240D01*
X232990Y28240D01*
X232990Y35260D01*
X232990Y30121D02*
X248010Y30121D01*
X248010Y32002D02*
X232990Y32002D01*
X232990Y33883D02*
X248010Y33883D01*
X248010Y22560D02*
X232990Y22560D01*
X248010Y22560D02*
X248010Y15540D01*
X232990Y15540D01*
X232990Y22560D01*
X232990Y17421D02*
X248010Y17421D01*
X248010Y19302D02*
X232990Y19302D01*
X232990Y21183D02*
X248010Y21183D01*
D12*
X157500Y93150D03*
D13*
X173800Y346400D03*
X173800Y330400D03*
X173800Y314400D03*
D14*
X198800Y358400D03*
X198800Y302400D03*
D15*
X222300Y345400D03*
X222300Y315400D03*
D13*
X173800Y265300D03*
X173800Y249300D03*
X173800Y233300D03*
D14*
X198800Y277300D03*
X198800Y221300D03*
D15*
X222300Y264300D03*
X222300Y234300D03*
D16*
X153125Y432800D03*
D17*
X161250Y432175D03*
X166250Y432175D03*
X171250Y432175D03*
X176250Y432175D03*
D16*
X184375Y432800D03*
X184375Y437800D03*
X184375Y442800D03*
X184375Y447800D03*
X184375Y452800D03*
X184375Y457800D03*
X184375Y462800D03*
X184375Y467800D03*
X184375Y472800D03*
X184375Y477800D03*
D17*
X176250Y478425D03*
X171250Y478425D03*
X166250Y478425D03*
X161250Y478425D03*
D16*
X153125Y477800D03*
X153125Y472800D03*
X153125Y467800D03*
X153125Y462800D03*
X153125Y457800D03*
X153125Y452800D03*
X153125Y447800D03*
X153125Y442800D03*
X153125Y437800D03*
D18*
X149700Y516870D03*
X149700Y497870D03*
X168750Y515600D03*
X168750Y496600D03*
D19*
X198620Y512450D03*
X217620Y512450D03*
X259530Y462920D03*
X240530Y462920D03*
X237990Y432440D03*
X256990Y432440D03*
D20*
X123860Y487810D03*
X68860Y487810D03*
X68860Y455810D03*
X123860Y455810D03*
D19*
X102100Y434980D03*
X121100Y434980D03*
X97020Y509910D03*
X116020Y509910D03*
X220160Y441330D03*
X201160Y441330D03*
D21*
X159860Y395270D03*
X159860Y416270D03*
X140810Y417540D03*
X140810Y396540D03*
D19*
X199890Y485780D03*
X218890Y485780D03*
D22*
X224630Y461650D03*
X199230Y461650D03*
D23*
X243935Y252855D02*
X268065Y252855D01*
X243935Y252855D02*
X243935Y276985D01*
X268065Y276985D01*
X268065Y252855D01*
X268065Y254061D02*
X243935Y254061D01*
X243935Y255267D02*
X268065Y255267D01*
X268065Y256473D02*
X243935Y256473D01*
X243935Y257679D02*
X268065Y257679D01*
X268065Y258885D02*
X243935Y258885D01*
X243935Y260091D02*
X268065Y260091D01*
X268065Y261297D02*
X243935Y261297D01*
X243935Y262503D02*
X268065Y262503D01*
X268065Y263709D02*
X243935Y263709D01*
X243935Y264915D02*
X268065Y264915D01*
X268065Y266121D02*
X243935Y266121D01*
X243935Y267327D02*
X268065Y267327D01*
X268065Y268533D02*
X243935Y268533D01*
X243935Y269739D02*
X268065Y269739D01*
X268065Y270945D02*
X243935Y270945D01*
X243935Y272151D02*
X268065Y272151D01*
X268065Y273357D02*
X243935Y273357D01*
X243935Y274563D02*
X268065Y274563D01*
X268065Y275769D02*
X243935Y275769D01*
X243935Y276975D02*
X268065Y276975D01*
X268065Y357665D02*
X243935Y357665D01*
X268065Y357665D02*
X268065Y333535D01*
X243935Y333535D01*
X243935Y357665D01*
X243935Y334741D02*
X268065Y334741D01*
X268065Y335947D02*
X243935Y335947D01*
X243935Y337153D02*
X268065Y337153D01*
X268065Y338359D02*
X243935Y338359D01*
X243935Y339565D02*
X268065Y339565D01*
X268065Y340771D02*
X243935Y340771D01*
X243935Y341977D02*
X268065Y341977D01*
X268065Y343183D02*
X243935Y343183D01*
X243935Y344389D02*
X268065Y344389D01*
X268065Y345595D02*
X243935Y345595D01*
X243935Y346801D02*
X268065Y346801D01*
X268065Y348007D02*
X243935Y348007D01*
X243935Y349213D02*
X268065Y349213D01*
X268065Y350419D02*
X243935Y350419D01*
X243935Y351625D02*
X268065Y351625D01*
X268065Y352831D02*
X243935Y352831D01*
X243935Y354037D02*
X268065Y354037D01*
X268065Y355243D02*
X243935Y355243D01*
X243935Y356449D02*
X268065Y356449D01*
X268065Y357655D02*
X243935Y357655D01*
X243935Y289085D02*
X268065Y289085D01*
X243935Y289085D02*
X243935Y313215D01*
X268065Y313215D01*
X268065Y289085D01*
X268065Y290291D02*
X243935Y290291D01*
X243935Y291497D02*
X268065Y291497D01*
X268065Y292703D02*
X243935Y292703D01*
X243935Y293909D02*
X268065Y293909D01*
X268065Y295115D02*
X243935Y295115D01*
X243935Y296321D02*
X268065Y296321D01*
X268065Y297527D02*
X243935Y297527D01*
X243935Y298733D02*
X268065Y298733D01*
X268065Y299939D02*
X243935Y299939D01*
X243935Y301145D02*
X268065Y301145D01*
X268065Y302351D02*
X243935Y302351D01*
X243935Y303557D02*
X268065Y303557D01*
X268065Y304763D02*
X243935Y304763D01*
X243935Y305969D02*
X268065Y305969D01*
X268065Y307175D02*
X243935Y307175D01*
X243935Y308381D02*
X268065Y308381D01*
X268065Y309587D02*
X243935Y309587D01*
X243935Y310793D02*
X268065Y310793D01*
X268065Y311999D02*
X243935Y311999D01*
X243935Y313205D02*
X268065Y313205D01*
X268065Y205555D02*
X243935Y205555D01*
X243935Y229685D01*
X268065Y229685D01*
X268065Y205555D01*
X268065Y206761D02*
X243935Y206761D01*
X243935Y207967D02*
X268065Y207967D01*
X268065Y209173D02*
X243935Y209173D01*
X243935Y210379D02*
X268065Y210379D01*
X268065Y211585D02*
X243935Y211585D01*
X243935Y212791D02*
X268065Y212791D01*
X268065Y213997D02*
X243935Y213997D01*
X243935Y215203D02*
X268065Y215203D01*
X268065Y216409D02*
X243935Y216409D01*
X243935Y217615D02*
X268065Y217615D01*
X268065Y218821D02*
X243935Y218821D01*
X243935Y220027D02*
X268065Y220027D01*
X268065Y221233D02*
X243935Y221233D01*
X243935Y222439D02*
X268065Y222439D01*
X268065Y223645D02*
X243935Y223645D01*
X243935Y224851D02*
X268065Y224851D01*
X268065Y226057D02*
X243935Y226057D01*
X243935Y227263D02*
X268065Y227263D01*
X268065Y228469D02*
X243935Y228469D01*
X243935Y229675D02*
X268065Y229675D01*
D24*
X26900Y265570D03*
X26900Y242570D03*
X26900Y219570D03*
D25*
X87400Y242570D03*
D26*
X125000Y335500D03*
X125000Y294500D03*
X141000Y294500D03*
X141000Y335500D03*
X125000Y265500D03*
X125000Y224500D03*
X141000Y224500D03*
X141000Y265500D03*
D27*
X20000Y510000D03*
X20000Y492000D03*
X20000Y474000D03*
X20000Y456000D03*
X20000Y438000D03*
M02*
